<svg id="Capa_1" enable-background="new 0 0 512 512" height="512" viewBox="0 0 512 512" width="512" xmlns="http://www.w3.org/2000/svg"><g><g><g><g fill="#c1a0a0"><path d="m66.756 504.5h-17.211c-4.201 0-7.607-3.406-7.607-7.607v-123.59h32.425v123.59c0 4.201-3.406 7.607-7.607 7.607z"/><path d="m462.552 504.5h-17.211c-4.201 0-7.607-3.406-7.607-7.607v-123.59h32.425v123.59c0 4.201-3.406 7.607-7.607 7.607z"/></g></g><g><g><g><g><g><g><path d="m227.299 325.582h-71.181l9.975-76.595h51.231z" fill="#c1bcc4"/><path d="m117.989 336.955c0-14.382 11.659-26.041 26.041-26.041h95.358c14.382 0 26.041 11.659 26.041 26.041 0 6.232-5.052 11.284-11.284 11.284h-124.872c-6.232 0-11.284-5.052-11.284-11.284z" fill="#f7f4f7"/><path d="m239.388 310.915h-65.35c14.382 0 26.041 11.659 26.041 26.041 0 6.232-5.052 11.284-11.284 11.284h65.35c6.232 0 11.284-5.052 11.284-11.284-.001-14.383-11.66-26.041-26.041-26.041z" fill="#e0dde0"/></g><g><g><path d="m358.185 275.647h-325.941c-13.514 0-24.468-10.955-24.468-24.468v-219.211c0-13.513 10.955-24.468 24.468-24.468h325.941c13.514 0 24.468 10.955 24.468 24.468v219.21c.001 13.514-10.954 24.469-24.468 24.469z" fill="#bed8fb"/><path d="m358.185 7.5h-65.564c13.514 0 24.469 10.955 24.469 24.468v219.21c0 13.514-10.955 24.469-24.469 24.469h65.564c13.514 0 24.468-10.955 24.468-24.469v-219.21c.001-13.513-10.954-24.468-24.468-24.468z" fill="#9dc6fb"/><path d="m7.776 231.899v19.28c0 13.514 10.955 24.468 24.468 24.468h325.941c13.514 0 24.468-10.955 24.468-24.468v-19.28z" fill="#f7f4f7"/><path d="m317.09 251.178c0 13.514-10.955 24.469-24.469 24.469h65.564c13.514 0 24.468-10.955 24.468-24.469v-19.28h-65.563z" fill="#e0dde0"/></g></g></g></g></g></g></g><g><circle cx="486.918" cy="207.245" fill="#665e66" r="17.5"/><g><path d="m428.627 142.855-48.785 26.976-23.633-42.739 48.785-26.976c9.861-5.453 22.275-1.879 27.728 7.982l3.887 7.029c5.453 9.861 1.879 22.275-7.982 27.728z" fill="#665e66"/><path d="m329.372 113.723 45.703 82.65c1.325 2.396 4.426 3.115 6.682 1.565 21.838-14.999 29.12-44.424 16.035-68.088s-41.878-33.141-66.193-22.619c-2.512 1.088-3.552 4.097-2.227 6.492z" fill="#756e78"/></g></g></g><g><path d="m477.571 349.565h-83.034v-10.936c0-10.414 8.442-18.856 18.856-18.856h45.322c10.414 0 18.856 8.442 18.856 18.856z" fill="#665e66"/><g><g><g><g><path d="m494.854 388.562h-477.804c-5.229 0-9.467-4.239-9.467-9.467v-21.388c0-5.229 4.239-9.467 9.467-9.467h477.804c5.229 0 9.467 4.239 9.467 9.467v21.388c0 5.228-4.239 9.467-9.467 9.467z" fill="#b58c8c"/></g></g></g></g><path d="m494.854 348.239h-65.35c5.229 0 9.467 4.239 9.467 9.467v21.388c0 5.229-4.239 9.467-9.467 9.467h65.35c5.229 0 9.467-4.238 9.467-9.467v-21.388c0-5.228-4.239-9.467-9.467-9.467z" fill="#a87f7f"/></g><path d="m494.854 340.739h-9.782v-2.11c0-14.532-11.823-26.355-26.356-26.355h-1.523l28.432-80.062c.429.022.86.033 1.294.033 13.785 0 25-11.215 25-24.999 0-13.785-11.215-25-25-25-4.699 0-9.097 1.305-12.856 3.569l-40.793-36.989c12.69-7.723 17.158-24.208 9.903-37.328l-3.887-7.027c-7.445-13.465-24.457-18.362-37.921-10.917l-18.59 10.28c-15.917-9.531-35.927-11.372-54.153-3.485-6.555 2.836-9.289 10.723-5.813 17.005l45.703 82.651c3.466 6.266 11.589 8.17 17.492 4.117 15.06-10.344 23.961-26.342 25.594-43.278l7.825-4.327 44.686 40.519c-1.402 3.12-2.189 6.574-2.189 10.21 0 8.003 3.785 15.134 9.653 19.713l-30.297 85.315h-27.881c-14.533 0-26.356 11.823-26.356 26.355v2.11h-114.494c.251-1.223.383-2.488.383-3.784 0-18.494-15.046-33.54-33.541-33.54h-7.412l-2.64-20.268h128.849c17.627 0 31.969-14.341 31.969-31.969v-19.28c0-4.143-3.358-7.5-7.5-7.5h-367.377v-192.429c0-9.357 7.612-16.969 16.968-16.969h325.941c9.356 0 16.969 7.612 16.969 16.969v44.646c0 4.143 3.358 7.5 7.5 7.5s7.5-3.357 7.5-7.5v-44.646c0-17.628-14.342-31.969-31.969-31.969h-325.941c-17.627 0-31.968 14.341-31.968 31.969v219.21c0 17.628 14.341 31.969 31.968 31.969h121.837l-2.64 20.268h-7.412c-18.495 0-33.541 15.046-33.541 33.54 0 1.296.132 2.562.383 3.784h-93.821c-9.356 0-16.967 7.611-16.967 16.967v21.389c0 9.355 7.611 16.967 16.967 16.967h17.388v100.832c0 8.33 6.777 15.106 15.107 15.106h17.211c8.33 0 15.106-6.776 15.106-15.106v-100.833h348.371v100.832c0 8.33 6.777 15.106 15.106 15.106h17.211c8.33 0 15.107-6.776 15.107-15.106v-100.832h17.195c9.356 0 16.967-7.611 16.967-16.967v-21.389c.002-9.355-7.61-16.967-16.965-16.967zm-7.936-143.494c5.514 0 10 4.486 10 10s-4.486 9.999-10 9.999c-5.383 0-10-4.381-10-9.999 0-5.517 4.521-10 10-10zm-106.866-7.367-42.532-76.917c20.625-7.277 43.189 1.496 53.708 20.519 10.594 19.158 5.829 42.895-11.176 56.398zm44.946-53.586-14.173 7.837c-1.159-6.119-3.293-12.161-6.47-17.907-2.513-4.544-5.536-8.627-8.945-12.235l13.213-7.307c6.228-3.443 14.093-1.178 17.536 5.049l3.887 7.027c3.442 6.226 1.178 14.094-5.048 17.536zm-22.96 202.337c0-6.262 5.094-11.355 11.356-11.355h45.322c6.262 0 11.356 5.094 11.356 11.355v2.11h-68.034zm-369.794-70.483c-9.356 0-16.968-7.611-16.968-16.968v-11.78h359.878v11.78c0 9.356-7.612 16.968-16.969 16.968zm184.605 35.269h-50.281l2.64-20.268h45.002zm-72.819 15h13.992c.005 0 .01.001.015.001.007 0 .014-.001.021-.001h81.329c10.223 0 18.541 8.317 18.541 18.54 0 2.087-1.697 3.784-3.784 3.784h-124.871c-2.086 0-3.784-1.697-3.784-3.784 0-10.223 8.317-18.54 18.541-18.54zm-77.167 178.479c0 .059-.048.106-.106.106h-17.212c-.059 0-.107-.048-.107-.106v-100.832h17.425zm395.796 0c0 .059-.048.106-.107.106h-17.212c-.059 0-.106-.048-.106-.106v-100.832h17.425zm34.162-117.799c0 1.085-.882 1.967-1.967 1.967h-477.804c-1.085 0-1.967-.882-1.967-1.967v-21.389c0-1.085.882-1.967 1.967-1.967h477.804c1.085 0 1.967.882 1.967 1.967z"/></g></svg>