<svg id="Capa_1" enable-background="new 0 0 512 512" height="512" viewBox="0 0 512 512" width="512" xmlns="http://www.w3.org/2000/svg"><g><g><g><g><path d="m446.113 487.366h-416.683c-12.111 0-21.93-9.818-21.93-21.93v-352.816c0-12.111 9.818-21.93 21.93-21.93h416.683c12.111 0 21.93 9.818 21.93 21.93v352.817c0 12.111-9.818 21.929-21.93 21.929z" fill="#bed8fb"/><path d="m446.113 90.69h-64.789c12.111 0 21.93 9.818 21.93 21.93v352.816c0 12.111-9.818 21.93-21.93 21.93h64.789c12.111 0 21.93-9.818 21.93-21.93v-352.816c0-12.111-9.819-21.93-21.93-21.93z" fill="#9dc6fb"/><path d="m468.043 165.977v-53.357c0-12.111-9.818-21.93-21.93-21.93h-416.683c-12.111 0-21.93 9.818-21.93 21.93v53.357z" fill="#f7f4f7"/></g><circle cx="58.319" cy="128.334" r="7.496"/><circle cx="91.679" cy="128.334" r="7.496"/><circle cx="125.038" cy="128.334" r="7.496"/></g><circle cx="403.537" cy="125.596" fill="#f4e066" r="100.963"/><path d="m403.537 24.634c-11.334 0-22.231 1.868-32.402 5.312 39.866 13.5 68.561 51.224 68.561 95.651 0 44.426-28.694 82.15-68.561 95.651 10.171 3.444 21.068 5.312 32.402 5.312 55.76 0 100.963-45.202 100.963-100.962s-45.203-100.964-100.963-100.964z" fill="#efd133"/><g><g><g><path d="m438.477 163.682h-69.879c-6.3 0-11.408-5.107-11.408-11.408v-40.866h92.695v40.866c0 6.301-5.108 11.408-11.408 11.408z" fill="#b2aab5"/><path d="m396.854 89.818-61.516 21.084c-.722.248-.722 1.269 0 1.517l61.516 21.084c4.332 1.485 9.035 1.485 13.367 0l61.516-21.084c.722-.248.722-1.269 0-1.517l-61.516-21.084c-4.332-1.485-9.035-1.485-13.367 0z" fill="#89808c"/></g><g><path d="m439.696 125.596c0 13.478-2.655 26.331-7.448 38.086h6.228c6.3 0 11.408-5.107 11.408-11.408v-40.866h-11.198c.653 4.638 1.01 9.37 1.01 14.188z" fill="#89808c"/><path d="m471.738 110.902-35.688-12.232c2.182 7.902 3.421 16.192 3.603 24.745l32.085-10.997c.722-.247.722-1.269 0-1.516z" fill="#665e66"/></g></g></g></g><g><path d="m122.371 320.465 26.403-66.384c1.531-3.849-.349-8.21-4.197-9.741-3.851-1.529-8.21.349-9.741 4.197l-26.403 66.384c-1.531 3.849.349 8.21 4.197 9.741 3.849 1.529 8.209-.347 9.741-4.197z"/><path d="m176.339 321c3.611 2.092 8.188.827 10.249-2.73l17.73-30.609c1.371-2.366 1.345-5.29-.067-7.632l-17.73-29.408c-2.139-3.547-6.748-4.69-10.295-2.55-3.547 2.139-4.689 6.748-2.55 10.295l15.441 25.612-15.508 26.774c-2.076 3.583-.854 8.171 2.73 10.248z"/><path d="m80.981 248.069c-3.549-2.14-8.157-.996-10.295 2.55l-17.73 29.408c-1.412 2.342-1.438 5.266-.067 7.632l17.73 30.609c2.073 3.58 6.66 4.81 10.249 2.73 3.584-2.076 4.807-6.665 2.73-10.249l-15.508-26.772 15.442-25.612c2.138-3.548.997-8.157-2.551-10.296z"/><path d="m418.182 252.973h-166.559c-4.142 0-7.5 3.358-7.5 7.5s3.358 7.5 7.5 7.5h166.559c4.143 0 7.5-3.358 7.5-7.5s-3.358-7.5-7.5-7.5z"/><path d="m418.182 307.5h-166.559c-4.142 0-7.5 3.358-7.5 7.5s3.358 7.5 7.5 7.5h166.559c4.143 0 7.5-3.358 7.5-7.5s-3.358-7.5-7.5-7.5z"/><path d="m418.182 362.026h-349.031c-4.142 0-7.5 3.358-7.5 7.5s3.358 7.5 7.5 7.5h349.03c4.143 0 7.5-3.358 7.5-7.5s-3.357-7.5-7.499-7.5z"/><path d="m418.182 416.552h-349.031c-4.142 0-7.5 3.358-7.5 7.5s3.358 7.5 7.5 7.5h349.03c4.143 0 7.5-3.358 7.5-7.5s-3.357-7.5-7.499-7.5z"/><path d="m512 125.596c0-59.806-48.656-108.462-108.463-108.462-59.806 0-108.462 48.656-108.462 108.462 0 11.458 1.792 22.505 5.1 32.881h-285.175v-45.857c0-7.957 6.473-14.43 14.43-14.43h243.633c4.143 0 7.5-3.358 7.5-7.5s-3.357-7.5-7.5-7.5h-243.633c-16.228 0-29.43 13.203-29.43 29.43v352.816c0 16.228 13.202 29.43 29.43 29.43h416.684c16.228 0 29.43-13.202 29.43-29.43v-225.27c0-4.142-3.357-7.5-7.5-7.5s-7.5 3.358-7.5 7.5v225.27c0 7.957-6.473 14.43-14.43 14.43h-416.684c-7.957 0-14.43-6.473-14.43-14.43v-291.959h291.235c17.717 35.858 54.674 60.582 97.302 60.582 59.807 0 108.463-48.657 108.463-108.463zm-108.463 93.463c-51.535 0-93.462-41.927-93.462-93.462s41.927-93.462 93.462-93.462 93.463 41.926 93.463 93.461-41.928 93.463-93.463 93.463z"/><path d="m479.779 111.66c0-3.548-2.255-6.704-5.61-7.853l-61.517-21.084c-5.877-2.015-12.354-2.015-18.23 0l-61.519 21.084c-7.449 2.555-7.464 13.146.002 15.706l16.785 5.753v27.008c0 10.426 8.481 18.908 18.907 18.908h69.879c10.426 0 18.908-8.482 18.908-18.908v-27.009l7.395-2.534v9.645c0 4.142 3.357 7.5 7.5 7.5s7.5-3.358 7.5-7.5c0-4.442 0-12.668 0-20.716zm-37.394 40.614c0 2.155-1.753 3.908-3.908 3.908h-69.879c-2.154 0-3.907-1.753-3.907-3.908v-21.868l29.731 10.19c5.876 2.015 12.351 2.015 18.23 0l29.732-10.19v21.868zm-34.596-25.867c-2.742.939-5.762.939-8.504 0l-43.028-14.747 43.028-14.748c2.742-.939 5.762-.939 8.504 0l43.028 14.748z"/></g></g></svg>