<svg id="Capa_1" enable-background="new 0 0 512 512" height="512" viewBox="0 0 512 512" width="512" xmlns="http://www.w3.org/2000/svg"><g><path d="m477.65 326.404h-83.045v-16.095c0-10.415 8.443-18.858 18.858-18.858h45.328c10.415 0 18.858 8.443 18.858 18.858v16.095z" fill="#665e66"/><g><g><g><g><g><path d="m244.435 206.404c-11.585-2.332-19.92-12.509-19.92-24.327v-37.027h-61.31v37.027c0 11.818-8.334 21.995-19.92 24.327-1.655.333-3.232.65-4.65.934.012.011.023.022.035.032 13.051 11.277 31.271 21.113 55.19 21.656 23.919-.543 42.139-10.379 55.19-21.656.012-.01.023-.022.035-.032-1.418-.284-2.994-.601-4.65-.934z" fill="#ffece4"/><g><path d="m264.226 96.604c-.024-5.701-4.609-10.303-10.241-10.279l-3.842.016-.064-15.482c-.135-32.437-26.902-44.36-56.58-44.569-29.548.46-56.254 12.49-56.119 45.05l.045 10.915.019 4.567-3.641.002c-8.101.004-14.665 6.576-14.659 14.677l.01 13.3c.006 8.099 6.575 14.66 14.674 14.656l3.766-.002c.38 14.98 6.66 29.374 17.937 39.119 9.079 7.846 21.824 14.673 38.622 14.791 16.797-.261 29.484-7.197 38.497-15.12 11.196-9.841 17.356-24.288 17.611-39.271l3.857-.016c5.632-.024 10.179-4.665 10.155-10.366z" fill="#ffece4"/></g><path d="m254.679 208.448c-1.562-.301-5.606-1.11-10.244-2.044-2.955-.595-5.689-1.711-8.135-3.225-.463.43-.921.866-1.401 1.282-9.672 8.358-23.22 15.631-41.038 15.883-17.818-.253-31.366-7.525-41.038-15.883-.48-.415-.937-.851-1.401-1.282-2.446 1.514-5.181 2.63-8.135 3.225-4.637.934-8.681 1.743-10.244 2.044-44.823 8.626-77.218 47.849-77.218 93.495v65.789h276.071v-65.789c.001-45.646-32.394-84.869-77.217-93.495z" fill="#e07f84"/><g><path d="m254.679 208.448c-1.562-.301-5.606-1.11-10.244-2.044-2.955-.595-5.689-1.711-8.135-3.225-.463.43-.921.866-1.401 1.282-5.479 4.735-12.206 9.118-20.245 12.078 31.876 15.706 53.116 48.447 53.116 85.405v65.789h64.126v-65.789c.001-45.647-32.394-84.87-77.217-93.496z" fill="#db636e"/></g><path d="m264.226 96.604c-.024-5.701-4.609-10.303-10.241-10.279l-3.842.016-.064-15.482c-.132-31.73-25.749-43.823-54.645-44.531 2.087 5.023 3.263 10.829 3.291 17.521l.183 85.126c-.255 14.983-6.415 29.429-17.611 39.271-3.716 3.266-8.067 6.356-13.063 8.888 7.241 3.669 15.846 6.161 25.919 6.232 16.797-.261 29.484-7.197 38.497-15.12 11.196-9.841 17.355-24.288 17.611-39.271l3.857-.016c5.632-.024 10.179-4.665 10.155-10.366z" fill="#ffddce"/><path d="m243.015 25.327c-.118-7.543-6.266-13.597-13.811-13.597h-61.27c-24.569 0-44.486 19.917-44.486 44.486v29.399c0 4.318 2.733 8.164 6.811 9.583l10.958 3.815c3.83 1.334 7.83-1.514 7.824-5.57l-.024-20.73c-.001-.333.006-.664.022-.993.614-12.592 16.439-17.815 24.845-8.419 10.105 11.296 30.859 28.507 59.364 21.619 3.239-.783 6.595.724 8.082 3.706l.003.006c2.96 5.935 9.868 8.747 16.131 6.565 4.078-1.42 6.81-5.265 6.81-9.583v-38.804c0-7.409-5.942-13.449-13.351-13.57-4.34-.07-7.841-3.573-7.908-7.913z" fill="#89808c"/><path d="m250.923 33.241c-4.34-.071-7.841-3.574-7.909-7.914-.118-7.543-6.266-13.597-13.811-13.597h-44.69c8.686 7.091 14.151 17.522 14.212 32.119l.082 38.064c9.611 4.2 21.187 6.211 34.441 3.008 3.239-.783 6.595.724 8.082 3.706l.003.006c2.96 5.935 9.868 8.747 16.131 6.566 4.078-1.42 6.81-5.265 6.81-9.583v-38.806c0-7.409-5.942-13.449-13.351-13.569z" fill="#756e78"/></g></g></g><g><g><path d="m194.307 299.967c-47.806-41.884-119.105-28.037-142.005-22.105-4.341 1.124-7.362 5.043-7.362 9.527v33.477h149.366v-20.899z" fill="#f7f4f7"/><path d="m194.307 299.967c47.806-41.884 119.105-28.037 142.005-22.105 4.341 1.124 7.362 5.043 7.362 9.527v33.477h-149.367z" fill="#edeaed"/><g><path d="m336.312 277.862c-13.087-3.39-41.982-9.36-73.265-6.041 8.992 2.757 15.268 11.064 15.268 20.624v28.42h65.359v-33.477c0-4.483-3.022-8.402-7.362-9.526z" fill="#e0dde0"/></g></g></g></g><g><g><g><path d="m58.075 341.03h395.85v159.24h-395.85z" fill="#c1a0a0"/><g fill="#b58c8c"><path d="m74.29 500.27h-23.685c-4.829 0-8.744-3.915-8.744-8.744v-167.488h32.429z"/><path d="m461.395 500.27h-23.685v-176.232h32.429v167.489c.001 4.828-3.914 8.743-8.744 8.743z"/></g></g><g><path d="m494.838 361.194h-477.87c-5.229 0-9.468-4.239-9.468-9.468v-21.391c0-5.229 4.239-9.469 9.468-9.469h477.87c5.229 0 9.469 4.239 9.469 9.469v21.391c0 5.229-4.24 9.468-9.469 9.468z" fill="#b58c8c"/></g><path d="m494.838 320.866h-65.072c5.229 0 9.469 4.239 9.469 9.469v21.391c0 5.229-4.239 9.469-9.469 9.469h65.072c5.229 0 9.469-4.239 9.469-9.469v-21.391c0-5.23-4.24-9.469-9.469-9.469z" fill="#a87f7f"/></g></g><circle cx="486.998" cy="178.907" fill="#665e66" r="17.502"/><g><path d="m428.699 114.508-48.792 26.98-23.636-42.745 48.792-26.98c9.862-5.454 22.278-1.879 27.732 7.983l3.887 7.03c5.454 9.863 1.88 22.279-7.983 27.732z" fill="#665e66"/><path d="m329.43 85.372 45.709 82.662c1.325 2.396 4.427 3.115 6.683 1.565 21.841-15.001 29.124-44.43 16.037-68.097s-41.884-33.145-66.202-22.622c-2.512 1.087-3.552 4.097-2.227 6.492z" fill="#756e78"/></g></g><path d="m494.838 313.366h-9.688v-3.057c0-14.534-11.824-26.359-26.358-26.359h-1.524l28.436-80.074c.429.022.861.033 1.295.033 13.786 0 25.002-11.216 25.002-25.002s-11.216-25.002-25.002-25.002c-4.699 0-9.099 1.305-12.858 3.569l-40.799-36.995c5.998-3.646 10.347-9.323 12.301-16.109 2.062-7.163 1.211-14.7-2.396-21.224l-3.888-7.03c-7.447-13.466-24.462-18.362-37.925-10.916l-18.594 10.282c-15.919-9.533-35.932-11.373-54.161-3.485-6.549 2.834-9.289 10.717-5.812 17.004l45.71 82.664c3.466 6.265 11.591 8.171 17.492 4.116 15.062-10.345 23.964-26.345 25.596-43.284l7.827-4.328 44.693 40.526c-1.402 3.12-2.189 6.575-2.189 10.211 0 8.004 3.785 15.137 9.655 19.716l-30.301 85.328h-27.887c-14.534 0-26.358 11.825-26.358 26.359v3.057h-35.931v-25.976c0-7.905-5.339-14.809-12.981-16.788-1.22-.316-2.573-.653-4.036-1-11.692-35.361-41.22-61.428-78.055-68.517-10.227-1.975-12.546-2.235-15.854-4.283-.025-.016-.053-.025-.078-.04-10.016-6.255-7.877-17.058-8.153-18.438 1.902-1.374 3.768-2.847 5.586-4.445 10.807-9.499 17.761-22.966 19.648-37.708 8.279-1.515 14.561-8.846 14.524-17.596l-.048-22.004c-.008-1.836-.308-3.646-.864-5.378.591-1.768.912-3.645.912-5.578v-38.804c0-11.431-9.299-20.883-20.729-21.069-.293-.005-.526-.238-.531-.532-.18-11.568-9.74-20.979-21.31-20.979h-61.271c-28.665 0-51.986 23.321-51.986 51.986v29.398c0 .848.069 1.685.187 2.507-2.893 3.815-4.494 8.487-4.49 13.385l.01 13.3c.008 11.146 8.285 20.393 19.014 21.927 2.015 14.716 9.079 28.114 19.958 37.516 1.658 1.433 3.353 2.768 5.079 4.017-.28 1.404 1.877 12.236-8.156 18.497-.024.014-.05.023-.074.038-6.023 3.726-14.176 2.682-29.552 7.909-3.921 1.333-6.02 5.593-4.687 9.515s5.594 6.022 9.515 4.687c11.165-3.794 21.202-4.272 27.544-6.798 26.238 20.993 60.94 20.953 87.128 0 3.306 1.317 5.523 1.707 15.836 3.7 28.558 5.495 51.975 24.344 63.52 50.363-11.946-1.894-26.648-3.297-42.422-2.687-32.026 1.239-58.912 10.249-80.052 26.77-21.14-16.52-48.027-25.53-80.052-26.77-16.194-.626-31.258.868-43.368 2.838 5.377-12.125 13.436-22.88 23.733-31.542 3.169-2.667 3.577-7.398.91-10.567-2.666-3.171-7.397-3.576-10.567-.911-14.706 12.374-25.518 28.391-31.477 46.528-1.091.265-2.119.522-3.063.767-7.644 1.979-12.982 8.883-12.982 16.788v25.977h-20.472c-9.356-.003-16.968 7.609-16.968 16.965v21.392c0 9.356 7.612 16.969 16.968 16.969h17.392v122.832c0 8.957 7.287 16.244 16.244 16.244h410.791c8.957 0 16.244-7.287 16.244-16.244v-72.277c0-4.143-3.357-7.5-7.5-7.5s-7.5 3.357-7.5 7.5v72.276c0 .686-.559 1.244-1.244 1.244h-16.185v-124.076h17.43v15.479c0 4.143 3.357 7.5 7.5 7.5s7.5-3.357 7.5-7.5v-15.479h17.198c9.356 0 16.969-7.612 16.969-16.969v-21.392c0-9.355-7.613-16.967-16.969-16.967zm-7.84-144.461c5.515 0 10.002 4.487 10.002 10.002s-4.487 10.002-10.002 10.002-10.002-4.487-10.002-10.002 4.487-10.002 10.002-10.002zm-90.123-40.295c-.516 12.569-6.361 24.673-16.758 32.929l-42.539-76.93c13.764-4.857 28.543-2.581 39.979 5.316.358.31.741.583 1.145.816 5.034 3.718 9.368 8.554 12.594 14.389 3.845 6.954 5.656 14.485 5.615 21.905-.066.52-.08 1.047-.036 1.575zm34.352-28.389c-.953 3.312-3.14 6.056-6.156 7.724l-14.177 7.839c-1.159-6.12-3.293-12.164-6.471-17.911-2.513-4.545-5.537-8.629-8.947-12.238l13.216-7.308c6.224-3.444 14.096-1.181 17.539 5.049l3.888 7.029c1.668 3.017 2.062 6.503 1.108 9.816zm-300.279-44.005c0-20.395 16.592-36.986 36.986-36.986h61.271c3.427 0 6.258 2.787 6.312 6.214.132 8.44 6.847 15.159 15.285 15.296 3.294.054 5.974 2.777 5.974 6.071v38.805c0 1.125-.714 2.13-1.778 2.5-2.69.942-5.681-.279-6.955-2.834-3.052-6.122-9.858-9.269-16.556-7.65-10.665 2.574-31.599 3.49-52.013-19.33-12.801-14.305-36.98-6.347-37.926 13.053-.055 1.127-.023.185-.009 19.83l-8.812-3.068c-1.063-.37-1.777-1.375-1.777-2.501v-29.4zm32.143 146.718c3.965-4.672 6.52-10.393 7.332-16.57 15.254 6.006 31.739 5.982 46.883.049.819 6.158 3.369 11.862 7.324 16.521-18.863 13.054-42.451 13.209-61.539 0zm64.608-40.322c-20.133 17.697-47.364 17.484-67.264.287-9.415-8.136-15.007-20.396-15.344-33.635-.103-4.066-3.43-7.31-7.498-7.31-.001 0-.002 0-.004 0l-3.765.002c-.001 0-.002 0-.004 0-3.949 0-7.163-3.212-7.166-7.162l-.01-12.965c1.192.511.735.287 12.106 4.266 8.625 3.005 17.804-3.385 17.789-12.662-.021-22.007-.035-20.847-.011-21.349.287-5.875 7.808-8.205 11.764-3.784 9.242 10.331 27.16 25.718 51.894 25.716 4.625 0 9.491-.538 14.581-1.749 4.199 8.1 13.201 12.383 21.973 10.829l.034 15.526c.006 1.557-1.199 2.829-2.688 2.835l-3.857.017c-4.08.018-7.397 3.293-7.467 7.372-.225 13.244-5.716 25.55-15.063 33.766zm174.405 147.698c0-6.264 5.096-11.359 11.358-11.359h45.328c6.263 0 11.358 5.096 11.358 11.359v3.057h-68.045v-3.057zm-200.297-6.857c45.382-37.068 112.757-23.475 132.625-18.33 1.025.266 1.742 1.197 1.742 2.267v25.977h-134.367zm-149.366-16.063c0-1.069.716-2.001 1.743-2.267 19.864-5.146 87.24-18.744 132.624 18.321v9.922h-134.367zm14.349 205.381h-16.186c-.686 0-1.244-.559-1.244-1.244v-122.833h17.43zm363.42 0h-348.42v-124.077h348.42zm66.597-141.045c0 1.086-.883 1.969-1.969 1.969h-477.87c-1.085 0-1.968-.883-1.968-1.969v-21.392c0-1.085.883-1.968 1.968-1.968h477.87c1.086 0 1.969.883 1.969 1.968z"/></g></svg>