<svg id="Capa_1" enable-background="new 0 0 512 512" height="512" viewBox="0 0 512 512" width="512" xmlns="http://www.w3.org/2000/svg"><g><g><g><path d="m449.447 449.362h-172.805v-105.008h-41.284v105.008h-172.804c-6.294 0-11.397 5.103-11.397 11.397v18.49c0 6.294 5.103 11.397 11.397 11.397h386.893c6.294 0 11.397-5.103 11.397-11.397v-18.49c-.001-6.294-5.103-11.397-11.397-11.397z" fill="#bed8fb"/><path d="m449.447 449.362h-65.328c6.294 0 11.397 5.103 11.397 11.397v18.49c0 6.294-5.103 11.397-11.397 11.397h65.328c6.294 0 11.397-5.103 11.397-11.397v-18.49c-.001-6.294-5.103-11.397-11.397-11.397z" fill="#9dc6fb"/><path d="m214.045 504.5h83.91c8.19 0 14.829-6.639 14.829-14.829v-39.334c0-8.19-6.639-14.829-14.829-14.829h-83.91c-8.19 0-14.829 6.639-14.829 14.829v39.334c0 8.19 6.639 14.829 14.829 14.829z" fill="#88a8d8"/><path d="m297.955 435.507h-65.328c8.19 0 14.829 6.639 14.829 14.829v39.334c0 8.19-6.639 14.829-14.829 14.829h65.328c8.19 0 14.829-6.639 14.829-14.829v-39.334c.001-8.189-6.639-14.829-14.829-14.829z" fill="#7296d1"/></g><g><g><g><path d="m389.601 375.877h-255.543c-12.157 0-22.011-9.855-22.011-22.011v-324.355c0-12.157 9.855-22.011 22.011-22.011h255.543c12.157 0 22.011 9.855 22.011 22.011v324.354c0 12.157-9.855 22.012-22.011 22.012z" fill="#e07f84"/></g><path d="m389.601 7.5h-65.328c12.156 0 22.011 9.855 22.011 22.011v324.354c0 12.157-9.855 22.011-22.011 22.011h65.328c12.157 0 22.011-9.855 22.011-22.011v-324.354c0-12.156-9.855-22.011-22.011-22.011z" fill="#db636e"/><path d="m166.698 7.5h-32.64c-12.157 0-22.011 9.855-22.011 22.011v324.354c0 12.157 9.855 22.011 22.011 22.011h32.64z" fill="#edeaed"/><g><path d="m199.959 135.056v-67.24c0-5.474 4.438-9.912 9.912-9.912h155.16c5.474 0 9.912 4.438 9.912 9.912v67.24c0 5.474-4.438 9.912-9.912 9.912h-155.161c-5.474 0-9.911-4.437-9.911-9.912z" fill="#f4e066"/><path d="m365.031 57.905h-18.747v87.064h18.747c5.474 0 9.912-4.438 9.912-9.912v-67.24c0-5.475-4.438-9.912-9.912-9.912z" fill="#efd133"/></g></g><g fill="#808080"><path d="m120.919 73.082h-17.745c-7.977 0-14.444-6.467-14.444-14.444 0-7.977 6.467-14.444 14.444-14.444h17.745c7.977 0 14.444 6.467 14.444 14.444 0 7.977-6.467 14.444-14.444 14.444z"/><path d="m120.919 139.607h-17.745c-7.977 0-14.444-6.467-14.444-14.444 0-7.977 6.467-14.444 14.444-14.444h17.745c7.977 0 14.444 6.467 14.444 14.444 0 7.977-6.467 14.444-14.444 14.444z"/><path d="m120.919 206.132h-17.745c-7.977 0-14.444-6.467-14.444-14.444 0-7.977 6.467-14.444 14.444-14.444h17.745c7.977 0 14.444 6.467 14.444 14.444 0 7.977-6.467 14.444-14.444 14.444z"/><path d="m120.919 272.657h-17.745c-7.977 0-14.444-6.467-14.444-14.444 0-7.977 6.467-14.444 14.444-14.444h17.745c7.977 0 14.444 6.467 14.444 14.444 0 7.977-6.467 14.444-14.444 14.444z"/><path d="m120.919 339.182h-17.745c-7.977 0-14.444-6.467-14.444-14.444 0-7.977 6.467-14.444 14.444-14.444h17.745c7.977 0 14.444 6.467 14.444 14.444 0 7.977-6.467 14.444-14.444 14.444z"/></g></g></g><g><path d="m342.466 79.712h-110.03c-4.142 0-7.5 3.358-7.5 7.5s3.358 7.5 7.5 7.5h110.03c4.143 0 7.5-3.358 7.5-7.5s-3.357-7.5-7.5-7.5z"/><path d="m342.466 106.289h-110.03c-4.142 0-7.5 3.358-7.5 7.5s3.358 7.5 7.5 7.5h110.03c4.143 0 7.5-3.358 7.5-7.5s-3.357-7.5-7.5-7.5z"/><path d="m365.031 50.405h-155.161c-9.601 0-17.412 7.811-17.412 17.412v67.24c0 9.601 7.811 17.412 17.412 17.412h155.16c9.602 0 17.412-7.811 17.412-17.412v-16.09c0-4.142-3.357-7.5-7.5-7.5s-7.5 3.358-7.5 7.5v16.09c0 1.33-1.082 2.412-2.412 2.412h-155.16c-1.33 0-2.412-1.082-2.412-2.412v-67.24c0-1.33 1.082-2.412 2.412-2.412h155.16c1.33 0 2.412 1.082 2.412 2.412v16.09c0 4.142 3.357 7.5 7.5 7.5s7.5-3.358 7.5-7.5v-16.09c.001-9.601-7.81-17.412-17.411-17.412z"/><path d="m449.447 441.862h-130.838c-3.344-8.121-11.34-13.854-20.654-13.854h-13.813v-44.631h105.459c16.272 0 29.511-13.239 29.511-29.511v-324.355c0-16.272-13.239-29.511-29.511-29.511h-255.543c-16.272 0-29.511 13.239-29.511 29.511v7.183h-1.373c-12.1 0-21.944 9.844-21.944 21.944s9.844 21.944 21.944 21.944h1.373v22.637h-1.373c-12.1 0-21.944 9.844-21.944 21.944s9.844 21.944 21.944 21.944h1.373v22.638h-1.373c-12.1 0-21.944 9.844-21.944 21.944s9.844 21.943 21.944 21.943h1.373v22.638h-1.373c-12.1 0-21.944 9.844-21.944 21.944s9.844 21.944 21.944 21.944h1.373v22.637h-1.373c-12.1 0-21.944 9.844-21.944 21.944s9.844 21.944 21.944 21.944h1.373v7.183c0 16.272 13.239 29.511 29.511 29.511h93.801v44.631h-13.813c-9.314 0-17.31 5.733-20.654 13.854h-63.814c-4.142 0-7.5 3.358-7.5 7.5s3.358 7.5 7.5 7.5h62.139v26.284h-129.163c-2.149 0-3.897-1.748-3.897-3.897v-18.49c0-2.149 1.748-3.897 3.897-3.897h31.963c4.142 0 7.5-3.358 7.5-7.5s-3.358-7.5-7.5-7.5h-31.963c-10.42 0-18.897 8.477-18.897 18.897v18.49c0 10.42 8.477 18.897 18.897 18.897h130.837c3.345 8.121 11.341 13.854 20.654 13.854h83.91c9.314 0 17.31-5.733 20.654-13.854h130.837c10.42 0 18.896-8.477 18.896-18.897v-18.49c.001-10.42-8.476-18.897-18.895-18.897zm-346.273-376.28c-3.829 0-6.944-3.115-6.944-6.944s3.115-6.944 6.944-6.944h17.745c3.829 0 6.944 3.115 6.944 6.944s-3.115 6.944-6.944 6.944zm0 66.525c-3.829 0-6.944-3.115-6.944-6.944s3.115-6.944 6.944-6.944h17.745c3.829 0 6.944 3.115 6.944 6.944s-3.115 6.944-6.944 6.944zm0 66.525c-3.829 0-6.944-3.115-6.944-6.943s3.115-6.944 6.944-6.944h17.745c3.829 0 6.944 3.115 6.944 6.944s-3.115 6.943-6.944 6.943zm0 66.525c-3.829 0-6.944-3.115-6.944-6.944s3.115-6.944 6.944-6.944h17.745c3.829 0 6.944 3.115 6.944 6.944s-3.115 6.944-6.944 6.944zm0 66.525c-3.829 0-6.944-3.115-6.944-6.944s3.115-6.944 6.944-6.944h17.745c3.829 0 6.944 3.115 6.944 6.944s-3.115 6.944-6.944 6.944zm56.024 36.694h-25.14c-8.001 0-14.511-6.51-14.511-14.511v-7.183h1.372c12.1 0 21.944-9.844 21.944-21.944s-9.844-21.944-21.944-21.944h-1.372v-22.637h1.372c12.1 0 21.944-9.844 21.944-21.944s-9.844-21.944-21.944-21.944h-1.372v-22.638h1.372c12.1 0 21.944-9.844 21.944-21.943 0-12.1-9.844-21.944-21.944-21.944h-1.372v-22.638h1.372c12.1 0 21.944-9.844 21.944-21.944s-9.844-21.944-21.944-21.944h-1.372v-22.636h1.372c12.1 0 21.944-9.844 21.944-21.944s-9.844-21.944-21.944-21.944h-1.372v-7.183c0-8.001 6.51-14.511 14.511-14.511h25.14zm15 0v-353.376h215.403c8.001 0 14.511 6.51 14.511 14.511v324.354c0 8.001-6.51 14.511-14.511 14.511zm94.944 15v44.631h-26.283v-44.631zm36.142 106.295c0 4.042-3.288 7.329-7.329 7.329h-83.91c-3.796 0-6.926-2.9-7.293-6.601-.006-.175-.009-.35-.026-.522-.002-.069-.01-.137-.01-.207v-39.334c0-.07.009-.137.01-.207.017-.171.021-.347.026-.522.367-3.701 3.497-6.601 7.293-6.601h83.91c4.041 0 7.329 3.288 7.329 7.329zm148.059-10.422c0 2.149-1.748 3.897-3.896 3.897h-129.163v-26.284h129.162c2.148 0 3.896 1.748 3.896 3.897v18.49z"/></g></g></svg>