<svg id="Capa_1" enable-background="new 0 0 512 512" height="512" viewBox="0 0 512 512" width="512" xmlns="http://www.w3.org/2000/svg"><g><g><path d="m299.734 477.37h-87.497l20.989-78.989h45.519z" fill="#d1ccd3"/><g><circle cx="229.872" cy="185.912" fill="#f7f4f7" r="176.159"/><path d="m354.435 61.349c-7.996-7.996-16.575-15.05-25.591-21.187 46.666 68.559 39.612 162.736-21.187 223.535s-154.976 67.853-223.535 21.187c6.137 9.016 13.191 17.595 21.187 25.591 68.794 68.794 180.332 68.794 249.126 0s68.794-180.332 0-249.126z" fill="#ddd"/><g><g><path d="m392.979 22.805c-4.23-4.23-8.598-8.271-13.091-12.125-5.336-4.577-13.322-4.202-18.293.769l-.001.001c-5.59 5.59-5.176 14.717.817 19.871 3.986 3.428 7.859 7.024 11.612 10.785 38.591 38.68 60.07 91.538 59.452 146.173-.598 52.868-21.226 102.519-58.28 140.256-37.747 38.442-89.439 60.469-143.312 60.985-55.137.529-107.058-20.697-145.99-59.629-3.697-3.697-7.234-7.511-10.608-11.434-5.156-5.995-14.285-6.413-19.876-.822-4.971 4.971-5.346 12.957-.769 18.293 3.853 4.493 7.895 8.861 12.125 13.091 43.13 43.13 100.33 67.077 161.25 67.554 60.914.477 119.831-23.275 163.322-65.928 44.607-43.746 69.203-102.349 69.203-164.734 0-61.614-23.993-119.54-67.561-163.106z" fill="#b58c8c"/></g><g><path d="m354.435 61.349c-4.417-4.417-9.013-8.546-13.76-12.396l-1.591 7.696c-.752 3.641-4.503 5.818-8.038 4.667l-3.475-1.132c-3.936-1.282-8.258-.246-11.185 2.681l-4.695 4.695c-3.835 3.835-3.848 10.061-.007 13.89 3.134 3.124 2.108 8.425-1.963 10.155l-10.751 4.569c-2.749 1.168-5.153 3.022-6.983 5.384-5.581 7.205-.686 17.705 8.421 18.062l33.611 4.963c9.173 1.673 17.506 6.416 23.611 13.464 2.759 3.185 5.691 6.935 8.349 10.482 6.796 9.067 2.796 22.397-8.033 25.735-.752.232-2.019.257-3.347.192-3.281-.161-6.522-.856-9.58-2.058-8.081-3.177-15.22-8.458-20.411-15.471-7.413-10.013-19.066-15.991-31.511-16.179-12.436-.188-24.616 3.546-34.809 10.674l-2.312 1.617c-13.759 9.621-24.79 22.643-32.017 37.797-4.52 9.477-4.513 20.488.018 29.96 4.015 8.394 11.228 14.827 20.025 17.859l14.881 5.13c5.302 1.828 10.135 4.806 14.152 8.72l2.763 2.693c8.975 8.745 14.176 20.652 14.493 33.178l.437 17.25c.124 4.887-1.943 9.573-5.635 12.778l-4.627 4.015c-5.294 4.594-8.859 10.86-10.104 17.758l-1.889 10.468c-.44 2.439-.411 4.852-.017 7.165 31.509-7.041 61.46-22.814 85.98-47.333 68.793-68.796 68.793-180.334-.001-249.128z" fill="#9dc6fb"/><path d="m340.675 48.953-1.591 7.696c-.027.131-.066.256-.101.383 13.634 25.866 20.39 54.409 20.26 82.927 2.268 2.725 4.59 5.706 6.736 8.57 6.796 9.068 2.796 22.397-8.033 25.735-.544.168-1.36.225-2.27.22-6.661 32.69-22.662 63.856-48.019 89.214-5.838 5.838-11.987 11.176-18.388 16.023.595 2.83.946 5.724 1.021 8.654l.437 17.25c.124 4.887-1.943 9.573-5.635 12.778l-4.627 4.015c-5.294 4.594-8.859 10.86-10.104 17.758l-1.889 10.468c-.44 2.439-.411 4.852-.017 7.165 31.509-7.041 61.46-22.814 85.98-47.333 68.794-68.794 68.794-180.332 0-249.126-4.417-4.419-9.013-8.547-13.76-12.397z" fill="#88a8d8"/><path d="m137.579 241.774c2.784-12.164-14.948-20.517-22.129-27.698s-11.284-15.388-6.888-25.06-9.086-8.793-16.267-35.612c-3.643-13.606-16.327-23.246-28.114-27.398-20.033 55.523-11.292 119.094 26.247 167.582 3.84-3.862 9.419-4.572 16.522-7.115 11.871-4.25 10.845-18.465 12.31-26.379 1.466-7.915 15.534-6.156 18.319-18.32z" fill="#9dc6fb"/><path d="m93.889 291.07c-3.307-1.945-6.565-4.007-9.767-6.186.007.01.011.021.017.031 2.001 2.938 4.091 5.833 6.289 8.673 1.029-1.036 2.186-1.84 3.461-2.518z" fill="#9bc4f9"/><path d="m105.309 61.349c-9.104 9.104-16.991 18.963-23.685 29.366 41.978 23.6 64.259-27.344 86.241-22.948 21.983 4.397 36.931 11.724 45.138-17.586s57-20.333 54.624-36.356c-56.668-12.376-118.259 3.465-162.318 47.524z" fill="#9dc6fb"/></g></g></g></g><g><path d="m318.518 446.072h-125.065c-9.243 0-16.736 7.493-16.736 16.736v20.846h158.536v-20.846c.001-9.243-7.492-16.736-16.735-16.736z" fill="#c1a0a0"/><path d="m318.518 446.072h-65.332c9.243 0 16.736 7.493 16.736 16.736v20.846h65.332v-20.846c0-9.243-7.493-16.736-16.736-16.736z" fill="#b58c8c"/></g><g><path d="m341.816 473.625h-171.662c-12.547 0-22.717 10.171-22.717 22.717 0 4.505 3.652 8.157 8.157 8.157h200.782c4.505 0 8.157-3.652 8.157-8.157.001-12.546-10.17-22.717-22.717-22.717z" fill="#b58c8c"/><path d="m341.816 473.625h-65.332c12.547 0 22.717 10.171 22.717 22.717 0 4.505-3.652 8.157-8.157 8.157h65.331c4.505 0 8.158-3.652 8.158-8.157.001-12.546-10.17-22.717-22.717-22.717z" fill="#a87f7f"/></g><path d="m396.588 356c46.077-45.188 71.452-105.593 71.452-170.088 0-63.619-24.774-123.428-69.758-168.411 0 0 0 0-.001 0-4.313-4.314-8.858-8.524-13.511-12.514-8.249-7.073-20.758-6.564-28.481 1.159-8.644 8.645-8.085 22.849 1.231 30.861 1.788 1.538 3.559 3.123 5.307 4.739l-8.818 8.818c-30.218-27.715-68.888-44.498-109.483-47.729-42.946-3.417-85.848 8.357-120.794 33.159-3.378 2.398-4.173 7.08-1.775 10.458 2.397 3.378 7.079 4.174 10.458 1.775 32.08-22.768 71.474-33.579 110.922-30.438 1.645.131 3.284.295 4.92.474-18.929 4.796-36.954 10.168-42.478 29.896-3.444 12.299-7.354 14.857-9.996 15.712-4.367 1.409-11.178-.11-19.067-1.871-2.361-.527-4.803-1.072-7.382-1.588-11.691-2.334-21.72 5.248-32.343 13.279-13.578 10.265-26.496 20.021-44.183 13.904 4.217-5.858 8.825-11.485 13.828-16.832 2.83-3.025 2.673-7.771-.353-10.601-3.026-2.831-7.771-2.672-10.602.353-32.636 34.883-50.196 80.445-49.447 128.291.709 45.249 17.769 88.018 48.291 121.243l-8.821 8.821c-1.613-1.746-3.196-3.516-4.734-5.303-8.006-9.308-22.207-9.895-30.866-1.234-7.723 7.723-8.232 20.232-1.159 28.48 41.612 48.512 101.733 79.872 169.762 82.997l-3.923 14.764h-21.332c-13.364 0-24.236 10.872-24.236 24.236v3.34c-16.229.498-29.28 13.846-29.28 30.194 0 8.634 7.024 15.658 15.658 15.658h200.781c8.634 0 15.658-7.024 15.658-15.658 0-16.348-13.051-29.696-29.28-30.194v-3.34c0-13.364-10.872-24.236-24.236-24.236h-21.333l-5.989-22.537c9.405-2.516 18.688-5.611 27.819-9.296 29.132-11.757 55.231-28.828 77.574-50.741zm-51.839-293.56c31.302 29.122 50.025 68.657 53.269 110.291 3.082 39.566-7.859 79.03-30.805 111.123-2.409 3.37-1.631 8.054 1.738 10.464 1.322.945 2.846 1.4 4.357 1.4 2.338 0 4.643-1.091 6.107-3.138 24.997-34.959 36.914-77.935 33.559-121.012-3.21-41.206-20.309-80.141-48.335-110.415l8.808-8.809c34.019 36.617 53.096 85.732 52.528 135.852-.575 50.834-20.51 98.808-56.132 135.085-73.072 74.419-194.507 79.879-273.546 6.212l8.815-8.814c69.595 64.522 178.935 66.054 250.153-.571 3.025-2.83 3.183-7.576.353-10.601-2.829-3.025-7.576-3.185-10.601-.354-19.703 18.433-43.119 31.616-68.451 38.881 1.062-3.628.495-12.729 8.816-19.951 1.854-2.206 13.208-8.229 12.844-22.648l-.438-17.25c-.664-26.189-20.072-45.842-36.462-51.491-9.127-4.188-23.552-4.436-30.584-19.136-3.57-7.464-3.575-16.027-.014-23.495 11.119-23.312 35.572-46.189 62.256-45.817 10.047.152 19.616 5.066 25.596 13.143 15.691 21.192 48.65 30.555 57.046 4.724 4.388-13.499-3.125-22.353-12.327-32.976-7.19-8.301-17.11-13.959-27.935-15.933-.083-.015-.166-.029-.249-.041-37.56-5.53-36.484-4.724-37.627-7.175-1.351-2.9 1.475-5.661 4.416-6.911l10.751-4.569c4.212-1.79 7.245-5.541 8.114-10.035.868-4.493-.548-9.105-3.789-12.336-.922-.92-.869-2.389.017-3.275l4.695-4.695c2.225-2.225 4.923-.142 7.035.279 5.908 1.927 12.622-.334 16.022-6.006zm-260.333 38.001c24.169 10.26 42.228-.122 61.622-14.784 7.858-5.941 15.278-11.555 20.355-10.536 2.415.483 4.773 1.009 7.055 1.519 17.618 3.935 37.585 8.391 46.777-24.437 3.182-11.365 15.198-15.234 30.576-19.111 5.769-1.455 11.219-2.829 15.422-5.005 3.045-1.576 5.086-3.422 6.455-5.317 21.605 5.673 41.922 15.605 59.711 29.22l-.363 1.756-2.131-.694c-6.656-2.167-13.862-.439-18.812 4.51l-4.695 4.695c-6.405 6.406-6.685 16.43-1.233 23.14-6.409 3.188-13.33 4.122-19.097 11.569-4.311 5.564-5.141 12.983-2.167 19.361 2.91 6.242 8.924 10.334 15.77 10.765l33.13 4.891c7.43 1.382 14.234 5.277 19.169 10.975 8.649 9.984 11.1 13.289 9.399 18.517-.853 2.626-2.765 4.614-5.277 5.506-8.578.341-19.625-6.654-25.447-14.518-8.744-11.81-22.735-18.994-37.426-19.216-32.317-.497-62.075 25.116-76.022 54.359-5.522 11.577-5.514 24.853.021 36.425 10.349 21.634 31.518 23.097 39.227 26.844 11.597 3.998 25.875 18.71 26.354 37.69l.438 17.251c.155 6.017-4.981 8.054-7.679 10.938-9.948 8.634-13.464 20.32-14.786 34.994-59.288 10.942-119.263-10.062-158.734-55.819 13.827-4.351 21.472-6.913 24.03-30.061.165-1.497.322-2.919.516-4.064.645-.532 2.333-1.376 3.487-1.953 4.98-2.491 12.507-6.255 14.829-16.402 4.055-17.715-17.208-27.747-24.137-34.676-7.835-7.835-7.108-12.815-5.363-16.653 6.842-15.054-9.303-16.205-15.85-40.656-3.754-14.019-14.827-23.896-25.81-29.494 3.034-7.409 6.603-14.602 10.686-21.529zm7.871 183.073c-19.644-27.595-30.513-60.463-31.053-94.943-.282-17.966 2.251-35.58 7.388-52.316 7.107 4.019 14.127 10.502 16.427 19.09 5.224 19.511 14.164 26.765 16.737 30.448-.016.037-.034.077-.053.12-5.196 11.43-2.365 22.69 8.412 33.467 6.534 6.534 21.526 14.587 20.121 20.721-.679 2.965-2.436 4.092-6.916 6.332-10.735 5.368-11.242 9.083-12.203 17.787-.888 8.039-1.836 13.44-6.727 15.191-4.17 1.493-8.375 2.46-12.133 4.103zm249.529 197.611c8.39 0 15.217 6.826 15.217 15.217 0 .362-.295.657-.657.657h-200.782c-.362 0-.657-.295-.657-.657 0-8.391 6.826-15.217 15.217-15.217zm-50.426-27.552c.008 0 .016.002.023.002.01 0 .02-.002.03-.002h27.075c5.092 0 9.235 4.143 9.235 9.235v3.316h-143.535v-3.316c0-5.093 4.143-9.235 9.235-9.235h27.074c.01 0 .02.002.03.002.008 0 .016-.002.023-.002zm-61.083-15.001 3.864-14.543c14.318-.257 28.482-1.79 42.411-4.583l5.082 19.126zm-169.974-107.527c-2-2.333-1.834-5.894.379-8.106 2.481-2.482 6.551-2.306 8.886.409 82.682 96.125 226.256 96.692 310.948 10.442 38.348-39.054 59.809-90.7 60.428-145.426.685-60.512-25.176-121.022-73.673-162.73-2.703-2.326-2.896-6.388-.402-8.881 2.212-2.213 5.773-2.38 8.106-.379 49.781 42.695 78.035 103.853 78.035 169.539 0 60.433-23.778 117.034-66.954 159.378-90.728 88.975-240.229 85.464-325.753-14.246z"/></g></svg>