<svg id="Capa_1" enable-background="new 0 0 512 512" height="512" viewBox="0 0 512 512" width="512" xmlns="http://www.w3.org/2000/svg"><g><g><g><g><g><path d="m246.666 427.431c-7.817 0-15.638-.922-23.248-2.739-17-4.06-53.579-10.871-107.537-10.871-18.901 0-38.616.839-58.6 2.492-1.264.104-2.546.157-3.812.157-25.348 0-45.97-20.635-45.97-45.999v-241.487c0-24.069 18.074-27.296 42.04-29.356 22.59-1.942 44.911-2.927 66.341-2.927 67.526 0 111.833 9.647 130.785 14.842 18.952-5.195 63.259-14.842 130.785-14.842 21.431 0 43.751.984 66.342 2.927 23.966 2.06 42.04 5.288 42.04 29.356v241.488c0 12.326-4.81 23.902-13.544 32.598-8.681 8.642-20.197 13.401-32.424 13.401-.001 0-.002 0-.004 0-1.265 0-2.547-.053-3.81-.157-19.984-1.654-39.699-2.492-58.6-2.492-53.958 0-90.537 6.811-107.539 10.871-7.606 1.817-15.428 2.738-23.245 2.738z" fill="#e2916b"/><path d="m443.793 99.628c-22.591-1.942-44.911-2.927-66.342-2.927-67.526 0-111.833 9.647-130.785 14.842v315.888c7.817 0 15.638-.922 23.246-2.739 17.002-4.06 53.581-10.871 107.539-10.871 18.901 0 38.616.839 58.6 2.492 1.263.104 2.544.157 3.81.157h.004c12.227 0 23.743-4.76 32.424-13.401 8.734-8.695 13.544-20.272 13.544-32.598v-241.487c0-24.069-18.074-27.296-42.04-29.356z" fill="#e07d47"/><g><path d="m443.793 99.628c-7.807-.671-15.577-1.22-23.294-1.661v272.505c0 12.326-4.81 23.902-13.544 32.598-4.985 4.963-10.908 8.637-17.36 10.873 15.143.28 30.713 1.068 46.457 2.371 1.263.104 2.544.157 3.81.157h.004c12.227 0 23.743-4.76 32.424-13.401 8.734-8.695 13.544-20.272 13.544-32.598v-241.488c-.001-24.069-18.075-27.296-42.041-29.356z" fill="#db542e"/></g><path d="m442.548 70.997c-107.884-9.275-173.264 6.743-190.977 11.945-3.201.94-6.608.94-9.809 0-17.714-5.202-83.094-21.22-190.977-11.945-7.918.681-13.996 7.327-13.996 15.274v282.229c0 8.957 7.654 16.014 16.581 15.275 90.11-7.457 150.159 2.751 177.084 9.181 10.666 2.547 21.76 2.547 32.425 0 26.924-6.43 86.974-16.638 177.084-9.181 8.927.739 16.581-6.318 16.581-15.275v-282.228c0-7.948-6.078-14.594-13.996-15.275z" fill="#f7f4f7"/><path d="m262.879 392.956c26.924-6.43 86.974-16.638 177.084-9.181 8.927.739 16.581-6.318 16.581-15.275v-282.228c0-7.948-6.078-14.593-13.996-15.274-107.884-9.275-173.264 6.743-190.977 11.945-1.6.47-3.252.705-4.904.705v311.22c5.439-.001 10.879-.638 16.212-1.912z" fill="#edeaed"/><path d="m442.548 70.997c-12.928-1.111-25.238-1.856-36.936-2.303 9.209 3.86 14.888 10.801 14.888 24.29v277.488c0 4.059-.532 8.034-1.544 11.855 6.817.381 13.805.853 21.007 1.449 8.927.739 16.581-6.318 16.581-15.275v-282.229c0-7.948-6.078-14.594-13.996-15.275z" fill="#d1ccd3"/></g></g></g><g><path d="m488.237 443.826h-139.936c-8.982 0-16.263-7.281-16.263-16.263v-200.659c0-8.982 7.281-16.263 16.263-16.263h139.936c8.982 0 16.263 7.281 16.263 16.263v200.659c0 8.982-7.281 16.263-16.263 16.263z" fill="#88a8d8"/><path d="m488.237 210.641h-65.333c8.982 0 16.263 7.281 16.263 16.263v200.659c0 8.982-7.281 16.263-16.263 16.263h65.333c8.982 0 16.263-7.281 16.263-16.263v-200.659c0-8.982-7.281-16.263-16.263-16.263z" fill="#7296d1"/><path d="m361.583 276.677v-33.54c0-1.63 1.321-2.951 2.951-2.951h107.469c1.63 0 2.951 1.321 2.951 2.951v33.54c0 1.63-1.321 2.951-2.951 2.951h-107.469c-1.63.001-2.951-1.321-2.951-2.951z" fill="#f2f2f2"/><path d="m472.004 240.186h-32.837v39.443h32.837c1.63 0 2.951-1.321 2.951-2.951v-33.54c0-1.631-1.321-2.952-2.951-2.952z" fill="#dbdbdb"/></g></g><g><path d="m423.301 179.054c4.126.265 7.694-2.885 7.951-7.02.257-4.134-2.886-7.694-7.02-7.951-67.383-4.192-116.675 1.477-146.162 6.97-4.072.758-6.758 4.674-6 8.747.672 3.608 3.823 6.128 7.365 6.128 3.21-.001 55.083-12.396 143.866-6.874z"/><path d="m279.436 137.685c3.207 0 55.08-12.396 143.865-6.874 4.126.27 7.694-2.886 7.951-7.02s-2.886-7.694-7.02-7.951c-67.388-4.193-116.678 1.477-146.162 6.97-4.072.759-6.758 4.675-6 8.747.673 3.608 3.824 6.128 7.366 6.128z"/><path d="m370.907 305.879h-6.989c-4.142 0-7.5 3.358-7.5 7.5s3.358 7.5 7.5 7.5h6.989c4.142 0 7.5-3.358 7.5-7.5s-3.358-7.5-7.5-7.5z"/><path d="m404.811 305.879h-6.989c-4.142 0-7.5 3.358-7.5 7.5s3.358 7.5 7.5 7.5h6.989c4.142 0 7.5-3.358 7.5-7.5s-3.358-7.5-7.5-7.5z"/><path d="m431.727 320.879h6.989c4.142 0 7.5-3.358 7.5-7.5s-3.358-7.5-7.5-7.5h-6.989c-4.142 0-7.5 3.358-7.5 7.5s3.357 7.5 7.5 7.5z"/><path d="m472.62 305.879h-6.989c-4.142 0-7.5 3.358-7.5 7.5s3.358 7.5 7.5 7.5h6.989c4.142 0 7.5-3.358 7.5-7.5s-3.358-7.5-7.5-7.5z"/><path d="m370.907 335.917h-6.989c-4.142 0-7.5 3.358-7.5 7.5s3.358 7.5 7.5 7.5h6.989c4.142 0 7.5-3.358 7.5-7.5s-3.358-7.5-7.5-7.5z"/><path d="m404.811 335.917h-6.989c-4.142 0-7.5 3.358-7.5 7.5s3.358 7.5 7.5 7.5h6.989c4.142 0 7.5-3.358 7.5-7.5s-3.358-7.5-7.5-7.5z"/><path d="m431.727 350.917h6.989c4.142 0 7.5-3.358 7.5-7.5s-3.358-7.5-7.5-7.5h-6.989c-4.142 0-7.5 3.358-7.5 7.5s3.357 7.5 7.5 7.5z"/><path d="m472.62 335.917h-6.989c-4.142 0-7.5 3.358-7.5 7.5s3.358 7.5 7.5 7.5h6.989c4.142 0 7.5-3.358 7.5-7.5s-3.358-7.5-7.5-7.5z"/><path d="m370.907 365.955h-6.989c-4.142 0-7.5 3.358-7.5 7.5s3.358 7.5 7.5 7.5h6.989c4.142 0 7.5-3.358 7.5-7.5s-3.358-7.5-7.5-7.5z"/><path d="m404.811 365.955h-6.989c-4.142 0-7.5 3.358-7.5 7.5s3.358 7.5 7.5 7.5h6.989c4.142 0 7.5-3.358 7.5-7.5s-3.358-7.5-7.5-7.5z"/><path d="m431.727 380.955h6.989c4.142 0 7.5-3.358 7.5-7.5s-3.358-7.5-7.5-7.5h-6.989c-4.142 0-7.5 3.358-7.5 7.5s3.357 7.5 7.5 7.5z"/><path d="m472.62 365.955h-6.989c-4.142 0-7.5 3.358-7.5 7.5s3.358 7.5 7.5 7.5h6.989c4.142 0 7.5-3.358 7.5-7.5s-3.358-7.5-7.5-7.5z"/><path d="m370.907 395.992h-6.989c-4.142 0-7.5 3.358-7.5 7.5s3.358 7.5 7.5 7.5h6.989c4.142 0 7.5-3.358 7.5-7.5s-3.358-7.5-7.5-7.5z"/><path d="m404.811 395.992h-6.989c-4.142 0-7.5 3.358-7.5 7.5s3.358 7.5 7.5 7.5h6.989c4.142 0 7.5-3.358 7.5-7.5s-3.358-7.5-7.5-7.5z"/><path d="m472.62 395.992h-40.893c-4.142 0-7.5 3.358-7.5 7.5s3.358 7.5 7.5 7.5h40.893c4.142 0 7.5-3.358 7.5-7.5s-3.358-7.5-7.5-7.5z"/><path d="m69.113 227.296c89.719-5.582 139.709 6.874 143.865 6.874 3.542 0 6.693-2.52 7.365-6.128.759-4.072-1.927-7.988-6-8.747-29.486-5.494-78.783-11.162-146.162-6.97-4.134.257-7.277 3.817-7.02 7.951.257 4.135 3.813 7.284 7.952 7.02z"/><path d="m69.113 179.054c89.719-5.58 139.709 6.874 143.865 6.874 3.542 0 6.693-2.52 7.365-6.128.759-4.072-1.927-7.988-6-8.747-29.486-5.494-78.783-11.162-146.162-6.97-4.134.257-7.277 3.817-7.02 7.951s3.813 7.283 7.952 7.02z"/><path d="m69.113 275.539c89.719-5.58 139.709 6.874 143.865 6.874 3.542 0 6.693-2.52 7.365-6.128.759-4.072-1.927-7.988-6-8.747-29.486-5.494-78.783-11.162-146.162-6.97-4.134.257-7.277 3.817-7.02 7.951.257 4.135 3.813 7.283 7.952 7.02z"/><path d="m69.113 323.782c89.908-5.594 139.414 6.874 143.865 6.874 3.542 0 6.693-2.52 7.365-6.128.759-4.072-1.927-7.988-6-8.747-46.548-8.672-98.338-9.944-146.162-6.97-4.134.257-7.277 3.817-7.02 7.951.257 4.135 3.813 7.282 7.952 7.02z"/><path d="m112.332 129.387h.019c62.258-.157 97.657 8.297 100.627 8.297 3.542 0 6.693-2.52 7.365-6.128.759-4.072-1.927-7.988-6-8.747-20.964-3.906-55.657-8.512-102.029-8.423-4.142.01-7.492 3.376-7.481 7.519.009 4.137 3.365 7.482 7.499 7.482z"/><path d="m493.333 203.697v-74.712c0-23.25-14.541-30.971-29.289-34.206v-8.507c0-11.75-9.16-21.741-20.854-22.746-109.188-9.389-175.89 6.98-193.733 12.221-1.811.532-3.748.539-5.583 0-17.843-5.24-84.547-21.611-193.732-12.221-11.693 1.004-20.853 10.996-20.853 22.746v8.507c-14.748 3.235-29.289 10.956-29.289 34.205v241.487c0 31.038 26.532 55.891 57.9 53.317 52.187-4.319 114.08-3.67 163.775 8.198 16.428 3.923 33.54 3.927 49.979 0 10.88-2.599 28.553-6.022 52.883-8.291v3.866c0 13.103 10.66 23.763 23.763 23.763h139.936c13.103 0 23.763-10.66 23.763-23.763v-200.657c.001-11.354-8.005-20.868-18.666-23.207zm-449.044-117.425c0-4.031 3.136-7.458 7.139-7.801 105.624-9.082 169.844 6.331 187.739 11.528v296.904c-2.345-.282-4.674-.692-6.97-1.24-28.119-6.714-88.822-16.86-179.445-9.361-4.522.383-8.462-3.192-8.462-7.801v-282.229zm284.948 126.461c-20.892 1.629-38.01 4.111-51.167 6.562-4.072.758-6.758 4.674-6 8.747.672 3.608 3.823 6.128 7.365 6.128 2.59 0 15.432-3.363 45.102-5.997v33.186c-18.773 1.621-34.309 3.914-46.467 6.179-4.072.758-6.758 4.674-6 8.747.672 3.608 3.823 6.128 7.365 6.128 2.59 0 15.432-3.364 45.102-5.997v33.178c-16.377 1.411-31.932 3.479-46.467 6.186-4.072.758-6.758 4.674-6 8.747.672 3.608 3.823 6.128 7.365 6.128 2.321 0 15.955-3.416 45.102-5.996v83.974c-25.924 2.348-44.799 6.002-56.367 8.765-14.079 3.362-28.928 3.363-43.01 0-51.381-12.269-114.663-13.013-168.493-8.558-22.417 1.84-41.667-15.871-41.667-38.368v-241.488c0-10.506 3.66-15.772 14.289-18.768v258.284c0 13.328 11.408 23.846 24.7 22.75 88.545-7.328 147.475 2.494 174.723 9.001 11.451 2.734 23.911 2.865 35.91 0 10.184-2.433 21.522-4.545 33.7-6.28 4.101-.584 6.952-4.382 6.367-8.483-.584-4.101-4.386-6.956-8.482-6.367-12.636 1.8-24.435 4-35.069 6.54-2.297.549-4.626.958-6.971 1.241v-296.903c17.892-5.196 82.113-20.61 187.739-11.528 4.003.344 7.139 3.771 7.139 7.801v89.307c0 4.142 3.358 7.5 7.5 7.5s7.5-3.358 7.5-7.5v-65.362c10.628 2.996 14.289 8.262 14.289 18.768v74.156h-130.033c-7.797 0-14.728 3.775-19.064 9.592zm167.763 214.83c0 4.832-3.931 8.763-8.763 8.763h-139.936c-4.832 0-8.763-3.931-8.763-8.763v-200.659c0-4.832 3.931-8.763 8.763-8.763h139.936c4.832 0 8.763 3.931 8.763 8.763z"/><path d="m472.003 232.686h-107.469c-5.763 0-10.451 4.688-10.451 10.452v33.54c0 5.763 4.688 10.452 10.451 10.452h107.469c5.763 0 10.452-4.688 10.452-10.452v-33.54c0-5.763-4.688-10.452-10.452-10.452zm-4.548 39.443h-98.372v-24.443h98.372z"/></g></g></svg>