<svg id="Capa_1" enable-background="new 0 0 512 512" height="512" viewBox="0 0 512 512" width="512" xmlns="http://www.w3.org/2000/svg"><g><g><g><g><path d="m480.929 321.925h-449.858v-290.229c0-13.376 10.843-24.219 24.219-24.219h401.419c13.376 0 24.219 10.843 24.219 24.219v290.229z" fill="#c1a0a0"/><path d="m456.709 7.477h-65.13c13.376 0 24.219 10.843 24.219 24.219v290.229h65.13v-290.229c.001-13.376-10.843-24.219-24.219-24.219z" fill="#b58c8c"/><path d="m59.348 293.647v-253.577c0-2.384 1.933-4.316 4.316-4.316h384.67c2.384 0 4.316 1.933 4.316 4.316v253.577z" fill="#89808c"/><path d="m452.652 293.647v-253.577c0-2.384-1.933-4.316-4.316-4.316h-32.536v257.894h36.852z" fill="#756e78"/></g><path d="m494.621 327.898h-477.242c-5.029 0-9.106-4.077-9.106-9.106v-16.04c0-5.029 4.077-9.106 9.106-9.106h156.753 320.488c5.029 0 9.106 4.077 9.106 9.106v16.04c.001 5.03-4.076 9.106-9.105 9.106z" fill="#b58c8c"/><path d="m494.621 293.647h-65.13c5.029 0 9.106 4.077 9.106 9.106v16.04c0 5.029-4.077 9.106-9.106 9.106h65.13c5.029 0 9.106-4.077 9.106-9.106v-16.04c0-5.029-4.077-9.106-9.106-9.106z" fill="#a87f7f"/><path d="m480.929 293.647h-89.22v-15.095c0-8.337 6.758-15.095 15.095-15.095h59.029c8.337 0 15.095 6.758 15.095 15.095v15.095z" fill="#b3e59f"/><path d="m465.833 263.457h-51.438c8.337 0 15.095 6.758 15.095 15.095v15.095h51.438v-15.095c.001-8.337-6.758-15.095-15.095-15.095z" fill="#95d6a4"/></g><g><g><g><path d="m224.795 367.312-74.682-.018c-11.448.565-22.478 5.271-29.585 14.296l-7.637 9.699c-4.769 6.057-12.053 9.592-19.762 9.592h-53.414c-.18 0-.327.146-.327.327v86.327c0 .18.146.327.327.327h63.686c3.188 0 6.347.606 9.309 1.786l20.432 8.14c15.663 5.339 27.732 5.737 43.593 5.737h22.131c3.27 0 5.921-2.651 5.921-5.921v-102.235h4.775c11.286 0 20.436-9.149 20.436-20.436v-2.418c0-2.874-2.329-5.203-5.203-5.203z" fill="#ffece4"/><path d="m81.936 396.744h-63.295c-5.521 0-9.997 4.476-9.997 9.997v75.521c0 5.521 4.476 9.997 9.997 9.997h63.295z" fill="#88a8d8"/><path d="m82.279 384.527h-8.222c-6.27 0-11.353 5.083-11.353 11.353v97.29c0 6.27 5.083 11.353 11.353 11.353h8.222c6.27 0 11.353-5.083 11.353-11.353v-97.29c0-6.27-5.083-11.353-11.353-11.353z" fill="#7296d1"/></g></g><path d="m263.796 145.685-54.239 337.803c-1.446 9.006-9.366 15.53-18.482 15.225-11.115-.372-19.271-10.582-17.177-21.505l64.412-336.011c1.219-6.358 6.948-10.837 13.412-10.485 7.671.418 13.291 7.388 12.074 14.973z" fill="#c1bcc4"/><g fill="#ffddce"><path d="m213.5 422.419h-17.368c-7.47 0-13.525-6.055-13.525-13.525 0-7.47 6.055-13.525 13.525-13.525h17.368c7.47 0 13.525 6.055 13.525 13.525 0 7.469-6.055 13.525-13.525 13.525z"/><path d="m214.937 449.468h-24.163c-7.47 0-13.525-6.055-13.525-13.525 0-7.47 6.055-13.525 13.525-13.525h24.163c7.47 0 13.525 6.055 13.525 13.525-.001 7.47-6.056 13.525-13.525 13.525z"/><path d="m210.086 476.518h-26.65c-7.47 0-13.525-6.055-13.525-13.525 0-7.47 6.055-13.525 13.525-13.525h26.65c7.47 0 13.525 6.055 13.525 13.525 0 7.47-6.055 13.525-13.525 13.525z"/><path d="m201.688 503.568h-23c-7.47 0-13.525-6.055-13.525-13.525 0-7.47 6.055-13.525 13.525-13.525h23c7.47 0 13.525 6.055 13.525 13.525-.001 7.469-6.056 13.525-13.525 13.525z"/></g><path d="m160.153 395.369h49.41c11.286 0 20.436-9.149 20.436-20.436v-2.418c0-2.874-2.33-5.203-5.203-5.203h-64.642" fill="#ffece4"/></g></g><g><path d="m402.21 86.445h-292.42c-4.129 0-7.477 3.347-7.477 7.477 0 4.129 3.347 7.477 7.477 7.477h292.42c4.129 0 7.477-3.347 7.477-7.477s-3.348-7.477-7.477-7.477z"/><path d="m494.621 286.171h-6.215v-7.619-143.196c0-4.129-3.347-7.477-7.477-7.477s-7.477 3.347-7.477 7.477v121.951c-5.357-1.927-9.092-1.145-13.324-1.326v-215.911c0-6.503-5.291-11.793-11.793-11.793h-384.67c-6.503 0-11.793 5.29-11.793 11.793v246.101h-13.324v-254.475c0-9.232 7.511-16.743 16.743-16.743h401.419c9.232 0 16.743 7.511 16.743 16.743v68.79c0 4.129 3.347 7.477 7.477 7.477s7.477-3.347 7.477-7.477v-68.79c-.002-17.477-14.221-31.696-31.698-31.696h-401.419c-17.477 0-31.696 14.219-31.696 31.696v254.475h-6.215c-9.144 0-16.583 7.439-16.583 16.582v16.04c0 9.144 7.439 16.582 16.583 16.582h176.095l-4.687 24.451-38.671-.009c-.129.014-.247.003-.371.009-14.279.705-27.069 6.952-35.091 17.138-6.563 7.719-8.043 11.953-14.025 14.752-1.902-8.383-9.4-14.665-18.35-14.665h-8.221c-8.053 0-14.922 5.091-17.608 12.216h-37.809c-9.635 0-17.473 7.839-17.473 17.474v75.521c0 9.635 7.838 17.473 17.473 17.473h37.791c2.673 7.15 9.554 12.265 17.626 12.265h8.221c9.649 0 17.615-7.298 18.695-16.662 1.593.098 4.763-.42 8.97 1.255l20.432 8.14c14.501 5.776 32.48 6.268 46.36 6.268 34.195.06 22.401.039 24.952.044 15.31 0 25.573-15.991 18.977-29.939 10.103-5.924 13.435-18.804 7.449-28.832 9.482-7.666 10.548-21.729 2.093-30.705 6.111-8.035 5.675-19.165-1.126-26.707 9.324-9.135 9.822-22.977 6.842-28.418l4.988-31.068h253.71c9.144 0 16.583-7.439 16.583-16.582v-16.04c-.001-9.144-7.44-16.583-16.583-16.583zm-439.393 198.61h-36.587c-1.39 0-2.52-1.13-2.52-2.52v-75.521c0-1.39 1.13-2.52 2.52-2.52h36.587zm30.927 8.39c0 2.137-1.739 3.876-3.876 3.876h-8.221c-2.137 0-3.877-1.739-3.877-3.876v-97.29c0-2.137 1.739-3.876 3.877-3.876h8.221c2.137 0 3.876 1.739 3.876 3.876zm379.678-222.238c4.201 0 7.619 3.418 7.619 7.619v7.619h-74.267v-7.619c0-4.201 3.418-7.619 7.619-7.619zm-264.145 225.158c-12.778-.014-21.514.037-23.619-.031-7.566-.772-6.996-12.065.619-12.065h23c8.004 0 7.995 12.096 0 12.096zm8.398-27.05c-14.997 0-11.773 0-26.651 0-8.005 0-7.995-12.096 0-12.096h26.651c8.005 0 7.995 12.096 0 12.096zm4.851-27.049c-8.49 0-19.351 0-24.163 0-8.005 0-7.996-12.097 0-12.097h24.163c8.005 0 7.995 12.097 0 12.097zm-18.805-39.146h17.369c8.005 0 7.995 12.096 0 12.096h-17.369c-8.005 0-7.995-12.096 0-12.096zm26.39-27.913c0 7.146-5.813 12.959-12.959 12.959-14.629 0-34.493 0-49.41 0-4.129 0-7.477 3.347-7.477 7.477 0 4.129 3.347 7.477 7.477 7.477h15.874c-1.676 5.559-.987 11.474 1.919 16.506-7.944 6.156-10.482 16.982-5.909 26.027-9.493 6.164-12.454 18.639-6.597 28.386-6.221 5.072-9.255 13.403-7.012 21.727-7.409-.628-14.526-1.952-22.697-4.722l-20.254-8.069c-7.263-2.894-12.985-2.214-14.369-2.317v-73.019c15.024-3.763 19.803-15.346 25.293-21.15 5.313-6.747 14.018-10.913 23.903-11.445 31.733.008 40.173.01 72.216.018v.145zm-.683-15.099-17.827-.004c5.573-29.071 36.997-192.996 41.642-217.225.513-2.672 2.956-4.574 5.663-4.427 3.236.177 5.613 3.115 5.097 6.322zm274.411-41.041c0 .899-.731 1.629-1.629 1.629h-251.309l12.438-77.466h39.129c4.129 0 7.477-3.347 7.477-7.477s-3.347-7.477-7.477-7.477h-36.728l5.175-32.232h138.884c4.129 0 7.477-3.347 7.477-7.477s-3.347-7.477-7.477-7.477h-136.483l5.175-32.233h131.308c4.129 0 7.477-3.347 7.477-7.477s-3.347-7.477-7.477-7.477h-133.398c-3.482-6.201-9.851-10.012-16.683-10.384-7.892-.431-15.138 3.791-18.875 10.384h-123.464c-4.129 0-7.477 3.347-7.477 7.477s3.347 7.477 7.477 7.477h119.492l-6.179 32.233h-113.313c-4.129 0-7.477 3.347-7.477 7.477s3.347 7.477 7.477 7.477h110.446l-6.179 32.232h-104.267c-4.129 0-7.477 3.347-7.477 7.477s3.347 7.477 7.477 7.477h101.401l-14.85 77.466h-178.962c-.899 0-1.629-.731-1.629-1.629v-16.04c0-.898.731-1.629 1.629-1.629h156.926c4.129 0 7.477-3.347 7.477-7.477 0-4.129-3.347-7.477-7.477-7.477h-107.48v-242.939h378.35v212.749h-38.371c-12.447 0-22.572 10.126-22.572 22.572v7.619h-109.343c-4.129 0-7.477 3.347-7.477 7.477 0 4.129 3.347 7.477 7.477 7.477h219.732c.899 0 1.629.731 1.629 1.629z"/></g></g></svg>