<svg id="Capa_1" enable-background="new 0 0 512 512" height="512" viewBox="0 0 512 512" width="512" xmlns="http://www.w3.org/2000/svg"><g><g><g><g><g><g><g><g><path d="m256 495.108c-8.122 0-16.249-.958-24.155-2.846-17.664-4.218-55.67-11.295-111.734-11.295-19.638 0-40.123.871-60.887 2.59-1.313.108-2.646.163-3.961.163-26.337 0-47.764-21.44-47.764-47.794v-276.859c0-25.008 18.779-28.361 43.681-30.502 23.472-2.018 46.663-3.041 68.93-3.041 70.161 0 116.197 10.024 135.889 15.422 19.692-5.398 65.728-15.422 135.889-15.422 22.267 0 45.458 1.023 68.931 3.041 24.901 2.14 43.68 5.494 43.68 30.502v276.858c0 12.807-4.998 24.835-14.073 33.87-9.02 8.979-20.985 13.924-33.689 13.924-.002 0-.002 0-.004 0-1.315 0-2.646-.055-3.959-.163-20.764-1.718-41.248-2.59-60.887-2.59-56.064 0-94.07 7.077-111.736 11.295-7.902 1.889-16.029 2.847-24.151 2.847z" fill="#7fb2f9"/><path d="m460.82 128.565c-23.472-2.018-46.664-3.041-68.931-3.041-69.463 0-115.262 9.822-135.277 15.256v354.318c7.918-.047 15.835-.996 23.541-2.837 17.665-4.219 55.672-11.295 111.736-11.295 19.638 0 40.123.871 60.886 2.59 1.312.108 2.644.163 3.959.163h.003c12.705 0 24.67-4.945 33.689-13.924 9.075-9.035 14.073-21.063 14.073-33.87v-276.858c.001-25.008-18.778-28.361-43.679-30.502z" fill="#60a0f7"/><g><path d="m460.82 128.565c-7.29-.627-14.547-1.146-21.764-1.58v308.94c0 12.807-4.998 24.835-14.073 33.87-5.21 5.186-11.405 9.017-18.155 11.336 15 .326 30.395 1.138 45.947 2.425 1.312.108 2.644.163 3.959.163h.003c12.705 0 24.67-4.945 33.689-13.924 9.075-9.035 14.073-21.063 14.073-33.87v-276.858c.001-25.008-18.778-28.361-43.679-30.502z" fill="#538ef6"/></g><path d="m459.526 98.818c-112.094-9.637-180.025 7.006-198.43 12.411-3.326.977-6.866.977-10.192 0-18.405-5.405-86.336-22.048-198.43-12.411-8.227.707-14.542 7.613-14.542 15.87v319.189c0 9.307 7.953 16.639 17.228 15.871 93.626-7.748 156.02 2.859 183.995 9.539 11.082 2.647 22.609 2.647 33.691 0 27.975-6.681 90.368-17.288 183.995-9.539 9.275.768 17.228-6.564 17.228-15.871v-319.189c-.001-8.258-6.316-15.163-14.543-15.87z" fill="#f7f4f7"/><path d="m272.845 459.288c27.975-6.681 90.368-17.288 183.995-9.539 9.275.768 17.228-6.564 17.228-15.871v-319.19c0-8.258-6.315-15.163-14.542-15.87-112.094-9.637-180.025 7.006-198.43 12.411-1.663.488-3.379.732-5.096.732v349.312c5.652-.001 11.304-.662 16.845-1.985z" fill="#edeaed"/><path d="m459.526 98.818c-13.976-1.201-27.264-1.994-39.856-2.451 11.849 3.66 19.386 10.807 19.386 26.645v312.914c0 4.266-.567 8.442-1.642 12.453 6.323.373 12.787.82 19.426 1.37 9.275.768 17.228-6.564 17.228-15.871v-319.19c0-8.258-6.315-15.163-14.542-15.87z" fill="#e0dde0"/></g></g></g></g></g><g><g><g><g><path d="m398.284 249.44c-8.85 0-16.049-7.2-16.049-16.049v-54.853c0-69.606-56.629-126.234-126.234-126.234-69.607 0-126.236 56.629-126.236 126.234v54.853c0 8.85-7.2 16.049-16.048 16.049-8.85 0-16.049-7.2-16.049-16.049v-54.853c0-42.292 16.47-82.052 46.376-111.958 29.905-29.905 69.666-46.374 111.958-46.374 42.291 0 82.052 16.47 111.958 46.374 29.905 29.906 46.374 69.667 46.374 111.958v54.853c-.001 8.849-7.201 16.049-16.05 16.049z" fill="#bed8fb"/></g></g><path d="m256.612 20.212v32.098c69.325.332 125.622 56.825 125.622 126.227v54.853c0 8.85 7.199 16.049 16.049 16.049 8.849 0 16.048-7.199 16.048-16.049v-54.853c0-42.291-16.47-82.052-46.374-111.958-29.76-29.76-69.282-46.209-111.345-46.367z" fill="#9dc6fb"/><g><path d="m135.968 291.17h15.416c8.728 0 15.804-7.076 15.804-15.804v-82.641c0-8.728-7.076-15.804-15.804-15.804h-15.416c-21.153 0-38.301 17.148-38.301 38.301v37.646c0 21.154 17.148 38.302 38.301 38.302z" fill="#606060"/></g><path d="m151.385 176.922h-14.911v114.249h14.911c8.728 0 15.804-7.076 15.804-15.804v-82.641c-.001-8.729-7.076-15.804-15.804-15.804z" fill="#808080"/><g><path d="m376.032 291.17h-15.416c-8.728 0-15.804-7.076-15.804-15.804v-82.641c0-8.728 7.076-15.804 15.804-15.804h15.416c21.153 0 38.301 17.148 38.301 38.301v37.646c0 21.154-17.148 38.302-38.301 38.302z" fill="#606060"/></g><path d="m391.929 135.649c-9.509 3.87-20.373-.358-24.789-9.627-8.502-17.847-21.331-33.681-37.206-45.669-21.465-16.21-47.031-24.777-73.934-24.777-26.42 0-51.615 8.291-72.86 23.975-15.92 11.754-28.571 26.823-37.217 44.194-4.537 9.115-15.341 13.177-24.749 9.282-10.318-4.271-14.962-16.392-9.999-26.395 7.731-15.582 17.96-29.775 30.553-42.368 30.522-30.523 71.105-47.333 114.272-47.333s83.75 16.81 114.273 47.333c13.365 13.365 24.053 28.499 31.918 45.167 4.741 10.046.065 22.015-10.223 26.202z" fill="#e07f84"/></g></g></g><path d="m360.615 176.922h14.911v114.249h-14.911c-8.728 0-15.804-7.076-15.804-15.804v-82.641c.001-8.729 7.076-15.804 15.804-15.804z" fill="#808080"/></g><g><path d="m402.191 109.431c-7.866-16.668-18.553-31.801-31.918-45.167-30.523-30.523-71.106-47.333-114.273-47.333-13.956 0-27.638 1.767-40.801 5.177 31.456 4.886 60.574 19.105 84.05 41.297 10.872 4.1 21.182 9.772 30.686 16.948 15.876 11.988 28.704 27.822 37.206 45.669 4.415 9.269 15.279 13.497 24.789 9.627l.039-.016c10.288-4.187 14.963-16.157 10.222-26.202z" fill="#db636e"/></g><g><path d="m74.192 377.725c93.268-5.801 145.196 7.141 149.498 7.141 3.541 0 6.692-2.52 7.364-6.128.759-4.072-1.928-7.988-5.999-8.747-30.62-5.704-81.811-11.592-151.795-7.237-4.134.257-7.277 3.817-7.02 7.951.258 4.135 3.805 7.287 7.952 7.02z"/><path d="m74.192 416.131c93.268-5.801 145.196 7.141 149.498 7.141 3.541 0 6.692-2.52 7.364-6.128.759-4.072-1.928-7.988-5.999-8.747-30.62-5.704-81.811-11.591-151.795-7.237-4.134.257-7.277 3.817-7.02 7.951.258 4.134 3.805 7.289 7.952 7.02z"/><path d="m74.192 339.321c93.263-5.801 145.196 7.141 149.498 7.141 3.541 0 6.692-2.52 7.364-6.128.759-4.072-1.928-7.988-5.999-8.747-30.621-5.705-81.813-11.591-151.795-7.237-4.134.257-7.277 3.817-7.02 7.951.258 4.133 3.805 7.284 7.952 7.02z"/><path d="m438.739 362.755c-69.986-4.354-121.175 1.533-151.795 7.237-4.071.758-6.758 4.674-5.999 8.747.672 3.608 3.822 6.128 7.364 6.128 3.313 0 57.203-12.884 149.498-7.141 4.158.266 7.693-2.886 7.951-7.02.259-4.134-2.885-7.694-7.019-7.951z"/><path d="m438.739 401.16c-69.986-4.354-121.175 1.532-151.795 7.237-4.071.758-6.758 4.674-5.999 8.747.672 3.608 3.822 6.128 7.364 6.128 3.304 0 57.203-12.882 149.498-7.141 4.158.268 7.693-2.886 7.951-7.02.259-4.134-2.885-7.694-7.019-7.951z"/><path d="m438.739 324.35c-69.986-4.354-121.175 1.532-151.795 7.237-4.071.759-6.758 4.675-5.999 8.747.672 3.608 3.822 6.128 7.364 6.128 3.31 0 57.205-12.881 149.498-7.141 4.158.263 7.693-2.887 7.951-7.02.259-4.134-2.885-7.694-7.019-7.951z"/><path d="m481.568 123.763v-9.075c0-12.058-9.399-22.311-21.399-23.343-20.709-1.78-41.2-2.757-60.995-2.93-6.679-10.563-14.567-20.424-23.597-29.454-66.086-66.085-173.058-66.096-239.153 0-9.018 9.018-16.917 18.881-23.599 29.454-19.796.173-40.287 1.15-60.994 2.93-11.999 1.031-21.399 11.285-21.399 23.343v9.075c-15.291 3.311-30.432 11.235-30.432 35.304v276.858c0 32.249 27.606 57.766 59.843 55.105 20.562-1.702 40.839-2.564 60.268-2.564 55.297 0 92.648 6.948 109.992 11.09 17.024 4.066 34.762 4.069 51.793 0 17.343-4.142 54.695-11.09 109.994-11.09 19.429 0 39.706.863 60.269 2.564 31.926 2.639 59.841-22.485 59.841-55.104v-276.859c0-24.069-15.141-31.992-30.432-35.304zm-80.054 14.842c3.528 12.921 5.319 26.293 5.319 39.931v2.819c-4.911-4.47-10.795-7.888-17.292-9.898-.478-9.129-1.884-18.122-4.193-26.898 5.816-.148 11.488-2.179 16.166-5.954zm5.319 76.618v37.646c0 14.577-10.183 26.813-23.807 29.99v-97.626c13.624 3.177 23.807 15.413 23.807 29.99zm-288.939-105.257c7.358-14.831 17.162-28.423 29.138-40.398 60.222-60.224 157.707-60.232 217.938 0 12.711 12.712 22.952 27.201 30.438 43.064 6.663 14.117-14.649 24.534-21.497 10.164-9.068-19.038-22.713-35.784-39.457-48.428-46.323-34.979-109.626-34.914-155.77-.85-16.93 12.5-30.212 28.274-39.476 46.885-2.771 5.567-9.433 8.069-15.167 5.695-6.306-2.611-9.182-10.018-6.147-16.132zm213.523-18.757c-38.253 3.688-62.905 10.024-72.436 12.823-1.904.559-3.975.585-5.964 0-9.535-2.8-34.192-9.137-72.455-12.825 2.261-1.946 4.599-3.826 7.031-5.622 40.915-30.203 96.918-30.134 137.821.753 2.058 1.553 4.055 3.183 6.003 4.871zm-226.25 87.327c0-14.678 2.065-29.027 6.139-42.834 4.481 3.763 10.071 5.998 16.059 6.252-2.734 9.593-4.378 19.459-4.903 29.502-6.498 2.009-12.384 5.428-17.296 9.899v-2.819zm0 36.687c0-14.577 10.183-26.813 23.807-29.99v17.064c0 4.142 3.357 7.5 7.5 7.5s7.5-3.358 7.5-7.5v-17.875h7.411c4.579 0 8.304 3.725 8.304 8.303v82.642c0 4.579-3.725 8.303-8.304 8.303h-7.411v-46.256c0-4.142-3.357-7.5-7.5-7.5s-7.5 3.358-7.5 7.5v45.445c-13.624-3.177-23.807-15.413-23.807-29.99zm-59.735-100.535c0-4.339 3.375-8.027 7.685-8.397 17.334-1.491 34.505-2.405 51.228-2.75-2.084 4.311-2.942 9.098-2.552 13.818-7.707 19.426-11.625 39.996-11.625 61.178v36.687 37.646c0 25.254 20.547 45.801 45.802 45.801h.495.01s.006 0 .01 0h14.901c12.85 0 23.304-10.454 23.304-23.303v-82.642c0-12.85-10.454-23.303-23.304-23.303h-13.763c.863-11.362 3.344-22.45 7.401-33.082 3.121-2.406 5.756-5.522 7.614-9.253 3.946-7.926 8.726-15.266 14.288-21.99 43.597 3.245 71.272 10.238 81.575 13.243v334.99c-2.558-.295-5.099-.739-7.604-1.337-29.198-6.973-92.237-17.507-186.354-9.719-2.372.201-4.638-.583-6.39-2.196-1.755-1.615-2.721-3.817-2.721-6.201zm451.568 321.238c0 23.75-20.314 42.084-43.606 40.156-20.971-1.735-41.664-2.615-61.504-2.615-56.836 0-95.494 7.206-113.479 11.5-14.67 3.505-30.152 3.504-44.824 0-17.985-4.295-56.643-11.5-113.477-11.5-19.84 0-40.533.88-61.503 2.615-23.523 1.945-43.607-16.688-43.607-40.156v-276.859c0-11.21 3.945-16.755 15.432-19.885v294.694c0 6.53 2.756 12.812 7.562 17.236 4.802 4.421 11.283 6.645 17.785 6.11 92.04-7.619 153.306 2.593 181.634 9.359 11.749 2.806 24.647 2.993 37.176 0 28.327-6.765 89.592-16.978 181.634-9.359 6.505.534 12.984-1.69 17.785-6.11 4.806-4.424 7.562-10.706 7.562-17.236v-43.264c0-4.142-3.357-7.5-7.5-7.5s-7.5 3.358-7.5 7.5v43.264c0 2.383-.966 4.585-2.721 6.201-1.751 1.613-4.019 2.398-6.39 2.196-119.11-9.857-182.147 9.694-193.958 11.056v-334.989c10.292-3.003 37.932-9.987 81.469-13.235 6.08 7.369 11.276 15.485 15.4 24.142 1.8 3.778 4.384 6.941 7.46 9.403 3.553 9.927 5.748 20.24 6.549 30.773h-13.763c-12.85 0-23.304 10.454-23.304 23.303v82.642c0 12.85 10.454 23.303 23.304 23.303h14.901.01s.006 0 .01 0h.495c25.255 0 45.802-20.546 45.802-45.801v-37.646-36.687c0-20.03-3.513-39.553-10.425-58.069.514-4.825-.298-9.711-2.434-14.238-.425-.901-.864-1.796-1.305-2.689 16.717.345 33.884 1.259 51.215 2.75 4.31.37 7.685 4.059 7.685 8.397v240.808c0 4.142 3.357 7.5 7.5 7.5s7.5-3.358 7.5-7.5v-216.314c11.486 3.13 15.432 8.675 15.432 19.885v276.859zm-128.974-251.504v99.248h-7.411c-4.579 0-8.304-3.725-8.304-8.303v-82.642c0-4.579 3.725-8.303 8.304-8.303z"/></g></g></svg>