<svg id="Capa_1" enable-background="new 0 0 512 512" height="512" viewBox="0 0 512 512" width="512" xmlns="http://www.w3.org/2000/svg"><g><g><g><g><path d="m465.685 395.515h-419.37v-272.54c0-15.15 12.282-27.432 27.432-27.432h364.506c15.15 0 27.432 12.282 27.432 27.432z" fill="#f7f4f7"/><path d="m438.253 95.543h-65.333c15.15 0 27.432 12.282 27.432 27.432v272.54h65.333v-272.54c0-15.15-12.282-27.432-27.432-27.432z" fill="#edeaed"/><path d="m80.315 361.515v-224.88c0-3.917 3.175-7.092 7.092-7.092h337.187c3.917 0 7.092 3.175 7.092 7.092v224.88z" fill="#b3e59f"/><path d="m431.686 361.515v-224.88c0-3.917-3.175-7.092-7.092-7.092h-24.242v231.972z" fill="#95d6a4"/><path d="m463.446 416.457h-414.892c-22.673 0-41.054-18.38-41.054-41.054 0-7.67 6.218-13.887 13.887-13.887h469.225c7.67 0 13.887 6.218 13.887 13.887.001 22.673-18.379 41.054-41.053 41.054z" fill="#d1ccd3"/><path d="m490.613 361.515h-65.333c7.67 0 13.887 6.218 13.887 13.887 0 22.674-18.38 41.054-41.054 41.054h65.333c22.673 0 41.054-18.38 41.054-41.054 0-7.669-6.218-13.887-13.887-13.887z" fill="#c1bcc4"/></g><path d="m191.5 361.515c0 15.172 12.299 27.471 27.471 27.471h74.059c15.172 0 27.471-12.299 27.471-27.471z" fill="#f7f4f7"/></g><path d="m467.914 324.381h-76.427c-10.254 0-18.567 8.313-18.567 18.567v18.567h113.561v-18.567c0-10.254-8.313-18.567-18.567-18.567z" fill="#b58c8c"/><path d="m486.481 342.948c0-10.254-8.313-18.567-18.567-18.567h-67.562v37.134h86.129z" fill="#a87f7f"/></g><g><path d="m254.937 205.615h-20.999c-4.142 0-7.5 3.358-7.5 7.5v33.288.054 38.949c0 4.136 3.355 7.5 7.5 7.5h.033c.001 0 19.311-.086 24.633-.086 14.865 0 26.959-12.094 26.959-26.958 0-8.976-4.414-16.936-11.181-21.839 2.945-4 4.689-8.936 4.689-14.273 0-13.308-10.827-24.135-24.134-24.135zm-13.499 15h13.499c5.037 0 9.134 4.098 9.134 9.134s-4.098 9.134-9.134 9.134c-2.491 0-8.528.022-13.499.042zm17.166 57.205c-3.137 0-11.118.03-17.166.054v-23.949c18.621-.075 13.841-.022 17.166-.022 6.594 0 11.959 5.365 11.959 11.958s-5.365 11.959-11.959 11.959z"/><path d="m138.009 289.145 4.921-12.92h33.261l4.868 12.898c1.462 3.875 5.788 5.833 9.665 4.369 3.875-1.463 5.832-5.79 4.369-9.665l-26.899-71.276c-.026-.068-.053-.137-.081-.204-1.415-3.441-4.731-5.663-8.451-5.663-.003 0-.006 0-.009 0-3.724.003-7.041 2.233-8.45 5.68-.023.056-.045.113-.067.169l-27.145 71.272c-1.474 3.871.468 8.204 4.339 9.678 3.863 1.473 8.202-.461 9.679-4.338zm21.627-56.786 10.894 28.866h-21.888z"/><path d="m358.229 220.615c5.742 0 11.278 1.69 16.011 4.888 3.433 2.318 8.095 1.416 10.414-2.016 2.319-3.433 1.416-8.095-2.016-10.414-7.222-4.879-15.663-7.458-24.408-7.458-24.066 0-43.646 19.579-43.646 43.646s19.579 43.646 43.646 43.646c11.416 0 21.454-4.461 28.518-12.885 2.662-3.174 2.247-7.904-.927-10.566-3.175-2.662-7.905-2.246-10.566.927-4.376 5.218-10.296 7.523-17.025 7.523-15.795 0-28.646-12.85-28.646-28.646s12.849-28.645 28.645-28.645z"/><path d="m493.981 354.307v-11.359c0-12.568-8.941-23.087-20.796-25.531v-26.417c0-4.142-3.358-7.5-7.5-7.5s-7.5 3.358-7.5 7.5v25.881h-19v-180.245c0-8.046-6.546-14.592-14.592-14.592h-337.186c-8.046 0-14.592 6.546-14.592 14.592v21.124c0 4.142 3.358 7.5 7.5 7.5s7.5-3.358 7.5-7.5v-20.716h336.371v179.837h-32.699c-14.374 0-26.067 11.694-26.067 26.067v11.067h-277.605v-161.193c0-4.142-3.358-7.5-7.5-7.5s-7.5 3.358-7.5 7.5v161.193h-19v-231.04c0-10.99 8.941-19.932 19.932-19.932h364.506c10.991 0 19.932 8.941 19.932 19.932v133.298c0 4.142 3.358 7.5 7.5 7.5s7.5-3.358 7.5-7.5v-133.298c0-19.261-15.67-34.932-34.932-34.932h-364.506c-19.262 0-34.932 15.67-34.932 34.932v231.04h-17.428c-11.793 0-21.387 9.594-21.387 21.388 0 26.772 21.781 48.554 48.554 48.554h414.892c26.773 0 48.554-21.781 48.554-48.554 0-10.645-7.825-19.472-18.019-21.096zm-113.561-11.359c0-6.103 4.964-11.067 11.067-11.067h76.427c6.103 0 11.067 4.965 11.067 11.067v11.067h-98.561zm-68.894 26.067c-2.973 7.303-10.138 12.471-18.496 12.471h-74.059c-8.359 0-15.524-5.167-18.496-12.471zm151.92 39.942h-414.892c-18.502 0-33.554-15.053-33.554-33.554 0-3.522 2.865-6.388 6.387-6.388h163.431c3.443 15.689 17.444 27.471 34.152 27.471h74.059c16.708 0 30.709-11.781 34.152-27.471h163.431c3.522 0 6.387 2.866 6.387 6.388.001 18.501-15.051 33.554-33.553 33.554z"/></g></g></svg>