<svg id="Capa_1" enable-background="new 0 0 512 512" height="512" viewBox="0 0 512 512" width="512" xmlns="http://www.w3.org/2000/svg"><g><g><g><g><circle cx="256" cy="317.541" fill="#f4e580" r="187.048"/></g><g><circle cx="256" cy="317.541" fill="#f7f4f7" r="156.03"/></g><path d="m388.263 185.279c-44.967-44.967-107.131-62.24-165.321-51.844 36.337 6.492 71.125 23.764 99.205 51.844 73.047 73.047 73.047 191.479 0 264.525-28.08 28.08-62.868 45.353-99.205 51.844 58.19 10.396 120.354-6.877 165.321-51.844 73.046-73.046 73.046-191.479 0-264.525z" fill="#efd133"/><path d="m366.33 207.211c-18.26-18.26-39.921-31.041-62.942-38.357 6.521 4.991 12.794 10.46 18.759 16.425 73.047 73.047 73.047 191.479 0 264.525-5.965 5.965-12.238 11.434-18.759 16.424 23.022-7.316 44.683-20.097 62.942-38.357 60.934-60.933 60.934-159.726 0-220.66z" fill="#e0dde0"/><g><g><path d="m358.067 168.125c-66.468 20.716-137.666 20.716-204.135 0-5.017-1.564-8.434-6.208-8.434-11.462v-111.134h221.002v111.134c.001 5.255-3.416 9.899-8.433 11.462z" fill="#756e78"/><g><path d="m301.099 45.529v125.378c0 4.467-2.474 8.484-6.296 10.552 21.357-2.431 42.54-6.875 63.264-13.334 5.017-1.564 8.434-6.208 8.434-11.462v-111.134z" fill="#665e66"/></g><path d="m240.065 10.141-146.667 50.268c-1.722.59-1.722 3.025 0 3.616l146.667 50.268c10.329 3.54 21.542 3.54 31.87 0l146.667-50.268c1.722-.59 1.722-3.025 0-3.616l-146.667-50.268c-10.328-3.54-21.542-3.54-31.87 0z" fill="#665e66"/></g><path d="m434.552 147.933h-29.316c-3.938 0-6.974-3.471-6.449-7.374l5.484-40.809c.434-3.23 3.19-5.641 6.449-5.641h18.347c3.259 0 6.015 2.411 6.449 5.641l5.484 40.809c.526 3.903-2.51 7.374-6.448 7.374z" fill="#665e66"/></g></g><g fill="#5884c9"><path d="m319.912 263.994-120.487 29.703v-36.547l120.487-29.703z"/><ellipse cx="297.957" cy="355.424" rx="21.955" ry="16.384"/><ellipse cx="177.47" cy="384.073" rx="21.955" ry="16.384"/></g></g><g><path d="m177.47 407.959c16.518 0 29.456-10.491 29.456-23.886v-84.499l105.484-26.005v60.951c-4.247-1.902-9.165-2.981-14.453-2.981-16.518 0-29.456 10.491-29.456 23.886 0 13.394 12.939 23.886 29.456 23.886 16.518 0 29.456-10.491 29.456-23.886 0-.222-.013-.44-.02-.66.007-.131.02-.261.02-.395 0-13.947 0-112.917 0-126.923 0-4.875-4.584-8.449-9.297-7.284l-120.487 29.703c-3.351.826-5.706 3.833-5.706 7.284v106.018c-4.247-1.902-9.165-2.981-14.453-2.981-16.518 0-29.457 10.491-29.457 23.886.001 13.394 12.94 23.886 29.457 23.886zm120.487-43.652c-8.517 0-14.453-4.682-14.453-8.883s5.936-8.883 14.453-8.883 14.453 4.682 14.453 8.883c.001 4.202-5.935 8.883-14.453 8.883zm-91.03-101.28 105.484-26.005v21.094l-105.484 26.005zm-29.457 112.163c8.517 0 14.453 4.682 14.453 8.883s-5.936 8.883-14.453 8.883c-8.518 0-14.454-4.682-14.454-8.883.001-4.201 5.937-8.883 14.454-8.883z"/><path d="m411.877 327.771c-4.119-.465-7.832 2.492-8.299 6.609-3.819 33.674-18.534 64.169-42.552 88.186-57.911 57.911-152.14 57.913-210.051 0-24.055-24.055-38.775-54.598-42.568-88.33-.463-4.118-4.179-7.089-8.293-6.617-4.117.463-7.08 4.176-6.617 8.293 4.177 37.145 20.384 70.778 46.869 97.263 31.885 31.884 73.752 47.82 115.634 47.82 41.872 0 83.758-15.944 115.634-47.82 26.444-26.444 42.645-60.022 46.851-97.106.467-4.115-2.492-7.831-6.608-8.298z"/><path d="m373.185 162.242c.525-1.776.818-3.647.818-5.578v-69.424l38.39-13.158v12.526h-1.672c-6.984 0-12.953 5.221-13.884 12.143l-5.485 40.808c-1.129 8.403 5.414 15.874 13.884 15.874h29.316c8.479 0 15.012-7.481 13.884-15.874l-5.484-40.808c-.93-6.922-6.899-12.143-13.884-12.143h-1.672v-24.391c0-4.021-2.557-7.6-6.361-8.903l-146.667-50.269c-11.845-4.059-24.89-4.059-36.735 0l-146.666 50.268c-3.805 1.303-6.362 4.882-6.362 8.903 0 4.022 2.557 7.601 6.361 8.904l47.032 16.12v69.424c0 1.932.292 3.802.818 5.578-47.234 35.726-77.365 91.785-77.365 155.3 0 107.99 87.442 194.458 194.549 194.458 107.13 0 194.549-86.492 194.549-194.458 0-63.507-30.122-119.566-77.364-155.3zm55.013-60.631 5.217 38.82h-27.042l5.217-38.82zm-316.937-39.394 131.236-44.98c8.707-2.983 18.298-2.983 27.006 0l131.236 44.98-131.236 44.979c-8.708 2.984-18.299 2.984-27.006 0zm247.738 30.165v64.282c0 1.982-1.272 3.711-3.164 4.301-63.172 19.688-132.346 20.981-199.67 0-1.893-.59-3.165-2.319-3.165-4.301v-64.282l84.632 29.007c11.844 4.059 24.89 4.06 36.735 0zm-102.999 404.622c-170.273-.018-246.696-218.675-107.681-323.14 3.319 1.761 15.775 5.045 19.407 5.993-39.419 25.303-68.424 67.688-74.229 119.313-.463 4.117 2.5 7.83 6.617 8.293.285.032.567.048.847.048 3.767 0 7.015-2.833 7.445-6.664 5.905-52.511 38.372-94.689 80.931-116.061 44.135 8.597 89.127 8.609 133.325 0 42.754 21.469 75.058 63.761 80.933 116.081.43 3.833 3.677 6.665 7.445 6.665.279 0 .562-.016.846-.048 4.117-.462 7.08-4.175 6.618-8.292-5.8-51.652-34.877-94.072-74.23-119.334 3.664-.956 16.095-4.235 19.407-5.993 138.752 104.274 62.774 323.153-107.681 323.139z"/></g></g></svg>