<svg id="Capa_1" enable-background="new 0 0 512 512" height="512" viewBox="0 0 512 512" width="512" xmlns="http://www.w3.org/2000/svg"><g><g><g><path d="m201.212 236.57h112.208v207.342h-112.208z" fill="#88a8d8"/><g><g><g><g><g><g><g><g><path d="m73.107 73.926c-7.444 0-14.804 1.56-21.608 4.579l-41.085 18.23c-3.885 1.724-3.885 7.237 0 8.961l41.085 18.23c6.804 3.019 14.165 4.578 21.608 4.578h362.971v-54.578z" fill="#e07f84"/><path d="m477.211 73.926h-28.671v54.579h28.671c15.072 0 27.289-12.218 27.289-27.289 0-15.072-12.218-27.29-27.289-27.29z" fill="#eac12e"/></g><path d="m66.525 128.08v-53.729c-5.174.644-10.239 2.029-15.026 4.154l-41.085 18.23c-3.885 1.724-3.885 7.237 0 8.961l41.085 18.23c4.787 2.124 9.853 3.509 15.026 4.154z" fill="#a87f7f"/><path d="m426.667 73.926h31.841v54.579h-31.841z" fill="#edeaed"/></g></g></g></g></g><g><g><g><g><g><g><g><g><g><g><g><g><g><path d="m319.466 57.358h-8.923c-7.707 0-13.955 6.248-13.955 13.955v-8.944c0-7.707-6.248-13.955-13.955-13.955h-8.923c-7.707 0-13.955 6.248-13.955 13.955v-7.108c0-7.707-6.248-13.955-13.955-13.955h-8.923c-7.707 0-13.955 6.248-13.955 13.955v-4.869c0-7.707-6.248-13.955-13.955-13.955h-8.923c-7.707 0-13.955 6.248-13.955 13.955l-.01 53.973c-.003 13.333-10.812 24.14-24.145 24.14h-5.306c0 15.834 7.261 31.996 19.701 41.792l12.671 9.979c7.712 6.073 12.213 15.346 12.213 25.162v9.848h112.207v-22.976c0-4.059.772-8.082 2.274-11.853l10.531-26.434c4.765-13.978 7.196-28.645 7.196-43.413v-39.297c0-7.707-6.248-13.955-13.955-13.955z" fill="#ffece4"/></g><g><path d="m319.466 57.358h-8.923c-7.707 0-13.955 6.248-13.955 13.955v-8.944c0-7.707-6.248-13.955-13.955-13.955h-8.923c-3.757 0-7.16 1.492-9.668 3.906 2.621 2.537 4.257 6.086 4.257 10.023v39.297c0 14.768-2.431 29.435-7.196 43.413l-10.531 26.434c-1.502 3.771-2.274 7.794-2.274 11.853v31.947h65.123v-22.977c0-4.059.772-8.082 2.274-11.853l10.531-26.434c4.765-13.978 7.196-28.645 7.196-43.413v-39.297c-.001-7.707-6.249-13.955-13.956-13.955z" fill="#ffddce"/></g><path d="m248.297 236.57h65.123v207.342h-65.123z" fill="#7296d1"/></g></g></g></g></g></g></g></g></g></g></g></g></g><g><g><g><g><path d="m256.291 410.485c-72.371-63.405-182.183-37.987-208.806-30.542-3.527.986-5.966 4.193-5.966 7.855v56.114h214.772z" fill="#f7f4f7"/><path d="m256.291 410.485c72.371-63.405 182.183-37.987 208.806-30.542 3.527.986 5.966 4.193 5.966 7.855v56.114h-214.772z" fill="#edeaed"/><g><path d="m465.096 379.943c-10.956-3.064-36.007-9.167-66.734-10.876.563.153 1.107.303 1.611.444 3.527.986 5.966 4.193 5.966 7.855v66.546h65.123v-56.114c0-3.662-2.439-6.868-5.966-7.855z" fill="#e0dde0"/></g></g><g><path d="m256.291 446.815c-77.232-67.664-194.613-40.081-222.163-32.324-3.513.989-5.933 4.196-5.933 7.846v47.421h228.096z" fill="#edeaed"/><path d="m256.291 446.815c77.232-67.664 194.613-40.081 222.163-32.324 3.513.989 5.933 4.196 5.933 7.846v47.421h-228.096z" fill="#e0dde0"/><g><path d="m478.454 414.491c-10.597-2.984-34.492-8.897-64.274-11.198 3.089 1.215 5.159 4.206 5.159 7.581v58.884h65.047v-47.421c0-3.65-2.419-6.857-5.932-7.846z" fill="#d1ccd3"/></g><path d="m488.164 475.563h-463.747c-8.74 0-15.825-7.085-15.825-15.825 0-8.74 7.085-15.825 15.825-15.825h463.747c8.74 0 15.825 7.085 15.825 15.825.001 8.74-7.085 15.825-15.825 15.825z" fill="#eab14d"/><path d="m488.164 443.913h-65.01c8.74 0 15.825 7.085 15.825 15.825v15.825h49.184c8.74 0 15.825-7.085 15.825-15.825.002-8.74-7.084-15.825-15.824-15.825z" fill="#e8ae4d"/></g></g></g></g></g><path d="m190.139 216.078v21.342c0 5.862 4.752 10.614 10.614 10.614h116.082c5.862 0 10.614-4.752 10.614-10.614v-21.342c0-5.862-4.752-10.614-10.614-10.614h-116.082c-5.862.001-10.614 4.753-10.614 10.614z" fill="#5884c9"/><path d="m248.297 248.034h68.537c5.862 0 10.613-4.752 10.613-10.614v-21.342c0-5.862-4.752-10.614-10.613-10.614h-68.537z" fill="#4478c1"/></g></g><path d="m491.886 436.713v-14.376c0-6.979-4.687-13.174-11.399-15.065-.594-.167-1.246-.347-1.924-.532v-18.941c0-6.993-4.707-13.193-11.446-15.078-44.603-12.472-99.638-16.445-146.196-4.135v-37.77c0-4.142-3.358-7.5-7.5-7.5s-7.5 3.358-7.5 7.5v42.39c-18.469 6.538-35.044 15.716-49.629 27.496-14.044-11.343-29.93-20.277-47.578-26.761v-118.407h97.208v40.332c0 4.142 3.358 7.5 7.5 7.5s7.5-3.358 7.5-7.5v-40.813c8.024-1.86 14.028-9.051 14.028-17.632v-21.342c0-8.581-6.004-15.772-14.028-17.631v-6.137c0-12.217 12.275-26.402 17.711-56.306h138.579c19.183 0 34.79-15.606 34.79-34.789s-15.606-34.79-34.79-34.79c-15.977 0-122.933 0-136.872 0-2.221-9.48-10.725-16.568-20.872-16.568h-8.923c-3.281 0-6.392.74-9.175 2.062-3.674-6.561-10.695-11.006-18.735-11.006h-8.923c-3.623 0-7.038.902-10.034 2.494-3.848-5.783-10.425-9.603-17.876-9.603h-8.923c-4.098 0-7.93 1.154-11.19 3.155-3.936-4.89-9.968-8.024-16.72-8.024h-8.923c-11.831 0-21.455 9.625-21.455 21.454l-.003 16.036h-105.481c-8.546 0-16.84 1.757-24.65 5.223l-41.085 18.23c-4.478 1.987-7.372 6.437-7.372 11.336s2.894 9.349 7.372 11.336l41.086 18.23c7.811 3.465 16.104 5.223 24.65 5.223h76.504c1.978 15.788 10.052 30.717 22.075 40.185 8.683 7.87 18.43 11.242 21.35 23.525-6.135 2.905-10.398 9.138-10.398 16.364v21.342c0 7.492 4.572 13.937 11.073 16.689v115.023c-46.645-12.866-102.48-9.211-148.248 3.588-6.739 1.884-11.446 8.084-11.446 15.078v18.941c-.679.185-1.331.365-1.925.532-6.711 1.891-11.399 8.086-11.399 15.065v14.376c-11.098 1.788-19.604 11.43-19.604 23.025 0 12.862 10.464 23.326 23.326 23.326h463.748c12.861 0 23.325-10.464 23.325-23.326.001-11.594-8.505-21.236-19.603-23.024zm-25.878-355.287h11.203c10.912 0 19.79 8.877 19.79 19.79 0 10.912-8.877 19.789-19.79 19.789h-11.203zm-31.841 0h16.841v39.579h-16.841zm-93.246 0h78.246v12.29h-78.246zm0 29.184v-1.895h78.246v12.289h-78.632c.253-3.451.386-6.917.386-10.394zm-281.896 8.179c-3.978-1.29-3.193-1.232-40.218-17.573 37.024-16.341 36.237-16.282 40.218-17.573zm417.395 302.92c.279.079.466.331.466.627v14.076h-193.714c55.133-33.395 132.411-31.829 193.248-14.703zm-212.629-7.771c53.17-44.446 134.086-45.003 199.286-26.771.291.082.486.335.486.632v15.262c-66.985-14.75-143.73-12.294-199.772 28.222zm56.157-176.518c0 1.717-1.396 3.114-3.113 3.114h-116.083c-1.717 0-3.113-1.397-3.113-3.114v-21.342c0-1.717 1.396-3.113 3.113-3.113h116.082c1.717 0 3.113 1.396 3.113 3.113v21.342zm-163.322-116.416h-82.601v-12.289h31.561c4.142 0 7.5-3.358 7.5-7.5s-3.358-7.5-7.5-7.5h-31.561v-12.29h104.556l-.002 12.29h-38.043c-4.142 0-7.5 3.358-7.5 7.5s3.358 7.5 7.5 7.5h37.443c-1.922 7.069-8.379 12.289-16.047 12.289zm24.341 43.4c-8.546-6.729-14.429-17.233-16.246-28.521 16.146-1.416 28.853-15.011 28.856-31.517.002-11.292.008-42.718.01-53.974 0-3.56 2.896-6.455 6.455-6.455h8.923c3.56 0 6.455 2.896 6.455 6.456v4.869c0 4.142 3.358 7.5 7.5 7.5s7.5-3.358 7.5-7.5c0-3.56 2.896-6.455 6.455-6.455h8.923c3.56 0 6.455 2.896 6.455 6.455v7.108c0 4.142 3.358 7.5 7.5 7.5s7.5-3.358 7.5-7.5c0-3.56 2.896-6.455 6.455-6.455h8.923c3.559 0 6.455 2.896 6.455 6.455v8.944c0 4.142 3.358 7.5 7.5 7.5s7.5-3.358 7.5-7.5c0-3.56 2.896-6.455 6.455-6.455h8.923c3.559 0 6.455 2.896 6.455 6.456v39.297c0 42.705-20.001 61.572-20.001 81.7v5.655h-97.923c-3.822-20.1-19.752-26.566-27.028-33.563zm-131.948 223.394c0-.297.195-.551.486-.632 65.278-18.255 146.554-17.308 199.286 26.771v17.345c-56.179-40.615-132.963-42.909-199.771-28.218v-15.266zm-13.324 34.539c0-.296.188-.549.465-.627 61.017-17.179 138.221-18.63 193.249 14.703h-193.714zm452.47 45.726h-463.748c-4.591 0-8.326-3.735-8.326-8.326 0-4.59 3.735-8.325 8.326-8.325h463.748c4.59 0 8.325 3.735 8.325 8.325 0 4.592-3.735 8.326-8.325 8.326z"/></g></svg>