<svg id="Capa_1" enable-background="new 0 0 512 512" height="512" viewBox="0 0 512 512" width="512" xmlns="http://www.w3.org/2000/svg"><g><g><g><g><g><g><g><g><g><path d="m295.961 476.281h-88.655l12.424-95.397h63.807z" fill="#c1bcc4"/><path d="m159.817 490.446c0-17.912 14.521-32.433 32.433-32.433h118.766c17.912 0 32.433 14.521 32.433 32.433 0 7.762-6.292 14.054-14.054 14.054h-155.524c-7.762 0-14.054-6.292-14.054-14.054z" fill="#f7f4f7"/><path d="m311.016 458.013h-65.328c17.912 0 32.433 14.521 32.433 32.433 0 7.762-6.292 14.054-14.054 14.054h65.328c7.762 0 14.054-6.292 14.054-14.054 0-17.912-14.521-32.433-32.433-32.433z" fill="#edeaed"/></g><g><g><path d="m458.976 414.088h-405.952c-16.831 0-30.475-13.644-30.475-30.475v-273.02c0-16.831 13.644-30.475 30.475-30.475h405.951c16.831 0 30.475 13.644 30.475 30.475v273.021c0 16.83-13.644 30.474-30.474 30.474z" fill="#bed8fb"/><path d="m22.55 359.601v24.013c0 16.831 13.644 30.475 30.475 30.475h405.951c16.831 0 30.475-13.644 30.475-30.475v-24.013z" fill="#f7f4f7"/></g></g><g><g><path d="m458.976 80.118h-65.328c16.831 0 30.475 13.644 30.475 30.475v273.021c0 16.831-13.644 30.475-30.475 30.475h65.328c16.831 0 30.475-13.644 30.475-30.475v-273.021c-.001-16.831-13.645-30.475-30.475-30.475z" fill="#9dc6fb"/><path d="m424.123 359.601v24.013c0 16.831-13.644 30.475-30.475 30.475h65.328c16.831 0 30.475-13.644 30.475-30.475v-24.013z" fill="#edeaed"/></g></g></g></g></g></g></g><path d="m87.877 23.792v335.809h336.245v-335.809c0-8.998-7.294-16.292-16.292-16.292h-303.661c-8.998 0-16.292 7.294-16.292 16.292z" fill="#edeaed"/><path d="m407.831 7.5h-65.328c8.998 0 16.292 7.294 16.292 16.292v335.809h65.328v-335.809c0-8.998-7.294-16.292-16.292-16.292z" fill="#e0dde0"/></g><g><path d="m171.959 106.592h-35.633c-4.146 0-7.507-3.361-7.507-7.507v-35.633c0-4.146 3.361-7.507 7.507-7.507h35.633c4.146 0 7.507 3.361 7.507 7.507v35.633c0 4.146-3.361 7.507-7.507 7.507z" fill="#ecbe6b"/><path d="m171.959 208.873h-35.633c-4.146 0-7.507-3.361-7.507-7.507v-35.633c0-4.146 3.361-7.507 7.507-7.507h35.633c4.146 0 7.507 3.361 7.507 7.507v35.633c0 4.147-3.361 7.507-7.507 7.507z" fill="#9bc4f9"/><path d="m171.959 311.155h-35.633c-4.146 0-7.507-3.361-7.507-7.507v-35.633c0-4.146 3.361-7.507 7.507-7.507h35.633c4.146 0 7.507 3.361 7.507 7.507v35.633c0 4.146-3.361 7.507-7.507 7.507z" fill="#b3e59f"/></g></g><g><path d="m376.99 55.417h-146.654c-4.143 0-7.5 3.358-7.5 7.5s3.357 7.5 7.5 7.5h146.654c4.143 0 7.5-3.358 7.5-7.5s-3.357-7.5-7.5-7.5z"/><path d="m230.336 104.818h105.657c4.143 0 7.5-3.358 7.5-7.5s-3.357-7.5-7.5-7.5h-105.657c-4.143 0-7.5 3.358-7.5 7.5s3.357 7.5 7.5 7.5z"/><path d="m376.99 158.85h-146.654c-4.143 0-7.5 3.358-7.5 7.5s3.357 7.5 7.5 7.5h146.654c4.143 0 7.5-3.358 7.5-7.5s-3.357-7.5-7.5-7.5z"/><path d="m230.336 208.251h105.657c4.143 0 7.5-3.358 7.5-7.5s-3.357-7.5-7.5-7.5h-105.657c-4.143 0-7.5 3.358-7.5 7.5s3.357 7.5 7.5 7.5z"/><path d="m376.99 263.701h-146.654c-4.143 0-7.5 3.358-7.5 7.5s3.357 7.5 7.5 7.5h146.654c4.143 0 7.5-3.358 7.5-7.5s-3.357-7.5-7.5-7.5z"/><path d="m335.993 298.103h-105.657c-4.143 0-7.5 3.358-7.5 7.5s3.357 7.5 7.5 7.5h105.657c4.143 0 7.5-3.358 7.5-7.5s-3.357-7.5-7.5-7.5z"/><path d="m458.976 72.618h-27.353v-48.826c0-13.119-10.673-23.792-23.792-23.792h-303.662c-13.119 0-23.792 10.673-23.792 23.792v48.826h-27.353c-20.939 0-37.975 17.035-37.975 37.975v273.021c0 20.939 17.035 37.975 37.975 37.975h153.84l-3.767 28.925h-10.847c-22.019 0-39.933 17.914-39.933 39.933 0 11.885 9.669 21.554 21.554 21.554h155.524c11.885 0 21.554-9.669 21.554-21.554 0-22.019-17.914-39.933-39.933-39.933h-10.849l-3.766-28.925h162.574c20.939 0 37.975-17.035 37.975-37.975v-273.022c0-20.939-17.035-37.974-37.974-37.974zm-147.959 392.895c13.748 0 24.933 11.185 24.933 24.933 0 3.614-2.94 6.554-6.554 6.554h-155.525c-3.613 0-6.554-2.94-6.554-6.554 0-13.748 11.185-24.933 24.933-24.933zm-92.792-15 3.767-28.925h59.282l3.766 28.925zm263.725-66.9c0 12.668-10.307 22.975-22.975 22.975h-405.951c-12.668 0-22.975-10.306-22.975-22.975v-16.513h451.9v16.513zm0-31.512h-50.327v-104.253c0-4.142-3.357-7.5-7.5-7.5s-7.5 3.358-7.5 7.5v104.252h-321.246v-202.23c0-4.142-3.357-7.5-7.5-7.5s-7.5 3.358-7.5 7.5v202.23h-50.327v-241.508c0-12.668 10.307-22.975 22.975-22.975h27.353v27.193c0 4.142 3.357 7.5 7.5 7.5s7.5-3.358 7.5-7.5v-91.018c0-4.848 3.944-8.792 8.792-8.792h303.662c4.848 0 8.792 3.944 8.792 8.792v189.045c0 4.142 3.357 7.5 7.5 7.5s7.5-3.358 7.5-7.5v-125.219h27.353c12.668 0 22.975 10.307 22.975 22.975v241.508z"/><path d="m171.959 48.446h-35.633c-8.274 0-15.007 6.732-15.007 15.007v35.633c0 8.274 6.732 15.006 15.007 15.006h35.633c8.274 0 15.007-6.732 15.007-15.006v-35.633c0-8.275-6.733-15.007-15.007-15.007zm0 50.646-35.64-.006.007-35.64 35.64.007.004 35.639c0-.001-.003 0-.011 0z"/><path d="m171.959 150.727h-35.633c-8.274 0-15.007 6.732-15.007 15.007v35.633c0 8.275 6.732 15.007 15.007 15.007h35.633c8.274 0 15.007-6.732 15.007-15.007v-35.633c0-8.275-6.733-15.007-15.007-15.007zm0 50.647-35.64-.007.007-35.64 35.64.007.004 35.639s-.003.001-.011.001z"/><path d="m171.959 253.009h-35.633c-8.274 0-15.007 6.732-15.007 15.006v35.633c0 8.275 6.732 15.007 15.007 15.007h35.633c8.274 0 15.007-6.732 15.007-15.007v-35.633c0-8.274-6.733-15.006-15.007-15.006zm0 50.646-35.64-.007.007-35.639 35.64.006.004 35.639s-.003.001-.011.001z"/></g></g></svg>