<svg id="Capa_1" enable-background="new 0 0 512 512" height="512" viewBox="0 0 512 512" width="512" xmlns="http://www.w3.org/2000/svg"><g><g><g><circle cx="255.924" cy="317.541" fill="#ecbe6b" r="187.048"/><path d="m388.187 185.279c-7.873-7.873-16.275-14.892-25.088-21.067 51.126 72.962 44.107 174.263-21.067 239.437s-166.476 72.193-239.438 21.067c6.176 8.813 13.195 17.216 21.067 25.088 73.047 73.047 191.479 73.047 264.526 0 73.047-73.046 73.047-191.479 0-264.525z" fill="#e8ae4d"/></g><g><g><g><g><g><g><path d="m357.992 168.125c-66.468 20.716-137.666 20.716-204.135 0-5.017-1.564-8.434-6.208-8.434-11.462v-111.134h221.002v111.134c0 5.255-3.417 9.899-8.433 11.462z" fill="#756e78"/><g><path d="m147.859 45.529h-2.436v.533z" fill="#454545"/><path d="m301.084 45.529v125.969c0 3.975-1.957 7.597-5.081 9.804 20.924-2.461 41.678-6.847 61.988-13.177 5.017-1.564 8.434-6.208 8.434-11.462v-111.134z" fill="#665e66"/></g><path d="m239.989 10.141-146.667 50.268c-1.722.59-1.722 3.025 0 3.616l146.667 50.268c10.329 3.54 21.542 3.54 31.87 0l146.667-50.268c1.722-.59 1.722-3.025 0-3.616l-146.666-50.268c-10.329-3.54-21.542-3.54-31.871 0z" fill="#89808c"/></g></g></g></g></g><path d="m434.476 147.933h-29.316c-3.938 0-6.974-3.471-6.449-7.374l5.484-40.809c.434-3.23 3.19-5.641 6.449-5.641h18.347c3.259 0 6.015 2.411 6.449 5.641l5.484 40.809c.526 3.903-2.51 7.374-6.448 7.374z" fill="#665e66"/></g></g><path d="m393.492 179.974c-6.361-6.361-13.201-12.3-20.383-17.732 1.467-4.959.527-2.034.818-75.003l38.389-13.157v12.526h-1.671c-6.986 0-12.955 5.221-13.885 12.143l-5.485 40.808c-.538 4.005.679 8.047 3.34 11.088 2.661 3.042 6.504 4.786 10.545 4.786h29.316c8.478 0 15.013-7.48 13.885-15.874l-5.486-40.809c-.931-6.922-6.9-12.142-13.884-12.142h-1.672v-24.391c0-4.021-2.556-7.6-6.361-8.903l-146.667-50.269c-11.844-4.059-24.89-4.059-36.734 0l-146.666 50.268c-8.452 2.894-8.465 14.909-.001 17.807l47.031 16.119v17.391c0 4.143 3.358 7.502 7.502 7.502 4.143 0 7.502-3.358 7.502-7.502v-12.248l84.633 29.007c11.844 4.059 24.89 4.06 36.734 0l84.633-29.007v64.282c0 1.982-1.272 3.711-3.165 4.301-65.313 20.355-134.356 20.356-199.671-.001-1.892-.59-3.164-2.318-3.164-4.3v-16.765c0-4.143-3.358-7.502-7.502-7.502-4.143 0-7.502 3.358-7.502 7.502v16.765c0 1.932.293 3.802.818 5.578-7.182 5.432-14.022 11.371-20.383 17.732-121.571 121.572-35.438 332.026 137.568 332.026 51.08 0 100.539-19.863 137.568-56.891 13.966-13.967 25.661-29.835 34.757-47.163 1.925-3.669.513-8.203-3.155-10.129-3.669-1.925-8.204-.515-10.129 3.155-7.239 13.79-16.274 26.575-26.895 38.106l-71.211-71.212c33.186-30.152 76.468-42.77 118.207-38.177-.904 13.3-3.273 26.619-7.214 39.724-1.193 3.968 1.056 8.151 5.023 9.345 3.993 1.196 8.157-1.076 9.345-5.023 20.682-68.777 2.01-143.022-48.728-193.761zm34.63-78.363 5.217 38.82h-27.042l5.217-38.82zm-158.695 5.585c-8.708 2.985-18.298 2.983-27.006 0l-131.236-44.979 131.236-44.98c8.707-2.983 18.299-2.983 27.006 0l131.236 44.98zm-13.698 84.038c.065 0 .129.002.194.002 35.091 0 70.184-5.317 104.299-15.95 1.19-.371 2.315-.856 3.383-1.423 4.799 3.607 9.437 7.457 13.86 11.527l-121.541 121.542-39.712-39.712c18.974-20.78 33.085-46.722 39.517-75.986zm-107.486-17.37c1.068.567 2.193 1.052 3.383 1.423 29.094 9.068 58.897 14.255 88.804 15.589-5.919 24.582-17.733 46.912-34.831 65.73l-71.216-71.216c4.424-4.069 9.061-7.92 13.86-11.526zm-24.463 22.143 71.209 71.209c-32.803 29.804-75.911 42.808-118.112 38.188 2.654-39.521 18.292-78.318 46.903-109.397zm-47.283 124.452c45.819 4.658 92.86-9.534 129.105-42.63l39.712 39.712-121.534 121.535c-30.834-33.493-46.595-75.951-47.283-118.617zm176.514 176.511c-42.667-.686-85.127-16.448-118.621-47.285l121.534-121.534 39.712 39.712c-32.157 35.219-47.429 81.841-42.625 129.107zm124.448-47.284c-31.078 28.612-69.875 44.25-109.396 46.905-4.614-42.181 8.361-85.286 38.187-118.114zm-71.213-92.433-39.712-39.712 121.531-121.531c30.207 32.822 46.711 75.134 47.407 118.631-46.056-4.71-93.078 9.607-129.226 42.612z"/></g></svg>