<svg id="Capa_1" enable-background="new 0 0 512 512" height="512" viewBox="0 0 512 512" width="512" xmlns="http://www.w3.org/2000/svg"><g><g><g><g><g><g><path d="m256 455.612c-8.122 0-16.249-.958-24.155-2.846-17.664-4.218-55.67-11.295-111.734-11.295-19.638 0-40.123.871-60.887 2.59-1.313.108-2.646.163-3.961.163-26.337 0-47.764-21.44-47.764-47.794v-276.859c0-25.008 18.779-28.361 43.681-30.502 23.472-2.018 46.663-3.041 68.93-3.041 70.161 0 116.197 10.024 135.889 15.422 19.692-5.398 65.728-15.422 135.889-15.422 22.267 0 45.458 1.023 68.931 3.041 24.901 2.14 43.68 5.494 43.68 30.502v276.858c0 12.807-4.998 24.835-14.073 33.87-9.02 8.979-20.985 13.924-33.689 13.924-.002 0-.002 0-.004 0-1.315 0-2.646-.055-3.959-.163-20.764-1.718-41.248-2.59-60.887-2.59-56.064 0-94.07 7.077-111.736 11.295-7.902 1.889-16.029 2.847-24.151 2.847z" fill="#88a8d8"/><path d="m280.153 452.766c17.666-4.219 55.672-11.295 111.736-11.295 19.638 0 40.123.871 60.886 2.59 1.312.108 2.644.163 3.959.163h.004c12.704 0 24.67-4.945 33.689-13.924 9.075-9.035 14.073-21.063 14.073-33.87v-276.859c0-25.008-18.779-28.361-43.68-30.502-23.472-2.018-46.664-3.041-68.931-3.041-70.161 0-116.197 10.024-135.889 15.422v354.162c8.122 0 16.249-.958 24.153-2.846z" fill="#7296d1"/><g><path d="m460.82 89.069c-6.98-.6-13.93-1.101-20.843-1.525v321.218c0 12.665-4.895 24.563-13.779 33.563 8.78.424 17.65.996 26.578 1.735 1.312.108 2.644.163 3.959.163h.004c12.704 0 24.67-4.945 33.689-13.924 9.075-9.035 14.073-21.063 14.073-33.87v-276.858c-.001-25.008-18.78-28.361-43.681-30.502z" fill="#5884c9"/></g><path d="m459.526 59.321c-112.094-9.637-180.025 7.006-198.43 12.411-3.326.977-6.866.977-10.192 0-18.405-5.405-86.336-22.048-198.43-12.411-8.227.707-14.542 7.613-14.542 15.87v319.189c0 9.307 7.953 16.639 17.228 15.871 93.626-7.748 156.02 2.859 183.995 9.539 11.082 2.647 22.609 2.647 33.691 0 27.975-6.681 90.368-17.288 183.995-9.539 9.275.768 17.228-6.564 17.228-15.871v-319.189c-.001-8.257-6.316-15.163-14.543-15.87z" fill="#f7f4f7"/><path d="m272.845 419.791c27.975-6.681 90.368-17.288 183.995-9.539 9.275.768 17.228-6.564 17.228-15.871v-319.19c0-8.258-6.315-15.163-14.542-15.87-112.094-9.637-180.025 7.006-198.43 12.411-1.663.488-3.379.732-5.096.732v349.312c5.652 0 11.304-.661 16.845-1.985z" fill="#f9f2c4"/><path d="m272.845 419.791c27.975-6.681 90.368-17.288 183.995-9.539 9.275.768 17.228-6.564 17.228-15.871v-319.19c0-8.258-6.315-15.163-14.542-15.87-112.094-9.637-180.025 7.006-198.43 12.411-1.663.488-3.379.732-5.096.732v349.312c5.652 0 11.304-.661 16.845-1.985z" fill="#edeaed"/><g><path d="m459.526 59.321c-10.437-.897-20.482-1.562-30.149-2.034 5.84 3.397 10.067 11.371 10.067 17.904v333.805c5.674.349 11.471.765 17.396 1.255 9.275.768 17.229-6.564 17.229-15.871v-319.189c-.001-8.257-6.316-15.163-14.543-15.87z" fill="#e0dde0"/></g></g></g></g></g><path d="m392.861 110.104c-40.632 0-71.852 3.684-92.992 7.397-6.292 1.105-10.869 6.579-10.869 12.967v83.639c0 8.131 7.288 14.307 15.312 12.991 20.978-3.441 50.675-6.642 88.55-6.642 11.238 0 22.747.283 34.43.846 7.502.361 13.777-5.638 13.777-13.149v-83.987c0-7.036-5.534-12.805-12.562-13.155-12.101-.603-24.018-.907-35.646-.907z" fill="#ecbe6b"/><path d="m428.507 111.01c-6.951-.346-13.832-.581-20.642-.729v110.348c6.412.139 12.888.357 19.426.672 7.502.361 13.777-5.638 13.777-13.149v-83.987c0-7.037-5.534-12.805-12.561-13.155z" fill="#e8ae4d"/><path d="m346.032 142.88v43.975c0 4.895 5.515 7.758 9.519 4.942l31.254-21.988c3.421-2.406 3.421-7.477 0-9.883l-31.254-21.988c-4.004-2.816-9.519.047-9.519 4.942z" fill="#fff"/></g><g><path d="m439.91 259.785c-69.987-4.354-121.174 1.532-151.795 7.237-4.071.759-6.758 4.675-5.999 8.747.672 3.608 3.822 6.128 7.364 6.128 3.307 0 57.207-12.883 149.498-7.141 4.147.269 7.694-2.886 7.951-7.02.259-4.134-2.885-7.694-7.019-7.951z"/><path d="m439.91 301.615c-69.987-4.355-121.175 1.532-151.795 7.237-4.071.758-6.758 4.674-5.999 8.747.672 3.608 3.822 6.128 7.364 6.128 3.313 0 57.207-12.883 149.498-7.141 4.147.268 7.694-2.886 7.951-7.02.259-4.134-2.885-7.694-7.019-7.951z"/><path d="m361.601 342.612c-26.39 1.188-51.113 3.903-73.485 8.071-4.071.758-6.758 4.675-5.999 8.747.672 3.608 3.822 6.128 7.364 6.128 2.968 0 26.807-5.891 72.794-7.961 4.139-.186 7.342-3.691 7.155-7.83-.187-4.138-3.698-7.357-7.829-7.155z"/><path d="m73.021 312.274c93.268-5.801 145.196 7.141 149.498 7.141 3.541 0 6.692-2.52 7.364-6.128.759-4.072-1.928-7.988-5.999-8.747-30.619-5.704-81.807-11.589-151.795-7.237-4.134.257-7.277 3.817-7.02 7.951.258 4.135 3.812 7.286 7.952 7.02z"/><path d="m73.021 354.44c93.263-5.8 145.196 7.142 149.498 7.142 3.541 0 6.692-2.52 7.364-6.128.759-4.072-1.928-7.988-5.999-8.747-30.618-5.705-81.805-11.591-151.795-7.238-4.134.257-7.277 3.817-7.02 7.951.258 4.134 3.812 7.281 7.952 7.02z"/><path d="m73.021 270.109c93.263-5.801 145.196 7.141 149.498 7.141 3.541 0 6.692-2.52 7.364-6.128.759-4.072-1.928-7.988-5.999-8.747-30.621-5.705-81.812-11.59-151.795-7.237-4.134.257-7.277 3.817-7.02 7.951.258 4.134 3.812 7.289 7.952 7.02z"/><path d="m73.021 227.943c93.263-5.803 145.196 7.141 149.498 7.141 3.541 0 6.692-2.52 7.364-6.128.759-4.072-1.928-7.988-5.999-8.747-30.621-5.705-81.812-11.59-151.795-7.237-4.134.257-7.277 3.817-7.02 7.951.258 4.135 3.812 7.293 7.952 7.02z"/><path d="m73.021 185.777c93.268-5.8 145.196 7.141 149.498 7.141 3.541 0 6.692-2.52 7.364-6.128.759-4.072-1.928-7.988-5.999-8.747-30.619-5.704-81.807-11.59-151.795-7.237-4.134.257-7.277 3.817-7.02 7.951.258 4.134 3.812 7.285 7.952 7.02z"/><path d="m147.226 142.685c47.9 1.968 72.211 8.068 75.294 8.068 3.541 0 6.692-2.52 7.364-6.128.759-4.072-1.927-7.988-5.999-8.747-23.106-4.305-48.691-7.058-76.044-8.181-4.11-.17-7.632 3.046-7.802 7.186-.17 4.139 3.048 7.632 7.187 7.802z"/><path d="m481.568 84.266v-9.075c0-12.058-9.4-22.311-21.399-23.343-113.399-9.747-182.659 7.247-201.188 12.688-1.904.559-3.975.585-5.964 0-18.528-5.44-87.789-22.434-201.187-12.687-11.998 1.031-21.398 11.284-21.398 23.342v9.075c-15.291 3.312-30.432 11.236-30.432 35.305v276.858c0 30.489 24.791 55.294 55.264 55.294 6.024 0 97.982-10.018 174.839 8.336 17.024 4.066 34.762 4.069 51.793 0 51.682-12.342 115.898-13.024 170.263-8.526 32.155 2.659 59.841-22.68 59.841-55.104v-276.858c0-24.069-15.141-31.993-30.432-35.305zm15.432 312.163c0 23.607-20.147 42.097-43.606 40.156-55.863-4.622-121.741-3.83-174.982 8.885-14.67 3.505-30.152 3.504-44.824 0-78.877-18.835-173.204-8.747-178.323-8.747-22.203.001-40.265-18.075-40.265-40.294v-276.858c0-11.21 3.945-16.755 15.432-19.885v32.649c0 4.142 3.357 7.5 7.5 7.5s7.5-3.358 7.5-7.5v-57.144c0-4.339 3.375-8.027 7.685-8.397 110.213-9.477 177.077 6.708 195.384 12.049v334.99c-2.558-.295-5.099-.739-7.604-1.337-29.197-6.973-92.233-17.507-186.354-9.719-4.847.41-9.11-3.416-9.11-8.397v-226.982c0-4.142-3.357-7.5-7.5-7.5s-7.5 3.358-7.5 7.5v226.982c0 13.68 11.707 24.469 25.347 23.346 92.044-7.619 153.307 2.594 181.634 9.36 11.83 2.825 24.732 2.971 37.176 0 28.327-6.766 89.592-16.977 181.634-9.36 13.635 1.122 25.347-9.661 25.347-23.346v-31.392c0-4.142-3.357-7.5-7.5-7.5s-7.5 3.358-7.5 7.5v31.392c0 4.978-4.26 8.808-9.11 8.397-94.116-7.789-157.157 2.746-186.354 9.719-2.504.598-5.045 1.042-7.604 1.337v-334.989c18.307-5.341 85.175-21.524 195.384-12.05 4.31.37 7.685 4.059 7.685 8.397v252.553c0 4.142 3.357 7.5 7.5 7.5s7.5-3.358 7.5-7.5v-228.058c11.486 3.13 15.432 8.675 15.432 19.885v276.858z"/><path d="m428.88 103.519c-52.027-2.587-96.149.596-130.308 6.595-9.893 1.737-17.072 10.297-17.072 20.354v83.638c0 11.488 9.332 20.667 20.661 20.667 6.799 0 47.229-9.713 124.77-5.981 12.007.58 21.638-9.078 21.638-20.64v-83.987c-.001-11.028-8.649-20.097-19.689-20.646zm4.688 104.632c0 3.214-2.674 5.815-5.917 5.658-40.979-1.973-84.248-.725-124.554 5.887-3.506.569-6.598-2.125-6.598-5.59v-83.638c0-2.758 1.963-5.105 4.666-5.58 33.311-5.85 76.337-8.906 126.968-6.388 3.048.151 5.435 2.64 5.435 5.664z"/><path d="m391.12 153.792-31.254-21.988c-4.152-2.921-9.529-3.282-14.032-.943-4.504 2.338-7.302 6.944-7.302 12.019v43.976c0 5.075 2.798 9.68 7.302 12.019 4.492 2.332 9.868 1.985 14.032-.943l31.255-21.988c3.6-2.533 5.749-6.674 5.748-11.076 0-4.403-2.149-8.543-5.749-11.076zm-37.588 30.255v-38.358l27.262 19.179z"/></g></g></svg>