<svg id="Capa_1" enable-background="new 0 0 512 512" height="512" viewBox="0 0 512 512" width="512" xmlns="http://www.w3.org/2000/svg"><g><g><g><path d="m367.846 7.5h-300.284c-25.125 0-45.492 20.367-45.492 45.492v406.017c0 25.124 20.367 45.492 45.492 45.492h300.284c25.124 0 45.492-20.367 45.492-45.492v-406.017c0-25.125-20.367-45.492-45.492-45.492z" fill="#f7f4f7"/></g><path d="m367.846 7.5h-65.328c25.124 0 45.492 20.367 45.492 45.492v406.017c0 25.124-20.367 45.492-45.492 45.492h65.328c25.124 0 45.492-20.367 45.492-45.492v-406.017c0-25.125-20.368-45.492-45.492-45.492z" fill="#e0dde0"/><g><g><path d="m83.904 164.682h66.081c8.037 0 14.552-6.515 14.552-14.552v-66.082c0-8.037-6.515-14.552-14.552-14.552h-66.081c-8.037 0-14.552 6.515-14.552 14.552v66.081c0 8.038 6.515 14.553 14.552 14.553z" fill="#bed8fb"/></g><g><path d="m83.904 303.593h66.081c8.037 0 14.552-6.515 14.552-14.552v-66.081c0-8.037-6.515-14.552-14.552-14.552h-66.081c-8.037 0-14.552 6.515-14.552 14.552v66.081c0 8.037 6.515 14.552 14.552 14.552z" fill="#bed8fb"/></g><g><path d="m83.904 442.504h66.081c8.037 0 14.552-6.515 14.552-14.552v-66.081c0-8.037-6.515-14.552-14.552-14.552h-66.081c-8.037 0-14.552 6.515-14.552 14.552v66.081c0 8.037 6.515 14.552 14.552 14.552z" fill="#bed8fb"/></g></g></g><g><g><g><path d="m279.755 447.388.346 51.52c.033 4.872 5.826 7.396 9.417 4.103l37.968-34.827c6.288-5.767 11.297-12.788 14.705-20.61l145.121-333.07c6.901-15.838-.344-34.271-16.182-41.171-15.838-6.901-34.271.344-41.171 16.182l-145.121 333.07c-3.409 7.822-5.141 16.271-5.083 24.803z" fill="#e07f84"/></g></g><path d="m338.73 454.296-56.46-24.6c-1.692 5.732-2.556 11.689-2.515 17.692l.346 51.52c.033 4.872 5.826 7.396 9.417 4.103l37.968-34.827c4.423-4.058 8.198-8.747 11.244-13.888z" fill="#a87f7f"/><path d="m421.068 118.353h33.633v62.561h-33.633z" fill="#f7f4f7" transform="matrix(.399 -.917 .917 .399 125.799 491.299)"/><g><path d="m471.129 73.333c-15.838-6.901-34.271.344-41.171 16.182l-14.033 32.207 57.353 24.989 14.033-32.207c6.901-15.838-.344-34.271-16.182-41.171z" fill="#efd133"/></g></g><g><path d="m108.101 133.562c3.165 2.759 7.966 2.375 10.659-.817l18.258-21.639c2.671-3.166 2.27-7.897-.896-10.569-3.167-2.671-7.898-2.269-10.569.896l-13.344 15.815-4.678-4.075c-3.123-2.722-7.86-2.397-10.582.728-2.721 3.123-2.395 7.86.729 10.581z"/><path d="m136.122 239.448c-3.167-2.671-7.898-2.269-10.569.896l-13.344 15.815-4.678-4.075c-3.123-2.722-7.86-2.397-10.582.728-2.721 3.123-2.395 7.86.729 10.581l10.423 9.081c3.165 2.759 7.966 2.375 10.659-.817l18.258-21.639c2.671-3.166 2.269-7.898-.896-10.57z"/><path d="m136.122 378.359c-3.167-2.671-7.898-2.269-10.569.896l-13.344 15.815-4.678-4.075c-3.123-2.722-7.86-2.397-10.582.728-2.721 3.123-2.395 7.86.729 10.581l10.423 9.081c3.165 2.759 7.966 2.375 10.659-.817l18.258-21.639c2.671-3.166 2.269-7.898-.896-10.57z"/><path d="m207.523 106.324h158.533c4.143 0 7.5-3.357 7.5-7.5s-3.357-7.5-7.5-7.5h-158.533c-4.143 0-7.5 3.357-7.5 7.5s3.357 7.5 7.5 7.5z"/><path d="m207.523 142.854h158.533c4.143 0 7.5-3.357 7.5-7.5s-3.357-7.5-7.5-7.5h-158.533c-4.143 0-7.5 3.357-7.5 7.5s3.357 7.5 7.5 7.5z"/><path d="m149.986 61.996h-66.081c-12.16 0-22.053 9.893-22.053 22.053v14.775c0 4.143 3.357 7.5 7.5 7.5s7.5-3.357 7.5-7.5v-14.775c0-3.889 3.164-7.053 7.053-7.053h66.081c3.889 0 7.052 3.164 7.052 7.053v66.081c0 3.889-3.163 7.052-7.052 7.052h-66.081c-3.889 0-7.053-3.163-7.053-7.052v-15.511c0-4.143-3.357-7.5-7.5-7.5s-7.5 3.357-7.5 7.5v15.511c0 12.159 9.893 22.052 22.053 22.052h66.081c12.159 0 22.052-9.893 22.052-22.052v-66.081c-.001-12.16-9.893-22.053-22.052-22.053z"/><path d="m149.986 200.907h-66.081c-12.16 0-22.053 9.893-22.053 22.053v66.081c0 12.159 9.893 22.052 22.053 22.052h66.081c12.159 0 22.052-9.893 22.052-22.052v-66.081c-.001-12.16-9.893-22.053-22.052-22.053zm7.051 88.134c0 3.889-3.163 7.052-7.052 7.052h-66.08c-3.889 0-7.053-3.163-7.053-7.052v-66.081c0-3.889 3.164-7.053 7.053-7.053h66.081c3.889 0 7.052 3.164 7.052 7.053v66.081z"/><path d="m149.986 339.818h-66.081c-12.16 0-22.053 9.893-22.053 22.053v66.081c0 12.159 9.893 22.052 22.053 22.052h66.081c12.159 0 22.052-9.893 22.052-22.052v-66.081c-.001-12.16-9.893-22.053-22.052-22.053zm7.051 88.134c0 3.889-3.163 7.052-7.052 7.052h-66.08c-3.889 0-7.053-3.163-7.053-7.052v-66.081c0-3.889 3.164-7.053 7.053-7.053h66.081c3.889 0 7.052 3.164 7.052 7.053v66.081z"/><path d="m474.125 66.457c-19.605-8.539-42.501.458-51.043 20.062l-2.244 5.15v-38.677c0-29.22-23.772-52.992-52.992-52.992h-300.284c-29.22 0-52.992 23.772-52.992 52.992v406.016c0 29.22 23.772 52.992 52.992 52.992h300.284c29.22 0 52.992-23.772 52.992-52.992v-173.164c3.844-8.823 69.086-158.561 73.349-168.344 8.562-19.651-.411-42.481-20.062-51.043zm-190.103 339.219h-76.5c-4.143 0-7.5 3.357-7.5 7.5s3.357 7.5 7.5 7.5h69.997c-3.542 8.518-5.326 17.512-5.266 26.762v.001l.334 49.561h-205.025c-20.949 0-37.992-17.043-37.992-37.992v-406.016c0-20.949 17.043-37.992 37.992-37.992h300.284c20.949 0 37.992 17.043 37.992 37.992v73.104c-9.477 21.751-36.108 82.872-45.375 104.14h-152.94c-4.143 0-7.5 3.357-7.5 7.5s3.357 7.5 7.5 7.5h146.405l-9.38 21.529h-137.025c-4.143 0-7.5 3.357-7.5 7.5s3.357 7.5 7.5 7.5h130.489l-38.073 87.382h-92.416c-4.143 0-7.5 3.357-7.5 7.5s3.357 7.5 7.5 7.5h85.88zm3.232 41.662c-.016-2.391.142-4.757.437-7.099 6.559 2.858-2.585-1.126 39.625 17.265-1.514 1.81-3.139 3.537-4.901 5.153l-34.844 31.961zm118.584 11.67c0 20.949-17.043 37.992-37.992 37.992h-60.681l25.389-23.288c7.104-6.517 12.659-14.302 16.512-23.142l56.772-130.3zm-70.524-14.43c-.006.013-.013.026-.019.04l-14.924-6.502 35.303-81.024c1.654-3.798-.083-8.217-3.88-9.872-3.799-1.653-8.218.084-9.872 3.88l-35.303 81.024-14.923-6.502c.006-.013.01-.027.016-.04l114.659-263.153 14.924 6.502-65.369 150.029c-1.654 3.798.083 8.217 3.88 9.872 3.819 1.663 8.226-.103 9.872-3.88l65.369-150.03 14.924 6.502c-1.824 4.188-112.923 259.173-114.657 263.154zm120.65-276.906-43.601-18.996 7.443-17.082 43.601 18.997zm24.471-56.164-11.037 25.331-43.601-18.997 11.037-25.331c5.236-12.021 19.278-17.54 31.299-12.302 12.047 5.248 17.555 19.247 12.302 31.299z"/></g></g></svg>