<svg id="Capa_1" enable-background="new 0 0 512 512" height="512" viewBox="0 0 512 512" width="512" xmlns="http://www.w3.org/2000/svg"><g><g><path d="m158.554 503.326-19.102-10.259c-2.853-1.533-6.285-1.533-9.138 0l-19.102 10.259c-6.433 3.455-14.226-1.205-14.226-8.507v-99.879h75.794v99.879c-.001 7.303-7.793 11.963-14.226 8.507z" fill="#7296d1"/><g><g><g><path d="m360.83 450.814h-295.589c-14.472 0-26.204-11.732-26.204-26.204v-390.906c0-14.472 11.732-26.204 26.204-26.204h295.59c14.472 0 26.204 11.732 26.204 26.204v390.906c0 14.472-11.732 26.204-26.205 26.204z" fill="#e07f84"/></g><path d="m360.83 7.5h-65.354c14.472 0 26.204 11.732 26.204 26.204v390.906c0 14.472-11.732 26.204-26.204 26.204h65.354c14.472 0 26.204-11.732 26.204-26.204v-390.906c.001-14.472-11.731-26.204-26.204-26.204z" fill="#db636e"/><path d="m96.985 7.5h-31.744c-14.472 0-26.204 11.732-26.204 26.204v390.906c0 14.472 11.732 26.204 26.204 26.204h31.744z" fill="#edeaed"/></g></g><path d="m444.969 80.948h-232.213c-15.461 0-27.995 12.534-27.995 27.995v157.291c0 15.461 12.534 27.995 27.995 27.995h5.886c4.223 0 7.646 3.423 7.646 7.646v54.252c0 5.039 6.331 7.284 9.505 3.37l50.635-62.438c1.452-1.79 3.634-2.83 5.938-2.83h152.603c15.461 0 27.995-12.534 27.995-27.995v-157.291c-.001-15.461-12.534-27.995-27.995-27.995z" fill="#f4e066"/><g fill="#efd133"><path d="m225.334 298.179c.606 1.095.953 2.354.953 3.695v54.252c0 5.039 6.331 7.284 9.505 3.37l50.635-62.438c1.452-1.79 3.634-2.83 5.938-2.83h-49.492c-6.143 0-12.123 1.382-17.539 3.951z"/><path d="m444.969 80.948h-65.354c15.461 0 27.994 12.534 27.994 27.995v157.291c0 15.461-12.534 27.995-27.995 27.995h65.354c15.461 0 27.995-12.534 27.995-27.995v-157.291c0-15.461-12.533-27.995-27.994-27.995z"/></g></g><g><path d="m273.977 146.407c-.025-.069-.053-.138-.081-.206-1.436-3.487-4.797-5.738-8.567-5.738-.003 0-.007 0-.011 0-3.773.004-7.136 2.264-8.564 5.757-.023.057-.046.113-.067.171l-29.239 76.769c-1.475 3.87.469 8.203 4.339 9.678 3.871 1.475 8.204-.468 9.678-4.34l5.442-14.289h36.625l5.385 14.268c1.464 3.88 5.794 5.829 9.665 4.368 3.875-1.462 5.831-5.789 4.368-9.665zm-21.357 52.802 12.684-33.302 12.568 33.302z"/><path d="m423.269 218.328h-38.107l40.257-61.785c4.503-6.911-.466-16.082-8.715-16.082h-43.784c-4.142 0-7.5 3.357-7.5 7.5s3.357 7.5 7.5 7.5h35.301l-40.258 61.786c-4.504 6.912.466 16.081 8.714 16.081h46.592c4.142 0 7.5-3.357 7.5-7.5s-3.358-7.5-7.5-7.5z"/><path d="m348.779 179.396h-31.593c-4.142 0-7.5 3.357-7.5 7.5 0 4.142 3.357 7.5 7.5 7.5h31.593c4.142 0 7.5-3.357 7.5-7.5s-3.357-7.5-7.5-7.5z"/><path d="m444.969 73.449h-232.213c-19.572 0-35.494 15.923-35.494 35.494v157.291c0 19.572 15.923 35.494 35.494 35.494h5.887c.08 0 .146.065.146.146v54.253c0 5.515 3.358 10.268 8.556 12.111 5.162 1.831 10.776.295 14.273-4.018l50.634-62.437c.028-.034.07-.055.114-.055h152.603c19.572 0 35.494-15.923 35.494-35.494v-157.291c0-19.572-15.923-35.494-35.494-35.494zm20.494 192.785c0 11.301-9.194 20.495-20.495 20.495h-152.603c-4.586 0-8.873 2.043-11.763 5.606l-46.814 57.727v-48.188c0-8.351-6.794-15.145-15.145-15.145h-5.887c-11.301 0-20.495-9.194-20.495-20.495v-157.291c0-11.301 9.194-20.495 20.495-20.495h232.213c11.301 0 20.495 9.194 20.495 20.495v157.291z"/><path d="m387.034 321.802c-4.142 0-7.5 3.357-7.5 7.5v95.309c0 10.314-8.39 18.705-18.704 18.705h-256.345v-428.316h256.346c10.313 0 18.704 8.39 18.704 18.705v12.171c0 4.142 3.357 7.5 7.5 7.5s7.5-3.357 7.5-7.5v-12.172c-.001-18.584-15.12-33.704-33.704-33.704h-295.591c-18.584 0-33.703 15.12-33.703 33.704v390.906c0 18.585 15.119 33.704 33.703 33.704h24.245v36.505c0 12.963 13.831 21.257 25.275 15.114l19.101-10.26c.641-.344 1.403-.344 2.042 0l19.102 10.26c5.366 2.881 11.69 2.74 16.923-.391 5.228-3.127 8.35-8.631 8.35-14.723v-36.505h180.552c18.585 0 33.703-15.12 33.703-33.704v-95.309c.001-4.142-3.356-7.499-7.499-7.499zm-297.549 121.513h-24.245c-10.313 0-18.704-8.39-18.704-18.705v-390.906c.001-10.314 8.391-18.704 18.704-18.704h24.245zm75.794 51.505c0 1.635-1.731 2.673-3.177 1.899l-19.103-10.26c-5.082-2.73-11.151-2.728-16.235 0l-19.102 10.26c-1.437.77-3.178-.256-3.178-1.899v-36.505h60.795z"/></g></g></svg>