<svg id="Capa_1" enable-background="new 0 0 512 512" height="512" viewBox="0 0 512 512" width="512" xmlns="http://www.w3.org/2000/svg"><g><g><path d="m466.66 230.574c-4.419-2.621-7.041-7.546-6.675-12.671 1.232-17.289-4.75-34.994-17.969-48.212-2.978-2.978-6.183-5.588-9.561-7.832-3.322-2.207-5.475-5.807-5.95-9.766-7.198-59.957-58.231-106.433-120.128-106.433-42.323 0-79.563 21.733-101.19 54.642-31.866-8.106-67.064.292-92.002 25.229-15.597 15.597-24.709 35.211-27.38 55.511-44.819 8.927-78.557 48.591-78.303 96.092.288 53.795 44.781 96.911 98.577 96.911h320.19c42.782 0 78.592-35.004 78.229-77.784-.238-27.964-15.367-52.362-37.838-65.687z" fill="#88a8d8"/><path d="m466.66 230.574c-4.419-2.621-7.041-7.546-6.675-12.671 1.232-17.289-4.75-34.994-17.968-48.212-2.978-2.978-6.183-5.588-9.561-7.832-3.322-2.207-5.475-5.807-5.95-9.766-7.198-59.957-58.231-106.433-120.128-106.433-11.316 0-22.263 1.567-32.651 4.473 42.761 11.969 75.953 46.838 85.518 90.55 2.322 10.613 7.981 20.118 15.917 27.537.514.48 1.021.971 1.522 1.472 10.178 10.178 16.066 23.015 17.673 36.274 1.526 12.589 7.924 23.978 17.59 32.186 16.651 14.14 27.22 35.219 27.22 58.777 0 42.59-34.526 77.117-77.116 77.117h64.217c42.782 0 78.592-35.004 78.229-77.784-.237-27.965-15.366-52.363-37.837-65.688z" fill="#7296d1"/><g><g><path d="m217.329 158.445h131.663c15.561 0 28.176 12.615 28.176 28.176v251.471c0 15.561-12.615 28.176-28.176 28.176h-185.985c-15.561 0-28.176-12.615-28.176-28.176v-197.15c0-8.361 3.321-16.379 9.233-22.291l50.972-50.972c5.913-5.913 13.932-9.234 22.293-9.234z" fill="#f7f4f7"/></g><path d="m348.992 158.445h-65.333c15.561 0 28.176 12.615 28.176 28.176v251.471c0 15.561-12.615 28.176-28.176 28.176h65.333c15.561 0 28.176-12.615 28.176-28.176v-251.471c0-15.561-12.615-28.176-28.176-28.176z" fill="#e0dde0"/><path d="m144.065 218.651 50.972-50.973c2.695-2.695 5.83-4.844 9.233-6.393v54.401c0 6.737-5.461 12.198-12.198 12.198h-54.401c1.55-3.403 3.699-6.538 6.394-9.233z" fill="#efd133"/></g></g><g><path d="m334.875 260.498h-157.75c-4.143 0-7.5 3.358-7.5 7.5s3.357 7.5 7.5 7.5h157.75c4.143 0 7.5-3.358 7.5-7.5s-3.358-7.5-7.5-7.5z"/><path d="m334.875 302.36h-157.75c-4.143 0-7.5 3.358-7.5 7.5s3.357 7.5 7.5 7.5h157.75c4.143 0 7.5-3.358 7.5-7.5s-3.358-7.5-7.5-7.5z"/><path d="m334.875 344.222h-157.75c-4.143 0-7.5 3.358-7.5 7.5s3.357 7.5 7.5 7.5h157.75c4.143 0 7.5-3.358 7.5-7.5s-3.358-7.5-7.5-7.5z"/><path d="m229.708 386.083h-52.583c-4.143 0-7.5 3.358-7.5 7.5s3.357 7.5 7.5 7.5h52.583c4.143 0 7.5-3.358 7.5-7.5s-3.358-7.5-7.5-7.5z"/><path d="m348.992 150.945h-131.663c-10.424 0-20.224 4.059-27.595 11.43l-50.972 50.972c-7.371 7.371-11.431 17.17-11.431 27.595v197.149c0 19.672 16.004 35.676 35.676 35.676h185.984c19.672 0 35.676-16.004 35.676-35.676v-251.47c.001-19.672-16.003-35.676-35.675-35.676zm-152.221 25.607v39.134c0 2.59-2.107 4.698-4.698 4.698h-39.134zm172.897 261.539c0 11.401-9.275 20.676-20.676 20.676h-185.985c-11.4 0-20.676-9.275-20.676-20.676v-197.149c0-1.896.224-3.758.648-5.558h49.093c10.861 0 19.698-8.836 19.698-19.698v-49.093c1.8-.425 3.661-.648 5.558-.648h131.663c11.4 0 20.676 9.275 20.676 20.676v251.47z"/><path d="m470.485 224.123c-1.996-1.184-3.182-3.417-3.02-5.687 1.789-25.087-10.071-49.014-30.859-62.824-1.468-.975-2.435-2.583-2.654-4.414-13.931-116.041-164.024-154.348-232.069-59.336-56.581-11.331-112.255 25.717-122.697 82.985-46.442 11.709-79.444 53.922-79.184 102.326.294 55.065 44.04 100.825 99.592 104.176 4.114.247 7.688-2.9 7.938-7.035.249-4.135-2.9-7.688-7.035-7.938-47.688-2.876-85.242-42.094-85.494-89.283-.23-43.008 30.162-80.311 72.268-88.697 3.151-.627 5.552-3.192 5.971-6.377 6.982-53.062 58.842-87.488 110.098-74.45 3.103.789 6.36-.478 8.116-3.149 58.122-88.444 195.062-55.905 207.605 48.565.742 6.199 4.112 11.709 9.245 15.121 16.3 10.826 25.603 29.586 24.198 49.264-.562 7.885 3.494 15.601 10.332 19.656 21.183 12.562 33.954 34.729 34.162 59.299.33 38.645-32.086 70.22-70.729 70.22h-14.039c-4.143 0-7.5 3.358-7.5 7.5s3.357 7.5 7.5 7.5h14.037c47.247 0 86.126-38.596 85.729-85.347-.253-29.868-15.771-56.812-41.511-72.075z"/></g></g></svg>