<svg id="Capa_1" enable-background="new 0 0 512 512" height="512" viewBox="0 0 512 512" width="512" xmlns="http://www.w3.org/2000/svg"><g><g><g><g><g><path d="m459.893 446.387c0-15.639 11.365-28.672 26.269-31.277 3.119-.545 5.428-3.195 5.428-6.362v-13.874c0-3.645-2.955-6.6-6.6-6.6h-406.467c-32.095 0-58.113 26.018-58.113 58.113 0 32.095 26.018 58.113 58.113 58.113h406.467c3.645 0 6.6-2.955 6.6-6.6v-13.874c0-3.167-2.308-5.817-5.428-6.362-14.904-2.605-26.269-15.638-26.269-31.277z" fill="#88a8d8"/><path d="m368.14 504.5h116.85c3.645 0 6.6-2.955 6.6-6.6v-13.873c0-3.167-2.308-5.817-5.428-6.362-14.904-2.605-26.269-15.639-26.269-31.277s11.365-28.672 26.269-31.277c3.119-.545 5.428-3.195 5.428-6.362v-13.874c0-3.645-2.955-6.6-6.6-6.6h-116.861-.001c32.095 0 58.113 26.018 58.113 58.113-.001 32.09-26.012 58.105-58.101 58.112z" fill="#7296d1"/><path d="m480.644 476.172c-12.102-4.484-20.751-16.143-20.751-29.785s8.648-25.3 20.749-29.784h-402.119c-16.424 0-29.784 13.361-29.784 29.784s13.361 29.784 29.784 29.784h402.121z" fill="#f7f4f7"/><path d="m480.645 416.603h-62.617c5.211 8.711 8.212 18.896 8.212 29.784 0 10.889-3.002 21.074-8.213 29.785h62.619c-12.103-4.484-20.753-16.142-20.753-29.785 0-13.642 8.65-25.3 20.752-29.784z" fill="#e0dde0"/></g></g><g><g><path d="m52.107 330.161c0-15.008-10.468-27.618-24.485-30.912-4.259-1.001-7.212-4.889-7.212-9.263v-11.337c0-3.645 2.955-6.6 6.6-6.6h406.467c32.095 0 58.113 26.018 58.113 58.113 0 32.095-26.018 58.113-58.113 58.113h-406.467c-3.645 0-6.6-2.955-6.6-6.6v-11.337c0-4.375 2.953-8.263 7.212-9.263 14.017-3.296 24.485-15.906 24.485-30.914z" fill="#e07f84"/><path d="m433.477 272.048h-65.35c32.095 0 58.113 26.018 58.113 58.113s-26.018 58.113-58.113 58.113h65.35c32.095 0 58.113-26.018 58.113-58.113s-26.018-58.113-58.113-58.113z" fill="#db636e"/><path d="m433.477 300.376-402.116.002c12.099 4.485 20.746 16.143 20.746 29.783 0 13.642-8.648 25.3-20.75 29.784h402.12c16.424 0 29.784-13.361 29.784-29.784.001-16.424-13.36-29.785-29.784-29.785z" fill="#f7f4f7"/><path d="m433.477 300.376h-15.45c5.211 8.711 8.213 18.896 8.213 29.784s-3.002 21.073-8.212 29.784h15.449c16.424 0 29.784-13.361 29.784-29.784.001-16.423-13.36-29.784-29.784-29.784z" fill="#e0dde0"/></g></g></g><g><path d="m417.004 67.957h-80.44v27.609h72.762c3.695 0 6.69 2.995 6.69 6.69v51.353c0 17.011-13.79 30.8-30.8 30.8h-48.651v27.609h48.651c32.258 0 58.409-26.151 58.409-58.409v-59.031c-.001-14.702-11.919-26.621-26.621-26.621z" fill="#edeaed"/><path d="m280.177 272.048h-48.354c-48.551 0-87.909-39.358-87.909-87.909v-135.985c0-6.02 4.88-10.901 10.901-10.901h202.371c6.02 0 10.901 4.88 10.901 10.901v135.985c-.001 48.551-39.359 87.909-87.91 87.909z" fill="#edeaed"/><path d="m357.185 37.253h-64.811c6.021 0 10.901 4.88 10.901 10.901v135.985c0 45.775-34.989 83.373-79.681 87.523 2.71.252 5.453.387 8.229.387h48.354c48.551 0 87.909-39.359 87.909-87.909v-135.986c0-6.021-4.88-10.901-10.901-10.901z" fill="#e0dde0"/></g><path d="m233.576 166.697h-34.513c-6.237 0-11.294-5.056-11.294-11.294v-42.369c0-6.237 5.056-11.294 11.294-11.294h34.513c6.237 0 11.294 5.056 11.294 11.294v42.369c0 6.238-5.056 11.294-11.294 11.294z" fill="#b3e59f"/></g><path d="m484.989 380.774h-9.802c14.589-12.044 23.903-30.261 23.903-50.613 0-36.179-29.434-65.613-65.612-65.613h-101.997c16.687-10.685 29.842-26.419 37.3-45.029h16.434c36.343 0 65.909-29.566 65.909-65.909v-59.032c0-18.814-15.307-34.121-34.12-34.121h-41.418v-12.304c0-10.146-8.254-18.4-18.4-18.4h-90.397v-.769c-.001-15.982-13.003-28.984-28.985-28.984s-28.984 13.002-28.984 28.984v.769h-54.005c-10.146 0-18.4 8.254-18.4 18.4v16.534c0 4.142 3.357 7.5 7.5 7.5s7.5-3.358 7.5-7.5v-16.534c0-1.875 1.525-3.4 3.4-3.4h54.005v49.488h-9.757c-10.362 0-18.793 8.431-18.793 18.794v42.368c0 10.363 8.431 18.794 18.793 18.794h34.514c10.363 0 18.794-8.431 18.794-18.794v-42.368c0-10.363-8.431-18.794-18.794-18.794h-9.757v-49.488h133.366c1.875 0 3.4 1.525 3.4 3.4v135.985c0 44.338-36.071 80.409-80.409 80.409h-48.354c-44.338 0-80.409-36.071-80.409-80.409v-84.38c0-4.142-3.357-7.5-7.5-7.5s-7.5 3.358-7.5 7.5v84.38c0 33.737 17.603 63.44 44.105 80.409h-153.508c-7.775 0-14.101 6.325-14.101 14.1v11.337c0 7.955 5.344 14.767 12.995 16.564 10.767 2.53 18.701 12.294 18.701 23.611 0 11.227-7.858 21.062-18.701 23.611-7.651 1.798-12.995 8.609-12.995 16.564v11.337c0 7.775 6.325 14.1 14.101 14.1h9.802c-14.589 12.044-23.903 30.262-23.903 50.613 0 36.182 29.434 65.616 65.612 65.616h406.467c7.775 0 14.101-6.325 14.101-14.1v-13.874c0-6.789-4.895-12.572-11.636-13.75-26.486-4.63-26.694-43.113 0-47.779 6.742-1.179 11.636-6.961 11.636-13.75v-13.874c0-7.774-6.325-14.099-14.101-14.099zm-109.403-277.708h32.93v50.543c0 12.848-10.453 23.301-23.301 23.301h-9.629zm-.318 88.844h9.947c21.119 0 38.301-17.182 38.301-38.301v-51.353c0-7.824-6.365-14.19-14.189-14.19h-33.74v-12.608h41.418c10.543 0 19.12 8.578 19.12 19.121v59.032c0 28.071-22.838 50.909-50.909 50.909h-11.827c.897-4.113 1.531-8.321 1.879-12.61zm-141.692-82.669c2.092 0 3.794 1.702 3.794 3.794v42.368c0 2.092-1.702 3.794-3.794 3.794h-34.514c-2.092 0-3.793-1.702-3.793-3.794v-42.368c0-2.092 1.701-3.794 3.793-3.794zm18.212-79.488h-27.969v-.769c0-7.711 6.273-13.984 13.984-13.984s13.984 6.273 13.984 13.984v.769zm-223.878 351.021v-10.438c0-.943.6-1.768 1.427-1.962 1.125-.264 2.228-.575 3.308-.929h400.833c20.559 0 37.284-16.726 37.284-37.285s-16.726-37.284-37.284-37.284l-400.828.002c-1.082-.355-2.187-.666-3.313-.931-.827-.194-1.427-1.019-1.427-1.962v-10.438h405.567c27.907 0 50.612 22.705 50.612 50.613s-22.705 50.613-50.612 50.613h-354.955-50.612zm188.409-58.113h-157.431c-1.033-5.384-3.161-10.398-6.176-14.783l380.766-.002c12.287 0 22.284 9.997 22.284 22.284s-9.997 22.285-22.284 22.285h-380.768c3.016-4.385 5.144-9.4 6.178-14.784h157.432c4.143 0 7.5-3.358 7.5-7.5s-3.358-7.5-7.501-7.5zm267.771 85.205c-1.619.316-3.195.734-4.729 1.237h-83.878c-4.143 0-7.5 3.358-7.5 7.5s3.357 7.5 7.5 7.5h63.823c-3.018 4.382-5.15 9.399-6.189 14.784h-157.277c-4.143 0-7.5 3.358-7.5 7.5s3.357 7.5 7.5 7.5h157.276c1.039 5.385 3.172 10.402 6.189 14.784h-380.782c-12.288 0-22.285-9.997-22.285-22.284s9.997-22.284 22.285-22.284h281.888c4.143 0 7.5-3.358 7.5-7.5s-3.357-7.5-7.5-7.5h-281.888c-20.56 0-37.285 16.726-37.285 37.284s16.726 37.284 37.285 37.284h400.837c1.534.503 3.11.92 4.729 1.237v12.092h-405.567c-27.907 0-50.612-22.705-50.612-50.613s22.705-50.613 50.612-50.613h354.955 50.612v12.092z"/></g></svg>