<svg id="Capa_1" enable-background="new 0 0 512 512" height="512" viewBox="0 0 512 512" width="512" xmlns="http://www.w3.org/2000/svg"><g><g><path d="m378.312 7.5h-305.188c-24.304 0-44.007 19.703-44.007 44.007v408.883c0 24.304 19.702 44.007 44.007 44.007h305.188c24.304 0 44.007-19.703 44.007-44.007v-408.883c0-24.304-19.703-44.007-44.007-44.007z" fill="#f4e580"/><path d="m378.312 7.5h-65.342c24.304 0 44.007 19.703 44.007 44.007v408.882c0 24.304-19.703 44.007-44.007 44.007h65.341c24.304 0 44.007-19.703 44.007-44.007v-408.882c.001-24.304-19.702-44.007-44.006-44.007z" fill="#f7ecad"/><g><g><g><g><g><g><g><path d="m63.228 72.688v369.828c12.279 0 22.421 9.122 24.036 20.958h276.908c1.615-11.836 11.757-20.958 24.036-20.958v-369.828c-13.402 0-24.266-10.864-24.266-24.266h-276.448c0 13.402-10.864 24.266-24.266 24.266z" fill="#f7f4f7"/></g></g></g></g></g></g><path d="m378.312 7.5h-65.342c24.304 0 44.007 19.703 44.007 44.007v408.882c0 24.304-19.703 44.007-44.007 44.007h65.341c24.304 0 44.007-19.703 44.007-44.007v-408.882c.001-24.304-19.702-44.007-44.006-44.007z" fill="#efd133"/><path d="m363.942 48.422h-7.084c.071 1.02.12 2.047.12 3.085v408.882c0 1.038-.049 2.064-.12 3.085h7.314c1.615-11.836 11.757-20.958 24.036-20.958v-369.828c-13.402 0-24.266-10.864-24.266-24.266z" fill="#e0dde0"/><path d="m407.219 274.686c4.673 7.683 14.26 10.798 22.556 7.329 12.579-5.259 26.259 4.68 25.144 18.268-.735 8.963 5.189 17.117 13.94 19.187 13.268 3.139 18.493 19.22 9.604 29.559-5.863 6.819-5.863 16.898 0 23.717 8.889 10.338 3.664 26.42-9.604 29.559-8.751 2.07-14.676 10.225-13.94 19.187 1.115 13.589-12.565 23.528-25.144 18.268-8.297-3.469-17.883-.354-22.556 7.329-7.086 11.649-23.995 11.649-31.08 0-4.673-7.683-14.259-10.798-22.556-7.329-12.579 5.259-26.259-4.68-25.144-18.268.735-8.963-5.189-17.117-13.94-19.187-13.268-3.139-18.493-19.22-9.604-29.559 5.863-6.819 5.863-16.898 0-23.717-8.889-10.338-3.664-26.42 9.604-29.559 8.751-2.07 14.676-10.225 13.94-19.187-1.115-13.589 12.565-23.528 25.144-18.268 8.297 3.469 17.883.354 22.556-7.329 7.086-11.649 23.995-11.649 31.08 0z" fill="#e49542"/><g><g><path d="m350.512 501.765-9.638-23.055c-.838-2.005-3.001-3.112-5.118-2.619l-24.338 5.665c-3.691.859-6.7-2.992-4.973-6.366l53.116-103.774 52.138 26.687-53.116 103.774c-1.726 3.373-6.61 3.184-8.071-.312z" fill="#db636e"/></g><g><path d="m432.847 501.765 9.638-23.055c.838-2.005 3.001-3.112 5.118-2.619l24.338 5.665c3.691.859 6.7-2.992 4.973-6.366l-53.116-103.774-52.138 26.687 53.116 103.774c1.726 3.373 6.609 3.184 8.071-.312z" fill="#db636e"/></g><g><path d="m407.219 274.686c4.673 7.683 14.26 10.798 22.556 7.329 12.579-5.259 26.259 4.68 25.144 18.268-.735 8.963 5.189 17.117 13.94 19.187 13.268 3.139 18.493 19.22 9.604 29.559-5.863 6.819-5.863 16.898 0 23.717 8.889 10.338 3.664 26.42-9.604 29.559-8.751 2.07-14.676 10.225-13.94 19.187 1.115 13.589-12.565 23.528-25.144 18.268-8.297-3.469-17.883-.354-22.556 7.329-7.086 11.649-23.995 11.649-31.08 0-4.673-7.683-14.259-10.798-22.556-7.329-12.579 5.259-26.259-4.68-25.144-18.268.735-8.963-5.189-17.117-13.94-19.187-13.268-3.139-18.493-19.22-9.604-29.559 5.863-6.819 5.863-16.898 0-23.717-8.889-10.338-3.664-26.42 9.604-29.559 8.751-2.07 14.676-10.225 13.94-19.187-1.115-13.589 12.565-23.528 25.144-18.268 8.297 3.469 17.883.354 22.556-7.329 7.086-11.649 23.995-11.649 31.08 0z" fill="#e49542"/><circle cx="391.679" cy="360.888" fill="#fcf7e0" r="43.473"/></g></g></g></g><g><path d="m275.492 129.765c4.142 0 7.5-3.357 7.5-7.5s-3.358-7.5-7.5-7.5h-106.291c-4.142 0-7.5 3.357-7.5 7.5s3.358 7.5 7.5 7.5z"/><path d="m348.206 176.878h-244.976c-4.142 0-7.5 3.357-7.5 7.5s3.358 7.5 7.5 7.5h244.976c4.142 0 7.5-3.357 7.5-7.5s-3.358-7.5-7.5-7.5z"/><path d="m348.206 225.274h-244.976c-4.142 0-7.5 3.357-7.5 7.5s3.358 7.5 7.5 7.5h244.976c4.142 0 7.5-3.357 7.5-7.5s-3.358-7.5-7.5-7.5z"/><path d="m276.686 455.975h-183.591c-3.621-9.967-12.09-17.536-22.367-20.054v-356.627c11.503-2.795 20.577-11.869 23.372-23.372h263.235c2.795 11.503 11.87 20.577 23.372 23.372v151.828c0 4.143 3.358 7.5 7.5 7.5s7.5-3.357 7.5-7.5v-158.434c0-4.143-3.358-7.5-7.5-7.5-9.245 0-16.766-7.521-16.766-16.767 0-4.143-3.358-7.5-7.5-7.5h-276.447c-4.142 0-7.5 3.357-7.5 7.5 0 9.245-7.521 16.767-16.766 16.767-4.142 0-7.5 3.357-7.5 7.5v369.828c0 4.143 3.358 7.5 7.5 7.5 8.341 0 15.479 6.222 16.604 14.472.507 3.716 3.681 6.486 7.431 6.486h189.422c4.142 0 7.5-3.357 7.5-7.5s-3.357-7.499-7.499-7.499z"/><path d="m470.587 409.604c18.759-4.438 26.107-27.162 13.564-41.747-3.472-4.038-3.472-9.899 0-13.938 12.568-14.618 5.155-37.317-13.565-41.748-5.182-1.226-8.627-5.968-8.192-11.275 1.479-18.036-15.549-31.675-32.576-26.824v-222.565c.001-28.402-23.105-51.507-51.506-51.507h-305.188c-28.401 0-51.507 23.105-51.507 51.507v408.883c0 28.401 23.105 51.507 51.506 51.507h305.188c13.542 0 26.219-5.239 35.698-14.392l4.089 7.988c4.638 9.06 17.745 8.546 21.668-.836l8.644-20.679 21.829 5.081c9.911 2.312 17.983-8.037 13.35-17.087l-21.868-42.724c.668-2.684.908-5.503.673-8.369-.435-5.307 3.011-10.049 8.193-11.275zm-397.463 87.292c-20.13 0-36.506-16.377-36.506-36.507v-408.882c-.001-20.13 16.376-36.507 36.506-36.507h305.188c20.13 0 36.507 16.377 36.507 36.507v220.887c-.438-.489-.838-1.024-1.191-1.605-10.018-16.469-33.897-16.436-43.896 0-2.767 4.549-8.343 6.362-13.255 4.307-4.966-2.076-10.287-2.517-15.324-1.424h-237.923c-4.142 0-7.5 3.357-7.5 7.5s3.358 7.5 7.5 7.5h219.711c-1.616 3.775-2.328 7.946-1.977 12.226.436 5.308-3.01 10.05-8.192 11.275-6.125 1.45-11.335 4.984-14.882 9.896h-194.66c-4.142 0-7.5 3.357-7.5 7.5s3.358 7.5 7.5 7.5h189.755c-.041 6.093 2.096 12.054 6.221 16.853 3.472 4.038 3.472 9.899 0 13.938-.718.835-1.373 1.706-1.97 2.605h-194.006c-4.142 0-7.5 3.357-7.5 7.5s3.358 7.5 7.5 7.5h189.775c.414 11.366 8.153 21.394 19.767 24.142 5.182 1.226 8.627 5.968 8.192 11.275-.235 2.866.006 5.685.673 8.369l-21.868 42.724c-4.637 9.059 3.45 19.398 13.35 17.087l21.829-5.081 5.4 12.918h-267.224zm281.775-4.083-7.106-16.999c-2.258-5.398-8.036-8.356-13.737-7.029l-17.943 4.177 15.061-29.426c.099.074.192.154.292.227 7.316 5.315 16.665 6.407 25.009 2.919 4.912-2.056 10.489-.243 13.256 4.307 1.138 1.871 2.485 3.555 3.996 5.039zm14.761 4.083 17.397-33.988c3.045.548 6.076.569 9.245 0l10.427 20.37c-13.955 17.363-33.164 12.967-37.069 13.618zm97.585-23.934-17.944-4.177c-5.7-1.327-11.477 1.631-13.736 7.031l-7.105 16.997-18.829-36.786c1.512-1.485 2.859-3.169 3.997-5.04 2.767-4.55 8.341-6.362 13.255-4.307 8.344 3.487 17.692 2.397 25.008-2.919.1-.073.193-.153.293-.227zm-19.801-50.856c.657 8.002-7.361 13.837-14.776 10.735-11.81-4.938-25.208-.584-31.857 10.352-4.172 6.857-14.098 6.85-18.265 0-4.81-7.907-13.146-12.373-21.86-12.373-10.084 0-13.211 6.031-20.403.808-3.09-2.245-4.683-5.716-4.37-9.521 1.045-12.756-7.235-24.153-19.689-27.1-7.814-1.848-10.884-11.277-5.644-17.37 8.344-9.705 8.344-23.792 0-33.496-5.236-6.089-2.177-15.521 5.644-17.371 12.454-2.946 20.734-14.344 19.689-27.1-.657-8 7.361-13.839 14.776-10.735 11.809 4.938 25.207.585 31.857-10.352 4.173-6.861 14.088-6.865 18.265 0 6.651 10.935 20.049 15.287 31.857 10.352 7.41-3.097 15.434 2.726 14.776 10.735-1.046 12.756 7.235 24.153 19.689 27.1 7.815 1.848 10.884 11.278 5.644 17.371-8.344 9.704-8.344 23.791 0 33.496 5.236 6.088 2.177 15.52-5.644 17.37-12.454 2.946-20.734 14.344-19.689 27.099z"/><path d="m391.679 309.915c-28.107 0-50.973 22.866-50.973 50.974 0 28.106 22.866 50.973 50.973 50.973 28.106 0 50.973-22.866 50.973-50.973 0-28.108-22.866-50.974-50.973-50.974zm0 86.946c-19.835 0-35.973-16.138-35.973-35.973 0-19.836 16.138-35.974 35.973-35.974s35.973 16.138 35.973 35.974-16.137 35.973-35.973 35.973z"/></g></g></svg>