<svg id="Capa_1" enable-background="new 0 0 512 512" height="512" viewBox="0 0 512 512" width="512" xmlns="http://www.w3.org/2000/svg"><g><g><g><g><g><g><g><g><path d="m392.58 473.503h-309.092c-14.704 0-26.624-11.92-26.624-26.624v-412.755c0-14.704 11.92-26.624 26.624-26.624h309.092c14.704 0 26.624 11.92 26.624 26.624v412.755c-.001 14.704-11.92 26.624-26.624 26.624z" fill="#88a8d8"/></g><g><path d="m392.579 7.5h-65.356c14.704 0 26.624 11.92 26.624 26.624v429.403c0 5.509 4.466 9.976 9.976 9.976h28.756c14.704 0 26.624-11.92 26.624-26.624v-412.755c0-14.704-11.92-26.624-26.624-26.624z" fill="#7296d1"/></g><path d="m122.967 7.5h-39.479c-14.704 0-26.624 11.92-26.624 26.624v412.755c0 14.704 11.92 26.624 26.624 26.624h39.479z" fill="#edeaed"/></g><g fill="#808080"><path d="m67.595 97.041h-21.463c-9.649 0-17.47-7.822-17.47-17.47 0-9.649 7.822-17.47 17.47-17.47h21.463c9.649 0 17.47 7.822 17.47 17.47.001 9.649-7.821 17.47-17.47 17.47z"/><path d="m67.595 177.507h-21.463c-9.649 0-17.47-7.822-17.47-17.47 0-9.649 7.822-17.471 17.47-17.471h21.463c9.649 0 17.47 7.822 17.47 17.471.001 9.648-7.821 17.47-17.47 17.47z"/><path d="m67.595 257.972h-21.463c-9.649 0-17.47-7.822-17.47-17.47 0-9.649 7.822-17.47 17.47-17.47h21.463c9.649 0 17.47 7.822 17.47 17.47.001 9.648-7.821 17.47-17.47 17.47z"/><path d="m67.595 338.438h-21.463c-9.649 0-17.47-7.822-17.47-17.47 0-9.649 7.822-17.47 17.47-17.47h21.463c9.649 0 17.47 7.822 17.47 17.47.001 9.648-7.821 17.47-17.47 17.47z"/><path d="m67.595 418.903h-21.463c-9.649 0-17.47-7.822-17.47-17.471 0-9.649 7.822-17.47 17.47-17.47h21.463c9.649 0 17.47 7.822 17.47 17.47.001 9.649-7.821 17.471-17.47 17.471z"/></g></g></g></g><g><g><g><g><g><g><path d="m377.296 173.318c-.02-5.69-4.63-10.365-10.32-10.31-.142.001-.284 0-.426-.005-1.916-.062-3.543-1.441-4.061-3.286-2.11-7.517-5.119-14.657-8.909-21.293-.983-1.721-.748-3.9.621-5.332.044-.047.089-.093.135-.139l.003-.003c4.017-4.07 3.984-10.623-.074-14.653l-16.72-16.603c-4.044-4.016-10.588-3.959-14.562.125-.046.046-.092.092-.139.137-1.422 1.378-3.598 1.628-5.325.658-6.663-3.743-13.825-6.703-21.357-8.76-1.848-.505-3.238-2.122-3.313-4.036-.006-.141-.008-.283-.008-.426.014-5.69-4.691-10.268-10.382-10.248l-23.494.082c-5.691.02-10.363 4.631-10.31 10.322 0 .047.001.095 0 .142-.009 2.021-1.351 3.798-3.297 4.344-7.465 2.096-14.557 5.078-21.153 8.831-1.802 1.025-4.1.803-5.576-.652-.009-.009-.019-.018-.028-.028l-.003-.003c-4.071-4.017-10.624-3.984-14.654.074l-16.532 16.648c-4.026 4.054-4.003 10.605.051 14.631l.003.003c.046.046.091.091.136.138 1.379 1.423 1.629 3.6.658 5.328-3.741 6.66-6.7 13.817-8.757 21.346-.533 1.951-2.301 3.308-4.324 3.331-.047.001-.095.001-.142.001-5.69-.015-10.267 4.692-10.247 10.382l.082 23.494c.02 5.69 4.631 10.363 10.321 10.31.142-.001.284 0 .426.005 1.915.062 3.541 1.44 4.059 3.285 2.11 7.518 5.12 14.659 8.91 21.296.982 1.72.748 3.897-.62 5.329-.045.047-.09.094-.136.14l-.003.003c-4.036 4.036-4.025 10.583.026 14.605l16.623 16.507c4.066 4.038 10.626 4.048 14.704.022l.003-.003c.044-.045.089-.089.134-.133 1.424-1.382 3.605-1.631 5.334-.659 6.66 3.741 13.818 6.699 21.347 8.756 1.852.506 3.245 2.126 3.319 4.044.005.138.008.276.008.415-.013 5.692 4.69 10.272 10.382 10.252l23.494-.082c5.691-.02 10.363-4.631 10.31-10.322 0-.047-.001-.095 0-.142.009-2.021 1.351-3.797 3.297-4.344 7.516-2.11 14.654-5.119 21.29-8.908 1.719-.982 3.896-.747 5.327.62.047.045.094.091.141.137l.003.003c4.054 4.026 10.605 4.003 14.631-.051l16.577-16.693c4.022-4.051 3.989-10.598-.074-14.608l-.003-.003c-.047-.046-.093-.093-.139-.14-1.377-1.422-1.627-3.596-.657-5.322 3.743-6.662 6.702-13.822 8.76-21.353.533-1.949 2.299-3.303 4.32-3.327.047-.001.095-.001.142-.001 5.691.013 10.27-4.691 10.25-10.382z" fill="#fff"/></g></g></g></g></g><path d="m377.296 173.318c-.02-5.69-4.63-10.365-10.319-10.31-.143.001-.285 0-.426-.005-1.916-.062-3.542-1.441-4.06-3.286-2.11-7.517-5.119-14.657-8.909-21.293-.983-1.721-.748-3.9.621-5.332.044-.047.089-.093.135-.139l.003-.003c4.017-4.07 3.984-10.623-.074-14.653l-16.72-16.603c-4.044-4.016-10.588-3.959-14.562.125-.046.046-.092.092-.139.137-1.422 1.378-3.598 1.628-5.325.658-6.663-3.743-13.825-6.703-21.357-8.76-1.848-.505-3.238-2.122-3.313-4.036-.006-.141-.008-.283-.008-.426.014-5.69-4.692-10.268-10.382-10.248l-23.494.082c-5.237.018-9.601 3.928-10.224 8.985 11.662 5.156 22.589 12.508 32.147 22.065 41.51 41.51 41.51 108.811 0 150.321-9.385 9.385-20.091 16.641-31.517 21.782.455 5.265 4.95 9.369 10.337 9.35l23.494-.082c5.691-.02 10.363-4.631 10.31-10.322 0-.047-.001-.095 0-.142.009-2.021 1.352-3.797 3.297-4.344 7.516-2.11 14.655-5.119 21.29-8.909 1.719-.982 3.896-.747 5.327.621.047.045.094.091.141.137l.003.003c4.054 4.026 10.605 4.003 14.631-.051l16.577-16.694c4.022-4.05 3.989-10.598-.074-14.608l-.003-.003c-.047-.046-.093-.093-.139-.14-1.377-1.421-1.627-3.596-.657-5.321 3.743-6.662 6.702-13.822 8.76-21.353.532-1.949 2.299-3.303 4.32-3.327.047 0 .095-.001.142-.001 5.691.013 10.27-4.691 10.25-10.382z" fill="#f7f4f7"/><circle cx="271.085" cy="185.437" fill="#c9e0fd" r="54.808"/><path d="m309.84 224.192c21.404-21.404 21.404-56.106 0-77.51-2.479-2.479-5.143-4.658-7.938-6.563 13.485 28.622 13.485 62.014 0 90.636 2.795-1.905 5.459-4.084 7.938-6.563z" fill="#bcd6f9"/></g></g><path d="m429.273 400.715v-92.642c0-3.355-2.719-6.074-6.074-6.074h-63.277c-3.355 0-6.074 2.719-6.074 6.074v92.642c0 3.355-2.72 6.074-6.074 6.074h-41.665c-5.411 0-8.122 6.543-4.295 10.369l85.57 85.57c2.372 2.372 6.218 2.372 8.59 0l85.569-85.57c3.827-3.827 1.116-10.369-4.295-10.369h-41.901c-3.355 0-6.074-2.72-6.074-6.074z" fill="#f4e066"/></g><g><path d="m384.878 196.786-.082-23.494s0 0 0-.001c-.034-9.204-6.967-16.668-15.69-17.667-2.005-6.603-4.682-12.998-7.98-19.064 5.406-7.025 4.869-17.183-1.576-23.584l-16.72-16.603c-6.527-6.482-16.678-6.768-23.519-1.328-6.082-3.249-12.49-5.878-19.1-7.836-1.057-8.669-8.514-15.564-17.711-15.564-.021 0-.044 0-.066 0l-23.493.082c-9.248.032-16.664 6.999-17.666 15.688-6.603 2.005-12.999 4.683-19.068 7.981-7.025-5.405-17.184-4.867-23.584 1.576l-16.531 16.649c-6.393 6.439-6.857 16.566-1.387 23.57-3.255 6.087-5.887 12.501-7.847 19.12-8.729 1.062-15.597 8.586-15.566 17.779l.082 23.494c.034 9.201 6.968 16.672 15.69 17.668 2.005 6.602 4.681 12.993 7.975 19.054-5.385 6.923-4.996 17.064 1.532 23.544l16.622 16.508c6.438 6.392 16.627 6.882 23.637 1.456 6.09 3.257 12.507 5.891 19.129 7.852 1.057 8.655 8.498 15.565 17.713 15.565h.063l23.495-.082c9.258-.034 16.662-7.015 17.663-15.688 6.607-2.007 13.001-4.683 19.064-7.979 7.016 5.421 17.162 4.893 23.566-1.556l16.577-16.695c6.49-6.537 6.797-16.694 1.372-23.56 3.251-6.083 5.881-12.493 7.84-19.109 8.712-1.062 15.598-8.567 15.566-17.776zm-17.75 2.907c-.1.036-9.244-.134-11.696 8.852-1.872 6.852-4.586 13.465-8.064 19.655-2.586 4.603-1.842 10.447 1.837 14.243l.232.235c1.106 1.093 1.119 2.878.02 3.983l-16.577 16.695c-1.101 1.108-2.892 1.118-4.006.032-.102-.103-.2-.198-.265-.259-3.792-3.625-9.641-4.329-14.229-1.711-6.165 3.522-12.759 6.28-19.595 8.199-5.14 1.441-8.746 6.183-8.773 11.566l.001.211c.009.9-.419 1.524-.779 1.89-.316.321-1.005.859-2.057.863-.112 0-23.618.082-23.504.082-1.512 0-2.848-1.184-2.845-2.752 0-.228-.005-.455-.014-.705-.2-5.184-3.751-9.6-8.835-10.988-6.85-1.872-13.461-4.584-19.653-8.063-4.609-2.587-10.46-1.841-14.252 1.838l-.135.133c-.021.021-.043.043-.065.065-1.148 1.092-2.981 1.078-4.111-.044l-16.623-16.508c-1.064-1.057-1.165-2.82.052-4.038l.199-.206c3.625-3.793 4.329-9.644 1.712-14.231-3.523-6.168-6.282-12.764-8.202-19.604-1.399-4.983-5.802-8.762-11.611-8.762-1.862-.028-2.91-1.383-2.915-2.836l-.082-23.492c-.01-2.741 2.647-2.808 2.747-2.856l.226-.001c5.349-.06 10.067-3.7 11.475-8.853 1.872-6.849 4.584-13.46 8.061-19.65 2.587-4.604 1.843-10.452-1.836-14.248l-.214-.216c-1.114-1.105-1.12-2.911-.015-4.023l16.531-16.648c1.114-1.125 2.939-1.133 4.098.013 3.83 3.773 9.813 4.524 14.549 1.83 6.134-3.489 12.686-6.224 19.471-8.129 5.14-1.441 8.746-6.183 8.773-11.566l-.001-.212c-.015-1.532 1.304-2.745 2.836-2.751l23.495-.082h.011c1.502 0 2.846 1.174 2.843 2.747 0 .246.004.492.014.722.203 5.178 3.753 9.588 8.831 10.976 6.851 1.871 13.465 4.584 19.662 8.066 4.605 2.585 10.449 1.839 14.186-1.783.1-.03 2.129-2.436 4.228-.354l16.719 16.602c1.122 1.115 1.132 2.938-.005 4.089l-.194.201c-3.629 3.794-4.333 9.648-1.714 14.235 3.522 6.17 6.281 12.765 8.2 19.602 1.409 5.014 5.842 8.764 11.596 8.764 1.864 0 2.926 1.385 2.932 2.836l.082 23.493c.004 1.052-.53 1.744-.849 2.063-.873.871-1.803.762-1.903.79z"/><path d="m227.027 141.378c-24.293 24.294-24.293 63.823 0 88.117 12.148 12.147 28.103 18.22 44.058 18.22 15.956 0 31.912-6.073 44.059-18.22 24.293-24.294 24.293-63.823 0-88.117-24.294-24.293-63.821-24.293-88.117 0zm77.509 77.51c-8.935 8.936-20.815 13.857-33.452 13.857-12.636 0-24.516-4.921-33.451-13.857-8.936-8.935-13.857-20.815-13.857-33.451 0-12.637 4.921-24.517 13.857-33.452 9.222-9.223 21.336-13.834 33.451-13.834s24.23 4.611 33.452 13.834c18.446 18.445 18.446 48.458 0 66.903z"/><path d="m320.448 466.003h-189.981v-451.003h262.113c10.545 0 19.123 8.578 19.123 19.123v232.8c0 4.143 3.357 7.5 7.5 7.5s7.5-3.357 7.5-7.5v-232.8c0-18.815-15.308-34.123-34.123-34.123h-309.092c-18.816 0-34.124 15.308-34.124 34.124v20.476h-3.231c-13.769 0-24.971 11.201-24.971 24.97s11.202 24.971 24.971 24.971h3.231v30.524h-3.231c-13.769 0-24.971 11.202-24.971 24.971s11.202 24.97 24.971 24.97h3.231v30.525h-3.231c-13.769 0-24.971 11.201-24.971 24.97s11.202 24.971 24.971 24.971h3.231v30.524h-3.231c-13.769 0-24.971 11.202-24.971 24.971s11.202 24.97 24.971 24.97h3.231v30.525h-3.231c-13.769 0-24.971 11.201-24.971 24.97s11.202 24.971 24.971 24.971h3.231v20.476c0 18.817 15.308 34.124 34.124 34.124h236.96c4.143 0 7.5-3.357 7.5-7.5s-3.358-7.5-7.5-7.5zm-274.315-376.462c-5.498 0-9.971-4.473-9.971-9.971 0-5.497 4.473-9.97 9.971-9.97h21.463c5.497 0 9.97 4.473 9.97 9.97 0 5.498-4.473 9.971-9.97 9.971zm0 80.465c-5.498 0-9.971-4.473-9.971-9.97 0-5.498 4.473-9.971 9.971-9.971h21.463c5.497 0 9.97 4.473 9.97 9.971 0 5.497-4.473 9.97-9.97 9.97zm0 80.466c-5.498 0-9.971-4.473-9.971-9.971 0-5.497 4.473-9.97 9.971-9.97h21.463c5.497 0 9.97 4.473 9.97 9.97 0 5.498-4.473 9.971-9.97 9.971zm0 80.465c-5.498 0-9.971-4.473-9.971-9.97 0-5.498 4.473-9.971 9.971-9.971h21.463c5.497 0 9.97 4.473 9.97 9.971 0 5.497-4.473 9.97-9.97 9.97zm0 80.466c-5.498 0-9.971-4.473-9.971-9.971 0-5.497 4.473-9.97 9.971-9.97h21.463c5.497 0 9.97 4.473 9.97 9.97 0 5.498-4.473 9.971-9.97 9.971zm69.333 54.6h-31.978c-10.545 0-19.123-8.579-19.123-19.124v-20.476h3.231c13.769 0 24.97-11.202 24.97-24.971s-11.201-24.97-24.97-24.97h-3.231v-30.525h3.231c13.769 0 24.97-11.201 24.97-24.97s-11.201-24.971-24.97-24.971h-3.231v-30.524h3.231c13.769 0 24.97-11.202 24.97-24.971s-11.201-24.97-24.97-24.97h-3.231v-30.525h3.231c13.769 0 24.97-11.201 24.97-24.97s-11.201-24.971-24.97-24.971h-3.231v-30.524h3.231c13.769 0 24.97-11.202 24.97-24.971s-11.202-24.97-24.97-24.97h-3.231v-20.476c-.001-10.546 8.577-19.124 19.123-19.124h31.979v451.003z"/><path d="m477.248 399.289h-40.475v-91.216c0-7.484-6.09-13.574-13.574-13.574h-63.277c-7.484 0-13.573 6.09-13.573 13.574v91.216h-40.239c-12.072 0-18.14 14.631-9.6 23.173l85.57 85.57c5.294 5.292 13.904 5.291 19.198 0l85.57-85.57c8.532-8.536 2.478-23.173-9.6-23.173zm-85.57 97.127-82.128-82.127h38.223c7.485 0 13.574-6.09 13.574-13.574v-91.216h60.425v91.216c0 7.484 6.09 13.574 13.574 13.574h38.459z"/></g></g></svg>