<svg id="Capa_1" enable-background="new 0 0 512 512" height="512" viewBox="0 0 512 512" width="512" xmlns="http://www.w3.org/2000/svg"><g><g><g><path d="m368.959 485.818h-315.585c-15.013 0-27.183-12.17-27.183-27.183v-423.952c0-15.013 12.17-27.183 27.183-27.183h315.585c15.013 0 27.183 12.17 27.183 27.183v423.952c0 15.013-12.17 27.183-27.183 27.183z" fill="#eab14d"/></g><path d="m368.959 7.5h-65.476c15.013 0 27.183 12.17 27.183 27.183v423.952c0 15.013-12.17 27.183-27.183 27.183h65.476c15.013 0 27.183-12.17 27.183-27.183v-423.952c.001-15.013-12.17-27.183-27.183-27.183z" fill="#e49542"/><path d="m89.473 7.5h-36.099c-15.013 0-27.183 12.17-27.183 27.183v423.952c0 15.013 12.17 27.183 27.183 27.183h36.099z" fill="#edeaed"/><g><g><path d="m341.612 504.5c-41.131 0-74.473-33.343-74.473-74.473v-48.342c0-41.13 33.343-74.473 74.473-74.473 41.13 0 74.473 33.343 74.473 74.473v48.342c0 41.13-33.343 74.473-74.473 74.473z" fill="#88a8d8"/><path d="m341.611 307.211c-11.66 0-22.691 2.685-32.517 7.462 24.835 12.074 41.956 37.541 41.956 67.011v48.342c0 29.47-17.121 54.938-41.956 67.011 9.826 4.777 20.857 7.462 32.517 7.462 41.13 0 74.474-33.343 74.474-74.473v-48.342c0-41.13-33.343-74.473-74.474-74.473z" fill="#7296d1"/><path d="m341.612 307.211c-41.13 0-74.473 33.343-74.473 74.473 0 15.425 12.504 27.929 27.929 27.929h93.088c15.425 0 27.929-12.504 27.929-27.929 0-41.13-33.343-74.473-74.473-74.473z" fill="#e5eaf4"/><path d="m341.611 307.211c-11.66 0-22.691 2.685-32.517 7.462 24.835 12.074 41.956 37.541 41.956 67.011v27.929h37.106c15.425 0 27.93-12.504 27.93-27.929-.001-41.13-33.344-74.473-74.475-74.473z" fill="#d6e0ef"/></g><path d="m341.612 380.334c-9.035 0-16.36-7.324-16.36-16.36v-11.123c0-9.035 7.324-16.36 16.36-16.36 9.035 0 16.36 7.324 16.36 16.36v11.123c-.001 9.035-7.325 16.36-16.36 16.36z" fill="#808080"/></g><g><path d="m134.759 176.721v-83.039c0-6.76 5.48-12.241 12.241-12.241h191.617c6.76 0 12.241 5.48 12.241 12.241v83.039c0 6.76-5.48 12.241-12.241 12.241h-191.618c-6.76 0-12.24-5.481-12.24-12.241z" fill="#f4f4f4"/><path d="m338.616 81.441h-7.95v107.52h7.95c6.76 0 12.241-5.48 12.241-12.241v-83.038c0-6.76-5.48-12.241-12.241-12.241z" fill="#ddd"/></g></g><path d="m396.142 88.687h30.931c5.333 0 9.657-4.324 9.657-9.657v-15.221c0-5.333-4.324-9.657-9.657-9.657h-30.931z" fill="#a8a8a8"/><g><path d="m456.947 63.919h-12.717v-.11c0-9.46-7.696-17.157-17.157-17.157h-23.431v-11.969c.001-19.124-15.558-34.683-34.683-34.683h-315.585c-19.125 0-34.684 15.559-34.684 34.683v423.952c0 19.125 15.559 34.683 34.684 34.683h236.202c14.164 11.667 32.295 18.682 52.035 18.682 45.2 0 81.974-36.773 81.974-81.973v-48.343c0-20.433-7.532-39.128-19.942-53.498v-42.738c0-4.142-3.357-7.5-7.5-7.5s-7.5 3.358-7.5 7.5v29.157c-11.567-8.134-25.315-13.35-40.185-14.587v-20.732c0-11.779 9.583-21.362 21.362-21.362h87.127c20.05 0 36.362-16.312 36.362-36.362v-121.281c.001-20.05-16.312-36.362-36.362-36.362zm-53.304-2.267h23.431c1.189 0 2.157.968 2.157 2.157v15.221c0 1.189-.968 2.157-2.157 2.157h-23.431zm-321.669 416.666h-28.6c-10.854 0-19.684-8.83-19.684-19.683v-423.952c0-10.853 8.831-19.683 19.684-19.683h28.6zm326.611-48.291c0 36.929-30.044 66.973-66.974 66.973-36.929 0-66.973-30.044-66.973-66.973v-19.423c5.778 4.094 12.824 6.51 20.429 6.51h93.088c7.605 0 14.651-2.416 20.43-6.51zm-75.833-66.053v-11.124c0-4.885 3.975-8.859 8.859-8.859s8.859 3.974 8.859 8.859v11.124c0 4.885-3.975 8.859-8.859 8.859s-8.859-3.974-8.859-8.859zm75.833 17.71c0 11.265-9.165 20.43-20.43 20.43h-39.697v-15.286c9.829-2.95 17.013-12.077 17.013-22.853v-11.124c0-13.156-10.703-23.859-23.859-23.859s-23.859 10.703-23.859 23.859v11.124c0 10.294 6.553 19.085 15.706 22.423v15.716h-38.391c-11.265 0-20.429-9.165-20.429-20.429 0-36.929 30.044-66.973 66.973-66.973 36.929-.001 66.973 30.043 66.973 66.972zm69.725-160.121c0 11.779-9.583 21.362-21.362 21.362h-87.128c-20.05 0-36.362 16.312-36.362 36.362v20.832c-41.386 4.106-73.819 39.117-73.819 81.566v48.343c0 18.045 5.874 34.736 15.792 48.292h-178.457v-463.32h271.985c10.854 0 19.684 8.83 19.684 19.683v180.487c0 4.142 3.357 7.5 7.5 7.5s7.5-3.358 7.5-7.5v-118.982h23.431c9.461 0 17.157-7.697 17.157-17.157v-.111h12.717c11.779 0 21.362 9.583 21.362 21.362z"/><path d="m174.866 125.135h135.883c4.143 0 7.5-3.358 7.5-7.5s-3.357-7.5-7.5-7.5h-135.883c-4.143 0-7.5 3.358-7.5 7.5s3.358 7.5 7.5 7.5z"/><path d="m174.866 157.957h135.883c4.143 0 7.5-3.358 7.5-7.5s-3.357-7.5-7.5-7.5h-135.883c-4.143 0-7.5 3.358-7.5 7.5s3.358 7.5 7.5 7.5z"/><path d="m338.616 73.941h-191.617c-10.885 0-19.74 8.855-19.74 19.741v23.95c0 4.142 3.357 7.5 7.5 7.5s7.5-3.358 7.5-7.5v-23.95c0-2.614 2.126-4.741 4.74-4.741h191.617c2.614 0 4.741 2.126 4.741 4.741v83.039c0 2.614-2.127 4.741-4.741 4.741h-191.617c-2.614 0-4.74-2.127-4.74-4.741v-23.95c0-4.142-3.357-7.5-7.5-7.5s-7.5 3.358-7.5 7.5v23.95c0 10.885 8.855 19.741 19.74 19.741h191.617c10.886 0 19.741-8.856 19.741-19.741v-83.039c0-10.885-8.855-19.741-19.741-19.741z"/></g></g></svg>