<svg id="Capa_1" enable-background="new 0 0 512 512" height="512" viewBox="0 0 512 512" width="512" xmlns="http://www.w3.org/2000/svg"><g><g><g><path d="m281.247 455.042h-88.764l12.439-95.514h63.885z" fill="#c1bcc4"/><path d="m144.936 469.225c0-17.934 14.539-32.473 32.473-32.473h118.912c17.934 0 32.473 14.539 32.473 32.473 0 7.771-6.3 14.071-14.071 14.071h-155.716c-7.771 0-14.071-6.3-14.071-14.071z" fill="#f7f4f7"/><path d="m296.321 436.752h-65.408c17.934 0 32.473 14.539 32.473 32.473 0 7.771-6.3 14.071-14.071 14.071h65.408c7.771 0 14.071-6.3 14.071-14.071 0-17.934-14.539-32.473-32.473-32.473z" fill="#edeaed"/></g><g><g><path d="m444.462 392.773h-406.45c-16.851 0-30.512-13.661-30.512-30.512v-273.356c0-16.851 13.661-30.512 30.512-30.512h406.45c16.851 0 30.512 13.661 30.512 30.512v273.356c0 16.851-13.661 30.512-30.512 30.512z" fill="#bed8fb"/><path d="m7.5 338.219v24.042c0 16.851 13.661 30.512 30.512 30.512h406.45c16.851 0 30.512-13.661 30.512-30.512v-24.042z" fill="#f7f4f7"/></g></g><g><g><path d="m444.462 58.393h-65.408c16.851 0 30.512 13.661 30.512 30.512v273.356c0 16.852-13.661 30.512-30.512 30.512h65.408c16.851 0 30.512-13.661 30.512-30.512v-273.356c0-16.851-13.661-30.512-30.512-30.512z" fill="#9dc6fb"/><path d="m409.566 338.219v24.042c0 16.852-13.661 30.512-30.512 30.512h65.408c16.852 0 30.512-13.661 30.512-30.512v-24.042z" fill="#e0dde0"/></g></g><g><g><g><path d="m131.705 288.406 50.793-69.13c-3.902-.751-8.492-1.634-11.165-2.149l-11.764-16.492v-37.591h-55.453v37.591l-11.764 16.492-11.236 2.162z" fill="#ffece4"/><path d="m186.708 220.086c-4.095-.788-11.625-2.237-15.375-2.959-2.602-.501-4.925-1.681-6.809-3.331l-32.757 44.583-32.63-44.58c-1.901 1.661-4.229 2.838-6.785 3.328l-15.376 2.959c-40.329 7.762-69.476 43.053-69.476 84.122v34.011h248.684v-34.011c0-41.069-29.147-76.36-69.476-84.122z" fill="#f4e066"/><g><path d="m186.708 220.086c-4.095-.788-11.625-2.237-15.375-2.959-2.602-.501-4.925-1.681-6.809-3.331l-13.363 18.187c24.074 15.361 39.615 42.246 39.615 72.225v34.011h65.408v-34.011c0-41.069-29.147-76.361-69.476-84.122z" fill="#efd133"/></g></g><g><g><g><g><path d="m186.731 108.16-3.507.015-.059-14.134c-.123-29.613-24.56-40.498-51.653-40.688-26.975.42-51.356 11.403-51.232 41.127l.042 9.965.017 4.169-3.507.015c-5.142.022-9.293 4.259-9.271 9.464l.044 20.074c.022 5.205 4.208 9.406 9.35 9.384l3.521-.015c.347 13.676 6.08 26.816 16.376 35.713 8.289 7.162 19.924 13.395 35.259 13.503 15.334-.239 26.917-6.571 35.145-13.804 10.221-8.984 15.844-22.173 16.078-35.851l3.521-.015c5.142-.022 9.293-4.259 9.271-9.464l-.044-20.074c-.023-5.205-4.209-9.406-9.351-9.384z" fill="#ffece4"/><path d="m196.081 117.544c-.022-5.205-4.208-9.406-9.35-9.384l-3.507.015-.059-14.134c-.123-29.613-24.56-40.498-51.653-40.688-1.024.016-2.043.053-3.059.099 1.331 4.004 2.076 8.502 2.097 13.558l.167 80.086c-.233 13.678-5.856 26.867-16.078 35.851-2.664 2.342-5.686 4.584-9.066 6.561 7.167 4.188 15.974 7.169 26.536 7.243 15.334-.239 26.917-6.571 35.145-13.804 10.221-8.984 15.844-22.173 16.078-35.851l3.521-.015c5.142-.022 9.293-4.259 9.271-9.464z" fill="#ffddce"/><path d="m180.289 61.5h-.534c-2.954 0-5.348-2.395-5.348-5.348 0-8.746-7.09-15.835-15.835-15.835h-50.4c-22.43 0-40.613 18.183-40.613 40.613v26.839c0 3.942 2.495 7.453 6.218 8.749l10.004 3.483c3.497 1.217 7.148-1.382 7.142-5.085l-.022-18.926c-.038-9.204 7.302-16.697 16.395-16.736l.198-.001c2.783-.012 5.536.42 8.165 1.265 4.659 1.497 9.487 2.405 14.38 2.384h3.605c4.893.021 9.721-.887 14.38-2.384 2.629-.845 5.382-1.277 8.165-1.265l.198.001c9.093.039 16.433 7.532 16.395 16.736l-.018 18.927c-.005 3.702 3.647 6.301 7.143 5.083l10.001-3.483c3.723-1.297 6.217-4.807 6.217-8.749v-30.433c-.001-8.745-7.09-15.835-15.836-15.835z" fill="#89808c"/><path d="m180.29 61.5h-.534c-2.954 0-5.348-2.395-5.348-5.348 0-8.746-7.09-15.835-15.835-15.835h-38.112c6.233 6.339 10.04 15.067 10.088 26.693l.033 15.893h3.062c4.893.021 9.721-.887 14.38-2.384 2.629-.845 5.382-1.277 8.165-1.265l.198.001c9.093.039 16.433 7.532 16.395 16.736l-.018 18.927c-.005 3.702 3.647 6.301 7.143 5.083l10.001-3.483c3.723-1.296 6.217-4.807 6.217-8.749v-30.434c-.001-8.745-7.09-15.835-15.835-15.835z" fill="#756e78"/></g></g></g></g><g fill="#efd133"><path d="m86.885 257.242-5.533-30.943c-.902-5.042.649-10.219 4.184-13.927 8.403-8.814 18.581-11.737 18.581-11.737l-2.909 7.498c-1.368 3.527-.84 7.509 1.4 10.557l29.16 39.688-30.778 7.923c-6.443 1.658-12.935-2.511-14.105-9.059z"/><path d="m176.724 257.242 5.533-30.943c.902-5.042-.649-10.219-4.184-13.927-8.403-8.814-18.581-11.737-18.581-11.737l2.909 7.498c1.368 3.527.84 7.509-1.4 10.557l-29.16 39.688 30.778 7.923c6.443 1.658 12.934-2.511 14.105-9.059z"/></g></g></g><g><path d="m387.564 47.113c-30.412-17.363-78.049-18.678-98.105-18.376-5.218.078-9.399 4.336-9.399 9.555v145.28c0 5.336 4.369 9.629 9.705 9.555 19.193-.269 62.756.967 93.012 15.845 6.03 2.965 13.046 2.924 19.079-.036 39.817-19.537 102.596-15.496 102.644-15.486 0 0 0 0 0-.001v-155.157c0-5.219-4.181-9.477-9.4-9.555-20.051-.301-67.668 1.012-98.082 18.363-2.933 1.673-6.521 1.687-9.454.013z" fill="#ddd"/><path d="m289.459 28.737c-5.218.078-9.399 4.336-9.399 9.555v145.28c0 5.336 4.369 9.629 9.705 9.555 19.177-.269 62.686.965 92.939 15.809 3.029 1.486 6.302 2.229 9.576 2.229v-162.807c-1.635 0-3.269-.42-4.741-1.259-30.413-17.35-78.029-18.664-98.08-18.362z" fill="#f7f4f7"/></g></g><g><path d="m363.224 71.188c-15.303-4.224-33.221-6.849-53.256-7.801-4.128-.199-7.651 2.999-7.848 7.136s2.998 7.651 7.136 7.848c34.822 1.655 48.571 7.549 51.977 7.549 3.29 0 6.308-2.181 7.225-5.506 1.102-3.994-1.242-8.124-5.234-9.226z"/><path d="m363.223 107.201c-15.306-4.225-33.224-6.849-53.255-7.801-4.128-.191-7.651 2.998-7.848 7.136s2.999 7.651 7.136 7.848c34.816 1.654 48.571 7.549 51.977 7.549 3.29 0 6.308-2.182 7.225-5.507 1.102-3.993-1.242-8.124-5.235-9.225z"/><path d="m363.223 146.886c-15.306-4.225-33.224-6.849-53.255-7.801-4.128-.206-7.651 2.998-7.848 7.136s2.999 7.651 7.136 7.848c34.816 1.654 48.571 7.549 51.977 7.549 3.29 0 6.308-2.182 7.225-5.507 1.102-3.993-1.242-8.124-5.235-9.225z"/><path d="m474.254 63.387c-20.036.953-37.954 3.577-53.256 7.801-3.993 1.102-6.336 5.232-5.234 9.225.917 3.325 3.936 5.506 7.225 5.506 3.704 0 17.036-5.889 51.977-7.549 4.138-.197 7.332-3.71 7.136-7.848-.197-4.138-3.714-7.326-7.848-7.135z"/><path d="m474.254 99.4c-20.032.952-37.95 3.576-53.256 7.801-3.993 1.102-6.336 5.232-5.234 9.225.917 3.326 3.936 5.507 7.225 5.507 3.704 0 17.041-5.889 51.977-7.549 4.137-.197 7.332-3.71 7.136-7.848-.197-4.138-3.699-7.316-7.848-7.136z"/><path d="m447.772 141.492c-9.639 1.335-18.647 3.15-26.774 5.394-3.993 1.102-6.336 5.232-5.234 9.225.917 3.325 3.936 5.506 7.225 5.506 2.974 0 7.76-2.623 26.842-5.267 4.103-.568 6.968-4.355 6.4-8.458s-4.351-6.965-8.459-6.4z"/><path d="m474.974 221.969c-4.142 0-7.5 3.358-7.5 7.5v101.25h-203.79v-26.511c0-44.585-31.777-83.061-75.559-91.487l-.797-.153c-1.009-1.943-2.287-3.757-3.825-5.371-6.909-7.247-14.857-11.084-19.036-12.743 2.663-1.734 5.247-3.683 7.739-5.873 9.872-8.676 16.264-20.933 18.092-34.365 7.631-1.625 13.36-8.473 13.327-16.614l-.043-20.09c-.007-1.624-.255-3.23-.716-4.775.492-1.582.76-3.251.76-4.967v-30.435c0-4.16-1.114-8.057-3.03-11.442h44.983c4.142 0 7.5-3.358 7.5-7.5s-3.358-7.5-7.5-7.5h-64.294c-2.395-10.338-11.655-18.076-22.711-18.076h-50.4c-15.173 0-28.72 7.068-37.545 18.076h-32.617c-20.96 0-38.012 17.052-38.012 38.012v273.355c0 20.96 17.052 38.012 38.012 38.012h154.041l-3.774 28.979h-10.87c-22.041 0-39.973 17.932-39.973 39.973 0 11.894 9.677 21.571 21.571 21.571h155.715c11.894 0 21.571-9.677 21.571-21.571 0-22.041-17.932-39.973-39.973-39.973h-10.87l-3.774-28.979h162.785c20.96 0 38.012-17.052 38.012-38.012v-132.791c.001-4.142-3.357-7.5-7.499-7.5zm-307.928 1.162c1.723-2.345 2.843-4.999 3.333-7.755.766.671 1.526 1.394 2.267 2.171 1.876 1.968 2.709 4.746 2.229 7.432l-5.533 30.943c-.402 2.25-2.635 3.689-4.852 3.116l-20.036-5.158zm-58.396-8.881c-.726-.988-.895-2.26-.451-3.404l2.908-7.498c.343-.885.494-1.808.492-2.725 13.795 5.033 27.785 4.621 40.41.059.005.897.155 1.8.491 2.666l2.909 7.499c.444 1.143.275 2.415-.451 3.403l-23.154 31.513zm10.505 39.63-20.036 5.158c-2.215.572-4.449-.864-4.852-3.116l-5.533-30.943c-.48-2.686.353-5.464 2.229-7.431.741-.777 1.501-1.5 2.267-2.171.489 2.756 1.609 5.41 3.333 7.755zm67.666-114.299-3.521.015c-4.08.018-7.397 3.293-7.467 7.372-.203 11.906-5.135 22.967-13.53 30.346-17.903 15.738-42.385 15.955-60.549.259-8.456-7.308-13.479-18.326-13.782-30.229-.104-4.079-3.444-7.334-7.53-7.31l-3.521.015c-.002 0-.005 0-.008 0-.593 0-1.002-.286-1.242-.526-.211-.211-.565-.673-.568-1.375l-.029-13.239 6.24 2.172c3.933 1.371 8.308.746 11.701-1.669 3.394-2.416 5.415-6.344 5.409-10.506l-.022-18.948c-.021-5.054 3.983-9.184 8.932-9.205l.192-.001c1.982-.013 3.943.296 5.839.905 11.522 3.703 25.335 3.734 36.953 0 1.897-.61 3.898-.923 5.834-.906l.203.001c4.943.021 8.948 4.15 8.927 9.229l-.019 18.925c-.005 4.165 2.017 8.092 5.41 10.507 3.405 2.423 7.784 3.034 11.7 1.668l6.223-2.167.028 12.732c.005 1.063-.804 1.931-1.803 1.935zm-111.761-58.651c0-18.258 14.854-33.112 33.113-33.112h50.4c4.596 0 8.335 3.739 8.335 8.335 0 7.084 5.764 12.848 12.848 12.848h.534c4.596 0 8.335 3.739 8.335 8.335v30.434c0 .75-.476 1.419-1.184 1.666l-7.174 2.498.016-15.912c.056-13.324-10.649-24.21-23.857-24.267l-.203-.001c-.048 0-.095 0-.143 0-3.511 0-6.992.547-10.349 1.625-8.535 2.741-19.236 2.744-27.776 0-3.402-1.093-6.941-1.647-10.497-1.625l-.193.001c-13.214.057-23.919 10.943-23.863 24.245l.019 15.934-7.177-2.499c-.717-.25-1.184-.935-1.184-1.666zm-60.06 7.975c0-12.689 10.323-23.012 23.012-23.012h24.467c-1.562 4.734-2.419 9.786-2.419 15.037v26.839c0 1.774.281 3.5.806 5.13-.533 1.675-.813 3.429-.806 5.21l.043 20.089c.019 4.503 1.774 8.734 4.942 11.914 2.37 2.379 5.317 3.958 8.523 4.606 1.942 13.414 8.435 25.613 18.377 34.205 2.355 2.035 4.79 3.859 7.293 5.492-4.153 1.639-12.171 5.481-19.132 12.782-1.543 1.618-2.824 3.438-3.834 5.387-.602.256-37.749 4.749-61.272 41.022zm0 215.303c0-35.934 24.61-67.125 59.111-75.793l5.391 30.147c1.934 10.816 12.682 17.749 23.356 15.002l28.946-7.451 28.946 7.451c10.677 2.747 21.423-4.193 23.356-15.002l5.394-30.167c34.539 8.642 59.183 39.852 59.183 75.812v26.511h-31.141v-32.671c0-4.142-3.358-7.5-7.5-7.5s-7.5 3.358-7.5 7.5v32.671h-141.401v-32.671c0-4.142-3.358-7.5-7.5-7.5s-7.5 3.358-7.5 7.5v32.671h-31.141zm281.321 140.044c13.77 0 24.973 11.203 24.973 24.973 0 3.623-2.948 6.571-6.571 6.571h-155.716c-3.624 0-6.571-2.948-6.571-6.571 0-13.77 11.203-24.973 24.973-24.973zm-92.916-15 3.774-28.979h59.372l3.774 28.979zm264.069-66.991c0 12.689-10.323 23.012-23.012 23.012h-406.45c-12.689 0-23.012-10.323-23.012-23.012v-16.542h452.474z"/><path d="m495.213 21.238c-19.921-.296-69.725.985-101.91 19.347-.651.371-1.424.355-2.02.015-32.184-18.375-82.004-19.657-101.937-19.362-9.256.139-16.787 7.789-16.787 17.054v145.28c0 9.575 7.851 17.208 17.31 17.054 17.234-.234 60.455.744 89.599 15.076 8.052 3.959 17.414 4.027 25.691-.033 29.415-14.433 72.991-15.317 90.362-15.026 9.085.144 16.479-7.159 16.479-16.22v-146.131c0-9.266-7.531-16.916-16.787-17.054zm-110.433 180.383c-27.354-12.984-64.965-16.408-95.12-15.994-1.056.055-2.1-.839-2.1-2.055v-145.28c0-1.117.902-2.039 2.012-2.056 18.699-.277 65.305.85 94.274 17.39.307.175.619.338.934.493zm112.22-17.199c0 .63-.459 1.194-1.229 1.222-53.433-.897-84.209 10.422-95.992 15.969v-147.496c.322-.157.641-.324.955-.503 28.973-16.528 75.571-17.654 94.253-17.378 1.109.017 2.012.939 2.012 2.056v146.13z"/></g></g></svg>