<svg id="Capa_1" enable-background="new 0 0 512 512" height="512" viewBox="0 0 512 512" width="512" xmlns="http://www.w3.org/2000/svg"><g><g><g><g><g><g><g><path d="m295.96 476.281h-88.654l12.423-95.397h63.807z" fill="#c1bcc4"/><path d="m159.817 490.446c0-17.912 14.521-32.433 32.433-32.433h118.766c17.912 0 32.433 14.521 32.433 32.433 0 7.762-6.292 14.054-14.054 14.054h-155.524c-7.762 0-14.054-6.292-14.054-14.054z" fill="#f7f4f7"/><path d="m311.016 458.013h-65.328c17.912 0 32.433 14.521 32.433 32.433 0 7.762-6.292 14.054-14.054 14.054h65.328c7.762 0 14.054-6.292 14.054-14.054 0-17.912-14.521-32.433-32.433-32.433z" fill="#edeaed"/></g><g><g><path d="m458.975 414.088h-405.951c-16.831 0-30.475-13.644-30.475-30.475v-273.02c0-16.831 13.644-30.475 30.475-30.475h405.951c16.831 0 30.475 13.644 30.475 30.475v273.021c0 16.83-13.644 30.474-30.475 30.474z" fill="#bed8fb"/><path d="m458.975 80.118h-65.328c16.831 0 30.475 13.644 30.475 30.475v273.021c0 16.831-13.644 30.475-30.475 30.475h65.328c16.831 0 30.475-13.644 30.475-30.475v-273.022c0-16.83-13.644-30.474-30.475-30.474z" fill="#9dc6fb"/><path d="m22.549 359.601v24.013c0 16.831 13.644 30.475 30.475 30.475h405.951c16.831 0 30.475-13.644 30.475-30.475v-24.013z" fill="#f7f4f7"/><path d="m489.45 383.613v-24.013h-65.328v24.013c0 16.831-13.644 30.475-30.475 30.475h65.328c16.831 0 30.475-13.644 30.475-30.475z" fill="#e0dde0"/></g></g></g><g><path d="m396.844 7.5h-221.88l-72.618 72.618v279.483h307.307v-339.291c.001-7.075-5.735-12.81-12.809-12.81z" fill="#edeaed"/></g><path d="m396.844 7.5h-66.013c7.075 0 12.81 5.735 12.81 12.81v339.291h66.013v-339.291c0-7.075-5.736-12.81-12.81-12.81z" fill="#e0dde0"/></g></g><path d="m160.217 80.118c8.144 0 14.747-6.602 14.747-14.747v-57.871c-2.549.739-4.899 2.105-6.81 4.015l-61.792 61.792c-1.911 1.911-3.276 4.261-4.015 6.81h57.87z" fill="#f4e066"/></g><g><g><path d="m334.547 411.65-8.59-20.549c-.747-1.787-2.675-2.774-4.561-2.335l-21.692 5.049c-3.29.766-5.971-2.667-4.432-5.673l47.342-92.492 46.47 23.785-47.342 92.492c-1.54 3.007-5.892 2.839-7.195-.277z" fill="#ecbe6b"/></g><g><path d="m399.909 411.65 8.59-20.549c.747-1.787 2.675-2.774 4.561-2.335l21.692 5.049c3.29.766 5.971-2.667 4.432-5.673l-47.342-92.492-46.47 23.785 47.342 92.492c1.539 3.007 5.892 2.839 7.195-.277z" fill="#ecbe6b"/></g><g><path d="m379.208 230.841c3.603 5.923 10.993 8.324 17.389 5.65 9.698-4.055 20.244 3.608 19.384 14.084-.567 6.909 4.001 13.196 10.747 14.792 10.229 2.42 14.257 14.818 7.404 22.788-4.52 5.257-4.52 13.027 0 18.284 6.853 7.97 2.825 20.368-7.404 22.788-6.746 1.596-11.314 7.883-10.747 14.792.859 10.476-9.687 18.138-19.384 14.084-6.396-2.674-13.786-.273-17.389 5.65-5.462 8.98-18.498 8.98-23.96 0-3.603-5.923-10.993-8.324-17.389-5.65-9.698 4.055-20.244-3.608-19.384-14.084.567-6.909-4.001-13.196-10.747-14.792-10.229-2.42-14.257-14.818-7.404-22.788 4.52-5.257 4.52-13.027 0-18.284-6.853-7.97-2.825-20.368 7.404-22.788 6.746-1.596 11.314-7.883 10.747-14.792-.859-10.476 9.687-18.138 19.384-14.084 6.396 2.674 13.786.273 17.389-5.65 5.462-8.98 18.498-8.98 23.96 0z" fill="#e07f84"/><path d="m434.133 288.155c6.853-7.97 2.825-20.368-7.404-22.788-6.746-1.596-11.314-7.883-10.747-14.792.859-10.476-9.687-18.138-19.384-14.084-6.396 2.674-13.786.273-17.389-5.65-5.462-8.98-18.498-8.98-23.96 0-1.198 1.969-2.82 3.539-4.68 4.673 13.538 16.938 21.638 38.413 21.638 61.783s-8.099 44.845-21.638 61.783c1.86 1.134 3.482 2.703 4.68 4.673 5.462 8.98 18.498 8.98 23.96 0 3.603-5.923 10.993-8.324 17.389-5.65 9.698 4.055 20.244-3.608 19.384-14.084-.567-6.909 4.001-13.196 10.747-14.792 10.229-2.42 14.257-14.818 7.404-22.788-4.52-5.257-4.52-13.027 0-18.284z" fill="#db636e"/><circle cx="367.228" cy="297.297" fill="#f4f4f4" r="31.06"/><path d="m367.228 266.237c-.005 0-.011 0-.016 0 3.227 9.771 4.994 20.207 4.994 31.06s-1.767 21.289-4.994 31.06h.016c17.154 0 31.06-13.906 31.06-31.06s-13.906-31.06-31.06-31.06z" fill="#ddd"/></g></g></g><g><path d="m209.799 106.046h92.401c4.142 0 7.5-3.358 7.5-7.5s-3.358-7.5-7.5-7.5h-92.401c-4.142 0-7.5 3.358-7.5 7.5s3.358 7.5 7.5 7.5z"/><path d="m145.948 160.509h223.521c4.142 0 7.5-3.358 7.5-7.5s-3.358-7.5-7.5-7.5h-223.521c-4.142 0-7.5 3.358-7.5 7.5s3.358 7.5 7.5 7.5z"/><path d="m145.948 198.826h223.521c4.142 0 7.5-3.358 7.5-7.5s-3.358-7.5-7.5-7.5h-223.521c-4.142 0-7.5 3.358-7.5 7.5s3.358 7.5 7.5 7.5z"/><path d="m145.948 237.144h94.865c4.142 0 7.5-3.358 7.5-7.5s-3.358-7.5-7.5-7.5h-94.865c-4.142 0-7.5 3.358-7.5 7.5s3.358 7.5 7.5 7.5z"/><path d="m458.975 72.618h-41.822v-52.308c0-11.199-9.111-20.31-20.31-20.31h-221.88c-.071 0-.14.008-.211.01-.105.003-.21.008-.315.016-.173.012-.344.031-.515.055-.098.014-.196.026-.294.044-.197.036-.391.082-.583.133-.057.015-.114.022-.171.039-.019.005-.037.012-.055.018-.04.012-.079.026-.119.039-3.718 1.109-7.122 3.13-9.85 5.859l-61.792 61.792c-1.381 1.381-2.581 2.934-3.574 4.613h-44.46c-20.939 0-37.975 17.035-37.975 37.975v273.021c0 20.939 17.035 37.975 37.975 37.975h153.841l-3.767 28.925h-10.848c-22.019 0-39.933 17.914-39.933 39.933 0 11.885 9.669 21.554 21.554 21.554h155.524c11.885 0 21.554-9.669 21.554-21.554 0-22.019-17.914-39.933-39.933-39.933h-10.848l-3.767-28.925h162.575c20.939 0 37.975-17.035 37.975-37.975v-273.022c-.001-20.939-17.036-37.974-37.976-37.974zm-291.511-47.012v39.765c0 3.996-3.251 7.247-7.247 7.247h-39.765zm-114.44 62.012h41.822v202.865c0 4.142 3.358 7.5 7.5 7.5s7.5-3.358 7.5-7.5v-202.865h50.371c12.267 0 22.247-9.98 22.247-22.247v-50.371h214.38c2.928 0 5.31 2.382 5.31 5.31v115.098c0 4.142 3.358 7.5 7.5 7.5s7.5-3.358 7.5-7.5v-47.79h41.822c12.668 0 22.975 10.307 22.975 22.975v241.508h-52.788l-5.525-10.795c.567-2.322 2.366-4.199 4.819-4.78 15.716-3.719 21.872-22.755 11.364-34.976-2.119-2.464-2.119-6.041 0-8.504 10.529-12.247 4.319-31.266-11.364-34.976-3.162-.749-5.265-3.642-4.999-6.88.529-6.447-1.799-12.607-6.303-17.044v-63.677c0-4.142-3.358-7.5-7.5-7.5s-7.5 3.358-7.5 7.5v57.426c-2.844-.015-5.711.533-8.449 1.678-3 1.252-6.4.148-8.089-2.628-8.393-13.798-28.4-13.77-36.776 0-1.689 2.775-5.092 3.88-8.088 2.628-14.899-6.231-31.07 5.552-29.753 21.616.266 3.238-1.836 6.132-4.999 6.88-15.717 3.718-21.871 22.755-11.364 34.976 2.119 2.464 2.119 6.041 0 8.504-10.529 12.245-4.32 31.265 11.364 34.976 2.453.581 4.253 2.458 4.819 4.78l-5.525 10.795h-195.449v-26.106c0-4.142-3.358-7.5-7.5-7.5s-7.5 3.358-7.5 7.5v26.106h-64.796v-241.508c0-12.668 10.306-22.974 22.974-22.974zm252.986 195.648c-3.182-3.7-1.323-9.472 3.443-10.6 10.435-2.469 17.372-12.017 16.496-22.703-.4-4.874 4.504-8.438 9.017-6.551 9.892 4.136 21.117.488 26.689-8.672 2.542-4.18 8.605-4.176 11.145 0 5.571 9.161 16.796 12.808 26.69 8.672 4.5-1.882 9.417 1.667 9.016 6.551-.876 10.687 6.062 20.234 16.496 22.703 4.761 1.127 6.63 6.894 3.444 10.6-6.991 8.13-6.991 19.933 0 28.063 3.19 3.711 1.313 9.474-3.444 10.6-10.549 2.496-17.359 12.158-16.495 22.704.401 4.876-4.507 8.436-9.016 6.551-9.893-4.136-21.118-.489-26.69 8.672-2.539 4.174-8.606 4.175-11.145 0-5.574-9.163-16.801-12.809-26.69-8.672-4.522 1.89-9.415-1.689-9.017-6.551.857-10.454-5.858-20.187-16.495-22.704-4.761-1.127-6.63-6.894-3.444-10.6 6.991-8.131 6.991-19.933 0-28.063zm11.67 77.558c6.11 5.731 14.987 7.578 23.072 4.198 2.998-1.253 6.4-.148 8.088 2.628 1.224 2.012 2.732 3.771 4.456 5.241l-14.765 28.845-5.655-13.528c-2.167-5.182-7.708-8.021-13.182-6.747l-14.28 3.324zm49.548 17.771 14.328 27.993h-28.656zm34.351 9.614-5.655 13.528-14.765-28.845c1.724-1.47 3.233-3.229 4.456-5.241 1.688-2.777 5.088-3.884 8.088-2.628 8.099 3.386 16.972 1.524 23.072-4.198l12.265 23.962-14.281-3.324c-5.472-1.275-11.013 1.563-13.18 6.746zm-371.529-4.596v-16.513h267.567l-9.021 17.624c-2.058 4.021-1.608 8.729 1.172 12.287s7.238 5.129 11.637 4.108l18.785-4.372 4.113 9.84h-271.279c-12.668.001-22.974-10.305-22.974-22.974zm305.899 106.833c0 3.614-2.94 6.554-6.554 6.554h-155.524c-3.614 0-6.554-2.94-6.554-6.554 0-13.748 11.185-24.933 24.933-24.933h118.766c13.748 0 24.933 11.185 24.933 24.933zm-50.908-39.933h-66.817l3.767-28.925h59.283zm173.934-43.925h-48.821l4.113-9.84 18.784 4.372c4.398 1.022 8.857-.551 11.638-4.108 2.78-3.559 3.229-8.267 1.172-12.287l-9.021-17.625h45.111v16.513c-.001 12.669-10.307 22.975-22.976 22.975z"/><path d="m367.228 335.857c21.262 0 38.561-17.298 38.561-38.561s-17.298-38.56-38.561-38.56-38.56 17.298-38.56 38.56 17.298 38.561 38.56 38.561zm0-62.12c12.991 0 23.561 10.569 23.561 23.56s-10.569 23.561-23.561 23.561-23.56-10.569-23.56-23.561 10.569-23.56 23.56-23.56z"/></g></g></svg>