<svg id="Capa_1" enable-background="new 0 0 512 512" height="512" viewBox="0 0 512 512" width="512" xmlns="http://www.w3.org/2000/svg"><g><g><g><g><g><path d="m446.113 487.366h-416.683c-12.111 0-21.93-9.818-21.93-21.93v-352.816c0-12.111 9.818-21.93 21.93-21.93h416.683c12.111 0 21.93 9.818 21.93 21.93v352.817c0 12.111-9.818 21.929-21.93 21.929z" fill="#bed8fb"/><path d="m446.113 90.69h-65.478c12.111 0 21.93 9.818 21.93 21.93v352.817c0 12.111-9.818 21.93-21.93 21.93h65.478c12.111 0 21.93-9.818 21.93-21.93v-352.817c0-12.111-9.818-21.93-21.93-21.93z" fill="#9dc6fb"/><path d="m468.043 165.977v-53.357c0-12.111-9.818-21.93-21.93-21.93h-416.683c-12.111 0-21.93 9.818-21.93 21.93v53.357z" fill="#f7f4f7"/></g><circle cx="58.319" cy="128.334" r="7.496"/><circle cx="91.679" cy="128.334" r="7.496"/><circle cx="125.038" cy="128.334" r="7.496"/></g><circle cx="403.537" cy="125.596" fill="#f4e066" r="100.963"/><path d="m403.538 24.634c-11.334 0-22.231 1.868-32.402 5.312 39.866 13.5 68.561 51.224 68.561 95.651 0 44.426-28.694 82.151-68.561 95.651 10.171 3.444 21.068 5.312 32.402 5.312 55.76 0 100.962-45.202 100.962-100.963s-45.202-100.963-100.962-100.963z" fill="#efd133"/><g><g><g><path d="m438.477 163.682h-69.879c-6.3 0-11.408-5.107-11.408-11.408v-40.866h92.695v40.866c0 6.301-5.108 11.408-11.408 11.408z" fill="#b2aab5"/><path d="m396.854 89.818-61.516 21.084c-.722.248-.722 1.269 0 1.517l61.516 21.084c4.332 1.485 9.035 1.485 13.367 0l61.516-21.084c.722-.248.722-1.269 0-1.517l-61.516-21.084c-4.332-1.485-9.035-1.485-13.367 0z" fill="#89808c"/></g><g><path d="m439.697 125.596c0 13.478-2.655 26.331-7.448 38.086h6.228c6.3 0 11.408-5.107 11.408-11.408v-40.866h-11.198c.653 4.638 1.01 9.37 1.01 14.188z" fill="#89808c"/><path d="m471.738 110.902-35.688-12.232c2.182 7.902 3.421 16.192 3.603 24.745l32.085-10.997c.722-.247.722-1.269 0-1.516z" fill="#665e66"/></g></g></g></g><g><g><path d="m218.931 422.857h37.681c4.63 0 8.587-3.279 9.512-7.815 8.75-42.921 26.043-62.087 36.704-70.131 4.495-3.392 5.226-9.851 1.561-14.127l-59.228-69.099c-3.884-4.532-10.895-4.532-14.78 0l-59.228 69.099c-3.665 4.276-2.934 10.735 1.561 14.127 10.661 8.044 27.954 27.21 36.704 70.131.926 4.537 4.883 7.815 9.513 7.815z" fill="#f7f4f7"/><circle cx="237.771" cy="350.033" fill="#bed8fb" r="16.432"/><path d="m266.378 444.495h-57.213c-3.283 0-5.945-2.661-5.945-5.945v-24.753c0-3.283 2.661-5.945 5.945-5.945h57.213c3.283 0 5.945 2.661 5.945 5.945v24.753c-.001 3.283-2.662 5.945-5.945 5.945z" fill="#b2aab5"/></g><g fill="#f7f4f7"><path d="m134.6 276.051c-9.811 0-17.764-7.953-17.764-17.764 0-9.811 7.953-17.764 17.764-17.764 9.811 0 17.764 7.953 17.764 17.764 0 9.81-7.953 17.764-17.764 17.764z"/><path d="m340.942 276.051c-9.811 0-17.764-7.953-17.764-17.764 0-9.811 7.953-17.764 17.764-17.764 9.811 0 17.764 7.953 17.764 17.764 0 9.81-7.953 17.764-17.764 17.764z"/></g></g></g><g><path d="m512 125.596c0-59.806-48.656-108.462-108.462-108.462s-108.463 48.656-108.463 108.462c0 11.459 1.792 22.505 5.1 32.882h-285.175v-45.858c0-7.957 6.473-14.43 14.43-14.43h248.711c4.142 0 7.5-3.357 7.5-7.5s-3.358-7.5-7.5-7.5h-248.711c-16.228 0-29.43 13.203-29.43 29.43v352.816c0 16.228 13.202 29.43 29.43 29.43h416.684c16.228 0 29.43-13.202 29.43-29.43v-227.018c0-4.143-3.358-7.5-7.5-7.5s-7.5 3.357-7.5 7.5v227.019c0 7.957-6.473 14.43-14.43 14.43h-416.684c-7.957 0-14.43-6.473-14.43-14.43v-291.959h291.235c17.717 35.857 54.674 60.581 97.302 60.581 59.807 0 108.463-48.657 108.463-108.463zm-201.925 0c0-51.535 41.927-93.462 93.462-93.462s93.463 41.927 93.463 93.462-41.927 93.463-93.462 93.463-93.463-41.928-93.463-93.463z"/><path d="m457.385 152.274v-27.009l7.395-2.534v9.645c0 4.143 3.358 7.5 7.5 7.5s7.5-3.357 7.5-7.5c-.035-21.752.077-20.648-.083-21.776-.399-3.1-2.509-5.758-5.526-6.794l-61.517-21.084c-5.878-2.014-12.352-2.014-18.229 0l-61.521 21.086c-3.354 1.151-5.607 4.31-5.605 7.856.002 3.547 2.258 6.701 5.61 7.848l16.784 5.753v27.009c0 10.426 8.482 18.907 18.908 18.907h69.879c10.423.001 18.905-8.481 18.905-18.907zm-58.1-55.362c2.742-.939 5.763-.939 8.504 0l43.028 14.748-43.028 14.747c-2.742.939-5.762.939-8.504 0l-43.028-14.748zm-34.595 55.362v-21.868l29.731 10.19c5.87 2.013 12.351 2.016 18.231 0l29.732-10.19v21.868c0 2.154-1.753 3.907-3.908 3.907h-69.879c-2.154.001-3.907-1.752-3.907-3.907z"/><path d="m340.942 283.551c13.931 0 25.264-11.333 25.264-25.264s-11.333-25.265-25.264-25.265c-11.32 0-20.925 7.484-24.127 17.765-6.48 0-151.296 0-158.087 0-3.202-10.28-12.807-17.765-24.127-17.765-13.931 0-25.264 11.334-25.264 25.265s11.333 25.264 25.264 25.264c11.32 0 20.925-7.484 24.127-17.764h58.26l-51.529 60.117c-6.467 7.546-5.206 18.999 2.738 24.994 7.925 5.979 22.152 20.794 31.074 53.827-2.197 2.394-3.55 5.573-3.55 9.071v24.753c0 7.414 6.031 13.445 13.444 13.445h57.213c7.413 0 13.444-6.031 13.444-13.445v-24.753c0-3.498-1.354-6.677-3.55-9.071 8.922-33.034 23.149-47.849 31.073-53.828 7.936-5.988 9.213-17.438 2.738-24.995l-51.528-60.116h58.26c3.202 10.281 12.807 17.765 24.127 17.765zm0-35.529c5.659 0 10.264 4.604 10.264 10.265 0 5.659-4.604 10.264-10.264 10.264s-10.264-4.604-10.264-10.264c.001-5.66 4.605-10.265 10.264-10.265zm-206.341 20.529c-5.66 0-10.264-4.604-10.264-10.264s4.604-10.265 10.264-10.265c5.659 0 10.264 4.604 10.264 10.265-.001 5.659-4.605 10.264-10.264 10.264zm103.17 72.551c4.925 0 8.932 4.007 8.932 8.932s-4.007 8.932-8.932 8.932-8.932-4.007-8.932-8.932 4.008-8.932 8.932-8.932zm27.051 95.893h-54.102v-21.643h54.102zm33.872-101.331c.87 1.016.635 2.492-.383 3.26-11.491 8.671-26.841 26.308-36.397 61.429h-48.285c-9.557-35.12-24.906-52.758-36.397-61.429-1.027-.774-1.247-2.251-.384-3.259l53.423-62.327v53.974c-9.532 3.155-16.432 12.145-16.432 22.721 0 13.196 10.736 23.932 23.932 23.932s23.932-10.735 23.932-23.932c0-10.577-6.899-19.567-16.432-22.721v-53.974z"/></g></g></svg>