<svg id="Capa_1" enable-background="new 0 0 512 512" height="512" viewBox="0 0 512 512" width="512" xmlns="http://www.w3.org/2000/svg"><g><g><g><g><path d="m256 393.064c-8.122 0-16.249-.958-24.155-2.846-17.664-4.218-55.67-11.295-111.734-11.295-19.638 0-40.123.871-60.887 2.59-1.313.108-2.646.163-3.961.163-26.337 0-47.764-12.44-47.764-38.794v-260.333c0-25.008 18.779-35.886 43.681-38.027 23.472-2.018 46.663-3.041 68.93-3.041 70.161 0 116.197 10.024 135.889 15.422 19.692-5.398 65.728-15.422 135.889-15.422 22.267 0 45.458 1.023 68.931 3.041 24.901 2.14 43.68 13.019 43.68 38.027v260.333c0 26.499-21.473 38.794-47.762 38.794-.002 0-.002 0-.004 0-1.315 0-2.646-.055-3.959-.163-20.764-1.718-41.248-2.59-60.887-2.59-56.064 0-94.07 7.077-111.736 11.295-7.902 1.889-16.029 2.846-24.151 2.846z" fill="#e2969b"/><path d="m452.776 381.513c1.312.108 2.644.163 3.959.163h.003c12.705 0 24.67-4.945 33.689-13.925 9.075-9.035 14.073-12.063 14.073-24.87v-260.332c0-25.008-18.779-35.886-43.68-38.027-23.472-2.018-46.664-3.041-68.931-3.041-70.161 0-116.197 10.024-135.889 15.421v336.162c8.122 0 16.249-.958 24.153-2.846 17.666-4.219 55.672-11.295 111.736-11.295 19.638 0 40.123.872 60.887 2.59z" fill="#e07f84"/><g><path d="m460.82 44.522c-7.221-.621-14.41-1.136-21.559-1.567v327.627c0 3.667-1.223 7.026-3.258 9.729 5.564.34 11.156.738 16.772 1.202 1.312.108 2.644.163 3.959.163h.003c26.292 0 47.762-12.298 47.762-38.794v-260.333c.001-25.008-18.778-35.887-43.679-38.027z" fill="#db636e"/></g><path d="m458.08 16.063c-111.297-9.568-178.746 6.956-197.02 12.323-3.302.97-6.817.97-10.119 0-18.275-5.367-85.724-21.891-197.021-12.323-8.169.702-14.439 7.559-14.439 15.758v299.305c0 9.241 7.897 16.521 17.106 15.759 92.961-7.693 154.911 2.838 182.687 9.472 11.003 2.628 22.448 2.628 33.451 0 27.776-6.633 89.726-17.165 182.687-9.472 9.209.762 17.106-6.518 17.106-15.759v-299.306c.001-8.199-6.269-15.055-14.438-15.757z" fill="#f7f4f7"/><path d="m272.726 356.356c27.776-6.633 89.727-17.165 182.687-9.472 9.209.762 17.106-6.518 17.106-15.759v-299.305c0-8.199-6.27-15.055-14.439-15.758-111.297-9.567-178.746 6.957-197.02 12.324-1.651.485-3.355.727-5.06.727v329.214c5.612-.001 11.224-.658 16.726-1.971z" fill="#edeaed"/><g><path d="m458.08 16.063c-9.227-.793-18.146-1.404-26.767-1.859 4.779 2.84 7.948 8.049 7.948 13.945v306.433c0 4.208-1.602 8.014-4.205 10.882 6.618.381 13.389.844 20.356 1.42 9.209.762 17.106-6.518 17.106-15.759v-299.305c.001-8.199-6.269-15.055-14.438-15.757z" fill="#e0dde0"/></g></g></g><g><g><g><path d="m404.869 200.471c-9.496 0-17.194 7.698-17.194 17.194v99.577c0-9.704-8.039-17.531-17.821-17.183-9.317.331-16.567 8.272-16.567 17.595v16.569c0-9.539 0-25.06-17.062-25.406-9.527-.193-17.326 7.719-17.326 17.249v9.87c0-9.704-8.039-17.53-17.821-17.183-9.317.331-16.567 8.272-16.567 17.595v56.761c0 9.34 1.898 18.582 5.579 27.166l14.637 34.598c2.88 6.807 4.363 14.123 4.363 21.514v7.115h106.099c.895-13.254 5.594-26.005 13.6-36.688 13.908-18.559 21.426-41.126 21.426-64.318v-30.196c0-9.354-7.643-17.511-16.997-17.615-4.244-.047-8.132 1.451-11.155 3.957v-120.977c0-9.496-7.698-17.194-17.194-17.194z" fill="#ffece4"/></g><g><path d="m433.218 334.685c-4.244-.047-8.132 1.451-11.155 3.957v-120.977c0-9.496-7.698-17.194-17.194-17.194-9.496 0-17.194 7.698-17.194 17.194v99.577c0-9.704-8.039-17.531-17.821-17.183-3.654.13-6.981 1.442-9.687 3.538v8.813c0 8.873 5.418 17.111 13.846 19.885 5.65 1.86 10.869 7.866 10.869 20.005v30.195c0 23.192-7.518 45.759-21.426 64.318-8.006 10.683-12.704 23.434-13.6 36.688h65.333c.896-13.254 5.594-26.005 13.6-36.688 13.908-18.559 21.426-41.126 21.426-64.318v-30.195c0-9.354-7.643-17.511-16.997-17.615z" fill="#ffddce"/></g><path d="m306.805 498.849h112.263c5.939 0 10.754-4.815 10.754-10.754v-11.272c0-5.939-4.815-10.754-10.754-10.754h-112.263c-5.939 0-10.754 4.815-10.754 10.754v11.272c0 5.939 4.815 10.754 10.754 10.754z" fill="#88a8d8"/><path d="m419.068 466.069h-65.333c5.939 0 10.754 4.815 10.754 10.754v11.272c0 5.939-4.815 10.754-10.754 10.754h65.333c5.939 0 10.754-4.815 10.754-10.754v-11.272c.001-5.939-4.814-10.754-10.754-10.754z" fill="#7296d1"/></g></g></g><g><path d="m438.606 94.381c-69.495-4.324-120.322 1.522-150.729 7.187-4.071.758-6.758 4.674-5.999 8.747.672 3.608 3.822 6.128 7.364 6.128 3.289 0 56.801-12.79 148.433-7.09 4.163.265 7.694-2.887 7.951-7.02.258-4.135-2.886-7.695-7.02-7.952z"/><path d="m438.606 149.705c-69.494-4.323-120.324 1.521-150.729 7.187-4.071.759-6.758 4.675-5.999 8.747.672 3.608 3.822 6.128 7.364 6.128 3.295 0 56.799-12.791 148.433-7.091 4.163.267 7.694-2.886 7.951-7.02.258-4.134-2.886-7.694-7.02-7.951z"/><path d="m281.878 276.287c.672 3.608 3.822 6.128 7.364 6.128 2.853 0 18.366-4.036 52.663-6.704 4.13-.321 7.217-3.93 6.896-8.06-.321-4.129-3.926-7.213-8.06-6.896-18.738 1.458-36.524 3.741-52.864 6.785-4.071.759-6.758 4.675-5.999 8.747z"/><path d="m108.332 107.986c.044 0 .088 0 .132-.001 51.628-.885 89.893 4.04 112.911 8.328.465.086.927.128 1.383.128 3.541 0 6.692-2.52 7.364-6.128.759-4.072-1.928-7.988-5.999-8.747-23.7-4.416-63.057-9.485-115.917-8.58-4.142.071-7.441 3.486-7.37 7.628.07 4.099 3.414 7.372 7.496 7.372z"/><path d="m74.325 164.676c67.964-4.226 117.479 1.453 147.05 6.962 4.123.767 7.998-1.976 8.747-6 .759-4.072-1.928-7.988-5.999-8.747-30.405-5.665-81.235-11.509-150.729-7.187-4.134.257-7.277 3.817-7.02 7.951.257 4.135 3.824 7.289 7.951 7.021z"/><path d="m74.325 220c67.954-4.227 117.476 1.452 147.05 6.962 4.123.767 7.998-1.976 8.747-6 .759-4.072-1.928-7.988-5.999-8.747-30.407-5.665-81.237-11.511-150.729-7.187-4.134.257-7.277 3.817-7.02 7.951.257 4.136 3.824 7.291 7.951 7.021z"/><path d="m74.325 275.325c25.333-1.576 50.103-1.886 73.625-.922 26.459 1.084 51.163 3.737 73.425 7.884 4.123.767 7.998-1.976 8.747-6 .759-4.072-1.928-7.988-5.999-8.747-22.965-4.278-48.386-7.012-75.56-8.125-24.031-.985-49.324-.669-75.17.939-4.134.257-7.277 3.817-7.02 7.951.258 4.134 3.825 7.291 7.952 7.02z"/><path d="m480.02 40.592v-8.772c0-12-9.354-22.203-21.297-23.23-112.597-9.678-181.379 7.196-199.776 12.599-1.886.554-3.93.576-5.893 0-18.398-5.402-87.176-22.278-199.777-12.599-11.942 1.027-21.297 11.231-21.297 23.23v8.772c-20.679 6.596-31.98 21.309-31.98 41.957v260.333c0 28.123 21.692 46.294 55.264 46.294 6.024 0 97.977-10.018 174.839 8.336 15.412 3.681 31.37 4.053 47.119.999.596 8.516 2.582 16.806 5.961 24.685 15.366 36.415 14.705 34.557 15.649 37.232-6.075 2.967-10.28 9.191-10.28 16.395v11.271c0 10.065 8.188 18.254 18.254 18.254h112.263c10.065 0 18.254-8.188 18.254-18.254v-11.271c0-6.531-3.459-12.256-8.63-15.482 1.708-3.529 3.743-6.886 6.099-10.03 13.447-17.945 21.376-39.792 22.703-62.148 33.135-.272 54.505-18.371 54.505-46.281v-260.333c0-20.648-11.301-35.362-31.98-41.957zm-203.01 342.645c-14.253 3.178-29.217 3.08-43.423-.313-78.881-18.837-173.204-8.747-178.323-8.747-9.445 0-40.264-2.257-40.264-31.294v-260.334c0-12.466 5.58-21.029 16.98-25.984v51.292c0 4.142 3.357 7.5 7.5 7.5s7.5-3.358 7.5-7.5v-76.037c0-4.28 3.33-7.919 7.582-8.285 109.343-9.398 175.708 6.637 193.938 11.952v314.895c-2.518-.293-5.018-.732-7.483-1.321-28.995-6.924-91.596-17.386-185.048-9.651-4.851.403-8.988-3.427-8.988-8.284v-188.207c0-4.142-3.357-7.5-7.5-7.5s-7.5 3.358-7.5 7.5v188.207c0 13.613 11.652 24.353 25.225 23.233 91.384-7.563 152.205 2.576 180.327 9.292 14.768 3.526 26.522 2.378 39.478-.594v20.18zm145.312 104.858c0 1.794-1.46 3.254-3.254 3.254h-112.262c-1.794 0-3.254-1.459-3.254-3.254v-11.271c0-1.794 1.46-3.254 3.254-3.254h111.837c.008 0 .016.002.024.002s.017-.002.025-.002h.376c1.794 0 3.254 1.459 3.254 3.254zm20.393-105.6c0 21.428-7.077 42.673-19.928 59.821-3.761 5.019-6.868 10.47-9.29 16.253h-99.509c-1.773-6.014-2.344-6.263-17.005-41.251-3.3-7.693-4.973-15.838-4.973-24.209 0-7.395 0-50.489 0-56.761 0-5.386 4.188-9.917 9.334-10.1 5.561-.179 10.055 4.227 10.055 9.688 0 4.142 3.357 7.5 7.5 7.5s7.5-3.358 7.5-7.5v-9.87c0-5.446 4.471-9.877 9.674-9.75 7.717.156 9.714 3.838 9.714 17.907 0 4.142 3.357 7.5 7.5 7.5s7.5-3.358 7.5-7.5c0-.026 0-.052 0-.078v-16.491c0-5.386 4.188-9.917 9.334-10.1 5.6-.178 10.054 4.262 10.054 9.688 0 4.142 3.357 7.5 7.5 7.5s7.5-3.358 7.5-7.5v-99.577c0-5.345 4.35-9.694 9.695-9.694s9.693 4.349 9.693 9.694v120.978c0 2.906 1.68 5.551 4.31 6.788 2.629 1.237 5.739.842 7.977-1.013 6.645-5.508 15.866-.071 15.866 7.883v30.194zm54.285-39.613c0 28.102-28.86 31.121-39.285 31.286v-19.778c12.654-.556 22.305-10.936 22.305-23.264v-67.597c0-4.142-3.357-7.5-7.5-7.5s-7.5 3.358-7.5 7.5v67.597c0 4.89-4.176 8.686-8.986 8.285-.653-.054-1.292-.1-1.939-.151-5.055-8.397-14.535-13.254-24.532-11.829v-107.889c2.674.137 5.375.288 8.112.459 4.163.269 7.694-2.886 7.951-7.02.258-4.134-2.886-7.694-7.02-7.951-4.402-.274-8.719-.502-12.968-.695-4.397-6.828-12.062-11.364-20.77-11.364-8.379 0-15.792 4.198-20.259 10.598-42.379.406-74.852 4.571-96.733 8.648-4.071.758-6.758 4.675-5.999 8.747.672 3.608 3.822 6.128 7.364 6.128 3.11 0 33.867-7.535 90.932-8.465v75.886c-3.292-1.406-6.884-2.075-10.587-1.948-8.689.309-16.152 5.088-20.304 12.138-3.237-1.949-7.444-3.272-12.906-3.383-9.672-.185-18.021 5.299-22.171 13.308-4.005-2.363-8.604-3.531-13.396-3.369-13.346.474-23.801 11.495-23.801 25.09v11.337c-2.061.451-4.076.91-6.026 1.376-2.465.589-4.966 1.028-7.483 1.321v-314.896c18.229-5.314 84.595-21.353 193.938-11.951 4.252.365 7.582 4.004 7.582 8.285v196.646c0 4.142 3.357 7.5 7.5 7.5s7.5-3.358 7.5-7.5v-171.902c11.401 4.955 16.981 13.518 16.981 25.984z"/></g></g></svg>