<svg id="Capa_1" enable-background="new 0 0 512 512" height="512" viewBox="0 0 512 512" width="512" xmlns="http://www.w3.org/2000/svg"><g><path d="m442.078 93.53v335.28c0 2.494.182 5.064.486 7.528l9.795 4.989h41.859l9.795-4.988c.302-2.456.486-5.041.486-7.528v-335.281z" fill="#e07f84"/><g><path d="m346.869 8.154h-295.469c-24.245 0-43.9 19.655-43.9 43.9v407.891c0 24.245 19.655 43.9 43.9 43.9h295.469c24.245 0 43.9-19.655 43.9-43.9v-407.89c0-24.246-19.655-43.901-43.9-43.901z" fill="#7296d1"/><path d="m346.869 8.154h-65.183c24.246 0 43.9 19.655 43.9 43.9v407.891c0 24.246-19.655 43.9-43.9 43.9h65.183c24.246 0 43.9-19.655 43.9-43.9v-407.89c0-24.246-19.655-43.901-43.9-43.901z" fill="#5884c9"/><g><path d="m504.014 436.338h-61.45c.737 5.917 2.321 11.711 4.751 17.186l20.85 46.989c1.972 4.443 8.277 4.443 10.249 0l20.85-46.989c2.429-5.475 4.013-11.269 4.75-17.186z" fill="#b58c8c"/><path d="m452.199 464.533 15.965 35.98c1.972 4.443 8.277 4.443 10.249 0l15.965-35.98z" fill="#756e78"/><path d="m442.078 72.296h62.422v28.551h-62.422z" fill="#f4f4f4"/><g><path d="m504.5 72.296v-32.931c0-17.237-13.974-31.211-31.211-31.211-17.237 0-31.211 13.974-31.211 31.211v32.931z" fill="#ead633"/></g></g><g><path d="m48.406 164.227v-92.007c0-6.42 5.204-11.624 11.624-11.624h278.209c6.42 0 11.624 5.204 11.624 11.624v92.007c0 6.42-5.204 11.624-11.624 11.624h-278.209c-6.42 0-11.624-5.204-11.624-11.624z" fill="#fff"/><g><g fill="#756e78"><path d="m87.676 272.628h-29.068c-5.635 0-10.202-4.568-10.202-10.202v-29.068c0-5.635 4.568-10.202 10.202-10.202h29.068c5.635 0 10.202 4.568 10.202 10.202v29.068c.001 5.634-4.567 10.202-10.202 10.202z"/><path d="m171.671 272.628h-29.068c-5.635 0-10.202-4.568-10.202-10.202v-29.068c0-5.635 4.568-10.202 10.202-10.202h29.068c5.635 0 10.202 4.568 10.202 10.202v29.068c.001 5.634-4.567 10.202-10.202 10.202z"/><path d="m255.666 272.628h-29.068c-5.635 0-10.202-4.568-10.202-10.202v-29.068c0-5.635 4.568-10.202 10.202-10.202h29.068c5.635 0 10.202 4.568 10.202 10.202v29.068c0 5.634-4.567 10.202-10.202 10.202z"/><path d="m339.661 272.628h-29.068c-5.635 0-10.202-4.568-10.202-10.202v-29.068c0-5.635 4.568-10.202 10.202-10.202h29.068c5.635 0 10.202 4.568 10.202 10.202v29.068c0 5.634-4.568 10.202-10.202 10.202z"/></g><g><g fill="#756e78"><path d="m87.676 362.016h-29.068c-5.635 0-10.202-4.568-10.202-10.202v-29.068c0-5.635 4.568-10.202 10.202-10.202h29.068c5.635 0 10.202 4.568 10.202 10.202v29.068c.001 5.634-4.567 10.202-10.202 10.202z"/><path d="m171.671 362.016h-29.068c-5.635 0-10.202-4.568-10.202-10.202v-29.068c0-5.635 4.568-10.202 10.202-10.202h29.068c5.635 0 10.202 4.568 10.202 10.202v29.068c.001 5.634-4.567 10.202-10.202 10.202z"/><path d="m255.666 362.016h-29.068c-5.635 0-10.202-4.568-10.202-10.202v-29.068c0-5.635 4.568-10.202 10.202-10.202h29.068c5.635 0 10.202 4.568 10.202 10.202v29.068c0 5.634-4.567 10.202-10.202 10.202z"/><path d="m339.661 362.016h-29.068c-5.635 0-10.202-4.568-10.202-10.202v-29.068c0-5.635 4.568-10.202 10.202-10.202h29.068c5.635 0 10.202 4.568 10.202 10.202v29.068c0 5.634-4.568 10.202-10.202 10.202z"/></g><path d="m349.863 262.426v-29.068c0-5.635-4.568-10.202-10.202-10.202h-14.075v49.473h14.075c5.634-.001 10.202-4.569 10.202-10.203z" fill="#665e66"/><path d="m349.863 351.814v-29.068c0-5.634-4.568-10.202-10.202-10.202h-14.075v49.473h14.075c5.634-.001 10.202-4.569 10.202-10.203z" fill="#665e66"/></g><g><path d="m87.676 451.404h-29.068c-5.635 0-10.202-4.568-10.202-10.202v-29.068c0-5.635 4.568-10.202 10.202-10.202h29.068c5.635 0 10.202 4.568 10.202 10.202v29.068c.001 5.634-4.567 10.202-10.202 10.202z" fill="#756e78"/><path d="m171.671 451.404h-29.068c-5.635 0-10.202-4.568-10.202-10.202v-29.068c0-5.635 4.568-10.202 10.202-10.202h29.068c5.635 0 10.202 4.568 10.202 10.202v29.068c.001 5.634-4.567 10.202-10.202 10.202z" fill="#756e78"/><path d="m339.661 401.931h-113.063c-5.635 0-10.202 4.568-10.202 10.202v29.068c0 5.635 4.568 10.202 10.202 10.202h113.063c5.635 0 10.202-4.568 10.202-10.202v-29.068c0-5.634-4.568-10.202-10.202-10.202z" fill="#e8ae4d"/><path d="m349.863 441.201v-29.068c0-5.635-4.568-10.202-10.202-10.202h-14.075v49.473h14.075c5.634 0 10.202-4.568 10.202-10.203z" fill="#e49542"/></g></g></g></g><path d="m349.863 72.22c0-6.42-5.204-11.624-11.624-11.624h-12.653v115.255h12.653c6.42 0 11.624-5.204 11.624-11.624z" fill="#f7f4f7"/><g><path d="m346.868.654h-295.468c-28.342 0-51.4 23.059-51.4 51.401v407.891c0 28.342 23.058 51.4 51.4 51.4h295.469c28.342 0 51.399-23.059 51.399-51.4v-407.891c.001-28.342-23.058-51.401-51.4-51.401zm36.401 459.291c0 20.071-16.329 36.4-36.399 36.4h-295.47c-20.071 0-36.4-16.329-36.4-36.4v-407.89c0-20.071 16.329-36.4 36.4-36.4h295.468c20.071 0 36.4 16.329 36.4 36.4v407.89z"/><path d="m338.239 53.096h-278.209c-10.545 0-19.124 8.579-19.124 19.125v92.006c0 10.545 8.579 19.124 19.124 19.124h278.209c10.545 0 19.124-8.579 19.124-19.124v-92.006c0-10.546-8.579-19.125-19.124-19.125zm4.124 111.131c0 2.274-1.85 4.124-4.124 4.124h-278.209c-2.274 0-4.124-1.85-4.124-4.124v-92.006c0-2.274 1.85-4.125 4.124-4.125h278.209c2.274 0 4.124 1.851 4.124 4.125z"/><path d="m87.676 215.655h-29.068c-9.761 0-17.702 7.941-17.702 17.702v29.068c0 9.761 7.941 17.702 17.702 17.702h29.068c9.761 0 17.703-7.941 17.703-17.702v-29.068c0-9.76-7.942-17.702-17.703-17.702zm2.703 46.771c0 1.49-1.212 2.702-2.703 2.702h-29.068c-1.49 0-2.702-1.212-2.702-2.702v-29.068c0-1.49 1.212-2.702 2.702-2.702h29.068c1.49 0 2.703 1.212 2.703 2.702z"/><path d="m171.671 215.655h-29.069c-9.761 0-17.702 7.941-17.702 17.702v29.068c0 9.761 7.941 17.702 17.702 17.702h29.069c9.761 0 17.702-7.941 17.702-17.702v-29.068c.001-9.76-7.94-17.702-17.702-17.702zm2.703 46.771c0 1.49-1.212 2.702-2.702 2.702h-29.069c-1.49 0-2.702-1.212-2.702-2.702v-29.068c0-1.49 1.212-2.702 2.702-2.702h29.069c1.49 0 2.702 1.212 2.702 2.702z"/><path d="m226.598 280.128h29.068c9.761 0 17.702-7.941 17.702-17.702v-29.068c0-9.761-7.941-17.702-17.702-17.702h-29.068c-9.761 0-17.703 7.941-17.703 17.702v29.068c0 9.761 7.941 17.702 17.703 17.702zm-2.703-46.771c0-1.49 1.212-2.702 2.703-2.702h29.068c1.49 0 2.702 1.212 2.702 2.702v29.068c0 1.49-1.212 2.702-2.702 2.702h-29.068c-1.49 0-2.703-1.212-2.703-2.702z"/><path d="m339.661 215.655h-29.068c-9.762 0-17.703 7.941-17.703 17.702v29.068c0 9.761 7.941 17.702 17.703 17.702h29.068c9.761 0 17.702-7.941 17.702-17.702v-29.068c0-9.76-7.941-17.702-17.702-17.702zm2.702 46.771c0 1.49-1.212 2.702-2.702 2.702h-29.068c-1.49 0-2.703-1.212-2.703-2.702v-29.068c0-1.49 1.213-2.702 2.703-2.702h29.068c1.49 0 2.702 1.212 2.702 2.702z"/><path d="m87.676 305.043h-29.068c-9.761 0-17.702 7.941-17.702 17.702v29.068c0 9.761 7.941 17.702 17.702 17.702h29.068c9.761 0 17.703-7.941 17.703-17.702v-29.068c0-9.761-7.942-17.702-17.703-17.702zm2.703 46.77c0 1.49-1.212 2.702-2.703 2.702h-29.068c-1.49 0-2.702-1.212-2.702-2.702v-29.068c0-1.49 1.212-2.702 2.702-2.702h29.068c1.49 0 2.703 1.212 2.703 2.702z"/><path d="m171.671 305.043h-29.069c-9.761 0-17.702 7.941-17.702 17.702v29.068c0 9.761 7.941 17.702 17.702 17.702h29.069c9.761 0 17.702-7.941 17.702-17.702v-29.068c.001-9.761-7.94-17.702-17.702-17.702zm2.703 46.77c0 1.49-1.212 2.702-2.702 2.702h-29.069c-1.49 0-2.702-1.212-2.702-2.702v-29.068c0-1.49 1.212-2.702 2.702-2.702h29.069c1.49 0 2.702 1.212 2.702 2.702z"/><path d="m208.895 351.813c0 9.761 7.941 17.702 17.703 17.702h29.068c9.761 0 17.702-7.941 17.702-17.702v-29.068c0-9.761-7.941-17.702-17.702-17.702h-29.068c-9.761 0-17.703 7.941-17.703 17.702zm15-29.068c0-1.49 1.212-2.702 2.703-2.702h29.068c1.49 0 2.702 1.212 2.702 2.702v29.068c0 1.49-1.212 2.702-2.702 2.702h-29.068c-1.49 0-2.703-1.212-2.703-2.702z"/><path d="m339.661 305.043h-29.068c-9.762 0-17.703 7.941-17.703 17.702v29.068c0 9.761 7.941 17.702 17.703 17.702h29.068c9.761 0 17.702-7.941 17.702-17.702v-29.068c0-9.761-7.941-17.702-17.702-17.702zm2.702 46.77c0 1.49-1.212 2.702-2.702 2.702h-29.068c-1.49 0-2.703-1.212-2.703-2.702v-29.068c0-1.49 1.213-2.702 2.703-2.702h29.068c1.49 0 2.702 1.212 2.702 2.702z"/><path d="m87.676 394.431h-29.068c-9.761 0-17.702 7.941-17.702 17.702v29.068c0 9.762 7.941 17.703 17.702 17.703h29.068c9.761 0 17.703-7.941 17.703-17.703v-29.068c0-9.761-7.942-17.702-17.703-17.702zm2.703 46.77c0 1.49-1.212 2.703-2.703 2.703h-29.068c-1.49 0-2.702-1.213-2.702-2.703v-29.068c0-1.49 1.212-2.702 2.702-2.702h29.068c1.49 0 2.703 1.212 2.703 2.702z"/><path d="m171.671 394.431h-29.069c-9.761 0-17.702 7.941-17.702 17.702v29.068c0 9.762 7.941 17.703 17.702 17.703h29.069c9.761 0 17.702-7.941 17.702-17.703v-29.068c.001-9.761-7.94-17.702-17.702-17.702zm2.703 46.77c0 1.49-1.212 2.703-2.702 2.703h-29.069c-1.49 0-2.702-1.213-2.702-2.703v-29.068c0-1.49 1.212-2.702 2.702-2.702h29.069c1.49 0 2.702 1.212 2.702 2.702z"/><path d="m339.661 394.431h-113.063c-9.761 0-17.703 7.941-17.703 17.702v29.068c0 9.761 7.941 17.702 17.703 17.702h37.597c4.143 0 7.5-3.357 7.5-7.5s-3.357-7.5-7.5-7.5h-37.597c-1.49 0-2.703-1.212-2.703-2.702v-29.068c0-1.49 1.212-2.702 2.703-2.702h113.063c1.49 0 2.702 1.212 2.702 2.702v29.068c0 1.49-1.212 2.702-2.702 2.702h-40.484c-4.143 0-7.5 3.357-7.5 7.5s3.357 7.5 7.5 7.5h40.484c9.761 0 17.702-7.941 17.702-17.702v-29.068c0-9.761-7.941-17.702-17.702-17.702z"/><path d="m473.289.654c-21.346 0-38.712 17.365-38.712 38.711v389.445c0 2.683.183 5.523.543 8.445v.003.007c2.023 16.232 7.64 22.699 26.188 66.291 2.133 4.804 6.723 7.789 11.979 7.789 5.258 0 9.848-2.985 11.98-7.79 19.086-44.857 24.138-49.841 26.188-66.29 0-.002 0-.005 0-.007 0-.001 0-.002 0-.003.36-2.922.543-5.763.543-8.445 0-20.003 0-372.301 0-389.445.002-21.345-17.363-38.711-38.709-38.711zm0 492.916-9.556-21.537h19.113zm16.212-36.537h-32.424c-2.277-5.321-3.851-8.098-5.335-13.195h43.093c-1.488 5.112-3.072 7.908-5.334 13.195zm7.499-28.222v.027h-16.21v-227.547c0-4.143-3.357-7.5-7.5-7.5s-7.5 3.357-7.5 7.5v227.547h-16.211c0-.009 0-.018 0-.027v-320.464h16.212v57.962c0 4.143 3.357 7.5 7.5 7.5s7.5-3.357 7.5-7.5v-57.962h16.209zm0-335.464h-47.422v-13.551h47.422zm0-28.551h-47.423v-25.431c0-13.074 10.637-23.711 23.712-23.711 13.074 0 23.711 10.637 23.711 23.711z"/></g></g></svg>