<svg id="Capa_1" enable-background="new 0 0 512 512" height="512" viewBox="0 0 512 512" width="512" xmlns="http://www.w3.org/2000/svg"><g><g><g><g><path d="m471.556 308.643h-430.725c-7.709 0-13.958-6.249-13.958-13.958v-261.052c0-7.709 6.249-13.958 13.958-13.958h430.725c7.709 0 13.958 6.249 13.958 13.958v261.052c0 7.709-6.249 13.958-13.958 13.958z" fill="#bed8fb"/><path d="m471.556 19.675h-51.422v275.01c0 7.709-6.249 13.958-13.958 13.958h65.38c7.709 0 13.958-6.249 13.958-13.958v-261.052c0-7.708-6.249-13.958-13.958-13.958z" fill="#9dc6fb"/><path d="m65.901 256.007v-164.348c0-7.516 6.093-13.608 13.608-13.608h188.094c7.516 0 13.608 6.093 13.608 13.608v164.348c0 7.516-6.093 13.608-13.608 13.608h-188.093c-7.516 0-13.609-6.092-13.609-13.608z" fill="#fff"/><path d="m267.603 78.05h-64.921c7.516 0 13.608 6.093 13.608 13.608v164.348c0 7.516-6.093 13.608-13.608 13.608h64.921c7.516 0 13.608-6.093 13.608-13.608v-164.347c0-7.516-6.092-13.609-13.608-13.609z" fill="#f7f4f7"/><g><path d="m208.494 208.69h-69.875c-6.3 0-11.407-5.107-11.407-11.407v-40.864h92.689v40.864c0 6.3-5.107 11.407-11.407 11.407z" fill="#89808c"/><path d="m166.873 134.83-61.513 21.083c-.722.248-.722 1.269 0 1.516l61.513 21.083c4.332 1.485 9.035 1.485 13.367 0l61.513-21.083c.722-.248.722-1.269 0-1.516l-61.513-21.083c-4.332-1.484-9.035-1.484-13.367 0z" fill="#665e66"/></g><path d="m493.391 39.023h-474.782c-6.126 0-11.093-4.966-11.093-11.093v-9.337c0-6.126 4.966-11.093 11.093-11.093h474.783c6.126 0 11.093 4.966 11.093 11.093v9.337c-.001 6.126-4.967 11.093-11.094 11.093z" fill="#f7f4f7"/><path d="m493.391 7.5h-65.38c6.126 0 11.093 4.966 11.093 11.093v9.337c0 6.126-4.966 11.093-11.093 11.093h65.38c6.126 0 11.093-4.966 11.093-11.093v-9.337c0-6.127-4.966-11.093-11.093-11.093z" fill="#e0dde0"/></g></g><g><g><g><g><path d="m404.043 404.098-6.123-39.145h-44.208l-6.123 39.145-20.925 83.091h98.304z" fill="#ffece4"/><path d="m491.713 491.613v-1.019c0-39.291-27.885-73.055-66.468-80.48l-14.71-2.831c-2.489-.479-4.712-1.608-6.514-3.187-12.641 21.537-43.778 21.543-56.428.011l-.005-.008c-1.819 1.589-4.046 2.715-6.492 3.184l-14.71 2.831c-38.583 7.426-66.468 41.189-66.468 80.48v1.019c0 7.118 5.77 12.887 12.887 12.887h206.019c7.119 0 12.889-5.77 12.889-12.887z" fill="#ccf49f"/><g><path d="m425.245 410.113-14.71-2.831c-2.489-.479-4.712-1.608-6.514-3.187-4.643 7.911-11.784 12.905-19.585 15.005 25.296 14.178 41.898 41.184 41.898 71.493v1.019c0 7.118-5.77 12.887-12.888 12.887h65.38c7.117 0 12.887-5.77 12.887-12.887v-1.019c0-39.291-27.885-73.054-66.468-80.48z" fill="#b3e59f"/></g></g><path d="m443.852 335.595c-3.112-10.383-4.695-21.164-4.699-32.004v-.027c-.011-34.972-28.365-63.317-63.337-63.317-34.972 0-63.326 28.345-63.337 63.317v.027c-.003 10.84-1.586 21.621-4.699 32.004-1.893 6.315-2.856 12.873-2.858 19.466-.004 11.923 7.546 22.54 18.809 26.45 33.735 11.712 70.434 11.712 104.169 0 11.263-3.911 18.813-14.527 18.809-26.45-.001-6.594-.964-13.151-2.857-19.466z" fill="#ecbe6b"/><path d="m443.852 335.595c-3.112-10.383-4.695-21.165-4.699-32.004v-.027c-.011-34.973-28.365-63.318-63.337-63.318-11.961 0-23.146 3.319-32.69 9.082 18.36 11.086 30.64 31.225 30.647 54.236v.027c.003 10.84 1.586 21.621 4.699 32.004 1.893 6.315 2.856 12.872 2.858 19.465.004 11.923-7.546 22.54-18.809 26.45-6.372 2.212-12.851 4.005-19.394 5.382 28.099 5.911 57.412 4.118 84.775-5.382 11.264-3.911 18.813-14.527 18.809-26.45-.003-6.593-.966-13.15-2.859-19.465z" fill="#e8ae4d"/></g><g><g><path d="m172.249 405.117-6.123-39.145h-52.046l-6.123 39.145-20.925 83.091h106.142z" fill="#ffece4"/><path d="m259.919 491.613c0-39.291-27.885-73.055-66.468-80.48l-14.71-2.831c-2.489-.479-4.712-1.608-6.514-3.187-15.5 22.52-48.756 22.526-64.264.012l-.006-.009c-1.819 1.589-4.046 2.715-6.492 3.184l-14.71 2.831c-38.583 7.426-66.468 41.189-66.468 80.48v.001c0 7.118 5.77 12.887 12.887 12.887h213.857c7.118-.001 12.888-5.771 12.888-12.888z" fill="#5884c9"/><g><path d="m193.451 411.132-14.71-2.831c-2.489-.479-4.712-1.608-6.514-3.187-5.095 7.402-12.113 12.356-19.784 14.893 25.408 14.148 42.096 41.217 42.096 71.606 0 7.118-5.77 12.887-12.887 12.887h65.38c7.118 0 12.887-5.77 12.887-12.887 0-39.292-27.885-73.055-66.468-80.481z" fill="#60a0f7"/></g></g><g><g><path d="m93.626 312.018h-18.342c-6.635 0-12.014 5.379-12.014 12.014v13.313c0 6.635 5.379 12.014 12.014 12.014h18.366z" fill="#ffece4"/><path d="m204.922 312.018h-18.34l-.005 37.341h18.345c6.635 0 12.014-5.379 12.014-12.014v-13.313c-.001-6.636-5.379-12.014-12.014-12.014z" fill="#ffddce"/></g><path d="m162.241 239.227h-44.276c-21.984 0-39.805 17.955-39.805 40.103v32.688c5.217 0 9.446 4.261 9.446 9.517l.041 20.57c.303 14.233 4.923 27.932 15.647 37.236 8.634 7.49 20.771 14.028 36.804 14.208 16.033-.18 28.17-6.718 36.804-14.208 10.725-9.304 15.394-23.003 15.697-37.236h-.008l.008-20.57c0-5.256 4.229-9.517 9.446-9.517v-32.688c.001-22.148-17.82-40.103-39.804-40.103z" fill="#ecbe6b"/><path d="m162.241 239.227h-44.276c-1.504 0-2.987.092-4.448.256 2.682 1.705 5.132 3.561 7.346 5.482 10.725 9.304 15.394 23.003 15.697 37.236h-.008v59.904h.008c-.303 14.233-4.972 27.932-15.697 37.236-2.604 2.259-5.532 4.427-8.784 6.364 7.531 4.487 16.822 7.718 28.02 7.844 16.033-.18 28.17-6.718 36.804-14.208 10.725-9.304 15.394-23.003 15.697-37.236h-.008l.008-20.57c0-5.256 4.229-9.517 9.446-9.517v-32.688c0-22.148-17.821-40.103-39.805-40.103z" fill="#e8ae4d"/></g></g></g><g><path d="m222.271 504.5h-164.336c0-32.161 26.072-58.232 58.232-58.232h47.87c32.162 0 58.234 26.071 58.234 58.232z" fill="#756e78"/><g><path d="m193.451 411.132-14.71-2.831c-2.489-.479-4.712-1.608-6.514-3.187-5.095 7.402-12.113 12.356-19.784 14.893 25.408 14.148 42.096 41.217 42.096 71.606 0 7.118-5.77 12.887-12.887 12.887h65.38c7.118 0 12.887-5.77 12.887-12.887 0-39.292-27.885-73.055-66.468-80.481z" fill="#4478c1"/></g><path d="m182.807 449.377c7.477 12.411 11.732 26.899 11.732 42.235 0 7.118-5.77 12.887-12.887 12.887h40.619c0-25.59-16.516-47.31-39.464-55.122z" fill="#665e66"/><path d="m457.984 504.5h-164.336c0-32.161 26.072-58.232 58.232-58.232h47.87c32.162 0 58.234 26.071 58.234 58.232z" fill="#756e78"/><path d="m414.47 448.148c7.557 12.458 11.863 27.022 11.863 42.446v1.019c0 7.118-5.77 12.887-12.888 12.887h44.538c.001-27.076-18.48-49.832-43.513-56.352z" fill="#665e66"/></g></g></g><g><path d="m320.99 104.564h127.091c4.143 0 7.5-3.357 7.5-7.5s-3.357-7.5-7.5-7.5h-127.091c-4.143 0-7.5 3.357-7.5 7.5s3.358 7.5 7.5 7.5z"/><path d="m320.99 136.952h127.091c4.143 0 7.5-3.357 7.5-7.5s-3.357-7.5-7.5-7.5h-127.091c-4.143 0-7.5 3.357-7.5 7.5s3.358 7.5 7.5 7.5z"/><path d="m320.99 169.34h127.091c4.143 0 7.5-3.357 7.5-7.5s-3.357-7.5-7.5-7.5h-127.091c-4.143 0-7.5 3.357-7.5 7.5s3.358 7.5 7.5 7.5z"/><path d="m320.99 201.728h61.294c4.143 0 7.5-3.357 7.5-7.5s-3.357-7.5-7.5-7.5h-61.294c-4.143 0-7.5 3.357-7.5 7.5s3.358 7.5 7.5 7.5z"/><path d="m493.392 0h-474.784c-10.252 0-18.592 8.341-18.592 18.593v9.337c0 10.252 8.341 18.593 18.593 18.593h.765v248.163c0 11.832 9.626 21.458 21.458 21.458h16.62c-1.073 2.415-1.68 5.08-1.68 7.888v13.313c0 10.76 8.754 19.514 19.514 19.514h6.651c2.653 11.418 8.206 21.001 16.444 28.147 1.491 1.293 3.012 2.508 4.561 3.646l-1.875 11.983c-.333.126-.671.234-1.02.301l-14.709 2.831c-42.039 8.09-72.551 45.034-72.551 87.845 0 11.242 9.146 20.388 20.388 20.388h213.856c4.886 0 9.373-1.73 12.888-4.606 3.515 2.876 8.002 4.606 12.888 4.606h206.019c11.242 0 20.388-9.146 20.388-20.388v-1.019c0-15.448-4.019-30.699-11.622-44.103-2.044-3.604-6.624-4.869-10.224-2.823-3.604 2.044-4.867 6.621-2.823 10.224 6.325 11.151 9.669 23.843 9.669 36.702v1.019c0 2.971-2.417 5.388-5.388 5.388h-13.782c-3.736-32.724-31.584-58.232-65.292-58.232h-47.87c-33.708 0-61.556 25.508-65.292 58.232h-13.782c-2.971 0-5.388-2.417-5.388-5.388v-1.019c0-35.632 25.396-66.382 60.385-73.115 14.732-2.899 15.167-2.768 17.587-3.599 15.897 18.503 44.934 18.501 60.83-.005 2.443.84 3.135.756 17.607 3.604 10.421 2.005 20.087 6.103 28.729 12.18 3.388 2.381 8.066 1.566 10.449-1.822 2.382-3.388 1.566-8.066-1.822-10.448-10.389-7.305-22.003-12.23-34.522-14.64-15.437-3.012-14.677-2.734-15.728-3.128l-.847-5.412c6.853-1.435 13.627-3.305 20.273-5.612 14.271-4.955 23.854-18.433 23.85-33.537-.005-17.401-4.653-21.468-6.778-38.915h24.123c11.832 0 21.458-9.626 21.458-21.458v-248.164h.378c10.252 0 18.593-8.341 18.593-18.593v-9.337c-.001-10.251-8.341-18.592-18.593-18.592zm-141.511 453.768h47.87c25.425 0 46.538 18.803 50.174 43.232h-148.218c3.636-24.43 24.748-43.232 50.174-43.232zm-276.597-111.91c-2.489 0-4.514-2.024-4.514-4.514v-13.313c0-2.489 2.024-4.514 4.514-4.514.492 0 .972-.051 1.438-.141.466.09.946.141 1.438.141 1.073 0 1.946.904 1.946 2.031l.041 20.31zm19.863.158-.041-20.481c0-6.681-3.854-12.475-9.446-15.258v-26.947c0-17.978 14.492-32.603 32.305-32.603h44.276c17.812 0 32.305 14.625 32.305 32.603v26.946c-5.592 2.783-9.446 8.576-9.446 15.255l-.008 20.57c0 .056.001.111.002.167-.319 12.025-4.091 23.587-13.106 31.407-18.748 16.264-44.573 16.66-63.777 0-9.147-7.934-12.797-19.728-13.064-31.659zm69.196 61.088c-12.502 15.194-35.952 15.224-48.484.024l1.04-6.647c14.907 6.044 31.262 6.139 46.407-.003zm-98.349 93.896c3.636-24.43 24.749-43.232 50.174-43.232h47.87c25.425 0 46.538 18.803 50.174 43.232zm181.037 0h-17.701c-3.736-32.724-31.584-58.232-65.292-58.232h-47.87c-33.708 0-61.556 25.508-65.292 58.232h-17.701c-2.971 0-5.388-2.417-5.388-5.388 0-35.632 25.396-66.382 60.386-73.115l14.703-2.83c1.106-.212 2.191-.513 3.246-.896 18.392 19.667 49.584 19.631 67.941-.005 1.058.385 2.148.687 3.261.901l14.709 2.83c34.989 6.733 60.386 37.483 60.386 73.115 0 2.971-2.417 5.388-5.388 5.388zm93.667-97.384c-1.069.406-.362.132-15.729 3.132-29.826 5.74-53.834 26.012-65.275 52.591-11.612-26.076-35.384-45.905-64.827-51.572l-14.707-2.829c-.35-.068-.689-.175-1.021-.299l-1.876-11.993c1.547-1.136 3.065-2.349 4.553-3.64 8.12-7.043 13.733-16.767 16.441-28.147h6.665c10.76 0 19.514-8.754 19.514-19.514v-13.313c0-2.808-.608-5.473-1.68-7.888h81.444c-2.123 17.424-6.774 21.521-6.778 38.915-.005 15.104 9.579 28.582 23.85 33.537 6.646 2.307 13.42 4.177 20.273 5.612zm-140.606-57.849.008-20.232c0-1.112.873-2.017 1.946-2.017h2.876c2.489 0 4.514 2.024 4.514 4.514v13.313c0 2.489-2.024 4.514-4.514 4.514h-4.829c-.001-.031 0-.062-.001-.092zm155.354 60.634.905-5.789c12.783 1.495 25.681 1.549 38.929 0l.901 5.762c-9.998 13.816-30.7 13.856-40.735.027zm69.994-27.975c-31.998 11.11-67.247 11.109-99.249 0-8.238-2.861-13.772-10.643-13.77-19.363.006-17.269 7.55-24.365 7.557-51.497.01-30.778 25.059-55.819 55.838-55.819s55.827 25.041 55.837 55.847c.003 11.575 1.69 23.066 5.014 34.155l.001.001c1.685 5.62 2.54 11.446 2.542 17.314.003 8.719-5.531 16.5-13.77 19.362zm52.574-79.74c0 3.561-2.897 6.458-6.458 6.458h-24.964c-1.293-37.931-32.539-68.397-70.776-68.397-38.228 0-69.468 30.453-70.774 68.397h-95.495v-21.814c0-.743-.022-1.48-.056-2.215h58.113c11.64 0 21.108-9.469 21.108-21.108v-164.348c0-11.64-9.469-21.108-21.108-21.108h-188.094c-11.64 0-21.108 9.469-21.108 21.108v64.63c0 4.143 3.357 7.5 7.5 7.5s7.5-3.357 7.5-7.5v-64.63c0-3.368 2.74-6.108 6.108-6.108h188.093c3.368 0 6.108 2.74 6.108 6.108v164.348c0 3.368-2.74 6.108-6.108 6.108h-61.271c-6.873-17.761-24.038-30.388-44.09-30.388h-44.276c-19.201 0-35.754 11.578-43.16 28.155-.875-1.057-1.403-2.408-1.403-3.876v-64.63c0-4.143-3.357-7.5-7.5-7.5s-7.5 3.357-7.5 7.5v64.63c0 8.505 5.126 15.887 12.447 19.214-.116 1.356-.188 2.724-.188 4.109v21.813h-29.831c-3.561 0-6.458-2.897-6.458-6.458v-248.162h443.641zm18.97-266.756c0 1.981-1.611 3.593-3.593 3.593h-474.783c-1.981 0-3.593-1.611-3.593-3.593v-9.337c0-1.981 1.611-3.593 3.593-3.593h474.783c1.981 0 3.593 1.611 3.593 3.593z"/><path d="m102.929 164.524 16.783 5.752v27.007c0 10.426 8.481 18.907 18.907 18.907h69.874c10.426 0 18.907-8.481 18.907-18.907v-27.007l7.394-2.534v9.643c0 4.143 3.357 7.5 7.5 7.5s7.5-3.357 7.5-7.5c-.215-19.139.38-20.795-.362-23.1-.757-2.518-2.674-4.587-5.248-5.467l-61.513-21.083c-5.877-2.016-12.352-2.014-18.229 0-.001 0-.001 0-.001 0l-61.511 21.082c-3.354 1.148-5.609 4.303-5.611 7.849-.002 3.547 2.249 6.704 5.61 7.858zm109.471 32.759c0 2.154-1.753 3.907-3.907 3.907h-69.874c-2.154 0-3.907-1.753-3.907-3.907v-21.866l29.73 10.189c5.874 2.015 12.351 2.014 18.229 0l29.729-10.189zm-43.095-55.358c2.742-.939 5.763-.939 8.503 0l43.024 14.746-43.024 14.746c-2.742.939-5.761.939-8.503 0l-43.024-14.746z"/></g></g></svg>