<svg id="Capa_1" enable-background="new 0 0 512 512" height="512" viewBox="0 0 512 512" width="512" xmlns="http://www.w3.org/2000/svg"><g><g><g><g><path d="m240.974 72.515v-28.557c0-20.135-16.323-36.458-36.458-36.458-20.135 0-36.458 16.323-36.458 36.458v28.557z" fill="#88a8d8"/><path d="m168.057 98.103v318.747c0 3.038.177 5.795.568 8.793l9.756 4.762h52.269l9.756-4.762c.392-2.999.568-5.754.568-8.793v-318.747z" fill="#e07f84"/></g><path d="m168.625 425.643c.861 6.912 2.711 13.679 5.549 20.075l5.706 12.86 9.803 4.404h29.663l9.803-4.404 5.706-12.86c2.838-6.396 4.688-13.163 5.549-20.075z" fill="#a87f7f"/><path d="m179.881 458.578 18.649 42.029c2.303 5.19 9.669 5.19 11.972 0l18.649-42.029z" fill="#756e78"/><path d="m168.057 68.634h72.917v33.351h-72.917z" fill="#f7ec63"/></g><path d="m434.45 392.93-342.286-342.286c-6.52-6.52-17.669-1.902-17.669 7.319v342.286c0 5.716 4.634 10.35 10.35 10.35h83.212v-61.317h-28.697c-1.96 0-3.548-1.589-3.548-3.549v-156.159c0-3.161 3.822-4.745 6.058-2.509l156.159 156.159c2.236 2.235.652 6.058-2.509 6.058h-54.546v61.317h186.157c9.221 0 13.839-11.149 7.319-17.669z" fill="#d6e0ef"/><g><path d="m434.45 392.93-342.286-342.286c-6.52-6.52-17.669-1.902-17.669 7.319v40.34l294.627 294.627c6.52 6.52 1.902 17.669-7.319 17.669h65.328c9.221 0 13.839-11.149 7.319-17.669z" fill="#bed8fb"/></g></g><path d="m439.753 387.626-191.279-191.279v-37.056c0-4.143-3.357-7.5-7.5-7.5s-7.5 3.357-7.5 7.5v22.056l-21.459-21.459v-50.403h21.459v14.747c0 4.143 3.357 7.5 7.5 7.5s7.5-3.357 7.5-7.5c0-25.004 0-55.278 0-80.273 0-24.239-19.72-43.959-43.959-43.959-24.238 0-43.958 19.72-43.958 43.958v64.472l-63.089-63.089c-11.224-11.222-30.473-3.262-30.473 12.622v342.285c0 9.843 8.007 17.851 17.85 17.851h75.731c.044 2.867.234 5.593.606 8.453.001.006 0 .012.001.018.001.01.003.019.004.029.001.005.001.01.002.015 0 .004.002.008.002.012 1.884 15.049 4.412 18.268 30.483 77.022 2.285 5.151 7.206 8.352 12.841 8.352 5.636 0 10.557-3.2 12.842-8.351l18.649-42.029c3.594-9.027 9.772-18.525 11.834-34.994.001-.004.002-.008.002-.012.001-.005.001-.01.002-.015.001-.01.003-.019.004-.029.001-.006 0-.012.001-.018.372-2.861.561-5.587.606-8.453h178.676c15.873 0 23.853-19.24 12.622-30.473zm-264.196-343.668c0-15.968 12.99-28.958 28.958-28.958s28.959 12.99 28.959 28.958v17.176h-57.917zm0 32.176h57.917v18.351h-57.917zm0 33.35h21.458v35.403l-21.458-21.458zm0 307.366v-185.492l21.458 21.458v165.327h-21.439c-.008-.427-.019-.851-.019-1.293zm28.959 78.755-13.103-29.527h26.204zm19.757-44.527h-39.516c-2.814-6.646-5.154-10.651-7.068-17.935h53.651c-1.912 7.283-4.253 11.289-7.067 17.935zm9.201-34.228c0 .442-.011.866-.019 1.294h-21.44v-150.328l21.459 21.459zm193.657-13.751h-178.657v-46.316h47.046c9.827 0 14.764-11.909 7.812-18.862l-156.159-156.16c-6.948-6.946-18.861-2.019-18.861 7.813v74.68c0 4.143 3.357 7.5 7.5 7.5s7.5-3.357 7.5-7.5v-65.141l17.245 17.245v125.424h-17.245v-42.469c0-4.143-3.357-7.5-7.5-7.5s-7.5 3.357-7.5 7.5v46.42c0 6.093 4.956 11.049 11.049 11.049h21.196v46.316h-75.712c-1.571 0-2.85-1.278-2.85-2.851v-35.757h14.017c4.143 0 7.5-3.357 7.5-7.5s-3.357-7.5-7.5-7.5h-14.017v-35.296h14.017c4.143 0 7.5-3.357 7.5-7.5s-3.357-7.5-7.5-7.5h-14.017v-35.294h14.017c4.143 0 7.5-3.357 7.5-7.5s-3.357-7.5-7.5-7.5h-14.017v-35.296h14.017c4.143 0 7.5-3.357 7.5-7.5s-3.357-7.5-7.5-7.5h-14.017v-35.296h14.017c4.143 0 7.5-3.357 7.5-7.5s-3.357-7.5-7.5-7.5h-14.017v-35.296h14.017c4.143 0 7.5-3.357 7.5-7.5s-3.357-7.5-7.5-7.5h-14.017v-40.05c0-2.538 3.051-3.832 4.865-2.015l342.285 342.285c1.793 1.792.56 4.867-2.014 4.867zm-178.657-61.317v-37.507l37.507 37.507z"/></g></svg>