<svg id="Capa_1" enable-background="new 0 0 512 512" height="512" viewBox="0 0 512 512" width="512" xmlns="http://www.w3.org/2000/svg"><g><g><g><path d="m256 352.335-55.131-48.847c-3.213 2.807-7.145 4.795-11.464 5.624l-25.979 5c-3.462.666-6.872 1.459-10.233 2.36l45.735 71.801 30.813 48.709c5.728 9.056 15.544 14.465 26.26 14.472v-99.119z" fill="#f4f4f4"/></g><g><path d="m256 352.335 55.131-48.847c3.213 2.807 7.145 4.795 11.464 5.624l25.979 5c3.462.666 6.872 1.459 10.233 2.36l-45.735 71.801-30.813 48.709c-5.728 9.056-15.544 14.465-26.26 14.472v-99.119z" fill="#f4f4f4"/><path d="m266.092 382.774h-10.092-10.092l-42.13 121.726h104.443z" fill="#7296d1"/><path d="m348.574 314.111-7.627-1.468c.128 3.443-.854 6.759-2.668 9.48-.005.007-.009.015-.014.023l-36.063 53.848c-.206.308-33.462 52.435-33.462 52.435-2.959 4.678-7.848 7.02-12.74 7.026-4.892-.006-9.781-2.348-12.74-7.026 0 0-33.255-52.127-33.462-52.435l-36.063-53.848c-.005-.007-.009-.015-.014-.023-1.814-2.721-2.796-6.037-2.668-9.48l-7.627 1.468c-68.14 13.114-117.386 72.742-117.386 142.132v17.492c0 16.991 13.774 30.765 30.765 30.765h358.39c16.991 0 30.765-13.774 30.765-30.765v-17.492c0-69.39-49.246-129.018-117.386-142.132z" fill="#756e78"/><g><path d="m348.574 314.111-7.627-1.468c.128 3.443-.854 6.759-2.668 9.48-.005.007-.009.015-.014.023l-10.146 15.15c43.848 25.255 72.514 72.508 72.514 125.447v17.492c0 9.863-4.647 18.636-11.865 24.266h46.427c16.991 0 30.765-13.774 30.765-30.765v-17.492c0-69.391-49.246-129.019-117.386-142.133z" fill="#665e66"/></g><path d="m348.574 314.111-7.627-1.468c.128 3.443-.854 6.759-2.668 9.48-.005.007-.009.015-.014.023l-36.063 53.848c-.206.308-33.462 52.435-33.462 52.435-2.959 4.678-7.848 7.02-12.74 7.026-4.892-.006-9.781-2.348-12.74-7.026 0 0-33.255-52.127-33.462-52.435l-36.063-53.848c-.005-.007-.009-.015-.014-.023-1.814-2.721-2.796-6.037-2.668-9.48l-7.627 1.468c-8.024 1.544-15.783 3.741-23.234 6.516l77.987 123.662c8.768 13.903 23.314 20.797 37.821 20.71 14.507.087 29.053-6.807 37.821-20.71l77.987-123.662c-7.451-2.774-15.209-4.971-23.234-6.516z" fill="#f4e066"/><path d="m371.808 320.627c-7.451-2.775-15.209-4.972-23.233-6.516l-7.627-1.468c.128 3.443-.854 6.759-2.668 9.48-.005.007-.009.015-.014.023l-10.146 15.15c8.184 4.714 15.837 10.195 22.876 16.335z" fill="#efd133"/><g><g><g><path d="m310.027 289.86-7.007-9.823v-63.857h-47.02-47.021v63.857l-7.007 9.823c-7.373 10.337-5.739 24.574 3.785 32.971l50.243 44.297 50.242-44.297c9.524-8.397 11.159-22.635 3.785-32.971z" fill="#ffece4"/><path d="m256.048 351.623-.048.03-.048-.03-22.553 14.044 12.509 17.107h10.092 10.092l12.509-17.107z" fill="#88a8d8"/></g></g></g></g><g><g><g fill="#ffddce"><path d="m188.592 158.64h-25.884c-9.734 0-17.626 7.891-17.626 17.626v15.143c0 9.734 7.891 17.626 17.626 17.626h25.921z"/><path d="m351.125 158.64h-25.887v50.394h25.887c9.734 0 17.626-7.891 17.626-17.626v-15.143c0-9.733-7.891-17.625-17.626-17.625z"/></g><path d="m336.719 112.385c-3.493-15.55-11.612-29.834-23.853-40.374-13.127-11.304-31.58-21.17-55.956-21.442-24.376.272-42.828 10.138-55.956 21.442-12.241 10.54-20.36 24.824-23.853 40.374l.062 85.745c.461 21.479 7.484 42.152 23.79 56.193 13.128 11.303 31.581 21.17 55.956 21.442 24.376-.272 42.829-10.138 55.956-21.442 16.306-14.04 23.404-34.714 23.865-56.193h-.013v-85.745z" fill="#ffece4"/><path d="m336.719 198.131v-85.745c-3.493-15.551-11.612-29.834-23.853-40.374-13.127-11.304-31.581-21.17-55.956-21.442-12.475.139-23.388 2.801-32.841 6.872 9.018 3.884 16.706 9.051 23.115 14.57 12.241 10.54 20.359 24.824 23.853 40.374v85.745h.013c-.461 21.479-7.559 42.152-23.865 56.193-6.409 5.519-14.098 10.685-23.115 14.569 9.452 4.071 20.366 6.733 32.841 6.872 24.376-.272 42.829-10.138 55.956-21.442 16.306-14.04 23.404-34.714 23.865-56.193h-.013z" fill="#ffddce"/><path d="m178.779 158.64c8.1 0 15.234-6.028 15.87-14.103.034-.432.051-.869.051-1.31v-31.457c0-8.812 7.187-15.882 15.999-15.867 6.75.011 22.729.877 28.03 2.043 11.984 2.636 24.39 2.635 36.375 0 5.301-1.166 21.28-2.032 28.029-2.043 8.812-.015 15.999 7.055 15.999 15.867v31.457c0 .441.017.878.051 1.31.636 8.075 7.771 14.103 15.87 14.103h16.039v-49.329c0-33.423-27.095-60.519-60.519-60.519h-67.317c-33.423 0-60.519 27.095-60.519 60.519v49.329z" fill="#89808c"/></g><path d="m310.71 103.553 98.422-37.361c2.162-.821 2.162-3.879 0-4.7l-132.888-50.443c-12.452-4.727-26.204-4.727-38.656 0l-132.887 50.444c-2.162.821-2.162 3.879 0 4.7l98.422 37.361c.285.108.587.164.892.164h105.802c.306-.001.608-.057.893-.165z" fill="#665e66"/><path d="m356.948 120.17c1.903-11.191 3.744-22.017 5.525-32.489.51-2.999-1.317-5.915-4.249-6.728-68.206-18.914-134.413-18.914-202.615 0-2.931.813-4.758 3.729-4.248 6.728 1.781 10.471 3.622 21.297 5.525 32.489.581 3.419 3.954 5.635 7.315 4.779 62.32-15.867 123.109-15.867 185.433 0 3.36.856 6.732-1.36 7.314-4.779z" fill="#756e78"/><g><path d="m358.224 80.953c-18.329-5.083-36.514-8.787-54.632-11.137 1.64 1.475 2.497 3.723 2.105 6.03-1.319 7.755-2.667 15.685-4.046 23.793-1.28 7.525-6.972 13.133-13.915 14.746 20.538 1.764 41.132 5.279 61.898 10.566 3.361.856 6.733-1.36 7.315-4.779 1.903-11.191 3.744-22.017 5.525-32.489.509-3.001-1.318-5.917-4.25-6.73z" fill="#665e66"/></g><path d="m420.208 141.58h-18.91c-3.803 0-6.756-3.316-6.318-7.093l3.957-34.116c.372-3.208 3.089-5.628 6.318-5.628h10.996c3.229 0 5.946 2.42 6.318 5.628l3.957 34.116c.438 3.778-2.515 7.093-6.318 7.093z" fill="#665e66"/></g><g fill="#e0dde0"><path d="m203.331 366.337-29.596-44.191c-4.091-6.109-3.482-14.195 1.41-19.684 14.709-16.506 33.835-22.425 33.835-22.425l-1.852 4.774c-4.099 10.567-1.185 22.569 7.304 30.079l41.521 36.734-30.973 19.353c-7.286 4.551-16.869 2.497-21.649-4.64z"/><path d="m308.669 366.337 29.596-44.191c4.091-6.109 3.482-14.195-1.41-19.684-14.709-16.506-33.835-22.425-33.835-22.425l1.852 4.774c4.099 10.567 1.185 22.569-7.304 30.079l-41.521 36.734 30.973 19.353c7.286 4.551 16.869 2.497 21.649-4.64z"/></g></g><path d="m374.641 313.69c-.144-.059-.289-.112-.435-.162-14.11-5.241-25.352-6.944-26.804-7.28-.98-3.17-2.627-6.173-4.947-8.777-11.211-12.579-24.658-19.504-31.934-22.597v-9.174c15.892-11.422 27.033-26.406 31.7-49.166h8.905c13.854 0 25.126-11.271 25.126-25.125v-15.143c0-11.248-7.43-20.794-17.657-23.987v-21.956c3.038-2.053 5.132-5.277 5.747-8.897l5.492-32.295 33.419-12.686v10.956c-6.128.891-11.033 5.788-11.767 12.104l-3.957 34.118c-.949 8.2 5.457 15.456 13.768 15.456h18.91c8.256 0 14.726-7.201 13.768-15.458l-3.957-34.116c-.733-6.315-5.638-11.213-11.767-12.104v-23.535c0-.009.001-.017.001-.026-.001-4.197-2.537-7.871-6.46-9.359l-41.036-15.577c-3.875-1.472-8.204.478-9.674 4.35-1.47 3.873.478 8.204 4.35 9.674l28.756 10.915-30.321 11.51c-1.102-.702-2.319-1.26-3.641-1.627-69.52-19.279-137.107-19.277-206.621 0-1.322.366-2.54.925-3.642 1.627l-30.321-11.51 120.609-45.783c10.744-4.08 22.583-4.081 33.331 0l59.028 22.407c3.875 1.473 8.203-.478 9.674-4.35 1.47-3.873-.478-8.204-4.35-9.674l-59.028-22.406c-14.182-5.383-29.799-5.383-43.979 0l-132.886 50.443c-3.925 1.489-6.461 5.163-6.461 9.36-.001 4.197 2.534 7.873 6.46 9.364l41.959 15.927 5.493 32.294c.615 3.62 2.709 6.845 5.747 8.897v21.951c-10.219 3.188-17.657 12.738-17.657 23.992v15.143c0 13.853 11.271 25.125 25.126 25.125h8.907c4.284 21.477 14.535 36.271 29.864 47.814v10.527c-7.277 3.092-20.724 10.019-31.933 22.597-2.32 2.603-3.967 5.606-4.947 8.776-.359.083-15.181 2.513-27.242 7.443-58.511 21.939-98.817 78.368-98.817 142.553v17.492c0 21.099 17.166 38.265 38.265 38.265h358.39c21.099 0 38.265-17.166 38.265-38.265v-17.492c0-64.187-40.307-120.616-98.819-142.553zm40.595-211.447 3.692 31.837h-16.351l3.692-31.837zm-101.064 191.305c5.385 3.21 11.605 7.757 17.083 13.903 2.64 2.964 2.917 7.304.787 10.506-.002.004-.004.008-.007.012-.019.028-.037.056-.055.085l-29.537 44.104c-.001.002-.003.004-.004.006-2.543 3.797-7.571 4.873-11.443 2.452-7.144-4.464-18.087-11.301-22.455-14.03l33.998-30.079c7.799-6.902 11.92-16.882 11.633-26.959zm-23.672 86.834c-2.458 3.851-6.029 9.447-11.215 17.575l-4.82-13.927 6.051-8.276c1.64.9 4.634 3.453 9.984 4.628zm7.381-92.86c2.949 7.605.827 16.346-5.282 21.75l-36.599 32.38-36.598-32.38c-6.109-5.404-8.232-14.144-5.282-21.749 1.117-3.467 2.359-4.982 2.359-7.487v-6.362c24.435 12.185 53.408 12.959 79.041.874v5.488c0 1.921.604 2.906 2.361 7.486zm-41.881 72.915 11.76 7.348-5.475 7.488h-12.57l-5.475-7.488zm-4.751 29.836h9.503l8.242 23.814c-2.04 3.198-4.23 6.63-6.591 10.331-2.977 4.705-9.801 4.748-12.819-.024-2.356-3.692-4.54-7.116-6.576-10.307zm92.345-239.133h-8.54c-4.398 0-8.422-3.232-8.422-7.913v-15.777c5.642 1.111 11.295 2.354 16.962 3.733zm17.657 25.126v15.143c0 5.583-4.543 10.125-10.126 10.125h-7.036c.265-5.159.05 1.589.13-35.394h6.875c.005 0 .01-.001.016-.001s.01.001.016.001c5.582 0 10.125 4.543 10.125 10.126zm-6.406-88.465-5.011 29.464c-62.26-15.583-123.076-15.71-185.836-.001l-5.011-29.463c65.88-18.028 129.975-18.028 195.858 0zm-192.137 113.734c-5.583 0-10.126-4.542-10.126-10.125v-15.143c0-5.583 4.543-10.126 10.126-10.126h.031 6.902c.115 36.076-.122 29.689.163 35.394zm7.531-50.395v-19.958c5.667-1.379 11.32-2.623 16.962-3.733-.01 16.831.022 15.846-.028 16.499-.317 4.033-4.005 7.192-8.393 7.192-.156 0-9.109 0-8.541 0zm14.425 46.906-.023-32.661c9.444-2.403 16.712-10.432 17.485-20.257.132-1.667.05-1.028.075-20.319 36.601-5.678 72.83-5.678 109.432.001.025 19.072-.057 18.657.075 20.315.774 9.836 8.055 17.871 17.512 20.266.003 43.974-.085 30.327.005 32.999-2.396 92.847-142.483 93.109-144.561-.344zm-3.919 109.405c5.477-6.147 11.698-10.694 17.083-13.904-.286 10.076 3.834 20.058 11.635 26.96l33.998 30.079c-4.59 2.848-10.684 6.646-22.455 14.03-3.871 2.42-8.897 1.345-11.441-2.449l-29.543-44.113c-.019-.029-.038-.057-.057-.086-.002-.003-.004-.007-.006-.01-2.087-3.136-1.904-7.488.786-10.507zm56.79 76.58-4.82 13.927c-5.187-8.129-8.758-13.725-11.216-17.576 5.34-1.173 8.288-3.697 9.985-4.626zm220.925 89.704c0 12.829-10.436 23.265-23.265 23.265h-38.93v-51.484c0-4.143-3.357-7.5-7.5-7.5s-7.5 3.357-7.5 7.5v51.484h-250.53v-51.484c0-4.143-3.357-7.5-7.5-7.5s-7.5 3.357-7.5 7.5v51.484h-38.93c-12.829 0-23.265-10.436-23.265-23.265v-17.492c0-55.849 33.853-105.183 83.64-126.331l22.518 35.707c1.426 2.262 3.861 3.5 6.351 3.5 1.367 0 2.752-.374 3.994-1.157 3.503-2.209 4.553-6.841 2.343-10.345l-20.751-32.905c7.099-2.112 11.968-2.958 13.386-3.269 2.704 7.381-.879-3.079 71.902 110.995 8.875 14.033 29.308 13.988 38.141.024 57.014-89.37 69.333-106.063 69.433-106.143 1.017-1.525 1.937-3.386 2.483-4.877 1.54.337 6.063 1.09 13.386 3.268l-72.888 115.577c-14.49 22.976-48.47 22.97-62.955 0l-33.427-53.005c-2.209-3.504-6.841-4.552-10.345-2.343-3.503 2.209-4.553 6.841-2.343 10.345l33.427 53.005c20.376 32.308 67.954 32.309 88.329 0l74.655-118.38c49.787 21.148 83.64 70.482 83.64 126.332v17.494z"/></g></svg>