<svg id="Capa_1" enable-background="new 0 0 512 512" height="512" viewBox="0 0 512 512" width="512" xmlns="http://www.w3.org/2000/svg"><g><g><g><g><path d="m260.01 258.976c18.284-.262 33.602-8.484 46.171-17.378 5.098-3.607 4.122-11.362-1.636-13.778-.02-.008-.039-.017-.058-.025-9.885-4.381-16.542-14.231-16.542-25.414v-41.515h-31.958-31.957v41.515c0 9.871-5.196 18.706-13.213 23.659-.061.038-.126.076-.193.115-4.936 2.835-5.355 9.825-.775 13.204 13.326 9.833 29.962 19.487 50.161 19.617z" fill="#ffddce"/><g><g><g><g><path d="m339.495 104.883c-.027-6.565-5.307-11.865-11.793-11.837l-4.424.019-.074-17.828c-.156-37.353-30.979-51.083-65.154-51.323-34.026.53-64.779 14.383-64.623 51.877l.052 12.57.022 5.259-4.193.002c-9.329.005-16.887 7.572-16.881 16.901l.011 15.316c.007 9.326 7.571 16.881 16.897 16.877l4.336-.002c.438 17.25 7.669 33.825 20.656 45.047 10.455 9.035 25.131 16.897 44.475 17.033 19.342-.301 33.952-8.288 44.331-17.412 12.893-11.332 19.986-27.968 20.28-45.222l4.442-.019c6.486-.028 11.722-5.372 11.694-11.937z" fill="#ffece4"/></g><path d="m321.766 231.948c-1.752-.337-6.286-1.245-11.485-2.292-2.031-.409-3.965-1.044-5.792-1.862-10.807 9.246-25.821 17.201-45.555 17.508-20.244-.142-35.603-8.37-46.545-17.825-.538-.465-1.051-.954-1.571-1.437-2.743 1.697-5.808 2.949-9.121 3.616-5.2 1.047-9.733 1.954-11.485 2.292-50.256 9.672-86.576 53.649-86.576 104.826v51.957c0 12.043 9.763 21.806 21.806 21.806h130.548 130.548c12.043 0 21.806-9.763 21.806-21.806v-51.957c-.002-51.177-36.323-95.154-86.578-104.826z" fill="#88a8d8"/><g><path d="m321.766 231.948c-1.752-.337-6.286-1.245-11.485-2.292-2.031-.409-3.965-1.045-5.792-1.862-5.898 5.046-13.06 9.697-21.548 12.941 36.057 17.498 60.124 54.381 60.124 96.039v51.957c0 12.043-9.763 21.806-21.806 21.806h65.278c12.043 0 21.806-9.763 21.806-21.806v-51.957c-.001-51.177-36.322-95.154-86.577-104.826z" fill="#7296d1"/></g><path d="m246.933 278.248c-40.554-27.444-101.945-29.132-126.836-28.554-6.156.143-11.064 5.173-11.064 11.33v163.534c0 6.379 5.214 11.467 11.591 11.33 23.868-.512 79.619 1.122 119.663 24.398 9.722 5.651 21.682 5.65 31.404-.001 52.236-30.363 131.199-23.899 131.253-23.883v-175.378c0-6.157-4.908-11.187-11.064-11.33-24.89-.578-86.282 1.11-126.836 28.554-5.476 3.705-12.636 3.705-18.111 0z" fill="#f7f4f7"/><g><path d="m391.88 249.693c-13.594-.316-38.078.056-64.106 4.918 5.595.708 9.892 5.481 9.892 11.241v173.304c35.244-5.22 65.244-2.765 65.278-2.755v-175.377c0-6.158-4.909-11.188-11.064-11.331z" fill="#edeaed"/></g><path d="m315.036 23.148c-.136-8.681-7.212-15.648-15.895-15.648h-70.515c-28.276 0-51.198 22.922-51.198 51.198v33.834c0 4.97 3.145 9.395 7.839 11.029l12.611 4.391c4.408 1.535 9.011-1.742 9.004-6.41l-.028-23.858c-.002-.383.007-.764.025-1.142.707-14.492 18.92-20.503 28.594-9.689 11.63 13 35.515 32.808 68.321 24.881 3.728-.901 7.59.833 9.301 4.265l.003.007c3.406 6.83 11.357 10.066 18.565 7.556 4.693-1.634 7.838-6.06 7.838-11.029v-44.66c0-8.527-6.839-15.478-15.365-15.617-4.994-.081-9.022-4.112-9.1-9.108z" fill="#89808c"/><path d="m339.495 104.883c-.027-6.565-5.307-11.865-11.793-11.837l-4.424.019-.074-17.828c-.143-34.217-26.023-48.602-56.638-50.963 4.791 6.635 7.623 14.779 7.626 23.588l.033 94.297c-.294 17.254-7.387 33.889-20.28 45.222-5.47 4.808-12.127 9.287-20.02 12.505 7.233 2.95 15.502 4.84 24.878 4.906 19.342-.301 33.952-8.288 44.332-17.412 12.892-11.332 19.986-27.968 20.28-45.222l4.442-.019c6.486-.028 11.722-5.372 11.694-11.937z" fill="#ffddce"/><path d="m324.138 32.256c-4.995-.081-9.024-4.113-9.102-9.108-.136-8.681-7.212-15.648-15.895-15.648h-70.515c-.001 0-.002 0-.002 0h5.192c22.293 0 40.368 18.068 40.376 40.361l.015 43.852c8.801 2.216 18.7 2.652 29.588.021 3.728-.901 7.59.833 9.301 4.265l.003.007c3.406 6.83 11.357 10.066 18.565 7.556 4.693-1.634 7.838-6.06 7.838-11.029v-44.66c.001-8.527-6.838-15.478-15.364-15.617z" fill="#756e78"/></g></g></g></g><g><g fill="#ecbe6b"><path d="m400.944 275.357c-25.534-.593-87.065 1.068-130.219 27.234v198.483c.679-.335 1.351-.694 2.012-1.078 44.761-26.018 107.921-26.686 131.064-25.933 4.897.159 8.945-3.774 8.945-8.674v-177.945c0-6.569-5.236-11.934-11.802-12.087z"/><path d="m241.251 302.591c-43.154-26.166-104.686-27.827-130.22-27.234-6.566.152-11.801 5.518-11.801 12.086v177.945c0 4.9 4.048 8.834 8.945 8.674 23.143-.753 86.303-.085 131.065 25.934.661.384 1.332.742 2.011 1.077z"/></g><g><path d="m400.944 275.357c-14.532-.338-40.73.053-68.562 5.272 1.104.015 2.175.033 3.173.056 6.566.152 11.802 5.518 11.802 12.086v177.945c0 2.627-1.17 4.968-3.004 6.558 25.098-3.61 47.556-3.599 59.448-3.212 4.897.159 8.945-3.774 8.945-8.674v-177.945c0-6.568-5.236-11.933-11.802-12.086z" fill="#e8ae4d"/></g><path d="m243.467 303.94c-1.444-.918-2.914-1.802-4.401-2.664v198.624c.057.033.117.064.174.097 10.37 6.028 23.128 6.027 33.498-.001.057-.033.116-.065.173-.098v-198.622c-1.487.861-2.957 1.746-4.401 2.664-7.661 4.868-17.382 4.868-25.043 0z" fill="#e49542"/></g><path d="m86.206 354.549 13.019-7.978v12.715c0 5.226 4.237 9.463 9.463 9.463h6.214c9.445 0 17.102 7.657 17.102 17.102v22.276c0 5.901-4.784 10.684-10.684 10.684h-21.395c-13.593 0-24.613-11.02-24.613-24.613v-20.196c0-7.938 4.126-15.305 10.894-19.453z" fill="#ffece4"/><path d="m425.794 354.549-13.019-7.978v12.715c0 5.226-4.237 9.463-9.463 9.463h-6.214c-9.445 0-17.102 7.657-17.102 17.102v22.276c0 5.901 4.784 10.684 10.684 10.684h21.395c13.593 0 24.613-11.02 24.613-24.613v-20.196c0-7.938-4.126-15.305-10.894-19.453z" fill="#ffddce"/></g></g><g><path d="m301.848 339.45c-3.933 1.3-6.068 5.542-4.768 9.475 1.042 3.152 3.973 5.149 7.12 5.149.78 0 1.573-.123 2.355-.381 26.302-8.692 54.544-11.454 73.606-12.239 4.139-.17 7.355-3.664 7.185-7.803-.171-4.138-3.638-7.359-7.803-7.185-20.018.825-49.747 3.747-77.695 12.984z"/><path d="m420.246 342.354v-9.44c0-4.142-3.358-7.5-7.5-7.5s-7.5 3.358-7.5 7.5v26.653c-.137.949-.948 1.683-1.935 1.683h-6.214c-13.565 0-24.602 11.037-24.602 24.602v22.276c0 10.027 8.158 18.184 18.185 18.184h14.565v39.078c0 .655-.533 1.21-1.201 1.178-23.211-.758-78.973.028-123.634 20.989v-181.824c41.398-22.152 97.624-23.402 120.359-22.877.285.007.56.046.829.101.033.006.066.01.099.015 2.05.465 3.548 2.278 3.548 4.472v10.323c0 4.142 3.358 7.5 7.5 7.5s7.5-3.358 7.5-7.5v-10.323c0-7.321-3.913-13.645-9.803-17.009v-9.411c0-10.319-8.078-18.589-18.39-18.829-6.441-.15-15.358-.147-25.761.409-13.009-8.954-27.497-15.016-43.109-18.02-11.774-2.267-13.156-2.526-15.633-3.635-.003-.001-.006-.002-.01-.003-.005-.002-.009-.005-.014-.007-7.338-3.252-12.08-10.536-12.08-18.556v-.214c4.389-2.572 8.61-5.613 12.639-9.154 12.441-10.935 20.373-26.524 22.351-43.554 9.405-1.3 16.654-9.468 16.613-19.273l-.055-25.335c-.009-2.092-.365-4.159-1.03-6.128.67-1.959 1.038-4.043 1.038-6.191v-44.66c0-12.542-10.202-22.912-22.743-23.117-.953-.016-1.711-.773-1.725-1.726-.197-12.699-10.691-23.031-23.392-23.031h-70.515c-27.623 0-51.783 19.595-57.447 46.593-.851 4.054 1.747 8.03 5.8 8.881 4.053.85 8.03-1.746 8.881-5.8 4.215-20.091 22.201-34.673 42.766-34.673h70.515c4.558 0 8.324 3.708 8.395 8.264.141 9.098 7.38 16.342 16.479 16.491 4.404.072 7.987 3.714 7.987 8.118v44.659c0 1.776-1.127 3.362-2.804 3.946-3.633 1.267-7.669-.377-9.39-3.827-3.276-6.569-10.583-9.948-17.775-8.208-29.161 7.045-50.717-11.129-60.969-22.591-6.537-7.308-16.753-9.906-26.027-6.62-9.181 3.254-15.177 11.279-15.648 20.943-.061 1.246-.025-.231-.007 24.359l-11.648-4.056c-1.677-.584-2.804-2.17-2.804-3.946v-9.386c0-4.142-3.358-7.5-7.5-7.5s-7.5 3.358-7.5 7.5v9.386c0 .98.079 1.947.224 2.895-3.364 4.265-5.23 9.554-5.226 15.1l.011 15.315c.009 12.558 9.557 22.924 21.772 24.232 2.121 17.012 10.182 32.531 22.714 43.36 2.309 1.995 4.682 3.816 7.106 5.496v3.45c0 7.085-3.609 13.544-9.654 17.279 0 0-.001 0-.001.001-.001 0-.002.001-.002.001-3.747 2.317-5.9 2.575-18.079 4.921-15.615 3.005-30.105 9.068-43.115 18.024-10.401-.556-19.316-.56-25.756-.412-10.312.24-18.39 8.51-18.39 18.829v9.411c-5.889 3.364-9.803 9.688-9.803 17.009v54.924c-3.43 3.034-23.918 9.613-23.918 31.634v20.196c0 14.875 10.169 27.417 23.918 31.049v40.141c0 9.074 7.484 16.472 16.689 16.171 71.811-2.338 112.655 16.586 126.888 24.828.001.001.002.001.003.002.01.006.018.013.028.019.031.018.123.069.183.102 12.634 7.321 28.334 7.323 40.962-.016l.196-.112c.001 0 .001-.001.002-.001 14.243-8.247 55.103-27.159 126.876-24.822 9.169.285 16.689-7.037 16.689-16.171v-40.134c13.762-3.624 23.942-16.172 23.942-31.056v-20.196c-.001-21.989-20.613-28.704-23.943-31.648zm-219.076-199.832c-.103-4.067-3.43-7.31-7.498-7.31-.001 0-.002 0-.003 0l-4.337.002c-.001 0-.003 0-.004 0-5.174 0-9.385-4.208-9.389-9.382.014-16.18-.068-15.364.057-16.425.891.481 1.827.897 2.806 1.238l12.611 4.391c4.406 1.533 9.249.799 12.974-1.852 3.762-2.678 6.004-7.034 5.997-11.65-.027-27.77-.038-24.079-.011-24.627.254-5.216 4.408-7.087 5.675-7.536 2.796-.99 6.848-.859 9.837 2.483 12.488 13.959 38.923 36.052 75.672 27.171.298-.072.669 0 .832.328 4.743 9.512 15.469 14.369 25.62 11.913l.041 18.968c.01 2.42-1.886 4.396-4.225 4.406l-4.442.019c-4.08.017-7.398 3.293-7.468 7.372-.265 15.568-6.728 30.044-17.732 39.717-23.656 20.794-55.651 20.472-78.95.337-11.085-9.578-17.668-23.998-18.063-39.563zm79.864 66.141c1.353 7.46 5.067 14.245 10.52 19.388-21.23 13.458-47.724 13.094-69.02-2.133 4.744-5.275 7.8-11.857 8.709-18.998 15.415 6.243 32.598 7.335 49.791 1.743zm-89.404 30.65c12.454-2.4 14.504-2.812 18.08-4.298 29.844 24.175 68.328 22.836 96.209 1.283 2.248.66 12.185 2.584 14.429 3.016 6.703 1.29 13.163 3.235 19.351 5.803-26.127 3.591-55.645 11.211-78.858 26.92-2.947 1.995-6.757 1.995-9.704 0-23.215-15.71-52.736-23.327-78.864-26.917 6.188-2.57 12.651-4.516 19.357-5.807zm-71.359 17.878c6.646-.153 16.076-.142 27.055.517.057.004.114.007.172.01 28.453 1.723 67.267 7.817 95.231 26.741 8.056 5.451 18.463 5.451 26.518 0 38.828-26.276 98.569-27.822 122.458-27.268 2.096.049 3.738 1.732 3.738 3.832v6.755c-42.676-.259-94.948 6.946-130.956 29.831-5.242 3.331-11.756 3.331-16.997 0-35.931-22.847-88.186-30.089-130.957-29.831v-6.755c0-2.1 1.642-3.783 3.738-3.832zm-37.459 137.007v-20.196c0-9.811 8.677-13.802 8.926-14.046.353 9.045 7.821 16.294 16.95 16.294h6.214c5.294 0 9.601 4.307 9.601 9.601v22.276c0 1.755-1.428 3.184-3.184 3.184h-21.394c-9.436 0-17.113-7.677-17.113-17.113zm25.12 72.369c-.665.021-1.201-.516-1.201-1.178v-39.078h14.589c10.027 0 18.185-8.158 18.185-18.184v-22.276c0-13.565-11.037-24.602-24.602-24.602h-6.214c-1.066 0-1.932-.855-1.958-1.915v-71.891c0-2.194 1.497-4.006 3.546-4.472.036-.006.072-.01.108-.016.266-.054.539-.093.821-.1 22.732-.531 78.961.724 120.36 22.877v181.824c-44.662-20.961-100.423-21.742-123.634-20.989zm157.479 28.662c-6.046 2.364-12.797 2.365-18.845 0v-181.631c6.115 1.949 12.727 1.949 18.845 0zm163.777-101.031c0 9.436-7.677 17.112-17.113 17.112h-21.395c-1.756 0-3.184-1.428-3.184-3.184v-22.276c0-5.294 4.307-9.601 9.601-9.601h6.214c9.293 0 16.606-7.458 16.95-16.294l1.613.989c4.511 2.764 7.313 7.767 7.313 13.058v20.196z"/></g></g></svg>