<svg id="Capa_1" enable-background="new 0 0 512 512" height="512" viewBox="0 0 512 512" width="512" xmlns="http://www.w3.org/2000/svg"><g><g><g><g><g><path d="m48.37 435.894 112.082 41.719c9.519 3.543 19.595 5.357 29.752 5.357h115.51c16.165 0 31.997-4.594 45.651-13.246l144.629-81.814c9.542-8.473 11.311-22.712 4.132-33.262-7.855-11.543-20.848-13.55-35.146-6.789l-140.81 62 .166-22.846c-1.865-18.752-16.303-33.801-34.961-36.441l-85.749-9.873c-19.781-2.799-29.665-9.428-46.909-19.515-23.543-13.772-50.327-21.031-77.602-21.031h-30.745z" fill="#ffece4"/></g><path d="m500.125 354.648c-7.855-11.543-20.848-13.55-35.146-6.789l-25.792 11.357-.042 10.123c-.073 17.599-9.572 33.809-24.89 42.475l-62.891 35.576c-13.654 8.652-29.486 13.246-45.651 13.246h-115.51c-10.157 0-20.232-1.814-29.751-5.357l-112.082-41.719v22.334l112.082 41.719c9.519 3.543 19.594 5.357 29.751 5.357h115.51c16.165 0 31.997-4.594 45.651-13.246l144.629-81.814c9.55-8.479 11.273-22.768 4.132-33.262z" fill="#ffddce"/><path d="m72.487 458.219c0 8.132-6.592 14.724-14.724 14.724h-35.538c-8.132 0-14.724-6.592-14.724-14.724v-170.468c0-8.132 6.592-14.724 14.724-14.724h35.538c8.132 0 14.724 6.592 14.724 14.724z" fill="#7296d1"/></g><g><path d="m389.181 237.723h-218.954c-10.789 0-19.536-8.747-19.536-19.536v-125.974h258.026v125.975c0 10.789-8.746 19.535-19.536 19.535z" fill="#756e78"/><path d="m338.64 92.213v125.975c0 10.789-8.747 19.536-19.536 19.536h70.077c10.789 0 19.536-8.747 19.536-19.536v-125.975z" fill="#665e66"/><path d="m261.099 32.114-171.238 58.689c-2.01.689-2.01 3.532 0 4.221l171.238 58.689c12.059 4.133 25.151 4.133 37.21 0l171.238-58.689c2.01-.689 2.01-3.532 0-4.221l-171.238-58.689c-12.059-4.133-25.151-4.133-37.21 0z" fill="#595959"/><path d="m261.099 32.114-171.238 58.689c-2.01.689-2.01 3.532 0 4.221l171.238 58.689c12.059 4.133 25.151 4.133 37.21 0l171.238-58.689c2.01-.689 2.01-3.532 0-4.221l-171.238-58.689c-12.059-4.133-25.151-4.133-37.21 0z" fill="#89808c"/><g><path d="m469.547 90.803-69.069-23.672.477 31.646c.39 9.465-4.312 19.595-13.969 24.544l82.561-28.297c2.01-.689 2.01-3.532 0-4.221z" fill="#665e66"/></g></g></g><path d="m483.898 210.476h-25.687c-4.695 0-8.353-4.073-7.85-8.742l5.381-49.955c.432-4.01 3.817-7.05 7.85-7.05h14.925c4.033 0 7.419 3.04 7.85 7.05l5.381 49.955c.503 4.669-3.155 8.742-7.85 8.742z" fill="#665e66"/></g><g><path d="m87.429 102.119 55.761 19.111v96.957c0 14.908 12.129 27.036 27.036 27.036h218.954c14.908 0 27.036-12.128 27.036-27.036v-26.776c0-4.143-3.358-7.5-7.5-7.5s-7.5 3.358-7.5 7.5v26.776c0 6.637-5.399 12.036-12.036 12.036h-218.953c-6.637 0-12.036-5.399-12.036-12.036v-91.816l100.476 34.437c6.783 2.325 13.909 3.487 21.037 3.487 7.127 0 14.254-1.162 21.036-3.487l100.476-34.436v29.975c0 4.143 3.358 7.5 7.5 7.5s7.5-3.358 7.5-7.5v-35.117l47.337-16.224v32.224c-7.866.019-14.427 5.921-15.27 13.745l-5.381 49.955c-.977 9.068 6.126 17.046 15.308 17.046h25.687c9.15 0 16.286-7.95 15.308-17.046l-5.381-49.955c-.843-7.825-7.405-13.726-15.27-13.745v-44.316c0-4.157-2.642-7.858-6.577-9.206l-171.237-58.69c-13.565-4.651-28.508-4.651-42.073 0l-171.239 58.689c-3.933 1.349-6.575 5.049-6.575 9.206s2.642 7.858 6.576 9.206zm391.088 50.111c.203 0 .372.152.393.354l5.381 49.954c.026.235-.154.439-.393.439h-25.687c-.242 0-.419-.206-.393-.438l5.381-49.955c.021-.201.19-.353.393-.353h14.925zm-214.986-113.022c10.43-3.573 21.918-3.573 32.346 0l156.695 53.705-156.695 53.706c-10.429 3.573-21.916 3.575-32.346 0l-156.695-53.706z"/><path d="m506.326 350.429c-9.788-14.385-26.4-17.893-44.46-9.394l-130.113 57.289.082-11.255c.002-.267-.01-.532-.037-.797-2.213-22.257-19.227-39.991-41.374-43.125-.064-.01-.128-.018-.193-.025l-85.65-9.861c-18.256-2.599-27.129-8.642-44.08-18.55-24.417-14.282-52.239-21.888-80.515-22.042v-4.918c0-12.254-9.97-22.225-22.225-22.225h-35.536c-12.255 0-22.225 9.97-22.225 22.224v170.468c0 12.255 9.97 22.226 22.225 22.226h35.538c12.255 0 22.225-9.97 22.225-22.226v-2.553l77.848 28.977c10.389 3.866 21.279 5.827 32.368 5.827h115.51c17.551 0 34.664-4.947 49.504-14.307 153.909-87.133 144.622-81.638 145.756-82.644 12.321-10.941 14.622-29.465 5.352-43.089zm-14.779 31.379-143.875 81.388c-.109.062-.216.126-.321.193-12.472 7.903-26.869 12.08-41.636 12.08h-115.51c-9.296 0-18.426-1.644-27.135-4.886l-83.081-30.925v-78.944c0-4.143-3.358-7.5-7.5-7.5s-7.5 3.358-7.5 7.5v97.504c0 3.984-3.241 7.225-7.224 7.225h-35.54c-3.983 0-7.224-3.241-7.224-7.225v-170.468c0-3.984 3.241-7.224 7.224-7.224h35.538c3.983 0 7.224 3.24 7.224 7.224v37.9c0 4.143 3.358 7.5 7.5 7.5s7.5-3.358 7.5-7.5v-17.981c25.618.154 50.821 7.05 72.941 19.99 16.186 9.473 29.208 17.992 49.839 20.492l85.648 9.861c15.111 2.181 26.74 14.217 28.417 29.366l-.109 14.981h-135.214c-4.142 0-7.5 3.358-7.5 7.5 0 4.143 3.358 7.5 7.5 7.5h142.661c.97 0 2.045-.21 3.003-.629.007-.003.013-.004.02-.007l140.81-61.999c.062-.027.123-.056.184-.084 7.891-3.731 18.762-6.026 25.739 4.227 4.903 7.208 3.851 16.939-2.379 22.941z"/></g></g></svg>