<svg id="Capa_1" enable-background="new 0 0 512 512" height="512" viewBox="0 0 512 512" width="512" xmlns="http://www.w3.org/2000/svg"><g><g><g><path d="m395.726 66.272h57.949v96.239h-57.949z" fill="#db636e"/><g><g><path d="m448.521 464.864h-385.042v-278.68l192.521-143.388 192.521 143.388z" fill="#edeaed"/><path d="m256 42.796-32.899 24.504 151.103 112.54c5.36 3.992 8.518 10.282 8.518 16.966v268.058h65.799v-278.68z" fill="#e0dde0"/><path d="m41.275 225.339 206.331-149.186c5.01-3.622 11.778-3.622 16.788 0l206.331 149.186c7.445 5.383 17.503 5.383 24.947 0 11.753-8.498 11.753-26.005 0-34.503l-231.278-167.224c-5.01-3.622-11.778-3.622-16.788 0l-231.278 167.224c-11.753 8.498-11.753 26.005 0 34.503 7.445 5.383 17.502 5.383 24.947 0z" fill="#e07f84"/></g><g><path d="m250.588 228.954c-34.346-19.56-88.067-21.041-110.696-20.701-5.893.089-10.614 4.896-10.614 10.79v164.054c0 6.013 4.909 10.875 10.922 10.79 20.776-.293 66.94.972 100.843 15.923 9.596 4.232 20.493 4.136 30.097-.08 33.177-14.565 78.028-16.071 99.348-15.855 6.735.068 12.235-5.358 12.235-12.094v-162.738c0-5.893-4.721-10.701-10.614-10.79-22.629-.34-76.35 1.141-110.696 20.701-3.362 1.914-7.464 1.914-10.825 0z" fill="#f4e066"/></g><path d="m457.957 491.113h-403.914c-9.66 0-17.492-7.831-17.492-17.492 0-9.66 7.831-17.492 17.492-17.492h403.914c9.66 0 17.492 7.831 17.492 17.492 0 9.66-7.832 17.492-17.492 17.492z" fill="#89808c"/><path d="m457.957 456.129h-65.925c9.66 0 17.492 7.831 17.492 17.492v17.492h48.434c9.66 0 17.492-7.831 17.492-17.492-.001-9.66-7.833-17.492-17.493-17.492z" fill="#756e78"/></g><path d="m456.284 81.129h-63.169c-5.944 0-10.763-4.819-10.763-10.763v-10.428c0-5.944 4.819-10.763 10.763-10.763h63.169c5.944 0 10.763 4.819 10.763 10.763v10.427c0 5.945-4.818 10.764-10.763 10.764z" fill="#e07f84"/></g><path d="m495.672 225.339c11.754-8.498 11.754-26.005 0-34.503l-62.052-44.866c4.633 7.395 7.308 16.03 7.308 25.267l.52 32.934 29.277 21.168c7.445 5.383 17.503 5.383 24.947 0z" fill="#db636e"/></g><g><path d="m220.94 271.856c3.289 0 6.307-2.182 7.225-5.507 1.102-3.992-1.241-8.123-5.234-9.224-17.212-4.751-37.374-7.704-59.926-8.775-4.152-.219-7.65 2.997-7.847 7.134-.196 4.137 2.998 7.651 7.135 7.847 38.752 1.843 55.361 8.525 58.647 8.525z"/><path d="m162.293 303.998c38.751 1.842 55.361 8.523 58.647 8.523 3.289 0 6.307-2.182 7.225-5.507 1.102-3.993-1.241-8.123-5.234-9.224-17.213-4.751-37.375-7.703-59.926-8.774-4.152-.201-7.65 2.998-7.847 7.134-.197 4.139 2.997 7.652 7.135 7.848z"/><path d="m162.293 348.812c38.752 1.842 55.361 8.524 58.647 8.524 3.289 0 6.307-2.182 7.225-5.507 1.102-3.992-1.241-8.123-5.234-9.224-17.212-4.751-37.374-7.704-59.926-8.775-4.152-.198-7.65 2.998-7.847 7.134-.197 4.138 2.997 7.651 7.135 7.848z"/><path d="m290.679 271.856c3.525 0 19.712-6.673 58.647-8.524 4.137-.196 7.332-3.71 7.135-7.847s-3.709-7.332-7.847-7.134c-22.552 1.071-42.714 4.024-59.926 8.775-3.992 1.102-6.336 5.232-5.234 9.224.918 3.325 3.936 5.506 7.225 5.506z"/><path d="m290.679 312.521c3.525 0 19.712-6.672 58.647-8.523 4.137-.196 7.332-3.71 7.135-7.847s-3.709-7.348-7.847-7.134c-22.551 1.071-42.713 4.023-59.926 8.774-3.993 1.102-6.336 5.231-5.234 9.224.918 3.325 3.935 5.506 7.225 5.506z"/><path d="m290.679 357.336c2.981 0 7.898-2.649 27.675-5.58 4.097-.606 6.926-4.421 6.319-8.517-.607-4.097-4.413-6.934-8.518-6.32-9.835 1.457-19.077 3.37-27.468 5.686-3.992 1.102-6.336 5.232-5.234 9.224.919 3.326 3.937 5.507 7.226 5.507z"/><path d="m500.067 184.758-38.893-28.121v-68.693c7.7-2.145 13.373-9.204 13.373-17.578v-10.427c0-10.07-8.192-18.263-18.263-18.263h-63.169c-10.07 0-18.263 8.193-18.263 18.263v10.427c0 8.374 5.673 15.433 13.373 17.578v15.949l-119.437-86.36c-7.649-5.528-17.927-5.528-25.576 0l-231.278 167.225c-15.912 11.505-15.911 35.154 0 46.659 10.087 7.293 23.646 7.295 33.736 0l10.31-7.455v224.668h-1.936c-13.78 0-24.991 11.211-24.991 24.991 0 13.781 11.211 24.992 24.991 24.992h403.914c13.78 0 24.991-11.211 24.991-24.992 0-13.78-11.211-24.991-24.991-24.991h-1.936v-33.634c0-4.142-3.358-7.5-7.5-7.5s-7.5 3.357-7.5 7.5v33.634h-370.043v-235.513l181.022-130.887c2.391-1.728 5.607-1.729 7.999.001l181.022 130.886v166.243c0 4.142 3.358 7.5 7.5 7.5s7.5-3.357 7.5-7.5v-155.397l10.31 7.455c10.089 7.295 23.646 7.296 33.736-.001 15.911-11.505 15.909-35.155-.001-46.659zm-110.215-124.819c0-1.8 1.464-3.264 3.263-3.264h63.169c1.8 0 3.263 1.464 3.263 3.264v10.427c0 1.8-1.464 3.264-3.263 3.264h-63.169c-1.8 0-3.263-1.464-3.263-3.264zm56.322 28.69v57.163l-42.949-31.054v-26.109zm11.783 375c5.509 0 9.992 4.482 9.992 9.992s-4.482 9.993-9.992 9.993h-403.914c-5.509 0-9.992-4.482-9.992-9.993 0-5.509 4.483-9.992 9.992-9.992zm33.322-244.367c-4.833 3.495-11.327 3.495-16.159 0l-206.331-149.185c-7.65-5.532-17.929-5.529-25.577-.001l-206.331 149.186c-4.832 3.497-11.326 3.494-16.159.001-7.62-5.51-7.622-16.839 0-22.348l231.278-167.226c2.392-1.729 5.607-1.731 8 0l231.279 167.225c7.621 5.51 7.619 16.839 0 22.348z"/><path d="m129.278 264.17c-4.142 0-7.5 3.357-7.5 7.5v111.427c0 10.339 8.513 18.488 18.527 18.288 18.367-.257 64.663.712 97.711 15.287 11.699 5.159 24.933 4.843 36.138-.075 32.553-14.292 78.151-15.418 96.256-15.222.069 0 .137.001.206.001 10.79 0 19.605-8.719 19.605-19.595v-162.738c0-9.935-8.075-18.14-18.001-18.289-22.394-.332-78.383 1.103-114.52 21.683-1.043.595-2.32.616-3.401 0-36.137-20.581-92.127-22.017-114.521-21.683-9.925.149-18 8.354-18 18.289v17.257c0 4.142 3.358 7.5 7.5 7.5s7.5-3.357 7.5-7.5v-17.257c0-1.788 1.448-3.264 3.227-3.292 21.168-.32 73.945.968 106.872 19.721.529.301 1.073.565 1.623.809v168.204c-1.51-.391-2.993-.902-4.432-1.536-34.462-15.199-79.934-16.896-103.975-16.561-.016 0-.032 0-.049 0-1.791 0-3.267-1.462-3.267-3.291v-111.427c.001-4.142-3.357-7.5-7.499-7.5zm134.222-27.889c.551-.245 1.095-.508 1.623-.809 32.928-18.754 85.714-20.046 106.871-19.721 1.78.027 3.228 1.504 3.228 3.292v162.739c0 2.566-2.087 4.595-4.611 4.595-.016 0-.032 0-.048-.001-23.689-.229-68.486 1.582-102.438 16.487-1.507.661-3.055 1.19-4.625 1.596z"/></g></g></svg>