<svg id="Capa_1" enable-background="new 0 0 512 512" height="512" viewBox="0 0 512 512" width="512" xmlns="http://www.w3.org/2000/svg"><g><g><g><g><g><g><path d="m386.922 504.5h-319.709c-15.637 0-28.314-12.676-28.314-28.314v-440.372c.001-15.638 12.677-28.314 28.314-28.314h319.709c15.637 0 28.314 12.676 28.314 28.314v440.373c0 15.637-12.676 28.313-28.314 28.313z" fill="#88a8d8"/></g><path d="m386.922 7.5h-65.328c15.637 0 28.314 12.676 28.314 28.314v440.373c0 15.637-12.676 28.314-28.314 28.314h65.328c15.637 0 28.314-12.676 28.314-28.314v-440.373c0-15.638-12.676-28.314-28.314-28.314z" fill="#7296d1"/><path d="m101.513 7.5h-34.3c-15.637 0-28.313 12.677-28.313 28.314v440.373c0 15.637 12.676 28.313 28.314 28.313h34.3v-497z" fill="#e5eaf4"/></g><g fill="#808080"><path d="m50.312 103.435h-22.825c-10.261 0-18.579-8.318-18.579-18.579 0-10.261 8.318-18.579 18.579-18.579h22.825c10.261 0 18.579 8.318 18.579 18.579.001 10.261-8.318 18.579-18.579 18.579z"/><path d="m50.312 189.007h-22.825c-10.261 0-18.579-8.318-18.579-18.579 0-10.261 8.318-18.579 18.579-18.579h22.825c10.261 0 18.579 8.318 18.579 18.579.001 10.261-8.318 18.579-18.579 18.579z"/><path d="m50.312 274.579h-22.825c-10.261 0-18.579-8.318-18.579-18.579 0-10.261 8.318-18.579 18.579-18.579h22.825c10.261 0 18.579 8.318 18.579 18.579.001 10.261-8.318 18.579-18.579 18.579z"/><path d="m50.312 360.151h-22.825c-10.261 0-18.579-8.318-18.579-18.579 0-10.261 8.318-18.579 18.579-18.579h22.825c10.261 0 18.579 8.318 18.579 18.579.001 10.261-8.318 18.579-18.579 18.579z"/><path d="m50.312 445.724h-22.825c-10.261 0-18.579-8.318-18.579-18.579 0-10.261 8.318-18.579 18.579-18.579h22.825c10.261 0 18.579 8.318 18.579 18.579.001 10.26-8.318 18.579-18.579 18.579z"/></g></g></g><g><g><path d="m499.513 461.241-81.902-151.572c-1.476-2.731-2.248-5.786-2.248-8.89v-48.697h-65.486v48.697c0 3.104-.773 6.159-2.248 8.89l-81.902 151.572c-10.556 19.535 3.59 43.259 25.795 43.259h182.197c22.204 0 36.35-23.724 25.794-43.259z" fill="#fff"/></g><path d="m499.513 461.241-81.902-151.572c-1.476-2.731-2.248-5.786-2.248-8.89v-48.697h-65.328v48.697c0 3.104.773 6.159 2.248 8.89l81.902 151.572c10.556 19.535-3.591 43.259-25.795 43.259h65.328c22.205 0 36.351-23.724 25.795-43.259z" fill="#edeaed"/><g><path d="m499.513 461.241-32.484-60.116c-12.617-1.974-14.029-12.591-29.206-12.591-16.732 0-16.732 12.905-33.464 12.905-16.73 0-16.73-12.905-33.459-12.905-16.73 0-16.73 12.905-33.46 12.905-16.379 0-16.732-12.363-32.44-12.881l-39.274 72.682c-10.556 19.535 3.59 43.259 25.795 43.259h182.196c22.206.001 36.352-23.723 25.796-43.258z" fill="#f4e066"/></g><path d="m408.39 504.5h65.328c22.205 0 36.351-23.724 25.795-43.259l-32.484-60.116c-12.617-1.974-14.029-12.591-29.206-12.591-16.732 0-16.732 12.905-33.464 12.905-.9 0-1.742-.044-2.55-.115l32.376 59.917c10.556 19.535-3.59 43.259-25.795 43.259z" fill="#efd133"/><path d="m418.764 274.16h-72.289c-11.17 0-20.225-9.055-20.225-20.225 0-11.17 9.055-20.225 20.225-20.225h72.289c11.17 0 20.225 9.055 20.225 20.225 0 11.17-9.055 20.225-20.225 20.225z" fill="#d6e0ef"/></g><g><path d="m148.957 183.154v-86.492c0-7.042 5.708-12.75 12.75-12.75h190.586c7.042 0 12.75 5.708 12.75 12.75v86.492c0 7.042-5.708 12.75-12.75 12.75h-190.586c-7.041-.001-12.75-5.709-12.75-12.75z" fill="#f4f4f4"/><path d="m352.293 83.912h-2.385v111.991h2.385c7.042 0 12.75-5.708 12.75-12.75v-86.491c0-7.042-5.708-12.75-12.75-12.75z" fill="#edeaed"/></g></g><g><path d="m190.733 129.111h132.534c4.143 0 7.5-3.358 7.5-7.5s-3.357-7.5-7.5-7.5h-132.534c-4.142 0-7.5 3.358-7.5 7.5s3.358 7.5 7.5 7.5z"/><path d="m190.733 163.297h132.534c4.143 0 7.5-3.358 7.5-7.5s-3.357-7.5-7.5-7.5h-132.534c-4.142 0-7.5 3.358-7.5 7.5s3.358 7.5 7.5 7.5z"/><path d="m148.957 149.938c-4.142 0-7.5 3.358-7.5 7.5v25.716c0 11.166 9.084 20.25 20.25 20.25h190.586c11.166 0 20.25-9.084 20.25-20.25v-86.492c0-11.166-9.084-20.25-20.25-20.25h-190.586c-11.166 0-20.25 9.084-20.25 20.25v25.716c0 4.142 3.358 7.5 7.5 7.5s7.5-3.358 7.5-7.5v-25.716c0-2.895 2.355-5.25 5.25-5.25h190.586c2.895 0 5.25 2.355 5.25 5.25v86.492c0 2.895-2.355 5.25-5.25 5.25h-190.586c-2.895 0-5.25-2.355-5.25-5.25v-25.716c0-4.143-3.358-7.5-7.5-7.5z"/><path d="m241.994 497h-132.981v-482h277.909c11.477 0 20.813 9.337 20.813 20.813v162.837c0 4.142 3.357 7.5 7.5 7.5s7.5-3.358 7.5-7.5v-162.837c.001-19.747-16.065-35.813-35.813-35.813h-319.709c-19.747 0-35.813 16.066-35.813 35.813v22.963h-3.913c-14.38 0-26.079 11.699-26.079 26.08 0 14.38 11.699 26.079 26.079 26.079h3.913v33.414h-3.913c-14.38 0-26.079 11.699-26.079 26.079s11.699 26.08 26.079 26.08h3.913v33.414h-3.913c-14.38 0-26.079 11.699-26.079 26.079s11.699 26.079 26.079 26.079h3.913v33.414h-3.913c-14.38 0-26.079 11.699-26.079 26.08 0 14.38 11.699 26.079 26.079 26.079h3.913v33.414h-3.913c-14.38 0-26.079 11.699-26.079 26.079s11.699 26.08 26.079 26.08h3.913v22.963c0 19.745 16.066 35.811 35.813 35.811h174.781c4.142 0 7.5-3.358 7.5-7.5s-3.358-7.5-7.5-7.5zm-214.507-401.065c-6.109 0-11.079-4.97-11.079-11.079s4.97-11.08 11.079-11.08h22.825c6.109 0 11.079 4.97 11.079 11.08 0 6.109-4.97 11.079-11.079 11.079zm0 85.572c-6.109 0-11.079-4.97-11.079-11.08 0-6.109 4.97-11.079 11.079-11.079h22.825c6.109 0 11.079 4.97 11.079 11.079s-4.97 11.08-11.079 11.08zm0 85.572c-6.109 0-11.079-4.97-11.079-11.079s4.97-11.079 11.079-11.079h22.825c6.109 0 11.079 4.97 11.079 11.079s-4.97 11.079-11.079 11.079zm0 85.572c-6.109 0-11.079-4.97-11.079-11.079s4.97-11.08 11.079-11.08h22.825c6.109 0 11.079 4.97 11.079 11.08 0 6.109-4.97 11.079-11.079 11.079zm0 85.573c-6.109 0-11.079-4.97-11.079-11.08 0-6.109 4.97-11.079 11.079-11.079h22.825c6.109 0 11.079 4.97 11.079 11.079s-4.97 11.08-11.079 11.08zm66.526 58.776h-26.8c-11.477 0-20.813-9.337-20.813-20.813v-22.963h3.913c14.38 0 26.079-11.699 26.079-26.08 0-14.38-11.699-26.079-26.079-26.079h-3.913v-33.414h3.913c14.38 0 26.079-11.699 26.079-26.079s-11.699-26.08-26.079-26.08h-3.913v-33.414h3.913c14.38 0 26.079-11.699 26.079-26.079s-11.699-26.079-26.079-26.079h-3.913v-33.414h3.913c14.38 0 26.079-11.699 26.079-26.08 0-14.38-11.699-26.079-26.079-26.079h-3.913v-33.414h3.913c14.38 0 26.079-11.699 26.079-26.079s-11.699-26.08-26.079-26.08h-3.913v-22.961c0-11.476 9.337-20.813 20.813-20.813h26.8z"/><path d="m506.112 457.676-81.903-151.573c-.88-1.629-1.346-3.47-1.346-5.324v-19.425c13.35-1.987 23.626-13.525 23.626-27.42 0-15.288-12.438-27.725-27.725-27.725h-72.289c-15.287 0-27.725 12.438-27.725 27.725 0 13.895 10.276 25.432 23.626 27.42v19.425c0 1.854-.466 3.694-1.347 5.324l-81.902 151.572c-13.247 24.518 4.482 54.325 32.394 54.325h182.197c27.867 0 45.661-29.769 32.394-54.324zm-172.362-203.741c0-7.017 5.708-12.725 12.725-12.725h72.289c7.017 0 12.725 5.708 12.725 12.725s-5.708 12.725-12.725 12.725h-72.289c-7.017 0-12.725-5.708-12.725-12.725zm20.477 59.3c2.061-3.813 3.149-8.12 3.149-12.456v-19.12h50.486v19.12c0 4.335 1.089 8.642 3.149 12.455l37.587 69.561c-2.954-1.061-6.457-1.762-10.776-1.762-10.923 0-16.684 4.443-21.313 8.014-3.818 2.945-6.341 4.891-12.15 4.891s-8.33-1.946-12.148-4.891c-4.629-3.57-10.39-8.014-21.311-8.014-10.922 0-16.683 4.443-21.312 8.014-3.818 2.945-6.341 4.891-12.149 4.891-5.811 0-8.336-1.945-12.157-4.89-2.457-1.893-5.251-4.041-8.977-5.637zm119.491 183.765h-182.197c-16.515 0-27.06-17.641-19.196-32.193l36.784-68.074c2.612.808 4.531 2.282 7.019 4.199 4.631 3.567 10.394 8.007 21.312 8.007 10.922 0 16.683-4.443 21.312-8.014 3.818-2.945 6.341-4.891 12.149-4.891s8.33 1.946 12.148 4.891c4.629 3.57 10.39 8.014 21.311 8.014 10.922 0 16.683-4.443 21.312-8.014 3.819-2.946 6.343-4.892 12.152-4.892s8.333 1.946 12.152 4.891c3.04 2.345 6.692 5.157 12.067 6.749l30.872 57.133c7.864 14.555-2.688 32.194-19.197 32.194z"/></g></g></svg>