<svg id="Capa_1" enable-background="new 0 0 512 512" height="512" viewBox="0 0 512 512" width="512" xmlns="http://www.w3.org/2000/svg"><g><g><g><g><path d="m483.055 478.682h-433.936c-11.844 0-21.445-9.601-21.445-21.445v-367.811c0-11.844 9.601-21.445 21.445-21.445h433.936c11.844 0 21.445 9.601 21.445 21.445v367.811c0 11.843-9.601 21.445-21.445 21.445z" fill="#f7f4f7"/><path d="m70.881 385.897v-265.856c0-4.889 3.963-8.852 8.852-8.852h372.707c4.889 0 8.852 3.963 8.852 8.852v265.857c0 4.889-3.963 8.852-8.852 8.852h-372.706c-4.889 0-8.853-3.964-8.853-8.853z" fill="#bed8fb"/></g><g><path d="m483.055 67.981h-65.552c11.844 0 21.445 9.601 21.445 21.445v367.811c0 11.844-9.601 21.445-21.445 21.445h65.552c11.844 0 21.445-9.601 21.445-21.445v-367.811c0-11.844-9.601-21.445-21.445-21.445z" fill="#e0dde0"/><path d="m452.441 111.188h-13.493v283.562h13.493c4.889 0 8.852-3.963 8.852-8.852v-265.857c0-4.889-3.963-8.853-8.852-8.853z" fill="#9dc6fb"/></g></g><g><g><g><g fill="#ffddce"><path d="m316.55 244.724-.023-32.256h-17.577c-7.31 0-13.236 5.926-13.236 13.236v7.915c0 7.31 5.92 13.236 13.23 13.236h17.702c-.046-.708-.08-1.418-.096-2.131z"/><path d="m410.453 212.468h-17.577v32.256h.006c-.015.713-.05 1.423-.096 2.132h17.672c7.31 0 13.23-5.926 13.23-13.236v-7.915c.001-7.311-5.925-13.237-13.235-13.237z"/></g><g><g><g><path d="m354.584 363.173 43.542-59.262c-3.345-.644-7.28-1.401-9.572-1.842-6.281-3.994-10.084-10.921-10.084-18.365v-27.997h-47.537v27.997c0 7.443-3.804 14.37-10.084 18.365l-9.632 1.854z" fill="#ffece4"/><path d="m401.735 304.605c-3.511-.676-9.966-1.918-13.18-2.537-2.23-.429-4.222-1.441-5.837-2.856l-28.081 38.218-27.972-38.216c-1.63 1.424-3.625 2.433-5.817 2.853l-13.181 2.537c-34.572 6.654-59.558 36.906-59.558 72.113v18.031h203.96c5.094 0 9.223-4.129 9.223-9.223v-8.809c.001-35.204-24.985-65.457-59.557-72.111z" fill="#db636e"/><path d="m461.293 385.527v-8.809c0-20.48-8.466-39.274-22.345-52.731v70.762h13.122c5.093.001 9.223-4.128 9.223-9.222z" fill="#d84a54"/></g></g></g><path d="m400.268 189.332c-1.995-8.879-6.63-17.035-13.62-23.053-7.496-6.454-18.032-12.088-31.951-12.243-13.918.155-24.455 5.789-31.951 12.243-6.989 6.018-11.625 14.174-13.62 23.053l.036 48.96c.263 12.264 4.273 24.069 13.584 32.086 7.496 6.454 18.032 12.088 31.951 12.243 13.918-.155 24.455-5.789 31.951-12.243 9.311-8.017 13.364-19.821 13.627-32.086h-.007z" fill="#ffece4"/><path d="m298.95 212.468h15.567c5.939 0 10.754-4.815 10.754-10.754v-15.552c0-4.866 3.908-8.891 8.774-8.905 3.868-.011 7.421.48 10.45 1.146 6.726 1.479 13.689 1.479 20.415 0 3.029-.666 6.582-1.158 10.449-1.146 4.866.014 8.774 4.039 8.774 8.905v15.552c0 5.939 4.815 10.754 10.754 10.754h15.567c1.339 0 2.63.203 3.848.573v-27.857c0-21.152-17.147-38.299-38.299-38.299h-42.602c-21.152 0-38.299 17.147-38.299 38.299v27.857c1.218-.37 2.509-.573 3.848-.573z" fill="#89808c"/><path d="m400.268 238.292v-48.96c-1.995-8.879-6.63-17.035-13.62-23.053-7.496-6.454-18.032-12.088-31.951-12.243-2.99.033-5.814.332-8.495.825 1.797 4.71 2.733 9.769 2.733 14.897v68.534h.007c-.263 12.264-4.316 24.069-13.627 32.086-1.897 1.634-3.992 3.214-6.284 4.667 6.764 4.287 15.271 7.46 25.666 7.576 13.918-.155 24.455-5.789 31.951-12.243 9.311-8.017 13.364-19.821 13.627-32.086z" fill="#ffddce"/><path d="m376.002 146.884h-33.92c4.495 6.678 6.854 14.692 6.854 22.873v9.392c5.319.65 10.718.411 15.973-.745 3.029-.666 6.582-1.158 10.449-1.146 4.866.014 8.774 4.039 8.774 8.905v15.552c0 5.939 4.815 10.754 10.754 10.754h15.567c1.339 0 2.63.203 3.848.573v-27.857c0-21.153-17.147-38.301-38.299-38.301z" fill="#756e78"/></g><g><path d="m334.163 394.75h41.028l-10.179-42.137h-20.67z" fill="#756e78"/><g><path d="m327.698 331.502 26.979-11.578-31.292-24.328c-1.374-1.068-3.204-1.344-4.832-.728l-10.317 3.906c-2.68 1.014-3.957 4.071-2.797 6.691l9.276 20.939c2.201 4.968 7.989 7.241 12.983 5.098z" fill="#d84a54"/></g><g><path d="m381.682 331.502-26.979-11.578 31.292-24.328c1.374-1.068 3.204-1.344 4.832-.728l10.317 3.906c2.68 1.014 3.957 4.071 2.797 6.691l-9.276 20.939c-2.201 4.968-7.99 7.241-12.983 5.098z" fill="#d84a54"/></g></g><path d="m354.703 319.924-24.481 10.169 14.12 22.52h20.67l14.123-22.529z" fill="#89808c"/></g></g><g><path d="m30.708 33.319h169.78c12.817 0 23.208 10.391 23.208 23.208v113.577c0 12.817-10.391 23.208-23.208 23.208-4.387 0-7.943 3.556-7.943 7.943v32.262c0 5.86-7.362 8.47-11.053 3.918l-33.399-41.184c-1.508-1.86-3.775-2.94-6.169-2.94h-111.216c-12.817 0-23.208-10.391-23.208-23.208v-113.576c0-12.818 10.391-23.208 23.208-23.208z" fill="#f4e066"/><path d="m200.488 33.319h-65.359c12.817 0 23.208 10.391 23.208 23.208v113.577c0 12.817-10.391 23.208-23.208 23.208h6.795c2.394 0 4.661 1.08 6.169 2.94l33.399 41.184c3.691 4.551 11.053 1.941 11.053-3.918v-32.262c0-4.387 3.556-7.943 7.943-7.943 12.817 0 23.208-10.391 23.208-23.208v-113.578c0-12.818-10.391-23.208-23.208-23.208z" fill="#efd133"/><g><path d="m151.188 149.986h-71.18c-5.502 0-9.963-4.46-9.963-9.963v-34.957h91.106v34.957c0 5.503-4.46 9.963-9.963 9.963z" fill="#b2aab5"/><path d="m107.768 78.201-62.255 18.656c-2.342.702-2.342 4.019 0 4.721l62.256 18.655c5.108 1.53 10.552 1.53 15.659 0l62.256-18.655c2.342-.702 2.342-4.019 0-4.721l-62.256-18.655c-5.108-1.531-10.552-1.531-15.66-.001z" fill="#89808c"/></g></g></g><g><path d="m119.318 454.311c4.142 0 7.5-3.358 7.5-7.5v-1.621h334.475c4.142 0 7.5-3.358 7.5-7.5s-3.358-7.5-7.5-7.5h-334.475v-1.622c0-4.142-3.358-7.5-7.5-7.5s-7.5 3.358-7.5 7.5v1.622h-40.937c-4.142 0-7.5 3.358-7.5 7.5s3.358 7.5 7.5 7.5h40.937v1.621c0 4.142 3.358 7.5 7.5 7.5z"/><path d="m63.381 200.812v185.085c0 9.017 7.336 16.353 16.353 16.353h372.707c9.017 0 16.352-7.336 16.352-16.353v-.37-8.809-256.677c0-9.017-7.335-16.353-16.352-16.353h-221.245v-47.161c0-16.933-13.775-30.708-30.708-30.708h-169.78c-16.933 0-30.708 13.775-30.708 30.708v113.577c0 16.933 13.775 30.708 30.708 30.708zm264.878 186.438h-72.649v-10.531c0-14.915 5.132-29.541 14.451-41.183 8.016-10.015 18.864-17.481 30.991-21.458l6.806 15.364c2.869 6.475 9.287 10.354 15.985 10.354 1.13 0 2.268-.112 3.398-.339l9.069 14.464zm-3.519-62.64c-1.213.52-2.634-.038-3.168-1.244l-8.203-18.516 6.523-2.47 20.147 15.664zm50.64-154.852c-.051 0-.101 0-.151 0-3.929 0-7.942.444-11.931 1.321-5.703 1.255-11.488 1.255-17.193 0-4.041-.888-8.104-1.329-12.083-1.321-8.961.026-16.252 7.385-16.252 16.405v15.551c0 1.794-1.459 3.254-3.253 3.254-4.636 0-8.286 0-11.916 0v-19.784c0-16.983 13.816-30.799 30.799-30.799h42.602c16.982 0 30.799 13.816 30.799 30.799v19.784h-11.916c-1.794 0-3.253-1.459-3.253-3.254v-15.551c0-9.02-7.29-16.38-16.252-16.405zm-42.609 31.956v-15.551c0-.76.593-1.403 1.296-1.405h.108c2.847 0 5.776.327 8.709.972 7.841 1.724 15.794 1.724 23.636 0 2.97-.653 5.963-.968 8.817-.972.703.002 1.296.646 1.296 1.405v15.551c0 9.348 7.066 17.066 16.136 18.121-.163 14.672.478 18.786-.672 25.446-.016.073-.027.146-.04.22-1.168 6.567-4.001 13.768-10.301 19.193-16.037 13.809-37.914 13.949-54.114 0-6.312-5.435-9.129-12.69-10.281-19.297-.004-.023-.007-.046-.012-.068-1.122-6.501-.518-9.805-.699-25.495 9.062-1.063 16.121-8.777 16.121-18.12zm40.807 94.036-18.888 14.684-18.871-14.671c1.186-2.622 1.964-5.415 2.339-8.278 10.587 3.359 21.531 3.666 33.086-.002.375 2.859 1.151 5.647 2.334 8.267zm-29.887 91.5 6.555-27.137h8.862l6.555 27.137zm17.17-42.137h-12.37l-7.101-11.326 13.299-5.708 13.277 5.698zm28.626-42.733 6.523 2.47-8.203 18.516c-.534 1.207-1.954 1.766-3.167 1.244l-15.299-6.566zm64.306 83.147c0 .95-.773 1.723-1.723 1.723h-70.975l-8.051-33.329 9.07-14.468c1.139.231 2.285.343 3.424.343 6.697 0 13.116-3.88 15.984-10.354l6.809-15.37c12.132 3.974 22.986 11.441 31.006 21.457 9.323 11.644 14.457 26.271 14.457 41.19v8.808zm-222.597-215.423v-51.416h221.245c.746 0 1.352.607 1.352 1.353v209.78c-.884-1.244-1.791-2.473-2.747-3.667-10.253-12.806-24.281-22.217-39.926-26.923-1.296-3.623-4.07-6.241-7.32-7.471l-10.316-3.905c-2.267-.859-4.715-.993-7.035-.498-.71-2.673-.405-4.413-.478-7.041 1.916-1.298 3.778-2.711 5.572-4.255 6.461-5.563 11.136-13.015 13.77-21.706h5.147c11.431 0 20.73-9.302 20.73-20.736v-7.916c0-7.245-3.742-13.625-9.388-17.334v-23.186c0-25.254-20.545-45.799-45.799-45.799h-42.603c-25.253 0-45.799 20.545-45.799 45.799v23.186c-5.646 3.709-9.388 10.089-9.388 17.334v7.916c0 11.434 9.3 20.736 20.73 20.736h5.172c2.626 8.702 7.29 16.154 13.737 21.706 1.796 1.547 3.661 2.961 5.58 4.26-.073 2.627.232 4.367-.479 7.04-2.326-.501-4.781-.369-7.056.492l-10.317 3.905c-3.196 1.21-5.785 3.712-7.104 6.865-.084.201-.147.409-.22.613-15.639 4.71-29.66 14.122-39.908 26.925-11.44 14.292-17.74 32.247-17.74 50.556v10.531h-160.874c-.746 0-1.353-.607-1.353-1.353v-185.083h63.542c.134 0 .26.06.344.164l33.399 41.184c3.728 4.597 9.719 6.248 15.242 4.29 5.55-1.967 9.136-7.043 9.136-12.932v-32.262c0-.245.199-.443.443-.443 16.933-.001 30.709-13.777 30.709-30.709zm176.572 49.864c2.184.015 3.174-.11 4.351.249 2.352.716 4.07 2.904 4.07 5.487v7.916c0 3.163-2.57 5.736-5.73 5.736h-2.725c.084-2.364.005 4.021.034-19.388zm-106.064 19.387h-2.76c-3.16 0-5.73-2.573-5.73-5.736v-7.916c0-2.583 1.717-4.771 4.07-5.487 1.381-.42 2.661-.176 4.366-.249.052 22.842-.034 16.888.054 19.388zm-286.704-69.251v-113.577c0-8.662 7.046-15.708 15.708-15.708h169.78c8.662 0 15.708 7.046 15.708 15.708v113.577c0 8.662-7.046 15.708-15.708 15.708-8.515 0-15.443 6.928-15.443 15.443v28.654l-31.126-38.382c-2.946-3.632-7.318-5.716-11.995-5.716h-111.216c-8.662.001-15.708-7.046-15.708-15.707z"/><path d="m483.055 60.481h-224.283c-4.142 0-7.5 3.358-7.5 7.5s3.358 7.5 7.5 7.5h224.283c7.689 0 13.945 6.256 13.945 13.945v367.811c0 7.689-6.256 13.944-13.945 13.944h-433.936c-7.689 0-13.945-6.255-13.945-13.944v-228.86c0-4.142-3.358-7.5-7.5-7.5s-7.5 3.358-7.5 7.5v228.86c0 15.96 12.984 28.944 28.945 28.944h433.936c15.96 0 28.945-12.984 28.945-28.944v-367.811c0-15.96-12.985-28.945-28.945-28.945z"/><path d="m43.36 108.762 19.185 5.749v25.513c0 9.629 7.834 17.463 17.463 17.463h71.181c9.629 0 17.462-7.834 17.462-17.463v-25.513l11.166-3.346v8.106c0 4.142 3.358 7.5 7.5 7.5s7.5-3.358 7.5-7.5v-18.48c.08-.514.124-1.039.124-1.574 0-4.437-2.855-8.272-7.104-9.545l-62.257-18.655c-6.53-1.956-13.435-1.956-19.964 0l-62.255 18.655c-4.25 1.273-7.105 5.108-7.105 9.545s2.855 8.272 7.104 9.545zm110.291 31.262c0 1.358-1.104 2.463-2.462 2.463h-71.181c-1.358 0-2.463-1.105-2.463-2.463v-21.018l28.071 8.412c3.265.978 6.623 1.467 9.981 1.467 3.359 0 6.717-.489 9.983-1.467l28.07-8.412v21.018zm-43.73-54.638c3.714-1.113 7.641-1.113 11.354 0l46.157 13.831-8.47 2.538c-.022.007-.045.013-.067.02l-37.619 11.273c-3.714 1.113-7.64 1.114-11.354 0l-37.622-11.273c-.021-.007-.043-.013-.065-.019l-8.471-2.539z"/></g></g></svg>