<svg id="Capa_1" enable-background="new 0 0 512 512" height="512" viewBox="0 0 512 512" width="512" xmlns="http://www.w3.org/2000/svg"><g><g><g><g><g><g><g><path d="m120.976 483.505c-2.209 0-4.455-.361-6.66-1.124-10.645-3.678-16.293-15.289-12.615-25.933l49.621-143.613c3.678-10.645 15.291-16.297 25.933-12.615 10.645 3.678 16.293 15.289 12.615 25.933l-49.621 143.613c-2.916 8.44-10.82 13.739-19.273 13.739z" fill="#b58c8c"/></g><g><path d="m355.637 483.505c2.209 0 4.455-.361 6.66-1.124 10.645-3.678 16.293-15.289 12.615-25.933l-49.621-143.613c-3.678-10.645-15.291-16.297-25.933-12.615-10.645 3.678-16.293 15.289-12.615 25.933l49.621 143.613c2.916 8.44 10.819 13.739 19.273 13.739z" fill="#b58c8c"/></g></g><path d="m441.982 350.461h-407.351c-14.983 0-27.13-12.146-27.13-27.13v-267.711c0-14.983 12.146-27.13 27.13-27.13h407.351c14.983 0 27.13 12.146 27.13 27.13v267.711c0 14.983-12.147 27.13-27.13 27.13z" fill="#fcf7e0"/><path d="m34.631 350.46h250.989v-88.559s-112.837-63.797-278.119-63.797v125.226c0 14.984 12.146 27.13 27.13 27.13z" fill="#c9e5ad"/><path d="m469.112 261.852v61.478c0 14.983-12.146 27.13-27.13 27.13h-407.351c-14.984 0-27.13-12.146-27.13-27.13v-26.213c214.136-8.121 187.605-77.32 323.327-77.32 63.877 0 109.268 21.341 138.284 42.055z" fill="#b3e59f"/><path d="m441.982 28.49h-65.606c14.983 0 27.13 12.147 27.13 27.13v267.711c0 14.984-12.147 27.13-27.13 27.13h65.606c14.984 0 27.13-12.146 27.13-27.13v-267.711c0-14.984-12.147-27.13-27.13-27.13z" fill="#f7ecad"/><path d="m403.506 230.003v93.328c0 14.981-12.143 27.126-27.123 27.13h65.598c14.984 0 27.13-12.146 27.13-27.13v-61.478c-16.464-11.755-38.209-23.707-65.605-31.85z" fill="#95d6a4"/></g></g><g><path d="m260.249 343.049c12.422-3.886 12.363-12.464 13.701-21.201 1.224-7.999 6.102-15.001 13.222-18.844 22.964-12.394 46.396-.963 46.396-.963s15.884 32.554-10.085 58.523c-16.314 16.314-39.246 18.806-57.871 10.183-11.657-5.397-19.853-16.537-23.682-22.656-1.05-1.677.253-3.831 2.226-3.672 4.163.336 10.453.395 16.093-1.37z" fill="#ffddce"/><path d="m499.096 136.513c6.862 6.862 7.3 17.846 1.004 25.232l-96.107 112.763c-13.184 15.469-29.149 28.33-47.068 37.92l-15.311 8.194c-2.966 1.587-6.621 1.046-8.999-1.333l-16.294-16.294c-2.379-2.379-2.92-6.034-1.333-8.999l8.194-15.311c9.59-17.92 22.452-33.885 37.92-47.068l112.763-96.107c7.385-6.297 18.369-5.86 25.231 1.003z" fill="#e8ae4d"/><g><path d="m387.09 291.589c-9.221 8.041-19.333 15.041-30.165 20.838l-15.311 8.194c-2.966 1.587-6.621 1.046-8.999-1.333l-16.294-16.294c-2.379-2.379-2.92-6.034-1.333-8.999l8.194-15.311c5.797-10.832 12.797-20.944 20.838-30.165z" fill="#f7f4f7"/></g></g></g><circle cx="358.437" cy="115.95" fill="#f4e066" r="31.336"/></g><path d="m296.042 342.339c-3.988-24.595-23.154-12.995-23.268-12.925-1.213 5.819-3.764 10.895-12.525 13.636-5.641 1.765-11.93 1.706-16.094 1.37-1.972-.159-3.276 1.994-2.226 3.671 3.829 6.119 12.025 17.259 23.682 22.656 18.625 8.623 41.557 6.131 57.871-10.183.001 0-23.439 6.444-27.44-18.225z" fill="#e07f84"/><path d="m499.096 136.512c-6.862-6.862-17.846-7.3-25.232-1.004l-70.358 59.966v79.592c.161-.187.327-.37.488-.559l96.107-112.763c6.295-7.386 5.858-18.369-1.005-25.232z" fill="#e49542"/><g><path d="m90.732 142.864c-6.573-7.12-15.905-11.339-26.059-11.339-4.143 0-7.501 3.358-7.501 7.501s3.358 7.501 7.501 7.501c8.422 0 15.865 5.025 19.014 12.818 2.402 6.551 11.695 6.537 14.088.002 3.151-7.794 10.595-12.82 19.017-12.82 4.143 0 7.501-3.358 7.501-7.501s-3.358-7.501-7.501-7.501c-10.153 0-19.486 4.22-26.06 11.339z"/><path d="m190.08 91.786c-6.574-7.12-15.907-11.339-26.06-11.339-4.143 0-7.501 3.358-7.501 7.501s3.358 7.501 7.501 7.501c8.426 0 15.873 5.03 19.02 12.828 2.414 6.55 11.691 6.519 14.088-.02 3.152-7.788 10.593-12.809 19.012-12.809 4.143 0 7.501-3.358 7.501-7.501s-3.358-7.501-7.501-7.501c-10.154.001-19.487 4.22-26.06 11.34z"/><path d="m504.401 131.209c-7.413-7.413-18.418-9.425-27.789-5.878v-15.222c0-4.143-3.358-7.501-7.501-7.501s-7.501 3.358-7.501 7.501v25.988l-92.497 78.834c-12.447-1.742-25.306-2.635-38.287-2.635-45.834 0-73.569 7.614-98.051 18.194-48.69-17.973-124.735-38.761-217.774-39.834v-135.037c0-10.823 8.806-19.629 19.629-19.629h407.352c10.823 0 19.629 8.806 19.629 19.629v19.448c0 4.143 3.358 7.501 7.501 7.501s7.501-3.358 7.501-7.501v-19.448c0-19.096-15.535-34.63-34.63-34.63h-407.353c-19.095 0-34.63 15.535-34.63 34.63v267.712c0 19.096 15.535 34.63 34.63 34.63h93.163l-5.744 16.624c-1.353 3.915.725 8.186 4.64 9.539.811.28 1.637.413 2.449.413 3.11 0 6.017-1.948 7.09-5.053l7.436-21.523h27.279l-37.785 109.356c-2.324 6.728-9.656 10.307-16.394 7.974-6.73-2.324-10.303-9.659-7.974-16.394l15.974-46.234c1.353-3.915-.725-8.186-4.64-9.539-3.911-1.352-8.185.725-9.539 4.64l-15.974 46.234c-5.034 14.568 2.682 30.438 17.253 35.471 14.632 5.063 30.471-2.772 35.474-17.254l17.497-50.639h146.943l17.496 50.639c5.025 14.54 20.904 22.294 35.472 17.255 14.566-5.032 22.292-20.899 17.255-35.472l-33.182-96.037h93.163c19.096 0 34.63-15.535 34.63-34.63v-122.464l29.197-34.257c8.77-10.289 8.152-25.839-1.408-35.401zm-489.4 74.449c82.295.97 150.947 17.716 198.472 33.903-42.067 20.921-82.399 44.374-198.472 49.731zm19.629 137.302c-10.823 0-19.629-8.806-19.629-19.629v-19.022c207.635-9.417 184.708-77.011 315.826-77.011 7.638 0 15.225.333 22.7.972-29.525 26.245-39.453 52.872-44.784 61.496-22.255.625-39.5 11.377-42.578 33.531-1.102 7.973-1.756 10.592-8.158 12.594-3.472 1.087-8.176 1.462-13.245 1.053-4.184-.343-8.2 1.971-9.92 6.016zm341.337-51.885c-15.159 11.891-26.643 16.586-37.891 22.933-.053.027-.116.02-.157-.023l-16.294-16.294c-.042-.042-.052-.104-.024-.156 6.319-11.199 11.034-22.722 22.934-37.892zm-96.86 43.681c4.726-1.59 7.967-.864 9.532 8.783 1.511 9.319 5.702 17.269 13.934 21.814-15.421 5.789-34.741 3.167-48.667-13.484 2.811-.263 5.744-.773 8.584-1.661 10.341-3.236 14.589-9.294 16.617-15.452zm-109.089 71.819 16.797-48.614h52.801c15.582 20.778 36.846 28.23 58.531 24.165l8.447 24.449zm133.428-65.437c-2.575-15.886-11.442-22.077-21.045-22.017 3.884-10.029 15.942-13.853 26.011-14.314 1.86 3.407 2.959 3.568 18.899 19.786 1.062 1.061 2.247 1.933 3.51 2.619-.451 9.985-4.167 18.849-11.097 26.427-9.736 1.269-14.773-3.224-16.278-12.501zm64.376 117.76c2.327 6.731-1.236 14.066-7.976 16.394-6.73 2.328-14.066-1.242-16.392-7.975l-31.041-89.841c8.12-3.877 15.387-9.647 21.331-17.212zm93.789-135.567c0 10.823-8.806 19.629-19.629 19.629h-98.914c1.677-5.12 2.61-10.504 2.773-16.093 8.367-5.227 36.94-15.905 63.861-47.494l24.946-29.269c9.419 4.579 18.453 9.833 26.962 15.669v57.558zm0-75.462c-5.484-3.403-11.137-6.588-16.936-9.53l16.936-19.871zm32.781-90.99-96.107 112.763c-3.465 4.065-7.122 7.924-10.952 11.584l-32.95-32.95c3.66-3.829 7.518-7.487 11.583-10.951l112.763-96.107c4.377-3.73 10.995-3.47 15.063.6 4.068 4.067 4.332 10.683.6 15.061z"/><path d="m319.6 115.95c0 21.415 17.423 38.837 38.838 38.837s38.837-17.422 38.837-38.837-17.422-38.838-38.837-38.838-38.838 17.423-38.838 38.838zm62.673 0c0 13.143-10.692 23.835-23.835 23.835-13.144 0-23.836-10.692-23.836-23.835 0-13.144 10.692-23.836 23.836-23.836 13.143 0 23.835 10.692 23.835 23.836z"/></g></g></svg>