<svg id="Capa_1" enable-background="new 0 0 512 512" height="512" viewBox="0 0 512 512" width="512" xmlns="http://www.w3.org/2000/svg"><g><g><g><g><g><g><path d="m423.221 413.559h-394.936c-11.479 0-20.785-9.306-20.785-20.785v-334.402c0-11.479 9.306-20.785 20.785-20.785h394.936c11.479 0 20.785 9.306 20.785 20.785v334.402c0 11.48-9.306 20.785-20.785 20.785z" fill="#bed8fb"/><path d="m423.221 37.587h-65.332c11.479 0 20.785 9.306 20.785 20.785v334.403c0 11.479-9.306 20.785-20.785 20.785h65.332c11.479 0 20.785-9.306 20.785-20.785v-334.403c0-11.479-9.306-20.785-20.785-20.785z" fill="#9dc6fb"/><path d="m444.006 108.944v-50.572c0-11.479-9.306-20.785-20.785-20.785h-394.936c-11.479 0-20.785 9.306-20.785 20.785v50.572z" fill="#f7f4f7"/><path d="m378.674 58.372v50.572h65.332v-50.572c0-11.479-9.306-20.785-20.785-20.785h-65.332c11.479 0 20.785 9.306 20.785 20.785z" fill="#e0dde0"/></g></g></g><g><circle cx="52.269" cy="73.265" r="6.578"/><circle cx="81.545" cy="73.265" r="6.578"/><circle cx="110.821" cy="73.265" r="6.578"/></g></g><g><g><g><g><path d="m232.811 421.355-17.634 45.764c-1.667 4.327 2.586 8.581 6.914 6.914l45.764-17.634c7.579-2.92 14.461-7.396 20.204-13.139l207.71-207.71c11.628-11.628 11.628-30.481 0-42.11-11.628-11.628-30.481-11.628-42.11 0l-207.71 207.71c-5.742 5.744-10.217 12.626-13.138 20.205z" fill="#e07f84"/></g></g><path d="m282.654 448.011-41.454-41.454c-3.494 4.489-6.334 9.466-8.389 14.798l-17.634 45.764c-1.667 4.327 2.586 8.581 6.914 6.914l45.764-17.634c5.333-2.054 10.31-4.894 14.799-8.388z" fill="#b58c8c"/><path d="m412.743 218.842h55.7v59.552h-55.7z" fill="#f4f4f4" transform="matrix(.707 -.707 .707 .707 -46.753 384.365)"/><g><path d="m495.771 193.44c-11.628-11.628-30.481-11.628-42.11 0l-14.43 14.43 42.11 42.11 14.43-14.43c11.628-11.628 11.628-30.481 0-42.11z" fill="#efd133"/></g></g><path d="m449.697 414.935c4.682-4.715 4.736-12.383-.008-17.036-.119-.116-.235-.235-.348-.356-1.531-1.633-1.736-4.115-.639-6.067 4.465-7.95 7.876-16.331 10.227-24.941.61-2.232 2.602-3.839 4.916-3.89.075-.002.151-.003.226-.003h.005c6.679-.044 12.063-5.483 12.04-12.161l-.096-27.519c-.023-6.656-5.474-12.013-12.129-11.922-.076 0-.152 0-.228-.001-2.313-.036-4.316-1.627-4.941-3.855-2.412-8.594-5.881-16.952-10.403-24.872-1.109-1.943-.922-4.426.597-6.069.112-.121.227-.241.345-.358 4.711-4.687 4.605-12.354-.11-17.036l-19.469-19.334c-4.716-4.683-12.383-4.733-17.038.01-.039.04-.078.079-.117.118-1.677 1.662-4.252 2.02-6.31.864-7.895-4.434-16.215-7.827-24.761-10.176-2.335-.642-4.049-2.723-4.066-5.144 0-.015 0-.03 0-.046v-.005c-.044-6.679-5.483-12.063-12.162-12.04l-27.4.096c-6.673.023-12.063 5.452-12.04 12.125v.005c0 .076 0 .151-.001.226-.036 2.314-1.628 4.318-3.856 4.943-8.59 2.41-16.943 5.878-24.859 10.396-2.051 1.171-4.632.831-6.321-.82-.039-.039-.079-.078-.118-.117-4.687-4.711-12.353-4.604-17.036.111l-19.334 19.469c-4.683 4.716-4.734 12.383.009 17.037.119.117.235.235.348.356 1.53 1.632 1.735 4.113.639 6.064-4.466 7.951-7.877 16.334-10.229 24.945-.609 2.231-2.601 3.836-4.913 3.888-.076.002-.152.003-.228.003h-.005c-6.666 0-12.063 5.416-12.04 12.082l.096 27.359c.023 6.693 5.433 12.118 12.125 12.161h.005c.074 0 .147 0 .221.001 2.317.035 4.323 1.63 4.949 3.861 2.367 8.432 5.758 16.634 10.156 24.42l31.971-31.971c-2.455-7.05-3.806-14.617-3.806-22.504 0-37.788 30.633-68.42 68.42-68.42s68.42 30.633 68.42 68.42c0 37.788-30.633 68.42-68.42 68.42-7.887 0-15.454-1.351-22.504-3.806l-31.993 31.993c.086.042.176.072.26.119 7.95 4.464 16.33 7.874 24.938 10.225 2.23.609 3.834 2.6 3.887 4.912.002.076.003.153.003.229v.005c.024 6.673 5.452 12.063 12.125 12.04l27.476-.096c6.667-.023 12.047-5.458 12.002-12.124v-.005c0-.077 0-.154.001-.23.037-2.311 1.626-4.313 3.852-4.938 8.593-2.411 16.949-5.88 24.868-10.4 2.049-1.17 4.627-.829 6.315.82.039.039.079.078.118.117 4.689 4.71 12.355 4.607 17.038-.109z" fill="#89808c"/></g></g><g><path d="m202.497 185.933h-148.15c-4.142 0-7.5 3.357-7.5 7.5s3.358 7.5 7.5 7.5h148.15c4.142 0 7.5-3.357 7.5-7.5s-3.358-7.5-7.5-7.5z"/><path d="m202.497 225.847h-148.15c-4.142 0-7.5 3.357-7.5 7.5s3.358 7.5 7.5 7.5h148.15c4.142 0 7.5-3.357 7.5-7.5 0-4.142-3.358-7.5-7.5-7.5z"/><path d="m209.997 273.26c0-4.142-3.358-7.5-7.5-7.5h-148.15c-4.142 0-7.5 3.357-7.5 7.5s3.358 7.5 7.5 7.5h148.15c4.142 0 7.5-3.357 7.5-7.5z"/><path d="m54.347 305.674c-4.142 0-7.5 3.357-7.5 7.5s3.358 7.5 7.5 7.5h80.942c4.142 0 7.5-3.357 7.5-7.5s-3.358-7.5-7.5-7.5z"/><path d="m200.497 406.059h-172.212c-7.326 0-13.285-5.96-13.285-13.285v-276.33h421.507v48.345c0 4.143 3.357 7.5 7.5 7.5s7.5-3.357 7.5-7.5v-106.418c0-15.596-12.689-28.285-28.286-28.285h-394.936c-15.596.001-28.285 12.689-28.285 28.285v334.403c0 15.596 12.689 28.285 28.285 28.285h172.212c4.142 0 7.5-3.357 7.5-7.5s-3.358-7.5-7.5-7.5zm-185.497-347.688c0-7.325 5.96-13.285 13.285-13.285h394.935c7.326 0 13.286 5.96 13.286 13.285v43.073h-421.506z"/><path d="m501.074 188.138c-14.569-14.569-38.146-14.57-52.717-.001l-43.28 43.28c-6.492-3.259-13.281-5.923-20.265-7.933-.882-10.013-9.328-17.887-19.542-17.887-.023 0-.047 0-.07 0l-27.401.096c-10.258.036-18.67 7.992-19.454 18.026-8.185 2.419-16.1 5.728-23.57 9.855-7.631-6.511-19.223-6.126-26.503 1.202l-19.333 19.469c-7.298 7.349-7.567 18.947-1.018 26.51-4.074 7.497-7.327 15.433-9.689 23.636-9.98.829-17.927 9.202-17.891 19.541l.096 27.359c.036 10.219 7.963 18.677 18.022 19.559 1.979 6.696 4.569 13.218 7.712 19.475l-5.523 5.523c-6.526 6.524-11.517 14.199-14.835 22.811l-17.633 45.764c-1.853 4.81-.74 10.061 2.905 13.706 3.654 3.654 8.912 4.751 13.704 2.902l45.764-17.633c8.612-3.318 16.287-8.309 22.811-14.834l5.521-5.521c6.49 3.259 13.275 5.926 20.257 7.937.862 10.015 9.29 17.889 19.509 17.889h.069l27.476-.097c10.32-.037 18.672-8.041 19.422-18.027 8.186-2.42 16.1-5.729 23.566-9.854 7.6 6.483 19.197 6.152 26.502-1.202l19.334-19.47c7.143-7.193 7.697-18.796 1.018-26.509 4.074-7.5 7.329-15.439 9.691-23.644 10.036-.883 17.924-9.366 17.888-19.612l-.097-27.519c-.037-10.327-8.051-18.622-18.028-19.346-1.981-6.7-4.568-13.212-7.7-19.452l43.283-43.283c14.566-14.569 14.568-38.147-.001-52.716zm-277.154 277.153c16.459-42.343 15.81-41.87 18.498-46.909l28.411 28.411c-5.046 2.692-4.594 2.05-46.909 18.498zm152.391-183.894c4.701 2.056 9.089 4.691 13.085 7.811l-127.469 127.469-10.448-10.448zm-85.252 55.835c0-33.592 27.329-60.921 60.92-60.921 2.61 0 5.176.184 7.7.504l-68.131 68.131c-.325-2.55-.489-5.125-.489-7.714zm-8.077 100.5-10.448-10.448 127.469-127.468c3.12 3.995 5.754 8.383 7.811 13.084zm129.414-108.2c.32 2.524.504 5.09.504 7.7 0 33.592-27.329 60.921-60.921 60.921-2.588 0-5.163-.165-7.714-.49zm51.074-10.998c3.392.095 5.042 2.058 5.05 4.453l.097 27.519c.008 2.385-1.705 4.557-4.939 4.641-5.574.125-10.502 3.994-11.983 9.412-2.213 8.104-5.42 15.926-9.531 23.246-2.741 4.881-2.055 10.856 1.701 14.862 2.55 2.712 2.247 5.235.511 6.983l-19.334 19.47c-1.49 1.5-3.398 1.394-3.298 1.374-2.139 0-3.194-1.407-3.294-1.463-4.065-3.972-10.348-4.781-15.275-1.969-7.289 4.162-15.087 7.423-23.173 9.692-5.399 1.514-9.385 6.523-9.328 12.444.016 2.517-2.011 4.566-4.529 4.574l-27.476.097c-.006 0-.011 0-.017 0-2.372 0-4.507-1.701-4.587-4.943-.125-5.573-3.993-10.499-9.409-11.978-4.956-1.353-9.804-3.082-14.51-5.165l21.438-21.438c6.638 1.854 13.476 2.807 20.396 2.807 41.863 0 75.921-34.058 75.921-75.921 0-41.64-33.907-75.921-75.921-75.921-41.863 0-75.92 34.058-75.92 75.921 0 6.922.954 13.76 2.807 20.397l-21.432 21.432c-1.984-4.481-3.654-9.094-4.975-13.801-1.519-5.413-6.478-9.251-11.971-9.331-.139-.004-.28-.004-.377-.005-2.568-.017-4.665-2.119-4.674-4.687l-.096-27.359c-.009-2.512 2.019-4.557 4.545-4.557 6.005 0 10.916-4.068 12.376-9.416 2.214-8.104 5.421-15.927 9.533-23.247 2.692-4.791 2.274-10.965-2.273-15.447-1.732-1.7-1.734-4.59.061-6.399l19.333-19.468c3.24-3.261 6.489.043 6.589.083 4.064 3.976 10.349 4.786 15.283 1.972 7.29-4.161 15.085-7.421 23.167-9.688 5.406-1.517 9.243-6.471 9.33-12.067l.002-.354c-.009-2.526 2.04-4.59 4.566-4.599l27.401-.096h.017c2.532 0 4.602 2.056 4.619 4.545v.103c.044 5.715 3.983 10.781 9.58 12.318 8.043 2.211 15.806 5.401 23.075 9.482 4.827 2.714 11.168 2.078 15.453-2.266 1.765-1.798 4.669-1.663 6.4.059l19.47 19.334c1.673 1.662 2.15 4.155-.457 6.98-3.734 4.039-4.379 10.018-1.604 14.88.037.065.071.131.108.196.01.02.021.038.032.058 4.095 7.219 7.312 14.93 9.556 22.925 1.513 5.405 6.466 9.241 11.966 9.326zm-4.184-57.107c-.95-2.949-2.587-5.653-4.85-7.901l-19.469-19.333c-2.019-2.005-4.402-3.499-6.989-4.462l11.253-11.253 31.502 31.502zm31.181-31.181-9.126 9.126-31.502-31.502 9.126-9.126c8.704-8.707 22.796-8.708 31.503 0 8.705 8.705 8.706 22.797-.001 31.502z"/></g></g></svg>