<svg id="Capa_1" enable-background="new 0 0 512 512" height="512" viewBox="0 0 512 512" width="512" xmlns="http://www.w3.org/2000/svg"><g><g><g><path d="m351.142 504.5h-289.679c-17.672 0-31.999-14.326-31.999-31.999v-433.002c0-17.673 14.326-31.999 31.999-31.999h289.679c17.672 0 31.999 14.326 31.999 31.999v433.002c-.001 17.673-14.327 31.999-31.999 31.999z" fill="#f7f4f7"/><path d="m351.142 7.5h-65.661c17.672 0 31.999 14.326 31.999 31.999v433.003c0 17.672-14.326 31.999-31.999 31.999h65.661c17.672 0 31.999-14.326 31.999-31.999v-433.003c-.001-17.673-14.327-31.999-31.999-31.999z" fill="#e0dde0"/><path d="m63.461 435.531v-386.06c0-4.404 3.57-7.974 7.974-7.974h269.734c4.404 0 7.974 3.57 7.974 7.974v386.059c0 4.404-3.57 7.974-7.974 7.974h-269.734c-4.404.001-7.974-3.569-7.974-7.973z" fill="#bed8fb"/><path d="m341.169 41.498h-23.69v402.007h23.69c4.404 0 7.974-3.57 7.974-7.974v-386.059c0-4.404-3.57-7.974-7.974-7.974z" fill="#9dc6fb"/><path d="m341.169 41.498h-269.734c-4.404 0-7.974 3.57-7.974 7.974v50.653h285.682v-50.654c0-4.403-3.57-7.973-7.974-7.973z" fill="#ecbe6b"/><path d="m349.143 100.125v-50.653c0-4.404-3.57-7.974-7.974-7.974h-23.69v58.627z" fill="#e49542"/></g><g><g><path d="m386.818 357.37h-204.239c-10.064 0-18.223-8.159-18.223-18.223v-117.508h240.685v117.509c0 10.063-8.159 18.222-18.223 18.222z" fill="#756e78"/><path d="m339.713 221.639v117.508c0 10.064-8.159 18.223-18.223 18.223h65.328c10.064 0 18.223-8.159 18.223-18.223v-117.508z" fill="#665e66"/><path d="m267.344 165.579-159.73 54.745c-1.875.643-1.875 3.295 0 3.938l159.73 54.745c11.248 3.855 23.46 3.855 34.709 0l159.73-54.745c1.875-.643 1.875-3.295 0-3.938l-159.73-54.745c-11.249-3.856-23.461-3.856-34.709 0z" fill="#89808c"/></g><path d="m475.169 331.954h-23.96c-4.38 0-7.792-3.799-7.323-8.154l5.019-46.598c.403-3.741 3.56-6.576 7.323-6.576h13.922c3.762 0 6.92 2.836 7.323 6.576l5.019 46.598c.469 4.355-2.943 8.154-7.323 8.154z" fill="#665e66"/></g></g><g><path d="m218.634 482.481c4.142 0 7.5-3.357 7.5-7.5s-3.358-7.5-7.5-7.5h-24.664c-4.142 0-7.5 3.357-7.5 7.5s3.358 7.5 7.5 7.5z"/><ellipse cx="96.116" cy="70.811" rx="7.046" ry="7.046" transform="matrix(.987 -.16 .16 .987 -10.102 16.31)"/><ellipse cx="127.475" cy="70.811" rx="7.046" ry="7.046" transform="matrix(.987 -.16 .16 .987 -9.697 21.334)"/><ellipse cx="158.834" cy="70.811" rx="7.046" ry="7.046" transform="matrix(.987 -.16 .16 .987 -9.292 26.357)"/><path d="m383.14 382.239c-4.142 0-7.5 3.357-7.5 7.5v82.762c0 13.509-10.99 24.499-24.499 24.499h-289.678c-13.509 0-24.499-10.99-24.499-24.499v-433.002c0-13.509 10.99-24.499 24.499-24.499h289.679c13.509 0 24.499 10.99 24.499 24.499v118.94c0 4.143 3.358 7.5 7.5 7.5s7.5-3.357 7.5-7.5v-118.94c-.001-21.78-17.719-39.499-39.499-39.499h-289.679c-21.78 0-39.499 17.719-39.499 39.499v433.002c0 21.78 17.719 39.499 39.499 39.499h289.679c21.78 0 39.499-17.719 39.499-39.499v-82.762c-.001-4.142-3.359-7.5-7.501-7.5z"/><path d="m489.949 322.997-5.019-46.598c-.795-7.386-6.873-12.984-14.241-13.248v-41.512c0-3.525-2.839-7.163-6.475-8.41l-107.571-36.869c0-30.497 0-103.081 0-126.888 0-8.532-6.941-15.474-15.474-15.474h-269.734c-8.546 0-15.474 6.954-15.474 15.474v386.06c0 8.532 6.941 15.474 15.474 15.474h269.735c8.532 0 15.474-6.941 15.474-15.474v-70.662h30.175c14.184 0 25.723-11.539 25.723-25.723v-90.081l43.148-14.788v28.873c-7.368.264-13.445 5.862-14.241 13.247l-5.02 46.598c-.943 8.755 5.914 16.458 14.78 16.458h23.96c8.82 0 15.728-7.66 14.78-16.457zm-418.988-273.525c0-.261.213-.474.474-.474h269.735c.261 0 .474.213.474.474v43.152h-270.683zm270.682 386.059c0 .261-.212.474-.474.474h-269.734c-.261 0-.474-.213-.474-.474v-327.907h270.682v63.595l-37.159-12.736c-12.759-4.373-26.812-4.373-39.571 0l-159.733 54.746c-3.872 1.328-6.473 4.971-6.473 9.062 0 4.093 2.601 7.735 6.475 9.064l51.673 17.71v90.081c0 14.184 11.54 25.723 25.723 25.723h159.064v70.662zm55.898-96.384c0 5.912-4.811 10.723-10.723 10.723h-204.239c-5.913 0-10.723-4.811-10.723-10.723v-84.94l93.057 31.893c12.812 4.391 26.862 4.357 39.572 0l93.057-31.894v84.941zm-97.92-67.236c-9.623 3.299-20.223 3.299-29.846 0l-144.774-49.619 144.774-49.619c9.624-3.297 20.223-3.297 29.846 0l144.774 49.619zm151.738 52.543 4.99-46.328h13.68l4.99 46.328z"/></g></g></svg>