<svg id="Capa_1" enable-background="new 0 0 512 512" height="512" viewBox="0 0 512 512" width="512" xmlns="http://www.w3.org/2000/svg"><g><g><g><g><g><g><g fill="#ffddce"><path d="m209.462 122.674h-25.167c-8.73 0-15.808 7.084-15.808 15.822v24.35c0 8.738 7.077 15.822 15.808 15.822h25.208z"/><path d="m391.937 122.674h-25.04v55.993h25.04c8.73 0 15.808-7.084 15.808-15.822v-24.35c-.001-8.738-7.078-15.821-15.808-15.821z"/></g><g><g><path d="m376.213 297.605-19.529-3.762-20.447-28.69v-65.395h-96.251v65.395l-20.447 28.69-19.529 3.762 87.929 120.239.172-.235.173.235z" fill="#ffece4"/><path d="m383.539 298.991-26.725-5.148c-4.443-.853-8.489-2.9-11.793-5.79l-56.844 50.41-56.844-50.41c-3.305 2.89-7.35 4.937-11.793 5.79l-26.725 5.148c-70.096 13.502-120.755 74.896-120.755 146.342v27.49c0 17.494 14.169 31.676 31.648 31.676h368.939c17.479 0 31.648-14.182 31.648-31.676v-27.49c-.001-71.446-50.66-132.84-120.756-146.342z" fill="#9dc6fb"/><g><path d="m383.539 298.991-26.725-5.148c-4.443-.853-8.489-2.9-11.793-5.79l-25.459 22.577c69.278 14.113 119.183 75.112 119.183 146.021v27.49c0 7.753-2.787 14.852-7.408 20.358h41.309c17.479 0 31.648-14.182 31.648-31.677v-27.49c0-71.445-50.659-132.839-120.755-146.341z" fill="#88a8d8"/></g></g><g fill="#7296d1"><path d="m236.741 356.612-32.51-49.625c-3.841-5.863-3.41-13.604 1.177-18.902 14.973-17.297 34.578-22.932 34.578-22.932l-4.899 12.641c-2.389 6.163-.69 13.162 4.256 17.542l48.704 43.127-34.916 21.762c-5.537 3.45-12.814 1.846-16.39-3.613z"/><path d="m339.482 356.612 32.51-49.625c3.841-5.863 3.41-13.604-1.177-18.902-14.973-17.297-34.578-22.932-34.578-22.932l4.899 12.641c2.389 6.163.69 13.162-4.256 17.542l-48.704 43.127 34.916 21.762c5.537 3.45 12.814 1.846 16.39-3.613z"/></g></g><path d="m376.26 75.748c-3.856-17.18-12.817-32.96-26.328-44.604-14.49-12.488-34.858-23.388-61.764-23.688-26.905.3-47.273 11.2-61.764 23.688-13.511 11.644-22.473 27.425-26.328 44.604l.069 94.729c.509 23.729 8.261 46.569 26.259 62.08 14.49 12.488 34.858 23.388 61.764 23.688 26.906-.301 47.274-11.2 61.764-23.688 17.998-15.511 25.833-38.351 26.342-62.08h-.014z" fill="#ffece4"/><path d="m376.26 170.477v-94.729c-3.856-17.18-12.817-32.96-26.328-44.605-14.49-12.488-34.858-23.388-61.764-23.688-8.97.1-17.21 1.383-24.751 3.506 15.078 4.244 27.353 11.858 37.012 20.182.563.485 1.118.978 1.665 1.477 15.944 14.552 24.663 35.401 24.663 56.988v80.869h.014c-.509 23.729-8.344 46.569-26.342 62.08-9.659 8.324-21.934 15.938-37.012 20.182 7.541 2.123 15.781 3.406 24.751 3.506 26.906-.301 47.274-11.2 61.764-23.688 17.998-15.511 25.833-38.351 26.342-62.08z" fill="#ffddce"/></g></g><path d="m216.522 68.751c.414-19.315 9.098-35.081 23.748-47.706-7.896-1.124-15.98.352-22.869 4.374-19.842 11.584-33.178 33.103-33.178 57.755v39.501h11.722c11.345 0 20.544-9.2 20.552-20.555z" fill="#89808c"/><path d="m359.828 68.751c-.414-19.315-9.098-35.081-23.748-47.706 7.896-1.124 15.98.352 22.869 4.374 19.842 11.584 33.178 33.103 33.178 57.755v39.501h-11.722c-11.345 0-20.544-9.2-20.552-20.555z" fill="#756e78"/></g><path d="m288.177 338.463-35.047 21.761 21.068 24.307h27.957l21.068-24.307z" fill="#e07f84"/><path d="m302.155 384.531h-27.957l-24.953 119.756h77.863z" fill="#db636e"/></g><g><g><g><g><g><path d="m164.92 504.499h-129.227c-6.327 0-11.456-5.129-11.456-11.456v-170.898c0-6.327 5.129-11.456 11.456-11.456h129.227c6.327 0 11.456 5.129 11.456 11.456v170.898c0 6.327-5.129 11.456-11.456 11.456z" fill="#e8ae4d"/></g><path d="m65.646 310.689h-29.953c-6.327 0-11.456 5.129-11.456 11.456v170.898c0 6.327 5.129 11.456 11.456 11.456h29.953z" fill="#ecbe6b"/></g></g></g><g fill="#89808c"><path d="m28.691 361.94h-8.502c-6.894 0-12.483-5.589-12.483-12.483 0-6.894 5.589-12.483 12.483-12.483h8.502c6.894 0 12.483 5.589 12.483 12.483 0 6.894-5.589 12.483-12.483 12.483z"/><path d="m28.691 417.363h-8.502c-6.894 0-12.483-5.589-12.483-12.483 0-6.894 5.589-12.483 12.483-12.483h8.502c6.894 0 12.483 5.589 12.483 12.483 0 6.895-5.589 12.483-12.483 12.483z"/><path d="m28.691 472.787h-8.502c-6.894 0-12.483-5.589-12.483-12.483 0-6.894 5.589-12.483 12.483-12.483h8.502c6.894 0 12.483 5.589 12.483 12.483 0 6.894-5.589 12.483-12.483 12.483z"/></g></g></g><g><path d="m453.976 323.801c-3.213-2.615-7.938-2.128-10.552 1.086-2.613 3.214-2.127 7.938 1.087 10.552 33.226 27.023 52.282 67.077 52.282 109.893v27.491c0 13.33-10.832 24.176-24.148 24.176h-41.047v-62.383c0-4.143-3.358-7.501-7.501-7.501s-7.501 3.358-7.501 7.501v62.383h-83.346l-22.995-110.362 15.191-17.527c1.294.264 2.604.395 3.91.395 6.391 0 12.681-3.11 16.398-8.782l32.511-49.626c1.04-1.588 1.86-3.271 2.473-5.007l1.381.266c11.878 2.288 23.401 6.078 34.25 11.265 1.044.499 2.146.735 3.23.735 2.799 0 5.484-1.573 6.772-4.267 1.787-3.738.206-8.216-3.531-10.003-12.003-5.739-24.749-9.932-37.884-12.46l-4.118-.794c-.931-2.761-2.376-5.372-4.354-7.657-11.446-13.222-25.266-20.206-32.748-23.271v-13.22c3.8-2.536 7.499-5.35 11.09-8.445 14.627-12.606 24.145-30.747 27.559-52.072h9.55c12.852 0 23.308-10.463 23.308-23.322v-24.35c0-10.164-6.534-18.825-15.618-22.012v-33.31c0-26.333-14.138-50.946-36.897-64.233-7.462-4.356-16.249-6.306-25.008-5.611-30.034-17.205-67.106-18.33-99.105-.001-8.755-.693-17.538 1.259-24.997 5.613-22.759 13.286-36.897 37.899-36.897 64.232v33.27c-9.146 3.153-15.737 11.844-15.737 22.052v24.35c0 12.86 10.456 23.322 23.308 23.322h9.688c3.329 21.483 12.696 39.292 27.525 52.072 3.555 3.064 7.217 5.85 10.977 8.366v13.299c-7.481 3.065-21.302 10.049-32.748 23.271-1.985 2.293-3.433 4.913-4.364 7.684l-3.977.767c-12.4 2.388-24.467 6.286-35.909 11.562h-119.791c-10.453 0-18.957 8.504-18.957 18.957v7.648c-9.376 1.643-16.531 9.824-16.531 19.664s7.155 18.022 16.531 19.665v16.095c-9.376 1.643-16.531 9.824-16.531 19.664s7.155 18.022 16.531 19.665v16.095c-9.376 1.643-16.531 9.825-16.531 19.664 0 9.84 7.155 18.022 16.531 19.665v13.074c0 10.453 8.504 18.957 18.957 18.957h436.953c21.587 0 39.149-17.575 39.149-39.177v-27.491c0-47.352-21.074-91.649-57.819-121.532zm-155.245 53.229h-21.108l-13.075-15.084 23.563-14.686 23.648 14.739zm35.412-96.526c1.249 3.222.351 6.926-2.235 9.216l-43.797 38.782-43.797-38.782c-2.586-2.289-3.484-5.994-2.235-9.217 4.068-11.416 5.406-12.56 5.406-15.351v-10.22c24.849 11.191 54.002 12.283 81.251.053v10.169c.001 2.796 1.382 4.052 5.407 15.35zm15.229-.898c5.07 3.176 10.713 7.546 15.772 13.389 2.363 2.729 2.598 6.793.574 9.882l-32.511 49.625c-1.248 1.908-3.642 2.54-5.649 1.604-1.643-1.168 7.642 4.698-26.884-16.692l41.178-36.462c6.074-5.379 8.832-13.531 7.52-21.346zm50.872-141.11v24.35c0 4.588-3.726 8.321-8.307 8.321h-8.187c.005-.177.019-.35.023-.527.005-.207 0-.413-.012-.618v-39.846h8.176c4.58-.002 8.307 3.731 8.307 8.32zm-15.618-55.323v32h-4.222c-7.192 0-13.046-5.859-13.051-13.061l-.024-33.368c0-.052 0-.104-.002-.155-.282-13.167-3.995-25.225-11.076-36.045 17.535 10.748 28.375 30.029 28.375 50.629zm-200.332 87.993c-4.58 0-8.307-3.733-8.307-8.321v-24.35c0-4.588 3.726-8.321 8.307-8.321h8.321l.029 40.309c0 .052 0 .104.002.155.004.178.018.35.022.527h-8.374zm11.652-55.993h-4.222v-32c0-20.6 10.84-39.881 28.375-50.629-7.081 10.82-10.793 22.878-11.076 36.045-.001.052-.002.104-.002.155l-.024 33.368c-.005 7.202-5.86 13.061-13.051 13.061zm35.355 111.702c-16.172-13.937-21.721-33.122-23.213-48.903-.004-.042-.007-.083-.012-.125-.241-2.588-.378-5.088-.43-7.453l-.031-42.775c9.65-4.438 16.376-14.193 16.384-25.495l.024-33.288c.363-15.98 7.328-30 20.681-41.693 27.13-16.178 59.898-16.14 86.969.024 13.335 11.688 20.291 25.7 20.655 41.669l.024 33.288c.008 11.311 6.745 21.073 16.408 25.506v42.848c0 .096.002.191.005.286-.057 2.246-.191 4.609-.42 7.053-.007.06-.012.12-.018.181-1.501 15.748-7.074 34.9-23.292 48.878-33.726 29.068-79.883 29.175-113.734-.001zm-20.222 66.119c5.024-5.804 10.677-10.169 15.766-13.353-1.297 7.804 1.462 15.94 7.525 21.31l41.178 36.462-26.385 16.445c-2.094 1.304-4.795.709-6.148-1.357l-32.51-49.624c-2.025-3.09-1.788-7.154.574-9.883zm-195.873 56.462c0-2.747 2.235-4.982 4.982-4.982h8.503c2.747 0 4.982 2.235 4.982 4.982s-2.235 4.983-4.982 4.983h-8.503c-2.747 0-4.982-2.235-4.982-4.983zm0 55.424c0-2.747 2.235-4.982 4.982-4.982h8.503c2.747 0 4.982 2.235 4.982 4.982s-2.235 4.983-4.982 4.983h-8.503c-2.747 0-4.982-2.235-4.982-4.983zm4.982 60.407c-2.747 0-4.982-2.236-4.982-4.983s2.235-4.982 4.982-4.982h8.503c2.747 0 4.982 2.235 4.982 4.982s-2.235 4.983-4.982 4.983c-.132 0-8.65 0-8.503 0zm37.957 31.712h-22.452c-2.181 0-3.955-1.775-3.955-3.955v-13.012c9.574-1.475 16.937-9.745 16.937-19.727 0-9.98-7.363-18.251-16.937-19.726v-15.971c9.574-1.475 16.937-9.746 16.937-19.727 0-9.98-7.363-18.251-16.937-19.726v-15.971c9.574-1.475 16.937-9.746 16.937-19.727 0-9.98-7.363-18.251-16.937-19.726v-7.586c0-2.181 1.775-3.955 3.955-3.955h22.453v178.809zm110.731-3.956c0 2.181-1.775 3.955-3.955 3.955h-91.774v-178.81h83.943c.009 0 .018.002.028.002.012 0 .024-.002.036-.002h7.767c2.181 0 3.955 1.775 3.955 3.955zm89.594 3.744 6.411-30.768c.845-4.056-1.757-8.028-5.813-8.874-4.055-.839-8.028 1.758-8.873 5.813l-7.093 34.041h-59.647c.272-1.277.422-2.598.422-3.955v-170.9c0-4.598-1.648-8.817-4.381-12.103 4.84-1.484 9.757-2.726 14.738-3.686l1.259-.243c.612 1.728 1.428 3.404 2.464 4.984l32.51 49.625c3.718 5.673 10.006 8.782 16.398 8.782 1.343 0 2.691-.14 4.02-.42l15.213 17.551-8.749 41.986c-.845 4.056 1.757 8.028 5.813 8.874 4.056.843 8.028-1.757 8.873-5.813l8.262-39.652h15.76l21.827 104.755h-59.414z"/><path d="m140.531 364.877h-44.015c-4.142 0-7.501 3.358-7.501 7.501s3.358 7.501 7.501 7.501h44.015c4.142 0 7.501-3.358 7.501-7.501s-3.359-7.501-7.501-7.501z"/><path d="m140.531 394.527h-44.015c-4.142 0-7.501 3.358-7.501 7.501s3.358 7.501 7.501 7.501h44.015c4.142 0 7.501-3.358 7.501-7.501s-3.359-7.501-7.501-7.501z"/></g></g></svg>