<svg id="Capa_1" enable-background="new 0 0 512 512" height="512" viewBox="0 0 512 512" width="512" xmlns="http://www.w3.org/2000/svg"><g><g><g><g fill="#ffddce"><path d="m280.17 187.058h-29.08v51.909h29.08c9.224 0 16.701-7.477 16.701-16.701v-18.507c-.001-9.224-7.478-16.701-16.701-16.701z"/><path d="m135.453 187.058h-29.071c-9.224 0-16.701 7.477-16.701 16.701v18.507c0 9.224 7.477 16.701 16.701 16.701h29.109z"/></g><g><g><path d="m193.189 434.413s59.518-99.567 55.756-100.291l-16.552-23.205v-52.891h-78.023v52.891l-16.552 23.204z" fill="#ffece4"/><path d="m270.579 338.285c-5.762-1.109-16.357-3.148-21.633-4.163-3.66-.704-6.93-2.365-9.58-4.687l-46.089 62.729-45.911-62.725c-2.675 2.337-5.95 3.993-9.547 4.683l-21.634 4.164c-56.745 10.92-97.755 60.575-97.755 118.36v22.234c0 14.149 11.47 25.62 25.62 25.62h298.663c14.149 0 25.62-11.47 25.62-25.62v-22.234c0-57.785-41.01-107.44-97.754-118.361z" fill="#ccf49f"/><g><path d="m270.579 338.285c-5.762-1.109-16.357-3.148-21.633-4.163-3.66-.704-6.93-2.365-9.58-4.687l-11.449 15.583c44.652 18.173 75.04 61.888 75.04 111.629v22.234c0 14.149-11.47 25.62-25.62 25.62h65.377c14.149 0 25.62-11.47 25.62-25.62v-22.234c-.001-57.786-41.011-107.441-97.755-118.362z" fill="#b3e59f"/></g></g><g fill="#95d6a4"><path d="m130.125 390.564-7.785-43.537c-1.269-7.095.913-14.379 5.886-19.595 11.824-12.402 26.143-16.515 26.143-16.515l-4.093 10.55c-1.925 4.963-1.183 10.565 1.969 14.855l41.029 55.842-43.306 11.147c-9.061 2.333-18.195-3.534-19.843-12.747z"/><path d="m256.531 390.564 7.785-43.537c1.269-7.095-.913-14.379-5.886-19.595-11.824-12.402-26.143-16.515-26.143-16.515l4.093 10.55c1.925 4.963 1.183 10.565-1.969 14.855l-41.029 55.842 43.306 11.147c9.062 2.333 18.196-3.534 19.843-12.747z"/></g></g><path d="m266.893 149.897c-3.218-14.325-10.696-27.482-21.972-37.191-12.092-10.413-29.091-19.501-51.545-19.751-22.454.251-39.452 9.339-51.545 19.751-11.276 9.709-18.755 22.867-21.972 37.191l.058 78.986c.425 19.786 6.894 38.829 21.915 51.763 12.093 10.412 29.091 19.501 51.545 19.751 22.454-.251 39.453-9.339 51.545-19.751 15.021-12.933 21.559-31.977 21.984-51.763h-.012v-78.986z" fill="#ffece4"/><path d="m130.409 187.058c7.461 0 14.033-5.553 14.619-12.991.031-.398.047-.801.047-1.207v-28.977c0-8.117 6.621-14.63 14.738-14.616 6.218.01 11.931.808 16.814 1.882 11.04 2.428 22.468 2.428 33.507 0 4.883-1.074 10.596-1.872 16.814-1.882 8.117-.013 14.738 6.499 14.738 14.616v28.977c0 .406.016.809.047 1.207.586 7.438 7.158 12.991 14.619 12.991h23.781v-45.44c0-30.789-24.959-55.748-55.748-55.748h-62.01c-30.789 0-55.748 24.959-55.748 55.748v45.44z" fill="#89808c"/><path d="m266.893 228.883v-78.986c-3.218-14.325-10.696-27.482-21.972-37.191-9.533-8.209-22.129-15.574-38.029-18.456 5.146 9.522 7.854 20.334 7.854 31.364v103.27h.012c-.425 19.786-6.963 38.829-21.984 51.763-6.871 5.917-15.331 11.4-25.471 15.083 7.705 2.799 16.378 4.56 26.074 4.668 22.454-.251 39.453-9.339 51.545-19.751 15.021-12.933 21.559-31.977 21.984-51.763h-.013z" fill="#ffddce"/><path d="m224.387 85.87h-22.924c8.662 11.273 13.283 25.325 13.283 39.744v4.663c3.748-.604 7.848-1.003 12.203-1.01 8.117-.013 14.738 6.499 14.738 14.616v28.977c0 .406.016.809.047 1.207.586 7.438 7.158 12.991 14.619 12.991h23.781v-45.44c0-30.789-24.959-55.748-55.747-55.748z" fill="#756e78"/></g><g><g><g><path d="m406.436 214.661h-21.201c-8.382 0-15.177-6.795-15.177-15.177v-25.142h51.555v25.142c0 8.382-6.795 15.177-15.177 15.177z" fill="#9dc6fb"/><path d="m420.969 180.438c3.534 0 6.578-2.511 7.224-5.986 1.846-9.937 6.156-19.316 12.651-27.206 8.283-10.062 13.257-22.948 13.257-36.999 0-32.73-26.988-59.158-59.925-58.242-31.197.867-56.327 26.506-56.604 57.715-.126 14.26 4.872 27.347 13.263 37.536 6.494 7.885 10.799 17.263 12.644 27.196.645 3.475 3.69 5.987 7.224 5.987h50.266z" fill="#f4e066"/><path d="m394.177 52.005c-11.416.317-22.011 3.962-30.882 9.973 15.473 10.475 25.654 28.177 25.654 48.27 0 14.05-4.974 26.937-13.257 36.999-4.741 5.759-9.309 18.412-11.243 24.204-1.364 4.082 1.313 8.579 5.6 8.959.217.019.436.029.656.029h50.377c3.522 0 6.473-2.552 7.118-6.015 1.849-9.926 6.157-19.295 12.646-27.177 8.283-10.062 13.257-22.948 13.257-36.999-.002-32.731-26.99-59.158-59.926-58.243z" fill="#efd133"/></g></g></g></g><g><path d="m298.102 112.733h11.187c4.143 0 7.5-3.357 7.5-7.5s-3.357-7.5-7.5-7.5h-11.187c-4.143 0-7.5 3.357-7.5 7.5s3.358 7.5 7.5 7.5z"/><path d="m493.57 97.733h-11.187c-4.143 0-7.5 3.357-7.5 7.5s3.357 7.5 7.5 7.5h11.187c4.143 0 7.5-3.357 7.5-7.5s-3.357-7.5-7.5-7.5z"/><path d="m329.335 49.339c2.928 2.928 7.677 2.929 10.606-.001 2.929-2.929 2.929-7.678-.001-10.606l-7.91-7.909c-2.928-2.928-7.677-2.929-10.606.001-2.929 2.929-2.929 7.678.001 10.606z"/><path d="m462.338 161.128c-2.93-2.928-7.678-2.928-10.607 0-2.929 2.93-2.929 7.678 0 10.607l7.91 7.91c2.931 2.929 7.678 2.928 10.607 0 2.929-2.93 2.929-7.678 0-10.607z"/><path d="m332.031 179.646 7.91-7.91c2.929-2.93 2.929-7.678 0-10.607-2.93-2.928-7.678-2.928-10.607 0l-7.91 7.91c-2.929 2.93-2.929 7.678 0 10.607 2.93 2.928 7.677 2.927 10.607 0z"/><path d="m462.337 49.339 7.91-7.909c2.93-2.929 2.93-7.678.001-10.606-2.929-2.93-7.678-2.929-10.606-.001l-7.91 7.909c-2.93 2.929-2.93 7.678-.001 10.606 2.928 2.928 7.676 2.931 10.606.001z"/><path d="m395.836 26.187c4.143 0 7.5-3.357 7.5-7.5v-11.187c0-4.143-3.357-7.5-7.5-7.5s-7.5 3.357-7.5 7.5v11.187c0 4.142 3.357 7.5 7.5 7.5z"/><path d="m350.784 393.562c-3.658 1.942-5.05 6.482-3.108 10.142 8.607 16.215 13.157 34.522 13.157 52.942v22.233c0 9.991-8.129 18.12-18.12 18.12h-31.801v-49.021c0-4.143-3.357-7.5-7.5-7.5s-7.5 3.357-7.5 7.5v49.022h-205.062v-49.021c0-4.143-3.358-7.5-7.5-7.5s-7.5 3.357-7.5 7.5v49.021h-31.8c-9.991 0-18.12-8.129-18.12-18.12v-22.233c0-53.089 37.146-99.013 88.739-110.364.234 2.18-.092-.244 8.073 45.602 2.406 13.454 15.773 22.114 29.097 18.689l41.489-10.68 41.489 10.68c13.265 3.409 26.681-5.175 29.098-18.689 8.186-45.972 7.839-43.412 8.076-45.635 21.395 4.679 40.777 15.323 56.195 30.93 1.468 1.485 3.401 2.229 5.336 2.229 1.904 0 3.81-.721 5.271-2.164 2.947-2.911 2.976-7.66.065-10.606-30.326-30.697-68.664-35.94-69.479-36.223-4.902-10.65-18.702-20.028-29.485-24.65v-11.952c16.514-10.843 27.859-25.21 32.536-47.347h7.74c13.345 0 24.201-10.856 24.201-24.201v-18.507c0-10.733-7.026-19.852-16.736-23.012v-39.129c0-34.875-28.373-63.248-63.248-63.248h-62.01c-27.505 0-51.686 17.565-60.17 43.708-1.278 3.94.879 8.171 4.819 9.449 3.941 1.282 8.17-.879 9.449-4.818 6.471-19.941 24.918-33.339 45.902-33.339h62.01c26.604 0 48.248 21.644 48.248 48.248v37.939h-16.281c-3.664 0-7.167-2.758-7.167-6.698v-28.977c0-12.233-9.929-22.116-22.211-22.116-.013 0-.026 0-.039 0-6.058.01-12.253.701-18.413 2.057-10.047 2.211-20.236 2.212-30.285 0-6.161-1.355-12.356-2.047-18.413-2.057-.013 0-.026 0-.039 0-12.282 0-22.211 9.883-22.211 22.116-.007 24.387.013 29.11-.024 29.594-.265 3.354-3.469 6.081-7.143 6.081-4.92 0-8.93 0-16.281 0v-20.078c0-4.143-3.358-7.5-7.5-7.5s-7.5 3.357-7.5 7.5v21.19c-9.812 3.089-16.948 12.271-16.948 23.09v18.507c0 13.345 10.856 24.201 24.201 24.201h7.944c4.444 21.606 15.464 36.145 32.544 47.355v11.899c-10.816 4.616-24.69 14.026-29.601 24.718l-2.503.482c-60.166 11.579-103.835 64.455-103.835 125.725v22.233c0 18.263 14.857 33.12 33.12 33.12h298.663c18.263 0 33.12-14.857 33.12-33.12v-22.233c0-20.863-5.155-41.603-14.907-59.976-1.944-3.657-6.481-5.05-10.142-3.108zm-76.391-199.004h5.741c.006 0 .012-.001.018-.001s.012.001.018.001c5.073 0 9.201 4.128 9.201 9.201v18.507c0 5.073-4.128 9.201-9.201 9.201h-5.873c.208-4.571.028 4.201.096-36.909zm-168.012 36.909c-5.073 0-9.201-4.128-9.201-9.201v-18.507c0-5.073 4.127-9.201 9.201-9.201h.247 5.762c.104 39.552-.095 31.833.13 36.909zm51.909 100.413c-1.643-2.235-2.024-5.114-1.021-7.701l4.092-10.55c1.001-2.578.219-4.998.508-11.931 20.42 8.267 42.599 8.268 63.024-.005-.099 9.649-.282 10.123.384 11.878.007.019.011.039.018.058l4.092 10.551c1.003 2.586.622 5.465-1.021 7.701l-35.038 47.688zm82.164 8.883c3.266-4.443 4.787-9.776 4.447-15.099 2.689 1.892 5.476 4.188 8.102 6.942 3.308 3.471 4.778 8.368 3.932 13.101l-7.786 43.537c-.888 4.967-5.796 8.039-10.592 6.803l-32.563-8.382zm-113.038-111.965-.025-34.24h3.019c11.51 0 21.216-8.742 22.096-19.903.133-1.704.047-1.091.07-30.771 0-3.933 3.21-7.116 7.213-7.116h.013c4.983.008 10.102.582 15.215 1.707 12.186 2.68 24.543 2.68 36.729 0 5.112-1.125 10.231-1.699 15.215-1.707h.013c3.989 0 7.212 3.17 7.212 7.116v28.977c0 12.308 10.279 21.698 22.167 21.698h3.04c-.482 29.077.876 23.49-.743 43.808-10.356 75.241-129.4 72.614-131.234-9.569zm6.239 103.809c2.629-2.758 5.415-5.056 8.102-6.947-.341 5.324 1.18 10.658 4.446 15.102l34.461 46.903-32.563 8.382c-4.85 1.247-9.712-1.881-10.592-6.803l-7.785-43.537c-.847-4.732.622-9.63 3.931-13.1z"/><path d="m393.969 44.508c-35.241.978-63.582 29.87-63.896 65.146-.319 36.01 21.117 39.678 26.032 66.168.76 4.089 3.167 7.516 6.453 9.673v13.99c0 12.504 10.173 22.677 22.677 22.677h21.201c12.504 0 22.677-10.173 22.677-22.677v-13.99c3.286-2.156 5.694-5.583 6.454-9.672 4.928-26.527 26.034-29.89 26.034-65.575 0-36.955-30.409-66.773-67.632-65.74zm20.144 154.976c0 4.233-3.443 7.677-7.677 7.677h-21.201c-4.233 0-7.677-3.443-7.677-7.677v-11.547h36.555zm6.733-26.546h-17.511v-15.218c4.485-1.037 8.798-2.986 12.622-5.868 3.309-2.493 3.969-7.195 1.476-10.503-2.494-3.309-7.194-3.968-10.503-1.476-6.633 4.998-15.896 4.998-22.529 0-3.307-2.492-8.011-1.831-10.503 1.476-2.493 3.308-1.833 8.01 1.476 10.503 3.921 2.955 8.355 4.921 12.962 5.936v15.15h-17.51c-5.826-31.019-26.022-33.018-25.753-63.151.24-27.175 22.118-49.53 49.312-50.284 28.59-.8 52.217 22.074 52.217 50.745-.001 29.894-19.923 31.663-25.756 62.69z"/></g></g></svg>