<svg id="Capa_1" enable-background="new 0 0 512 512" height="512" viewBox="0 0 512 512" width="512" xmlns="http://www.w3.org/2000/svg"><g><g><g><g><path d="m315.423 504.5h-119.122c-11.875 0-21.502-9.627-21.502-21.502v-82.521h162.125v82.521c.001 11.875-9.626 21.502-21.501 21.502z" fill="#bed8fb"/><path d="m271.067 400.477v82.521c0 11.875-9.627 21.502-21.502 21.502h65.858c11.875 0 21.502-9.627 21.502-21.502v-82.521z" fill="#9dc6fb"/><g><g><g><g><g><g><g><g><g><g><path d="m327.809 431.567c6.106-47.179 26.756-91.539 59.169-127.058 28.78-31.539 46.333-73.499 46.333-119.561 0-98.439-80.157-178.157-178.761-177.444-97.402.705-176.567 80.847-176.135 178.25.204 45.881 17.822 87.646 46.585 119.033 32.402 35.358 52.873 79.693 58.928 126.781h143.881z" fill="#f4e066"/></g></g></g></g></g></g></g></g><path d="m254.549 7.505c-10.772.078-21.32 1.131-31.563 3.068 82.24 15.461 144.466 87.645 144.466 174.375 0 46.062-17.552 88.022-46.333 119.561-32.413 35.519-53.063 79.879-59.169 127.058h65.858c6.106-47.179 26.756-91.539 59.169-127.058 28.78-31.539 46.333-73.498 46.333-119.561 0-98.439-80.156-178.156-178.761-177.443z" fill="#efd133"/><g><g><path d="m338.412 441.863h-165.1c-8.221 0-14.886-6.665-14.886-14.886 0-8.221 6.665-14.886 14.886-14.886h165.1c8.221 0 14.886 6.665 14.886 14.886 0 8.221-6.665 14.886-14.886 14.886z" fill="#bed8fb"/></g><g><path d="m338.412 471.635h-165.1c-8.221 0-14.886-6.665-14.886-14.886 0-8.221 6.665-14.886 14.886-14.886h165.1c8.221 0 14.886 6.665 14.886 14.886 0 8.222-6.665 14.886-14.886 14.886z" fill="#e5eaf4"/></g><g><path d="m338.412 412.091h-165.1c-8.221 0-14.886-6.665-14.886-14.886 0-8.221 6.665-14.886 14.886-14.886h165.1c8.221 0 14.886 6.665 14.886 14.886 0 8.221-6.665 14.886-14.886 14.886z" fill="#e5eaf4"/></g><path d="m338.412 382.319h-65.858c8.221 0 14.886 6.665 14.886 14.886 0 8.221-6.665 14.886-14.886 14.886h65.858c8.221 0 14.886-6.665 14.886-14.886 0-8.222-6.665-14.886-14.886-14.886z" fill="#d6e0ef"/><path d="m338.412 441.863h-65.858c8.221 0 14.886 6.665 14.886 14.886 0 8.221-6.665 14.886-14.886 14.886h65.858c8.221 0 14.886-6.665 14.886-14.886 0-8.221-6.665-14.886-14.886-14.886z" fill="#d6e0ef"/><path d="m338.412 411.764h-65.858c8.221 0 14.886 6.665 14.886 14.886 0 8.221-6.665 14.886-14.886 14.886h65.858c8.221 0 14.886-6.665 14.886-14.886 0-8.221-6.665-14.886-14.886-14.886z" fill="#9dc6fb"/></g></g></g></g></g><g><g><path d="m332.234 256.767h-152.744c-8.786 0-15.908-7.122-15.908-15.908v-88.173h184.561v88.173c0 8.785-7.123 15.908-15.909 15.908z" fill="#756e78"/><path d="m282.285 152.685v88.173c0 8.786-7.122 15.908-15.908 15.908h65.858c8.786 0 15.908-7.122 15.908-15.908v-88.173z" fill="#665e66"/><path d="m242.554 109.698-122.483 41.979c-1.438.493-1.438 2.527 0 3.019l122.483 41.979c8.626 2.956 17.99 2.956 26.615 0l122.483-41.979c1.438-.493 1.438-2.527 0-3.019l-122.482-41.979c-8.626-2.957-17.99-2.957-26.616 0z" fill="#89808c"/></g></g></g><g><path d="m255.873 0c-.458 0-.92.002-1.378.005-160.243 1.159-242.44 192.638-135.024 309.849 18.335 20.008 32.678 42.835 42.733 67.928-12.401 7.121-15.037 23.726-5.593 34.31-7.584 8.499-7.579 21.278 0 29.772-11.096 12.435-5.114 32.032 10.688 36.446v4.689c0 15.992 13.01 29.002 29.002 29.002h119.121c15.992 0 29.002-13.01 29.002-29.002v-4.689c15.801-4.413 21.785-24.01 10.688-36.446 7.585-8.5 7.58-21.278 0-29.772 9.485-10.629 6.738-27.173-5.525-34.271 10.097-25.13 24.507-48.066 42.93-68.256 108.712-119.134 22.642-309.565-136.644-309.565zm73.551 482.998c0 7.721-6.281 14.002-14.002 14.002h-119.121c-7.721 0-14.002-6.281-14.002-14.002v-3.862h147.125zm8.988-18.862h-165.1c-9.776 0-9.764-14.772 0-14.772h165.1c9.776-.001 9.765 14.772 0 14.772zm-115.426-44.545h115.425c9.777 0 9.765 14.772 0 14.772h-165.1c-9.776 0-9.764-14.772 0-14.772h14.33c4.142 0 7.5-3.357 7.5-7.5s-3.358-7.5-7.5-7.5h-14.33c-9.288 0-9.998-13.74-.794-14.728.03-.002.06-.006.09-.009.727-.069-7.395-.021 165.804-.036.22 0 .437.014.652.033.056.006.111.011.166.015 9.194 1.018 8.444 14.724-.818 14.724h-115.425c-4.142 0-7.5 3.357-7.5 7.5s3.358 7.501 7.5 7.501zm111.649-44.773h-157.466c-10.769-27.81-26.438-53.054-46.639-75.1-98.693-107.691-23.184-283.65 124.074-284.713.423-.003.843-.005 1.266-.005 146.862 0 224.984 175.506 125.567 284.453-20.271 22.216-35.996 47.549-46.802 75.365z"/><path d="m394.085 144.582-56.587-19.395c-3.916-1.342-8.184.745-9.526 4.663s.745 8.184 4.663 9.526l40.291 13.81-106.188 36.395c-7.013 2.403-14.738 2.402-21.752 0l-106.188-36.395 106.188-36.395c7.014-2.404 14.739-2.402 21.752 0l32.501 11.14c3.918 1.346 8.184-.745 9.526-4.663s-.745-8.184-4.663-9.526l-32.501-11.14c-10.148-3.479-21.328-3.479-31.479 0l-122.485 41.979c-3.677 1.262-6.146 4.721-6.146 8.607.001 3.887 2.473 7.344 6.147 8.602l38.442 13.175v65.892c0 12.907 10.501 23.408 23.408 23.408h152.745c12.907 0 23.408-10.501 23.408-23.408v-65.892l29.589-10.141v37.103c0 4.143 3.357 7.5 7.5 7.5s7.5-3.357 7.5-7.5v-48.714c0-.008.001-.016.001-.024.002-3.887-2.468-7.346-6.146-8.607zm-53.443 96.276c0 4.637-3.771 8.408-8.408 8.408h-152.745c-4.636 0-8.408-3.771-8.408-8.408v-60.751l69.042 23.663c10.172 3.486 21.348 3.472 31.479 0l69.041-23.663v60.751z"/></g></g></svg>