<svg id="Capa_1" enable-background="new 0 0 512 512" height="512" viewBox="0 0 512 512" width="512" xmlns="http://www.w3.org/2000/svg"><g><g><g><g><path d="m365.055 196.187.017-33.943c.054-60.088-48.613-108.843-108.701-108.897-60.088-.054-108.843 48.613-108.897 108.701l-.044 33.943c-.021 16.177-3.352 32.227-10.175 46.894-.095.205-.19.411-.284.616-15.059 32.887 5.706 71.456 41.535 76.413 3.477.481 7.029.731 10.638.735l133.975.12c3.609.003 7.161-.241 10.64-.715 35.838-4.893 56.673-43.424 41.672-76.338-.094-.206-.188-.412-.283-.617-6.799-14.679-10.101-30.735-10.093-46.912z" fill="#ecbe6b"/><path d="m375.429 243.717c-.094-.206-.188-.412-.283-.617-6.797-14.68-10.099-30.735-10.091-46.912l.017-33.943c.054-60.088-48.613-108.843-108.701-108.897-11.511-.01-22.604 1.773-33.021 5.077 43.932 14.02 75.733 55.184 75.689 103.76l-.017 33.943c-.008 16.177 3.294 32.232 10.091 46.912.095.205.19.411.283.617 15 32.914-5.834 71.445-41.672 76.338-3.478.475-7.03.719-10.64.715l66.034.059c3.609.003 7.161-.241 10.639-.715 35.838-4.892 56.672-43.424 41.672-76.337z" fill="#e8ae4d"/><path d="m341.493 316.869-7.031-1.453c.009.262.001.246-.02-.004l-7.128-1.473c-15.374-3.176-27.078-16.21-27.757-31.893-.023-.536-.035-1.074-.034-1.614l.054-60.078-86.712-.078-.054 60.078c0 .54-.013 1.078-.037 1.614-.707 15.683-12.434 28.696-27.814 31.844l-7.151 1.464-7.034 1.44c-7.4 1.515-14.556 3.673-21.429 6.4l106.638 160.214 106.926-160.023c-6.868-2.739-14.019-4.91-21.417-6.438z" fill="#ffece4"/><g fill="#ffddce"><path d="m334.503 315.404-.041.013.041.008c0-.008 0-.014 0-.021z"/><path d="m334.502 315.425c-.009.419-.024.474-.041-.008l-7.149-1.477c-15.374-3.176-27.078-16.21-27.757-31.893-.023-.536-.035-1.074-.034-1.614l.054-60.078-67.822-.061-.061 67.93c0 .54.011 1.078.034 1.614.679 15.684 12.383 28.718 27.757 31.893 14.693 3.035 18.443 3.662 25.642 5.868l.004-.008c20.328 6.215 38.521 17.361 53.491 32.068l24.289-36.35c-6.868-2.74-14.02-4.911-21.417-6.438z"/></g><g><path d="m172.397 164.373 21.203.019-.045 49.89-21.203-.019c-13.779-.012-24.939-11.195-24.923-24.974.016-13.774 11.194-24.929 24.968-24.916z" fill="#ffece4"/></g><g><path d="m340.191 164.523-21.203-.019-.045 49.891 21.203.019c13.779.012 24.959-11.15 24.968-24.929.009-13.775-11.148-24.949-24.923-24.962z" fill="#ffddce"/></g><g><g><path d="m268.531 131.865c-7.832 7.938-18.521 12.402-29.673 12.392l-32.57-.029c-13.338-.012-24.16 10.791-24.172 24.129l-.036 39.824c.575 40.441 33.499 73.07 74.085 73.107 40.586.036 73.568-32.534 74.216-72.974l.046-51.02c.018-19.97-16.156-36.173-36.126-36.191-9.685-.009-18.968 3.868-25.77 10.762z" fill="#ffece4"/></g></g><path d="m330.427 157.293c.018-19.969-16.156-36.173-36.126-36.19-1.077-.001-2.147.054-3.211.148 5.125 12.641 7.961 26.453 7.948 40.934l-.017 33.943c-.008 16.177 3.294 32.232 10.091 46.912.095.205.19.411.283.617 1.663 3.649 2.861 7.369 3.672 11.103 10.571-12.603 17.031-28.773 17.314-46.447z" fill="#ffddce"/></g><g><g><g><path d="m314.62 109.132 104.122-39.417c2.287-.866 2.29-4.1.004-4.97l-140.487-53.473c-13.164-5.011-27.708-5.024-40.88-.037l-140.583 53.221c-2.287.866-2.29 4.1-.004 4.97l104.051 39.604c.301.115.621.174.943.174l111.892.1c.321.001.641-.057.942-.172z" fill="#665e66"/><path d="m363.503 126.749c2.023-11.834 3.981-23.281 5.874-34.353.542-3.171-1.387-6.257-4.487-7.119-72.114-20.067-142.131-20.13-214.276-.193-3.101.857-5.036 3.939-4.499 7.111 1.873 11.076 3.81 22.526 5.812 34.364.612 3.616 4.176 5.963 7.731 5.061 65.922-16.721 130.21-16.663 196.105.176 3.554.909 7.122-1.432 7.74-5.047z" fill="#756e78"/><g><path d="m364.891 85.277c-19.379-5.393-38.607-9.327-57.766-11.83 1.733 1.561 2.637 3.94 2.22 6.379-1.402 8.2-2.836 16.585-4.302 25.158-1.361 7.957-7.385 13.882-14.73 15.581 21.718 1.885 43.495 5.622 65.45 11.232 3.553.908 7.122-1.432 7.74-5.047 2.023-11.834 3.98-23.281 5.874-34.353.543-3.172-1.387-6.258-4.486-7.12z" fill="#665e66"/></g><path d="m430.384 149.452-19.999-.018c-4.022-.004-7.142-3.513-6.675-7.508l4.217-36.076c.397-3.392 3.272-5.949 6.687-5.946l11.629.01c3.415.003 6.286 2.565 6.677 5.958l4.152 36.083c.461 3.997-2.665 7.501-6.688 7.497z" fill="#595959"/></g></g><path d="m430.384 149.452-19.999-.018c-4.022-.004-7.142-3.513-6.675-7.508l4.217-36.076c.397-3.392 3.272-5.949 6.687-5.946l11.629.01c3.415.003 6.286 2.565 6.677 5.958l4.152 36.083c.461 3.997-2.665 7.501-6.688 7.497z" fill="#665e66"/></g><g><path d="m256.002 463.361 67.917-101.643c-40.939 27.482-94.763 27.434-135.652-.122z" fill="#88a8d8"/><path d="m352.959 319.8-64.695 111.549c-7.484 12.904-19.887 19.295-32.251 19.203-12.364.07-24.755-6.343-32.216-19.261l-64.495-111.665c-56.827 17.263-96.834 72.887-96.892 137.012l-.015 17.232c-.015 16.739 12.673 30.319 28.34 30.333l330.459.297c15.667.014 28.38-13.544 28.395-30.283l.015-17.232c.059-64.124-39.848-119.82-96.645-137.185z" fill="#756e78"/><path d="m341.493 316.869-7.032-1.453c.115 3.392-.793 6.658-2.469 9.337-.005.007-.008.015-.013.022l-33.3 53.018c-.19.303-30.9 51.628-30.9 51.628-2.732 4.606-7.243 6.909-11.753 6.911-4.51-.01-9.017-2.321-11.741-6.932 0 0-30.618-51.38-30.808-51.683l-33.205-53.078c-.005-.007-.008-.015-.013-.022-1.67-2.682-2.573-5.95-2.452-9.341l-7.034 1.44c-7.4 1.515-14.556 3.673-21.429 6.4l71.8 121.889c8.072 13.703 21.479 20.507 34.855 20.433 13.376.098 26.795-6.682 34.892-20.371l72.019-121.76c-6.867-2.739-14.019-4.91-21.417-6.438z" fill="#f7ec63"/><g><path d="m352.959 319.8-20.046 34.563c30.085 26.366 48.902 66.344 48.863 110.412l-.015 17.232c-.008 8.905-3.61 16.909-9.338 22.449l48.772.044c15.667.014 28.38-13.544 28.395-30.283l.015-17.232c.058-64.124-39.849-119.82-96.646-137.185z" fill="#665e66"/></g><g><path d="m340.372 361.412 22.538-38.105c-6.868-2.74-14.02-4.91-21.417-6.438l-7.031-1.453c.115 3.392-.793 6.658-2.469 9.337-.004.007-.008.015-.013.022l-12.206 19.433c7.408 5.02 14.301 10.792 20.598 17.204z" fill="#ead633"/></g></g></g></g><path d="m428.66 366.438c-16.791-23.674-39.867-41.318-65.124-50.931 8.361-6.412 15.075-14.985 19.321-24.949 6.906-16.207 6.692-33.946-.601-49.947l-.305-.662c-13.805-29.825-7.899-48.141-9.38-77.699.009-9.861-1.224-19.64-3.664-29.131.986-1.541 1.674-3.273 1.988-5.107l5.874-34.351c.002-.013.003-.026.005-.039l36.174-13.695-.012 12.587c-6.464.761-11.686 5.858-12.458 12.466l-4.217 36.076c-.985 8.429 5.603 15.872 14.118 15.878l19.998.019h.001.011c8.498 0 15.105-7.413 14.135-15.853l-4.152-36.081c-.759-6.612-5.972-11.718-12.435-12.49l.023-25.291c0-.028-.004-.055-.004-.083-.03-4.222-2.587-7.914-6.541-9.419l-140.488-53.474c-14.89-5.667-31.299-5.685-46.204-.042l-140.581 53.221c-3.983 1.507-6.56 5.231-6.563 9.489-.005 4.259 2.564 7.989 6.545 9.505l44.593 16.974c.002.012.002.024.004.037 6.186 36.406 5.723 34.201 6.077 35.551-3.179 10.703-4.815 21.802-4.825 33.042-1.426 27.503 4.182 48.229-9.528 77.702l-.295.638c-7.323 15.993-7.569 33.732-.692 49.951 4.227 9.971 10.926 18.557 19.276 24.984-24.836 9.401-48.112 26.787-65.223 50.827-18.681 26.247-28.57 57.538-28.599 90.49l-.016 17.231c-.021 20.818 15.922 38.12 35.833 38.138h330.459.03c19.763-.001 35.852-16.94 35.871-37.776l.016-17.231c.029-32.963-9.807-64.277-28.445-90.555zm-3.112-259.023 3.975 34.537-18.263-.017 4.036-34.529c3.457.003 6.461.005 10.252.009zm-56.49 177.264c-4.881 11.453-14.034 20.465-25.295 25.006-.731-.157-14.832-3.07-14.932-3.09-12.396-2.561-21.808-13.075-21.808-26.155l.008-9.383c2.243-1.788 4.411-3.693 6.482-5.732 12.113-11.926 20.033-27.009 23.023-43.414l3.605.003h.03c6.898 0 13.465-2.145 18.951-6.11 1.716 10.646 4.823 20.952 9.229 30.468l.256.556c5.524 12.124 5.684 25.567.451 37.851zm-153.152 82.777-29.023-46.392c18.9-4.063 33.344-20.338 33.425-40.588 22.533 11.06 49.163 11.084 71.717.065.044 20.231 14.439 36.547 33.352 40.647l-29.107 46.34c-26.016 9.757-54.366 9.731-80.364-.072zm68.74 19.175c-4.54 7.585-11.776 19.676-23.317 38.964-2.57 4.332-8.027 4.323-10.601-.034-10.318-17.315-18.071-30.323-23.232-38.981 18.278 4.184 37.661 4.476 57.15.051zm-112.242-229.758c-.011 0-.02 0-.03 0-6.398 0-12.366 1.871-17.399 5.083.015-7.671.895-15.263 2.605-22.67 1.31.053 2.631-.068 3.922-.396 34.202-8.675 67.899-12.748 101.621-12.226-15.22 15.335-33.257 8.36-56.828 10.064-.01 0-.019 0-.028 0-13.393 0-24.865 8.368-29.478 20.149zm2.209 15.002-.031 34.89-2.223-.002c-9.554-.008-17.347-7.688-17.422-17.308v-.31c.094-9.54 7.879-17.272 17.437-17.272h.016zm15.003-3.512c.009-9.177 7.477-16.636 16.651-16.636h.015c22.168-2.011 46.553 6.722 67.587-14.595 11.032-11.181 29.316-11.505 40.682-.118 10.962 10.979 7.869 23.758 8.369 27.486v.007s0 .004 0 .007c-3.01 27.299 9.671 60.972-19.932 90.121-25.922 25.524-67.622 25.582-93.599-.084-11.195-11.062-17.988-25.426-19.486-40.915-.005-.066-.01-.132-.017-.198-.583-6.229-.175-6.333-.27-45.075zm148.304-11.341c-.044-8.305-2.399-16.244-6.75-23.096 14.593 2.873 21.472 4.936 23.785 5.335 1.725 7.467 2.61 15.123 2.614 22.845-9.358-5.972-18.751-4.969-19.649-5.084zm19.639 31.344-.001 2.266c-.277 4.225-2.039 8.162-5.062 11.182-3.294 3.289-7.671 5.1-12.325 5.1-.006 0-.012 0-.017 0l-2.271-.002.031-34.89 2.271.002c9.241.008 16.8 7.244 17.374 16.342zm-212.853-108.727-33.326-12.685 128.654-48.705c11.471-4.343 24.098-4.329 35.557.032l128.565 48.935-33.349 12.625c-1.175-.776-2.48-1.393-3.906-1.79-54.944-15.29-107.991-19.147-162.182-11.786-4.103.558-6.979 4.337-6.422 8.44.558 4.104 4.333 6.982 8.441 6.423 51.772-7.031 102.506-3.409 155.062 11.075l-5.471 31.998c-66.635-16.815-131.309-16.686-197.226-.176l-5.413-32.009c6.273-1.717 12.601-3.296 18.825-4.699 4.041-.911 6.578-4.926 5.667-8.966-.911-4.041-4.926-6.574-8.966-5.667-3.934.888-21.111 4.718-24.51 6.955zm-1.439 204.837c-5.212-12.294-5.026-25.735.511-37.829l.275-.598c4.421-9.504 7.547-19.809 9.28-30.46 5.494 4 12.085 6.168 19.013 6.175l3.557.003c2.961 16.41 10.853 31.506 22.944 43.454 2.067 2.043 4.232 3.951 6.471 5.744-.017 9.363.012 9.565-.038 10.665-.546 12.103-9.521 22.316-21.889 24.848-5.099 1.089-9.919 1.974-14.865 3.053-11.257-4.561-20.398-13.59-25.259-25.055zm298.822 189.734c-.011 12.57-9.372 22.79-20.871 22.79-.005 0-.011 0-.017 0l-35.312-.032.046-50.834c.004-4.143-3.351-7.503-7.493-7.507-.003 0-.005 0-.007 0-4.139 0-7.496 3.353-7.5 7.493l-.046 50.834-229.81-.207.045-50.614c.004-4.143-3.352-7.503-7.493-7.507-.002 0-.005 0-.007 0-4.139 0-7.496 3.353-7.5 7.493l-.045 50.614-35.337-.032c-11.281-.01-20.86-9.969-20.847-22.827l.016-17.231c.026-29.822 8.955-58.111 25.82-81.807 13.145-18.468 30.719-33.066 50.513-42.21l19.699 33.442c2.087 3.544 6.676 4.772 10.268 2.655 3.569-2.103 4.758-6.699 2.655-10.268l-18.445-31.311c3.271-1.026 6.401-1.891 11.339-2.967 1.695 4.644 2.37 4.43 35.326 57.466.885 1.474 20.438 34.283 30.741 51.572 8.372 14.167 28.045 14.116 36.386.057 10.449-17.463 30.348-50.716 30.816-51.49l33.301-53.018h-.001c.735-1.147 1.537-2.733 2.163-4.44 4.229.905 7.592 1.806 11.332 2.991l-67.39 113.934c-13.18 22.289-43.669 22.284-56.829-.052l-30.931-52.509c-2.103-3.57-6.699-4.756-10.268-2.655-3.569 2.103-4.758 6.699-2.655 10.268l30.931 52.509c18.957 32.183 63.663 32.206 82.663.074l68.647-116.059c19.775 9.18 37.321 23.806 50.431 42.289 16.827 23.724 25.707 52.033 25.68 81.864z"/></g></svg>