<svg id="Capa_1" enable-background="new 0 0 512 512" height="512" viewBox="0 0 512 512" width="512" xmlns="http://www.w3.org/2000/svg"><g><g><g><path d="m375.961 7.5h-227.974c-10.798 0-21.154 4.29-28.79 11.925l-77.087 77.087c-7.636 7.636-11.925 17.992-11.925 28.79v333.706c0 25.124 20.367 45.492 45.492 45.492h300.284c25.124 0 45.492-20.367 45.492-45.492v-406.016c0-25.125-20.367-45.492-45.492-45.492z" fill="#f7f4f7"/><path d="m375.961 7.5h-65.044c25.125 0 45.492 20.367 45.492 45.492v406.016c0 25.125-20.367 45.492-45.492 45.492h65.044c25.125 0 45.492-20.367 45.492-45.492v-406.016c0-25.125-20.367-45.492-45.492-45.492z" fill="#e0dde0"/><path d="m115.467 108.437c8.646 0 15.655-7.009 15.655-15.655v-81.614c-4.395 2.001-8.445 4.777-11.925 8.257l-77.087 77.087c-3.48 3.48-6.256 7.53-8.257 11.925z" fill="#efd133"/></g><g><path d="m462.99 274.276h-301.866c-10.397 0-18.825-8.428-18.825-18.825v-100.929c0-10.397 8.428-18.825 18.825-18.825h301.866c10.397 0 18.825 8.428 18.825 18.825v100.929c0 10.397-8.428 18.825-18.825 18.825z" fill="#88a8d8"/><path d="m462.99 454.844h-301.866c-10.397 0-18.825-8.428-18.825-18.825v-100.928c0-10.397 8.428-18.825 18.825-18.825h301.866c10.397 0 18.825 8.428 18.825 18.825v100.929c0 10.396-8.428 18.824-18.825 18.824z" fill="#b3e59f"/></g><g><path d="m462.99 135.698h-65.404c10.397 0 18.825 8.428 18.825 18.825v100.929c0 10.397-8.428 18.825-18.825 18.825h65.404c10.397 0 18.825-8.428 18.825-18.825v-100.929c0-10.397-8.428-18.825-18.825-18.825z" fill="#7296d1"/><path d="m462.99 316.266h-65.404c10.397 0 18.825 8.428 18.825 18.825v100.929c0 10.397-8.428 18.825-18.825 18.825h65.404c10.397 0 18.825-8.428 18.825-18.825v-100.929c0-10.397-8.428-18.825-18.825-18.825z" fill="#95d6a4"/></g></g><g><path d="m244.839 227.587c4.346-6.466 6.886-14.242 6.886-22.601 0-22.396-18.221-40.617-40.617-40.617s-40.617 18.221-40.617 40.617 18.221 40.618 40.617 40.618c8.628 0 16.63-2.712 23.215-7.318l4.854 4.854c2.931 2.929 7.678 2.928 10.607 0 2.929-2.93 2.929-7.678 0-10.607zm-10.935-10.935-5.308-5.308c-2.93-2.928-7.678-2.928-10.607 0-2.929 2.93-2.929 7.678 0 10.607l5.47 5.471c-3.665 2.026-7.875 3.183-12.35 3.183-14.125 0-25.617-11.492-25.617-25.618 0-14.125 11.492-25.617 25.617-25.617s25.617 11.492 25.617 25.617c0 4.2-1.023 8.163-2.822 11.665z"/><path d="m191.971 421.343 4.355-11.434h29.606l4.307 11.412c3.505 9.29 17.54 3.995 14.033-5.297l-24.645-65.305c-.025-.068-.053-.138-.081-.205-1.395-3.389-4.66-5.576-8.324-5.576-.003 0-.008 0-.012 0-3.667.004-6.933 2.201-8.32 5.597-.022.055-.044.11-.065.167l-24.871 65.301c-3.531 9.267 10.482 14.62 14.017 5.34zm19.225-50.48 9.074 24.046h-18.233z"/><path d="m434.108 179.138h-145.597c-4.143 0-7.5 3.357-7.5 7.5s3.357 7.5 7.5 7.5h145.598c4.143 0 7.5-3.357 7.5-7.5s-3.358-7.5-7.501-7.5z"/><path d="m361.31 215.836h-72.799c-4.143 0-7.5 3.357-7.5 7.5s3.357 7.5 7.5 7.5h72.799c4.143 0 7.5-3.357 7.5-7.5s-3.358-7.5-7.5-7.5z"/><path d="m288.511 374.706h145.598c4.143 0 7.5-3.357 7.5-7.5s-3.357-7.5-7.5-7.5h-145.598c-4.143 0-7.5 3.357-7.5 7.5s3.357 7.5 7.5 7.5z"/><path d="m288.511 411.404h72.799c4.143 0 7.5-3.357 7.5-7.5s-3.357-7.5-7.5-7.5h-72.799c-4.143 0-7.5 3.357-7.5 7.5s3.357 7.5 7.5 7.5z"/><path d="m462.99 281.775c14.516 0 26.325-11.809 26.325-26.324v-100.929c0-14.516-11.81-26.325-26.325-26.325h-34.037v-23.387c0-4.143-3.357-7.5-7.5-7.5s-7.5 3.357-7.5 7.5v23.388h-252.829c-14.516 0-26.325 11.81-26.325 26.325v100.929c0 14.516 11.81 26.324 26.325 26.324h252.829v26.991h-252.829c-14.516 0-26.325 11.809-26.325 26.324v32.921c0 4.143 3.357 7.5 7.5 7.5s7.5-3.357 7.5-7.5v-32.921c0-6.244 5.08-11.324 11.325-11.324h301.866c6.245 0 11.325 5.08 11.325 11.324v100.929c0 6.245-5.08 11.325-11.325 11.325h-301.866c-6.245 0-11.325-5.08-11.325-11.325v-32.921c0-4.143-3.357-7.5-7.5-7.5s-7.5 3.357-7.5 7.5v32.921c0 14.516 11.81 26.325 26.325 26.325h252.674c-1.696 19.391-18.013 34.655-37.837 34.655h-300.284c-20.949 0-37.992-17.043-37.992-37.991v-333.707c0-3.216.46-6.361 1.338-9.364h76.444c12.768 0 23.155-10.388 23.155-23.155v-76.445c3.003-.878 6.148-1.338 9.364-1.338h227.975c20.949 0 37.992 17.043 37.992 37.991v16.732c0 4.143 3.357 7.5 7.5 7.5s7.5-3.357 7.5-7.5v-16.732c0-29.22-23.772-52.991-52.992-52.991h-227.975c-12.878 0-24.986 5.015-34.092 14.121l-77.087 77.087c-9.106 9.107-14.122 21.215-14.122 34.094v333.707c0 29.22 23.772 52.991 52.992 52.991h300.284c28.098 0 51.147-21.985 52.876-49.655h34.153c14.516 0 26.325-11.81 26.325-26.325v-100.929c0-14.516-11.81-26.324-26.325-26.324h-34.037v-26.991h34.037zm-339.368-256.168v67.175c0 4.497-3.658 8.155-8.155 8.155h-67.175zm37.502 241.168c-6.245 0-11.325-5.08-11.325-11.324v-100.929c0-6.245 5.08-11.325 11.325-11.325h301.866c6.245 0 11.325 5.08 11.325 11.325v100.929c0 6.244-5.08 11.324-11.325 11.324z"/></g></g></svg>