<svg id="Capa_1" enable-background="new 0 0 512 512" height="512" viewBox="0 0 512 512" width="512" xmlns="http://www.w3.org/2000/svg"><g><g><g><g><g><g><g><path d="m33.907 243.253h444.182v224.526h-444.182z" fill="#f7f4f7"/></g><path d="m412.809 243.253h65.28v224.526h-65.28z" fill="#e0dde0"/><path d="m90.036 228.499h201.266v239.28h-201.266z" fill="#e0dde0"/><path d="m501.409 239.517-70.933-51.288c-1.26-.911-2.776-1.402-4.331-1.402h-170.147-170.147c-1.555 0-3.071.491-4.331 1.402l-70.933 51.288c-5.81 4.201-2.838 13.382 4.331 13.382h241.08 241.08c7.169 0 10.141-9.181 4.331-13.382z" fill="#e07f84"/><path d="m501.409 239.517-70.933-51.288c-1.26-.911-2.776-1.402-4.331-1.402h-43.781l42.225 30.531c15.43 11.157 7.538 35.541-11.503 35.541h83.992c7.169 0 10.141-9.181 4.331-13.382z" fill="#db636e"/><g><path d="m356.631 467.779h-201.266v-338.399l100.633-73.158 100.633 73.158z" fill="#f7f4f7"/><path d="m255.998 56.222-32.826 23.864 58.547 42.563c5.817 4.229 9.26 10.987 9.26 18.179v326.951h65.653v-338.399z" fill="#e0dde0"/><g><path d="m387.224 153.058c-3.435 0-6.902-1.043-9.899-3.21l-121.327-87.725-121.327 87.726c-7.573 5.475-18.15 3.775-23.623-3.797-5.475-7.572-3.775-18.148 3.797-23.623l131.24-94.893c5.917-4.278 13.909-4.278 19.826 0l131.24 94.893c7.571 5.474 9.272 16.05 3.797 23.623-3.308 4.575-8.479 7.006-13.724 7.006z" fill="#e07f84"/></g></g></g><path d="m487.533 487.682h-463.069c-9.362 0-16.951-7.589-16.951-16.951 0-9.362 7.589-16.951 16.951-16.951h463.069c9.362 0 16.951 7.589 16.951 16.951 0 9.362-7.589 16.951-16.951 16.951z" fill="#808080"/><path d="m487.533 453.78h-64.434c9.362 0 16.951 7.589 16.951 16.951v16.951h47.483c9.362 0 16.951-7.589 16.951-16.951s-7.589-16.951-16.951-16.951z" fill="#595959"/></g><circle cx="255.998" cy="159.258" fill="#f4e066" r="47.997"/></g><path d="m214.501 348.139h82.995v105.641h-82.995z" fill="#e8ae4d"/><g><g fill="#9dc6fb"><path d="m117.85 335.468h-38.81c-3.918 0-7.094-3.176-7.094-7.094v-26.104c0-3.918 3.176-7.094 7.094-7.094h38.81c3.918 0 7.094 3.176 7.094 7.094v26.105c-.001 3.917-3.177 7.093-7.094 7.093z"/><path d="m117.85 417.036h-38.81c-3.918 0-7.094-3.176-7.094-7.094v-26.105c0-3.918 3.176-7.094 7.094-7.094h38.81c3.918 0 7.094 3.176 7.094 7.094v26.105c-.001 3.918-3.177 7.094-7.094 7.094z"/></g><g fill="#88a8d8"><path d="m117.85 295.176h-27.814v40.292h27.814c3.918 0 7.094-3.176 7.094-7.094v-26.104c-.001-3.918-3.177-7.094-7.094-7.094z"/><path d="m117.85 376.744h-27.814v40.292h27.814c3.918 0 7.094-3.176 7.094-7.094v-26.105c-.001-3.917-3.177-7.093-7.094-7.093z"/></g><g fill="#9dc6fb"><path d="m432.956 335.468h-38.81c-3.918 0-7.094-3.176-7.094-7.094v-26.104c0-3.918 3.176-7.094 7.094-7.094h38.81c3.918 0 7.094 3.176 7.094 7.094v26.105c0 3.917-3.176 7.093-7.094 7.093z"/><path d="m432.956 417.036h-38.81c-3.918 0-7.094-3.176-7.094-7.094v-26.105c0-3.918 3.176-7.094 7.094-7.094h38.81c3.918 0 7.094 3.176 7.094 7.094v26.105c0 3.918-3.176 7.094-7.094 7.094z"/></g><g fill="#88a8d8"><path d="m432.956 295.176h-20.148v40.292h20.148c3.918 0 7.094-3.176 7.094-7.094v-26.104c0-3.918-3.176-7.094-7.094-7.094z"/><path d="m432.956 376.744h-20.148v40.292h20.148c3.918 0 7.094-3.176 7.094-7.094v-26.105c0-3.917-3.176-7.093-7.094-7.093z"/></g></g></g><path d="m304.021 295.176h-96.047c-4.542 0-8.223-3.682-8.223-8.224v-35.476c0-4.542 3.682-8.223 8.223-8.223h96.047c4.542 0 8.224 3.682 8.224 8.223v35.476c0 4.542-3.682 8.224-8.224 8.224z" fill="#9dc6fb"/><path d="m304.022 243.253h-13.043v51.923h13.043c4.542 0 8.223-3.682 8.223-8.223v-35.476c0-4.542-3.682-8.224-8.223-8.224z" fill="#88a8d8"/></g><g><path d="m397.151 122.429-64.868-46.903c4.105 5.405 6.545 12.144 6.545 19.456v27.031l38.497 27.835c2.997 2.167 6.463 3.21 9.899 3.21 5.245 0 10.416-2.431 13.724-7.006 5.475-7.573 3.775-18.149-3.797-23.623z" fill="#db636e"/></g><g><path d="m261.238 175.103c2.93 2.929 7.677 2.928 10.606 0 2.929-2.93 2.929-7.677 0-10.607l-8.346-8.345v-18.807c0-4.142-3.358-7.5-7.5-7.5s-7.5 3.357-7.5 7.5v21.913c0 1.989.79 3.896 2.197 5.303z"/><path d="m487.533 446.28h-1.944v-31.057c0-4.142-3.358-7.5-7.5-7.5s-7.5 3.357-7.5 7.5v31.057h-106.458v-185.882h106.459v119.6c0 4.142 3.358 7.5 7.5 7.5s7.5-3.357 7.5-7.5v-119.6h11.49c6.581 0 12.142-4.046 14.168-10.306 2.026-6.261-.11-12.797-5.443-16.652l-70.934-51.289c-2.556-1.847-5.572-2.823-8.724-2.823h-62.014v-29.765l8.802 6.365c11.007 7.954 26.257 5.357 34.092-5.481 7.907-10.935 5.459-26.186-5.48-34.095l-131.24-94.893c-8.558-6.188-20.057-6.186-28.614 0l-131.24 94.893c-10.936 7.906-13.388 23.156-5.481 34.095 7.922 10.956 23.18 13.371 34.095 5.48l8.801-6.363v29.764h-62.017c-3.153 0-6.17.977-8.726 2.824l-70.931 51.288c-11.695 8.455-5.73 26.958 8.725 26.958h11.49v37.393c0 4.142 3.358 7.5 7.5 7.5s7.5-3.357 7.5-7.5v-37.393h106.459v185.882h-106.461v-113.428c0-4.142-3.358-7.5-7.5-7.5s-7.5 3.357-7.5 7.5v113.428h-1.944c-13.482 0-24.451 10.968-24.451 24.451s10.969 24.451 24.451 24.451h463.069c13.482 0 24.451-10.968 24.451-24.451s-10.968-24.451-24.45-24.451zm-61.451-251.973 70.654 51.092h-132.605v-51.074zm-295.806-50.536c-4.222 3.056-10.106 2.099-13.151-2.113-3.05-4.217-2.107-10.101 2.113-13.151l131.24-94.893c3.301-2.387 7.737-2.387 11.037 0l131.241 94.893c4.218 3.049 5.164 8.931 2.113 13.151-3.131 4.332-9.038 5.087-13.151 2.113l-121.326-87.726c-2.623-1.896-6.167-1.894-8.789 0zm181.969 196.869h-112.494c-4.142 0-7.5 3.357-7.5 7.5s3.358 7.5 7.5 7.5h7.25v90.641h-44.136v-307.563l93.133-67.341 93.133 67.341v307.562h-44.136v-90.641h7.25c4.142 0 7.5-3.357 7.5-7.5s-3.358-7.499-7.5-7.499zm-22.249 14.999v90.641h-67.996v-90.641zm-274.737-110.245 70.593-51.067h62.014v51.072zm472.274 234.788h-463.069c-5.212 0-9.452-4.24-9.452-9.452s4.24-9.452 9.452-9.452h463.069c5.212 0 9.452 4.24 9.452 9.452s-4.241 9.452-9.452 9.452z"/><path d="m255.998 214.754c30.601 0 55.497-24.896 55.497-55.497s-24.896-55.497-55.497-55.497-55.497 24.896-55.497 55.497 24.896 55.497 55.497 55.497zm0-95.994c22.33 0 40.498 18.167 40.498 40.498s-18.167 40.498-40.498 40.498-40.498-18.167-40.498-40.498 18.168-40.498 40.498-40.498z"/><path d="m319.745 251.477c0-8.67-7.053-15.724-15.723-15.724h-96.046c-8.67 0-15.723 7.053-15.723 15.724v35.476c0 8.67 7.053 15.724 15.723 15.724h96.046c8.67 0 15.723-7.053 15.723-15.724zm-71.246 36.2h-40.524c-.399 0-.724-.325-.724-.725v-35.476c0-.399.325-.725.724-.725h40.524zm56.246-.725c0 .399-.325.725-.724.725h-40.524v-36.925h40.524c.399 0 .724.325.724.725z"/><path d="m79.04 342.968h38.809c8.047 0 14.593-6.547 14.593-14.593v-26.105c0-8.046-6.547-14.593-14.593-14.593h-38.809c-8.047 0-14.593 6.547-14.593 14.593v26.105c0 8.046 6.546 14.593 14.593 14.593zm.406-40.292h37.998v25.292h-37.998z"/><path d="m64.447 409.942c0 8.047 6.547 14.594 14.593 14.594h38.809c8.047 0 14.593-6.547 14.593-14.594v-26.105c0-8.046-6.547-14.593-14.593-14.593h-38.809c-8.047 0-14.593 6.547-14.593 14.593zm14.999-25.698h37.998v25.293h-37.998z"/><path d="m447.55 302.27c0-8.046-6.546-14.593-14.593-14.593h-38.809c-8.047 0-14.593 6.547-14.593 14.593v26.105c0 8.046 6.546 14.593 14.593 14.593h38.809c8.047 0 14.593-6.547 14.593-14.593zm-14.999 25.699h-37.998v-25.292h37.998z"/><path d="m432.956 369.244h-38.809c-8.047 0-14.593 6.547-14.593 14.593v26.105c0 8.047 6.546 14.594 14.593 14.594h38.809c8.047 0 14.593-6.547 14.593-14.594v-26.105c.001-8.046-6.546-14.593-14.593-14.593zm-.405 40.293h-37.998v-25.293h37.998z"/></g></g></svg>